<svg width="48" height="48" viewBox="0 0 48 48" fill="none" xmlns="http://www.w3.org/2000/svg">
<path d="M35.8464 10.089C33.8259 8.63522 31.3753 7.9031 28.8885 8.0103C24.818 8.0103 20.4335 9.56764 15.7548 12.6489L15.6345 12.7425L15.1599 13.0432L14.7923 13.2905C13.8479 13.9394 12.9418 14.6424 12.0786 15.3959C10.0735 17.3209 7.84778 20.5091 8.00819 23.2361C8.0161 23.7707 8.13967 24.2972 8.37043 24.7795C8.60119 25.2618 8.93365 25.6884 9.34496 26.03C10.2063 26.6709 11.2596 27.0007 12.3326 26.9657C14.7631 26.7545 17.0988 25.9238 19.1167 24.5528L19.4576 24.3389L20.3933 23.7173L20.7075 23.5034C23.2152 21.6529 25.9515 20.1343 28.8484 18.9852C29.5084 18.7318 30.207 18.5939 30.9137 18.5775C31.211 18.5778 31.5072 18.6137 31.796 18.6844C32.2292 18.7581 32.6379 18.9359 32.9872 19.2026C33.3365 19.4692 33.6158 19.8166 33.8011 20.215C34.1302 21.1346 34.2627 22.1129 34.1902 23.0869C34.1177 24.0609 33.8417 25.0088 33.3801 25.8695C31.8098 29.0203 29.5805 31.7967 26.8433 34.0105C25.5222 35.1749 24.0868 36.2027 22.5589 37.0783H22.4386C21.7969 37.4558 21.1264 37.7821 20.4335 38.0542H20.3399C20.1547 38.1325 19.965 38.1995 19.7718 38.2547C16.7841 39.0701 18.6021 36.4233 18.6021 36.4233C19.2863 35.7082 20.0164 35.0384 20.7877 34.4182C21.1954 34.0506 21.6165 33.6562 22.0376 33.2217L22.1312 33.1282C22.4821 32.8591 22.7707 32.5172 22.9772 32.1261C23.1837 31.7351 23.3032 31.3039 23.3275 30.8624C23.2177 30.2252 22.884 29.6482 22.3865 29.2352C21.889 28.8223 21.2604 28.6005 20.6139 28.6099H20.4802C19.2971 28.6999 18.1745 29.1686 17.2787 29.9467C16.4388 30.6398 15.7106 31.4581 15.1198 32.3729C14.2776 33.6362 12.6535 36.8645 14.2776 39.431C14.6286 39.9543 15.1128 40.3744 15.6803 40.6481C16.2477 40.9219 16.8779 41.0394 17.5059 40.9884C18.7767 40.9323 20.0287 40.6611 21.2088 40.1863C23.0622 39.4762 24.8327 38.5663 26.489 37.4727L26.9235 37.1986C28.718 36.0716 30.419 34.802 32.0099 33.4022C35.3872 30.6825 37.9229 27.0597 39.322 22.9554C40.1902 20.504 40.3135 17.8504 39.6762 15.3291C39.031 13.1985 37.6805 11.3506 35.8464 10.089Z" fill="#E20714"/>
</svg>
