<svg width="48" height="48" viewBox="0 0 48 48" fill="none" xmlns="http://www.w3.org/2000/svg">
<path d="M37.2511 8.3095C34.9836 6.678 32.2334 5.85637 29.4425 5.97668C24.8744 5.97668 19.9537 7.72443 14.7029 11.1824L14.5679 11.2874L14.0353 11.625L13.6228 11.9025C12.5629 12.6307 11.5461 13.4196 10.5773 14.2654C8.32702 16.4257 5.82917 20.0037 6.00919 23.0641C6.01807 23.6641 6.15675 24.255 6.41572 24.7962C6.67469 25.3375 7.04781 25.8162 7.50941 26.1996C8.47609 26.9188 9.65811 27.289 10.8624 27.2497C13.59 27.0127 16.2113 26.0804 18.476 24.5418L18.8585 24.3018L19.9087 23.6042L20.2612 23.3642C23.0755 21.2874 26.1464 19.583 29.3975 18.2934C30.1382 18.0091 30.9222 17.8543 31.7154 17.8359C32.049 17.8363 32.3814 17.8765 32.7055 17.9559C33.1916 18.0386 33.6504 18.2382 34.0424 18.5374C34.4344 18.8366 34.7478 19.2265 34.9558 19.6736C35.3251 20.7057 35.4739 21.8036 35.3925 22.8967C35.3111 23.9898 35.0013 25.0536 34.4832 26.0195C32.7211 29.5556 30.2192 32.6715 27.1472 35.1559C25.6646 36.4627 24.0537 37.6162 22.339 38.5988H22.204C21.4838 39.0225 20.7314 39.3887 19.9537 39.694H19.8487C19.6409 39.7819 19.428 39.8571 19.2111 39.919C15.8581 40.8342 17.8984 37.8637 17.8984 37.8637C18.6663 37.0612 19.4857 36.3095 20.3512 35.6134C20.8088 35.2009 21.2814 34.7583 21.7539 34.2707L21.859 34.1657C22.2528 33.8637 22.5767 33.4801 22.8085 33.0411C23.0402 32.6022 23.1743 32.1184 23.2016 31.6228C23.0784 30.9078 22.7039 30.2602 22.1455 29.7967C21.5872 29.3333 20.8817 29.0844 20.1562 29.095H20.0062C18.6784 29.196 17.4185 29.722 16.4132 30.5952C15.4706 31.3731 14.6534 32.2915 13.9903 33.3181C13.0452 34.7358 11.2224 38.3588 13.0452 41.2392C13.4391 41.8264 13.9825 42.2979 14.6193 42.6051C15.2562 42.9123 15.9634 43.0442 16.6682 42.987C18.0943 42.924 19.4995 42.6197 20.8238 42.0868C22.9038 41.2899 24.8908 40.2688 26.7496 39.0414L27.2372 38.7338C29.2512 37.469 31.1601 36.0442 32.9455 34.4732C36.7358 31.421 39.5816 27.3553 41.1517 22.7491C42.1261 19.9979 42.2644 17.02 41.5493 14.1904C40.8252 11.7993 39.3095 9.72543 37.2511 8.3095Z" fill="#E20714"/>
</svg>
