<svg width="48" height="48" viewBox="0 0 48 48" fill="none" xmlns="http://www.w3.org/2000/svg">
<path d="M15.3592 14.5618C14.356 14.5618 13.3033 15.0273 12.4857 15.7531L12.394 15.1304C12.3706 14.9735 12.2451 14.8409 12.0615 14.8409H11.1885C11.0288 14.8409 10.8986 14.9714 10.8986 15.1304C10.8986 19.0921 10.8986 23.0542 10.8986 27.0159C10.8986 27.1752 11.0292 27.3054 11.1885 27.3054H12.3293C12.4886 27.3054 12.6188 27.1748 12.6188 27.0159V22.9115C13.3425 23.5568 14.2835 23.928 15.2895 23.928C17.6796 23.928 19.0927 21.8587 19.0927 19.2835C19.0927 16.8768 18.1688 14.5618 15.3592 14.5618ZM16.5008 21.9297C16.0562 22.368 15.5598 22.4873 14.8124 22.4873C14.1471 22.4873 13.272 22.1403 12.6184 21.6573V16.7925C13.2991 16.2699 14.1671 15.9871 14.8908 15.9871C16.7803 15.9871 17.295 17.4728 17.295 19.1742C17.3058 20.3213 17.0948 21.344 16.5008 21.9297Z" fill="#333E47"/>
<path d="M27.4474 23.4216C27.4474 23.581 27.3168 23.7111 27.1567 23.7111H26.3049C26.121 23.7111 25.9954 23.5781 25.9717 23.4216L25.8862 22.8419C25.4949 23.1731 25.0144 23.4642 24.4934 23.6669C23.492 24.0561 22.337 24.1203 21.3584 23.5193C20.6506 23.085 20.2752 22.2358 20.2752 21.3595C20.2752 20.6817 20.4842 20.0097 20.9472 19.5221C21.5649 18.8556 22.4609 18.5281 23.542 18.5281C24.1952 18.5281 25.1299 18.6049 25.8102 18.8272V17.6605C25.8102 16.4743 25.311 15.9612 23.9942 15.9612C22.9877 15.9612 22.2177 16.1131 21.1465 16.4463C20.9751 16.4522 20.8746 16.3216 20.8746 16.1623V15.497C20.8746 15.3372 21.011 15.1829 21.1586 15.1362C21.9236 14.8025 23.0077 14.5948 24.1597 14.5564C25.6618 14.5564 27.447 14.8951 27.447 17.2055V23.4216H27.4474ZM25.8107 21.7182V19.958C25.2392 19.8016 24.2932 19.7369 23.9274 19.7369C23.3493 19.7369 22.7161 19.8737 22.3854 20.2295C22.1384 20.4906 22.0267 20.8652 22.0267 21.2272C22.0267 21.6957 22.1885 22.1653 22.5672 22.3976C23.0069 22.6963 23.6888 22.66 24.3295 22.4777C24.9452 22.3034 25.5237 21.9939 25.8107 21.7182Z" fill="#333E47"/>
<path d="M29.0587 27.0005C29.0587 26.7844 29.0587 26.5904 29.0587 26.3744C29.0587 26.1963 29.1463 26.0732 29.3319 26.0845C29.679 26.1337 30.1695 26.1829 30.5182 26.1112C30.9733 26.0165 31.2994 25.6941 31.4926 25.2519C31.7645 24.6296 31.9447 24.1278 32.0586 23.7987L28.6041 15.2405C28.5457 15.0953 28.5286 14.8259 28.8185 14.8259H30.026C30.2562 14.8259 30.3501 14.9723 30.4018 15.1153L32.9066 22.0669L35.2974 15.1153C35.3462 14.9731 35.4443 14.8259 35.6724 14.8259H36.8111C37.0993 14.8259 37.0831 15.0949 37.0255 15.2405L33.5985 24.0657C33.1552 25.2403 32.5645 27.1114 31.2339 27.4363C30.567 27.6107 29.7253 27.5477 29.231 27.3408C29.1063 27.2782 29.0587 27.111 29.0587 27.0005Z" fill="#333E47"/>
<path d="M40.2973 26.6438C39.1294 26.6601 37.7504 26.9216 36.7043 27.6557C36.3815 27.8797 36.4382 28.1909 36.7973 28.1496C37.9736 28.0082 40.5918 27.6908 41.0598 28.2889C41.529 28.887 40.5409 31.3547 40.1042 32.4583C39.969 32.7874 40.2547 32.9238 40.5563 32.6736C42.5134 31.0343 43.0218 27.5978 42.6214 27.1035C42.4208 26.8561 41.4652 26.6276 40.2973 26.6438Z" fill="#F79C34"/>
<path d="M5.47868 27.8952C5.20589 27.9327 5.08827 28.2785 5.37357 28.5525C10.275 33.1499 16.7523 35.401 23.9437 35.401C29.0729 35.401 35.028 33.7276 39.1386 30.5738C39.8181 30.0495 39.2391 29.2637 38.5421 29.574C33.9335 31.6074 28.9273 32.5876 24.3712 32.5876C17.6187 32.5876 11.0821 31.1778 5.7936 27.9757C5.67848 27.9056 5.56961 27.8826 5.47868 27.8952Z" fill="#F79C34"/>
</svg>
