<svg width="48" height="48" viewBox="0 0 48 48" fill="none" xmlns="http://www.w3.org/2000/svg">
<path d="M24.0316 8C25.6789 10.8199 27.3261 13.6082 28.9123 16.4282C26.3138 21.0219 23.7153 25.6495 21.0219 30.2115C19.9757 31.9537 18.9928 33.7297 17.9489 35.4718C14.6228 35.5035 11.2945 35.5035 8 35.4718C8.0949 35.2504 8.1898 35.0289 8.31634 34.8075C13.5744 25.8709 18.8346 16.9682 24.0316 8Z" fill="#AE285D"/>
<path d="M24.0316 25.1117C27.3577 25.1117 30.6861 25.0801 34.0121 25.1433C36.0073 28.5982 38.0364 32.0192 40 35.5057C36.6739 35.5373 33.3456 35.5057 30.0195 35.5057C28.0559 32.0192 25.9952 28.596 24.0316 25.1117Z" fill="#AE285D"/>
</svg>
