<svg width="48" height="48" viewBox="0 0 48 48" fill="none" xmlns="http://www.w3.org/2000/svg">
<path d="M24.0376 7.65998C25.9936 11.0087 27.9497 14.3198 29.8334 17.6685C26.7476 23.1235 23.6619 28.6187 20.4635 34.0362C19.2212 36.105 18.0539 38.214 16.8143 40.2828C12.8646 40.3203 8.91216 40.3203 5 40.2828C5.1127 40.0198 5.22539 39.7569 5.37565 39.4939C11.6195 28.8817 17.8661 18.3097 24.0376 7.65998Z" fill="#AE285D"/>
<path d="M24.0376 27.9801C27.9873 27.9801 31.9397 27.9425 35.8894 28.0177C38.2587 32.1203 40.6683 36.1827 43 40.323C39.0503 40.3605 35.0979 40.323 31.1481 40.323C28.8164 36.1827 26.3693 32.1176 24.0376 27.9801Z" fill="#AE285D"/>
</svg>
