<svg width="48" height="48" viewBox="0 0 48 48" fill="none" xmlns="http://www.w3.org/2000/svg">
<path d="M24.011 3.99997C23.3491 3.99997 22.7093 4.02199 22.0474 4.08807C21.3855 4.15415 20.7457 4.24226 20.1059 4.37442C19.4661 4.50658 18.8263 4.66076 18.2085 4.859C17.5907 5.05724 16.973 5.2775 16.3552 5.51979C15.7595 5.76208 15.1638 6.04843 14.5902 6.3568C13.4429 6.97354 12.3398 7.70041 11.3249 8.53741C10.8174 8.95591 10.332 9.39645 9.86873 9.859C9.40541 10.3216 8.96415 10.8061 8.54495 11.3127C8.12576 11.8193 7.72863 12.348 7.37562 12.8986C7.00055 13.4493 6.66961 14 6.36073 14.5727C5.43409 16.3127 4.7722 18.163 4.37507 20.1013C4.24269 20.7401 4.15444 21.4008 4.08825 22.0396C4.02206 22.7004 4 23.3392 4 24C4 24.6608 4.04413 25.2995 4.08825 25.9603C4.13238 26.6211 4.24269 27.2599 4.37507 27.8986C4.7722 29.837 5.43409 31.6872 6.36073 33.4273C6.66961 34 7.00055 34.5727 7.37562 35.1013C7.75069 35.6299 8.12576 36.1806 8.54495 36.6872C8.96415 37.1938 9.40541 37.6784 9.86873 38.1409C10.332 38.6035 10.8174 39.044 11.3249 39.4625C12.3398 40.2995 13.4208 41.0264 14.5902 41.6431C15.1638 41.9515 15.7595 42.2379 16.3552 42.4801C16.9509 42.7224 17.5687 42.9427 18.2085 43.1409C18.8483 43.3392 19.4661 43.4934 20.1059 43.6255C20.7457 43.7577 21.3855 43.8458 22.0474 43.9119C22.7093 43.9779 23.3491 44 24.011 44C24.6729 44 25.3127 43.9779 25.9746 43.9119C26.6365 43.8458 27.2763 43.7577 27.9162 43.6255C28.556 43.4934 29.1958 43.3392 29.8136 43.1409C30.4313 42.9427 31.0491 42.7224 31.6669 42.4801C32.2846 42.2379 32.8582 41.9515 33.4319 41.6431C34.0055 41.3348 34.5791 41.0044 35.1087 40.6299C35.6602 40.2555 36.1677 39.881 36.6751 39.4625C37.1826 39.044 37.668 38.6035 38.1313 38.1409C39.0579 37.2158 39.8963 36.2026 40.6244 35.1013C40.9774 34.5506 41.3304 34 41.6393 33.4273C41.9481 32.8546 42.235 32.2599 42.4777 31.6431C42.7204 31.0484 42.941 30.4317 43.1395 29.7929C43.3381 29.1542 43.4925 28.5374 43.6249 27.8986C43.7573 27.2599 43.8456 26.5991 43.9117 25.9603C43.9779 25.2995 44 24.6608 44 24C44 23.3392 43.9779 22.7004 43.9117 22.0396C43.8456 21.3788 43.7573 20.7401 43.6249 20.1013C43.4925 19.4625 43.3381 18.8238 43.1395 18.207C42.941 17.5903 42.7204 16.9735 42.4777 16.3568C42.235 15.7401 41.9481 15.1674 41.6393 14.5727C41.3304 14 40.9995 13.4273 40.6244 12.8986C40.2493 12.37 39.8742 11.8193 39.455 11.3127C38.6167 10.2995 37.69 9.37442 36.6751 8.53741C36.1677 8.11891 35.6382 7.72243 35.1087 7.37001C34.5791 7.01759 34.0055 6.66517 33.4319 6.3568C32.8582 6.04843 32.2625 5.76208 31.6669 5.51979C31.0712 5.2775 30.4534 5.05724 29.8136 4.859C29.1958 4.66076 28.556 4.50658 27.9162 4.37442C27.2763 4.24226 26.6365 4.15415 25.9746 4.08807C25.3127 4.02199 24.6729 3.99997 24.011 3.99997ZM36.4986 29.1542C36.4986 34.6167 30.4093 35.1233 26.0849 35.1453H22.2019V30.2334H29.9239V26.489H22.2019V21.4009H30.7402V17.4361H17.679V35.1674H12.6928V12.8766H26.0849C30.0783 12.8766 36.4986 13.4493 36.4986 18.7136C36.4986 21.3127 34.2703 23.229 31.6669 23.8898C34.888 24.903 36.4986 26.489 36.4986 29.1542Z" fill="#0069B4"/>
</svg>
