<svg width="48" height="48" viewBox="0 0 48 48" fill="none" xmlns="http://www.w3.org/2000/svg">
<path fill-rule="evenodd" clip-rule="evenodd" d="M35.2724 13.0924C35.0753 14.1856 35.0753 14.1856 34.9319 14.8845C34.5735 15.8702 34.1075 16.6587 33.5161 17.519C33.4803 17.5369 33.4624 17.5548 33.4265 17.5727C31.7778 19.4544 29.8064 20.6193 27.4409 21.4437C26.9749 21.5512 26.9749 21.5512 26.9211 21.5871V21.6946C27.0824 21.8559 27.3871 21.82 27.5842 21.82C27.7634 21.8738 27.7634 21.8738 28.0502 21.8917C28.9104 22.1605 29.7348 22.4831 30.5233 22.9491C30.5771 23.0207 30.9534 23.2896 31.5627 23.8272C31.7419 24.0422 31.9211 24.2573 32.1004 24.4724C32.4767 25.01 32.7455 25.6372 32.9785 26.2645C33.0502 26.5871 33.1219 26.9096 33.1935 27.2322C33.2294 27.5906 33.2294 27.5906 33.2294 28.5225C33.1577 28.9706 33.0681 29.4186 32.9964 29.8666C32.871 30.1354 32.8351 30.3326 32.6201 30.8702C32.1541 31.8021 31.6344 32.6623 30.9534 33.4509C30.129 34.3111 29.233 35.0638 28.2832 35.7806C28.1219 35.8523 27.871 35.9419 27.7634 36.0853C26.2939 36.9096 24.8423 37.4652 23.2473 38.0207C22.2616 38.2179 21.2939 38.415 20.2903 38.5405C18.4624 38.648 18.4624 38.648 17.9426 38.7017C16.3297 38.7555 10.1111 39.0602 10.0036 39.0422C9.91398 38.9526 9.9319 38.7197 10.0036 38.6301C11.6703 38.1462 13.3728 37.5906 15.0573 37.1784C15.2007 37.1247 18.0323 36.3003 18.319 36.1928C19.5914 35.924 20.8459 35.4401 22.1004 35.0996C22.3871 34.9921 23.8925 34.5799 25.2903 34.1677C26.5269 33.881 27.8351 33.4867 29.0358 33.0745C29.0896 33.0028 29.0896 32.9311 29.0896 32.8415C29.0538 32.8236 29.0179 32.7878 29 32.7698C28.8925 32.7698 27.2796 33.182 19.7527 35.01C19.7168 35.0279 19.681 35.0458 19.6631 35.0638C18.2832 35.3326 16.9032 35.7268 15.5233 36.0494C15.4158 36.0853 15.3082 36.1211 15.2186 36.1569C10.0036 37.3935 10.0036 37.3935 9.87813 37.4473H9.73477C9.62724 37.3039 9.55555 37.286 9.5914 37.0888C9.98566 36.8379 9.98566 36.8379 10.9534 36.2824C11.2043 36.1749 13.5878 34.8129 13.8208 34.7053C15.7204 33.5763 17.6918 32.5189 19.5914 31.4078C21.1864 30.5297 22.7993 29.6157 24.3943 28.7376C24.448 28.7017 24.5018 28.6659 24.5556 28.6121C25.7742 27.9849 26.957 27.286 28.1577 26.6229C28.7133 26.3899 29.3047 26.0315 29.8065 25.691C29.8961 25.5655 29.8244 25.4043 29.681 25.3863C28.5161 25.9777 27.3692 26.5871 26.2222 27.1784C26.043 27.2322 26.043 27.2322 25.8638 27.3577C22.5663 29.0422 22.5663 29.0422 22.2975 29.1498C21.9211 29.3828 20.9355 29.8666 20.8459 29.9383C19.4122 30.6552 17.9785 31.4078 16.5627 32.1784C16.509 32.1964 16.4731 32.1964 16.4373 32.2143C15.6667 32.734 14.7348 33.0745 13.9462 33.5584C12.5663 34.2394 11.1685 34.9562 9.80645 35.6731C9.64516 35.7089 8.60573 36.4437 8.71326 35.7268C9.19713 35.2788 9.681 34.8129 10.1649 34.3648C10.3082 34.2035 10.6846 33.863 10.7383 33.8451C11.2581 33.2716 11.8495 32.6086 12.4946 32.1784C12.5305 32.1247 12.5842 32.0709 12.6201 31.9992C13.8745 30.8344 15.147 29.6516 16.3477 28.415C19.9498 24.9741 23.5699 21.5333 27.19 18.1462C27.2975 18.0028 27.405 17.8595 27.5663 17.7698C29.7706 15.6552 29.914 15.4939 32.5305 13.0028C32.7097 12.8774 32.7097 12.8774 32.7634 12.7698C32.7634 12.3397 32.5125 12.5369 32.2796 12.7161C31.6344 13.3612 30.9355 13.9347 30.2724 14.562C30.0215 14.9204 29.5735 15.1713 29.2867 15.5118C28.6595 16.0853 27.9247 16.8559 27.2079 17.3577C26.6882 17.8774 26.0968 18.415 25.5233 18.863C23.4624 20.8523 21.1864 22.6444 19.1434 24.6516C18.1398 25.4401 17.2616 26.4616 16.2401 27.2322C15.9713 27.5369 15.9713 27.5369 14.1434 29.2215C14.0717 29.2752 14.0179 29.3111 13.9462 29.3469C11.9032 31.2286 9.82437 33.0745 7.74552 34.9204C7.51254 34.9204 7.45878 34.8666 7.4767 34.6336C9.96774 31.0136 12.4588 27.3756 14.914 23.7376C15.9176 22.2322 16.9032 20.691 17.9606 19.2215C18.7133 18.1103 18.767 18.0028 19.0358 17.6444C20.9534 14.7949 22.9606 11.9276 24.8423 9.04225C25.0753 8.80928 25.0036 8.66591 24.6989 8.70175C23.1039 10.9419 21.4552 13.1462 19.8781 15.4222C19.6093 15.7627 19.1075 16.5154 13.767 23.9885C13.6416 24.1856 11.724 26.8021 11.5986 26.9634C9.87814 29.3648 8.1577 31.8021 6.40143 34.1677C6.31183 34.2394 6.22222 34.3111 6.09677 34.2394V34.0243C7.35125 30.7627 8.67742 27.4831 10.0394 24.2752C12.0287 19.2752 14.0179 14.2394 16.043 9.23938C16.043 9.13186 16.043 9.13186 15.9713 9.04225C15.8996 9.04225 15.828 9.06017 15.7742 9.11394C14.233 12.5727 12.638 16.0315 11.0789 19.4903C11.0072 19.5799 9.37634 23.2179 8.91039 24.1498C8.71326 24.6336 8.55197 24.9383 8.33692 25.4401C7.01075 28.2358 5.73835 31.0853 4.46595 33.9168C4.30466 33.9885 4.16129 34.0064 4 33.9347C4.01792 33.7376 4.01792 33.7376 4.64516 31.4258C4.69892 31.3003 4.87814 30.6014 4.9319 30.458C4.98566 30.2071 5.03943 30.0817 5.64874 27.6802C5.97133 26.4795 6.29391 25.2788 6.63441 24.096C6.68817 23.8451 9.73477 12.8236 9.77061 12.6623C9.87814 12.3039 9.96774 11.9634 10.0753 11.605C10.4695 10.0638 10.8817 8.63006 11.1864 7.39351C11.2222 7.3039 11.2581 7.28598 11.3297 7.23222C16.7778 7.23222 22.2437 7.25014 27.7097 7.21429C29.3763 7.3039 31.0789 7.59064 32.6201 8.30748C32.7814 8.43293 32.7814 8.43293 33.1756 8.64799C33.5161 8.89888 33.8746 9.18562 34.1971 9.5082C34.3763 9.7591 34.5376 10.01 34.7168 10.2609C34.8244 10.5118 34.914 10.7806 35.0215 11.0315C35.0932 11.4078 35.1828 11.7842 35.2545 12.1426C35.2545 12.4293 35.2545 12.7519 35.2724 13.0924ZM44 14.5082C43.8925 15.2788 43.767 15.9957 43.552 16.7304C43.1039 17.6623 43.1039 17.6623 42.8172 18.182C42.2975 18.9706 41.6344 19.6336 40.9355 20.2609C40.2545 20.7806 40.2545 20.7806 39.5197 21.3003C38.6416 21.82 37.6738 22.2322 36.7419 22.6623C36.3835 22.7698 35.9534 22.8595 35.6308 23.0566C35.6308 23.1462 35.6308 23.1462 35.6487 23.182C36.8495 23.3075 37.9068 23.7197 38.9104 24.3828C39.3943 24.7949 39.8602 25.2071 40.2724 25.7089C40.7563 26.4078 41.1326 27.0888 41.4194 27.8774C41.491 28.2 41.5627 28.5046 41.6344 28.8272C41.6882 29.329 41.6882 29.8308 41.6882 30.3505C41.5269 31.82 40.9892 33.1283 40.2007 34.3827C39.6989 35.0817 39.6989 35.0817 39.1971 35.7268C38.3369 36.6229 37.2796 37.6444 36.1326 38.1641C35.2903 38.7913 34.1613 39.1856 33.1935 39.5799C32.5842 39.7591 31.957 39.9562 31.3477 40.1534C29.9677 40.4043 29.9677 40.4043 29.8244 40.458C28.767 40.5655 28.767 40.5655 28.4803 40.6193C22.3513 40.8702 16.1505 40.7627 10.0215 40.7627C9.94982 40.6372 9.91398 40.458 10.0753 40.3863C13.0143 40.2609 15.9713 40.1175 18.9104 40.0279C19.4839 40.0279 20.1111 40.0458 20.6667 39.9562C22.638 39.8845 24.5556 39.7949 26.509 39.4903C26.6344 39.4365 27.1541 39.329 27.9247 39.1319C31.7419 37.8953 35.2186 35.4759 36.8315 31.6767C36.9391 31.3362 36.9391 31.3362 37.0466 31.139C37.1362 30.7089 37.2258 30.2788 37.3154 29.8487C37.3333 28.7914 37.3333 28.7914 37.3154 28.3792C37.172 27.3577 36.7957 26.3362 36.2043 25.4939C35.9355 25.2071 35.6846 24.9025 35.4158 24.6157C34.1613 23.6301 32.9247 22.967 31.3118 22.8415C31.3118 22.7161 31.3477 22.6982 31.4552 22.6444C31.8495 22.5369 31.8495 22.5369 32.405 22.3397C34.9498 21.2286 37.2258 19.7412 38.6595 17.3039C38.8029 16.9813 38.9462 16.6408 39.0896 16.3003C39.3405 15.4759 39.4839 14.6516 39.5556 13.7914C39.5197 13.415 39.5018 13.0387 39.4839 12.6623C39.4122 12.4293 39.3405 12.1785 39.2688 11.9276C38.9642 11.1928 38.6416 10.7448 38.086 10.1892C37.2079 9.49028 36.2222 8.97057 35.1111 8.71967C35.1111 8.70175 35.1111 8.66591 35.129 8.64799C35.7025 8.54046 36.4014 8.64799 36.9749 8.68383C37.2437 8.73759 37.2437 8.73759 38.2115 8.84512C38.534 8.9168 38.8566 8.98849 39.1971 9.06017C40.2366 9.34691 41.276 9.70533 42.1541 10.3326C42.405 10.5655 42.6738 10.7985 42.9247 11.0315C43.1398 11.372 43.3548 11.6946 43.5699 12.0172C43.6774 12.3397 43.7849 12.6444 43.8925 12.967C43.9104 13.4329 43.9821 13.9706 44 14.5082Z" fill="#F94F00"/>
</svg>
