<svg width="48" height="48" viewBox="0 0 48 48" fill="none" xmlns="http://www.w3.org/2000/svg">
<path d="M23.9981 32.7103L13.1396 42L19.2164 29.297L6.83142 22.3726L20.984 23.8421L23.9981 2L27.0121 23.8421L41.1686 22.3726L28.7817 29.297L34.8584 42L23.9981 32.7103Z" fill="#191917"/>
<path d="M23.9983 32.4431L13.7427 41.2172L19.483 29.2161L7.78255 22.6774L21.1631 24.0623L23.9983 3.51471L26.8354 24.0623L40.2179 22.6736L28.5155 29.2161L34.2559 41.2172L23.9983 32.4431Z" fill="#E3300C"/>
<path fill-rule="evenodd" clip-rule="evenodd" d="M26.8352 24.0622H21.1629L19.4905 29.2217L23.998 32.443L28.5152 29.216L26.8352 24.0622Z" fill="#0073BD"/>
<path fill-rule="evenodd" clip-rule="evenodd" d="M23.9944 31.3424C21.9779 31.3424 20.3367 29.7542 20.3367 27.803C20.3367 25.8498 21.9779 24.2636 23.9944 24.2636C26.0109 24.2636 27.6521 25.8498 27.6521 27.803C27.6521 29.7542 26.0109 31.3424 23.9944 31.3424Z" fill="#191917"/>
<path fill-rule="evenodd" clip-rule="evenodd" d="M23.9942 31.1409C22.0904 31.1409 20.5426 29.6431 20.5426 27.8029C20.5426 25.9626 22.0904 24.463 23.9942 24.463C25.8959 24.463 27.4438 25.9626 27.4438 27.8029C27.4438 29.6431 25.8959 31.1409 23.9942 31.1409Z" fill="white"/>
<path d="M23.8679 25.5093C23.8623 25.5134 23.8595 25.5175 23.8595 25.523C23.8595 25.5339 23.8651 25.5399 23.8736 25.5455C23.8386 25.5441 23.8231 25.5286 23.8231 25.5286C23.8231 25.5286 23.8345 25.5131 23.8679 25.5093ZM23.901 25.5093C23.9094 25.5134 23.9185 25.5148 23.932 25.5202C23.932 25.5202 23.9221 25.5391 23.895 25.5428C23.9007 25.5387 23.9091 25.5318 23.9091 25.522C23.9091 25.5166 23.9052 25.5134 23.901 25.5093ZM23.8252 25.5526C23.8322 25.5581 23.8602 25.5635 23.8816 25.5635C23.9478 25.5635 23.9671 25.5202 23.9749 25.5164C23.9749 25.4712 23.9457 25.4318 23.901 25.4262C23.8835 25.4221 23.8562 25.4302 23.8427 25.4371C23.8252 25.4453 23.8116 25.4634 23.8057 25.4765C23.8272 25.4711 23.8524 25.4446 23.9069 25.454C23.9322 25.4595 23.9633 25.4935 23.9458 25.4992C23.9303 25.4896 23.9264 25.4842 23.9147 25.4823C23.8699 25.4653 23.8271 25.4973 23.8037 25.5161C23.7981 25.5161 23.7939 25.512 23.7896 25.512C23.7967 25.5309 23.8057 25.5395 23.8252 25.5526ZM24.1052 25.5093C24.101 25.5134 24.0996 25.5175 24.0996 25.523C24.0996 25.5339 24.1052 25.5399 24.1137 25.5455C24.0826 25.5414 24.0631 25.5286 24.0631 25.5286C24.0631 25.5286 24.0766 25.5131 24.1052 25.5093ZM24.1422 25.5093H24.1464C24.1535 25.5134 24.1639 25.5134 24.1659 25.5175C24.1701 25.5216 24.1715 25.5216 24.173 25.5216C24.173 25.5216 24.1631 25.5404 24.136 25.546C24.1416 25.5406 24.1472 25.5351 24.1472 25.5235C24.1472 25.5181 24.1464 25.5134 24.1422 25.5093ZM23.9671 25.6843C23.9728 25.6897 23.9785 25.6843 23.9867 25.6843C24.0119 25.6843 24.0372 25.6993 24.0586 25.6898C24.0974 25.6728 24.053 25.6201 24.053 25.5863C24.053 25.5693 24.0544 25.558 24.0628 25.543C24.0628 25.5443 24.1368 25.5824 24.1833 25.5375C24.1876 25.5293 24.1989 25.5293 24.2066 25.5225C24.208 25.5225 24.2123 25.5184 24.2123 25.517C24.2137 25.5129 24.2165 25.5034 24.2165 25.5034C24.2095 25.5034 24.2066 25.517 24.197 25.5088C24.1678 25.49 24.1484 25.4825 24.1153 25.4863C24.0843 25.4863 24.0589 25.5032 24.0589 25.5032C24.0476 25.4468 24.1639 25.4374 24.1931 25.475C24.1875 25.46 24.179 25.4486 24.1716 25.4411C24.1366 25.4111 24.0589 25.4329 24.0374 25.46C24.0219 25.4788 24.02 25.5634 24.0219 25.5954C24.0219 25.6123 24.0374 25.6198 24.036 25.6368C24.036 25.6504 24.0275 25.6631 24.0146 25.665C23.9971 25.6691 23.9574 25.6485 23.9671 25.6843ZM25.5773 29.9481C25.5365 29.9312 25.5306 29.8917 25.5033 29.871C25.4991 29.871 25.4858 29.8559 25.4761 29.854C25.4676 29.8486 25.4586 29.8445 25.4508 29.839C25.4178 29.824 25.3789 29.8182 25.3439 29.8088C25.3298 29.8047 25.3186 29.8047 25.3049 29.8034C25.2894 29.7979 25.2757 29.7884 25.2602 29.7808C25.2077 29.7713 25.1455 29.7754 25.0891 29.7713C25.0016 29.7672 24.9219 29.7543 24.8402 29.7449C24.8032 29.7395 24.7605 29.7354 24.7255 29.7224C24.7142 29.7183 24.7022 29.7115 24.6904 29.7087C24.6555 29.7005 24.6322 29.7046 24.6088 29.7142C24.5975 29.7183 24.5855 29.7279 24.5776 29.7279C24.5621 29.7265 24.5503 29.7034 24.527 29.709C24.5157 29.7199 24.5076 29.7373 24.5172 29.7504C24.5214 29.7558 24.5444 29.7748 24.5483 29.7748C24.5756 29.7857 24.5911 29.7707 24.6086 29.7666C24.6748 29.7497 24.7486 29.7803 24.805 29.7892C24.9547 29.8117 25.1511 29.8028 25.2833 29.8438C25.3086 29.8492 25.3339 29.8534 25.3554 29.8607C25.4176 29.8833 25.4603 29.919 25.509 29.9473C25.5382 29.9831 25.5654 30.0094 25.6198 30.0225C25.6451 30.0307 25.686 30.0307 25.686 29.9962C25.6874 29.9567 25.6123 29.965 25.5773 29.9481ZM26.4951 29.7675C26.505 29.777 26.5261 29.8013 26.5243 29.8183C26.5229 29.8237 26.5144 29.8319 26.5048 29.8319C26.4796 29.8319 26.4834 29.7736 26.4426 29.7773C26.4384 29.7787 26.4313 29.7787 26.4271 29.7882C26.4158 29.8221 26.4893 29.8334 26.4679 29.8861C26.4608 29.9069 26.4348 29.9106 26.4036 29.9106C26.4036 29.901 26.4149 29.8955 26.4149 29.8842C26.4149 29.8503 26.3664 29.8184 26.3372 29.8465C26.3386 29.8729 26.3702 29.8879 26.3586 29.9162C26.3431 29.9331 26.3004 29.9331 26.2867 29.9162C26.2909 29.9148 26.3061 29.9203 26.3139 29.9162C26.321 29.9148 26.3238 29.908 26.3252 29.9025C26.3294 29.8875 26.3139 29.8837 26.298 29.8762C26.2867 29.8666 26.2747 29.8592 26.2668 29.8498C26.2724 29.7915 26.2162 29.7802 26.156 29.7746C26.0548 29.7664 25.9402 29.7557 25.8468 29.7482C25.8525 29.703 25.8079 29.6974 25.7691 29.6899C25.7146 29.679 25.666 29.6763 25.6096 29.6636C25.5863 29.6595 25.5493 29.6485 25.5474 29.6316C25.546 29.6108 25.5766 29.5977 25.5921 29.5864C25.6446 29.5487 25.6951 29.5131 25.7418 29.4735C25.8488 29.4923 25.9208 29.5337 26.0044 29.5807C26.0258 29.5916 26.0491 29.5995 26.0686 29.6089C26.0919 29.6226 26.1153 29.6315 26.1366 29.6391C26.2455 29.6693 26.3972 29.6405 26.4769 29.6918C26.5041 29.7087 26.5294 29.7332 26.5294 29.7709C26.5099 29.7709 26.5099 29.7257 26.4886 29.7238C26.4773 29.7224 26.4671 29.7347 26.4671 29.7426C26.4671 29.7535 26.4834 29.76 26.4951 29.7675ZM26.2093 29.871C26.1878 29.8614 26.1626 29.8614 26.1373 29.86C26.0985 29.8559 26.0575 29.8464 26.0168 29.8412C25.976 29.833 25.9351 29.8317 25.9001 29.8224C25.9253 29.8087 25.9681 29.8128 26.007 29.8128C26.079 29.8087 26.1976 29.8128 26.2248 29.8523C26.2263 29.8577 26.2291 29.8711 26.2291 29.8786C26.2248 29.8786 26.2174 29.8737 26.2093 29.871ZM25.8709 29.8792C25.8808 29.9111 25.9117 29.9205 25.9059 29.9677C25.896 29.9827 25.8826 29.9959 25.8669 30.0071C25.8726 29.9883 25.8655 29.9657 25.8528 29.9544C25.8444 29.9544 25.8486 29.9694 25.843 29.9694C25.8274 29.9653 25.8331 29.9469 25.8099 29.9487C25.8057 29.9694 25.8254 29.9788 25.8274 29.9976C25.8331 30.0445 25.7982 30.0691 25.7535 30.0653C25.7577 30.0445 25.7885 30.0516 25.7943 30.0351C25.7985 30.0126 25.7768 29.9974 25.7632 29.9881C25.752 29.9881 25.7618 29.9991 25.7491 30.0032C25.7336 29.9977 25.7239 29.9712 25.6986 29.9806C25.7099 29.9943 25.7239 30.0183 25.7085 30.037C25.689 30.0479 25.6657 30.052 25.6405 30.052C25.6017 30.0507 25.5627 30.0425 25.5432 30.0201C25.5319 30.0051 25.5258 29.9862 25.514 29.9749C25.4999 29.9612 25.4751 29.9612 25.4596 29.9466C25.4497 29.9411 25.4455 29.9278 25.4381 29.9203C25.424 29.9094 25.4012 29.9014 25.3779 29.892C25.3234 29.8676 25.2398 29.8468 25.1717 29.8412C25.0512 29.8303 24.9209 29.833 24.8042 29.8129C24.7615 29.8047 24.7205 29.796 24.6817 29.7904C24.6389 29.7863 24.5962 29.8 24.5592 29.7959C24.5242 29.7904 24.5048 29.7657 24.495 29.7357C24.4837 29.6529 24.4678 29.5701 24.4308 29.5098C24.4195 29.4835 24.4153 29.4515 24.4238 29.4025C24.4252 29.3762 24.4379 29.3442 24.4433 29.3104C24.4475 29.2765 24.4475 29.2388 24.4531 29.2049C24.4616 29.1466 24.4823 29.092 24.5096 29.0619C24.5251 29.066 24.5368 29.0883 24.5465 29.0977C24.5757 29.1166 24.6127 29.1241 24.6398 29.1485C24.6511 29.1567 24.6613 29.171 24.669 29.1824C24.704 29.2407 24.6905 29.3329 24.7177 29.4044C24.7219 29.414 24.7318 29.4213 24.729 29.4327C24.6902 29.4381 24.6415 29.4368 24.6182 29.4609C24.6357 29.4892 24.6804 29.4664 24.7174 29.4664C24.7544 29.4664 24.7991 29.4773 24.8244 29.4947C24.8438 29.5083 24.8632 29.5379 24.8886 29.5474C24.9275 29.5624 24.9897 29.5643 25.0403 29.5699C25.0985 29.574 25.155 29.5795 25.2017 29.5887C25.2794 29.6038 25.3495 29.632 25.4175 29.6603C25.4288 29.6658 25.4408 29.6699 25.4505 29.6753C25.4604 29.6808 25.468 29.6903 25.4778 29.6941C25.5011 29.7092 25.5322 29.7078 25.5615 29.7111C25.5907 29.7166 25.6159 29.7261 25.6412 29.7336C25.6626 29.7445 25.6957 29.7506 25.7229 29.7675C25.7328 29.7716 25.7404 29.7825 25.7521 29.7863C25.7716 29.7904 25.7909 29.785 25.8066 29.7904C25.8221 29.7945 25.8435 29.8055 25.8591 29.8168C25.8921 29.8356 25.9193 29.8601 25.9193 29.907C25.9052 29.8975 25.9021 29.8585 25.8709 29.8792ZM24.6614 29.9977C24.6244 29.9769 24.5856 29.9469 24.5369 29.9356C24.5214 29.9315 24.5059 29.9274 24.4902 29.9315C24.486 29.9503 24.5135 29.9465 24.531 29.9484C24.568 29.9539 24.5972 29.9692 24.6224 29.9842C24.6337 29.9937 24.6574 30.0049 24.6497 30.0199C24.6356 30.0463 24.5855 30.0011 24.5855 29.9917C24.5713 29.9876 24.566 29.9748 24.5504 29.9692C24.5392 29.9651 24.5252 29.9691 24.5135 29.965C24.498 29.965 24.4882 29.9569 24.4765 29.9541C24.4709 29.9936 24.5368 29.9767 24.5563 29.9936C24.5619 29.9977 24.552 30.0031 24.552 30.0105C24.5591 30.0187 24.5661 30.0214 24.5715 30.0255C24.5715 30.0242 24.5659 30.0173 24.5701 30.0105C24.6168 30.001 24.6188 30.0519 24.5814 30.0632C24.5424 30.0728 24.5172 30.0444 24.4899 30.0369C24.4452 30.0287 24.4062 30.0423 24.3694 30.0328C24.3344 30.0246 24.3227 30.0045 24.2994 29.9839C24.2742 29.9595 24.243 29.9575 24.206 29.9462C24.2235 29.9143 24.2332 29.8747 24.2624 29.8502C24.278 29.8352 24.35 29.8033 24.3869 29.8239C24.4064 29.8321 24.4375 29.8375 24.4511 29.8445C24.4624 29.8499 24.4744 29.8581 24.4821 29.8652C24.4934 29.8748 24.5016 29.8916 24.5132 29.8954C24.5385 29.9036 24.5832 29.9091 24.6124 29.9199C24.6209 29.9212 24.6357 29.924 24.6357 29.9349C24.6357 29.9403 24.6343 29.9485 24.6244 29.9485C24.6173 29.9499 24.6131 29.939 24.6069 29.9349C24.5836 29.9199 24.5389 29.9212 24.5097 29.9104C24.5139 29.9159 24.5252 29.9186 24.5292 29.9214C24.5759 29.9309 24.6128 29.9515 24.6478 29.9702C24.6577 29.9743 24.6765 29.9883 24.6614 29.9977ZM24.1539 29.6797C24.1581 29.4746 24.1652 29.262 24.1733 29.0531C24.1733 29.0531 24.1747 29.0531 24.1776 29.049C24.179 29.049 24.179 29.0531 24.179 29.0531C24.186 29.0613 24.186 29.0756 24.186 29.087C24.1973 29.1697 24.2093 29.2619 24.221 29.3466C24.2351 29.4445 24.2638 29.5367 24.2677 29.6383C24.2445 29.6492 24.2172 29.6552 24.1958 29.6627C24.1817 29.6682 24.1733 29.6816 24.1539 29.6797ZM24.3522 29.5743C24.3367 29.5825 24.3172 29.5825 24.2977 29.5852C24.2608 29.4328 24.2258 29.2578 24.2083 29.0828C24.1888 28.904 24.1733 28.714 24.181 28.539C24.1923 28.5349 24.2043 28.5281 24.2218 28.5335C24.2471 28.5445 24.2373 28.6276 24.2393 28.6634C24.2435 28.8026 24.2534 28.9475 24.2626 29.0755C24.2697 29.1676 24.2821 29.258 24.2976 29.3351C24.3089 29.4217 24.3405 29.4971 24.3522 29.5743ZM24.3035 29.0229C24.286 28.8762 24.2894 28.7106 24.2979 28.5601C24.2993 28.5393 24.2993 28.5187 24.3021 28.4999C24.3077 28.4641 24.3092 28.4283 24.3331 28.4039C24.3444 28.3943 24.3624 28.3831 24.3759 28.3737C24.3914 28.36 24.4031 28.3492 24.4148 28.336C24.4205 28.3135 24.4363 28.2871 24.4381 28.2702C24.4381 28.2647 24.4396 28.2702 24.4396 28.2715C24.4537 28.5858 24.4065 28.8059 24.3753 29.092C24.3669 29.1691 24.3598 29.2481 24.3521 29.329C24.321 29.2406 24.3172 29.1321 24.3035 29.0229ZM24.076 28.4942C24.0527 28.5206 24.0275 28.5488 24.0021 28.577C23.9908 28.5906 23.9788 28.6071 23.9631 28.6164C24.0428 28.3963 24.1459 28.1874 24.2159 27.9541C24.2489 27.8375 24.2839 27.7208 24.3171 27.5984C24.3501 27.4724 24.3658 27.3407 24.3696 27.192C24.3696 27.1907 24.3696 27.1879 24.3738 27.1879C24.3752 27.1879 24.3752 27.1879 24.3752 27.1893C24.4005 27.2029 24.4082 27.2306 24.4141 27.2551C24.4452 27.3322 24.4609 27.4226 24.4784 27.511C24.4882 27.5712 24.4978 27.6333 24.4998 27.6992C24.5012 27.7274 24.5083 27.7613 24.5083 27.7952C24.5097 27.829 24.5139 27.8685 24.5097 27.8967C24.5041 27.9325 24.4747 27.972 24.4552 28.0041C24.4377 28.0398 24.4145 28.0699 24.393 28.1001C24.3541 28.1641 24.3055 28.2242 24.2588 28.2788C24.1966 28.3504 24.1401 28.4265 24.076 28.4942ZM24.1265 28.6955C24.1308 28.8668 24.1166 29.0305 24.1124 29.1998C24.1082 29.3993 24.0909 29.5931 24.0814 29.7737C24.0424 29.7683 24.0056 29.753 23.9627 29.7455C23.918 29.7373 23.8694 29.7373 23.8265 29.7359C23.8927 29.5176 23.9724 29.2975 24.021 29.0604C24.0522 28.9174 24.0832 28.7763 24.1143 28.6314C24.1143 28.6314 24.1157 28.6273 24.1185 28.6273C24.1298 28.6232 24.1265 28.6805 24.1265 28.6955ZM23.8057 29.8866C23.8212 29.8509 23.8369 29.8189 23.8524 29.7775H23.8566C23.8467 29.8133 23.8294 29.8547 23.8158 29.8885C23.8102 29.8899 23.8099 29.8839 23.8057 29.8866ZM23.9982 29.9826C23.984 30.0184 23.9869 30.0561 23.9476 30.0786C23.9406 30.0827 23.9282 30.08 23.9244 30.0841C23.8914 30.1048 23.8933 30.1932 23.8311 30.1556C23.817 30.1237 23.8583 30.1161 23.8738 30.1349C23.8738 30.116 23.8524 30.1141 23.8311 30.1141C23.8353 30.0764 23.8623 30.0633 23.8855 30.0445C23.8841 30.0349 23.8855 30.0294 23.8855 30.0256C23.868 30.0106 23.8526 30.0311 23.8545 30.0501C23.8489 30.0596 23.8273 30.0745 23.8175 30.0895C23.8063 30.1084 23.8062 30.129 23.7845 30.1084C23.7803 30.0576 23.8253 30.0557 23.835 30.0199C23.835 30.0144 23.8308 30.0144 23.8294 30.0103C23.7944 30.0062 23.8061 30.0498 23.7807 30.0555C23.7694 30.0763 23.7652 30.1044 23.7515 30.1232C23.7458 30.1273 23.7402 30.1219 23.734 30.1192C23.7382 30.1151 23.7298 30.1096 23.734 30.1041C23.7354 30.0987 23.7411 30.0987 23.7453 30.0946C23.7278 30.0626 23.7552 30.0288 23.7763 30.0118C23.7588 29.9799 23.7296 30.0401 23.7238 30.0551C23.7196 30.0688 23.7238 30.0834 23.7126 30.0834C23.6984 30.082 23.7111 30.0326 23.7168 30.0193C23.7252 30.0005 23.7401 29.9968 23.744 29.9836C23.7342 29.9836 23.7168 29.9945 23.711 30.0043C23.7054 30.0098 23.7026 30.0232 23.6955 30.0232C23.678 30.0232 23.6941 29.9968 23.6969 29.9931C23.7124 29.9762 23.7202 29.9687 23.7456 29.9649C23.7555 29.9567 23.7597 29.9423 23.7708 29.9366C23.7941 29.9216 23.8583 29.9284 23.8914 29.9311C23.9128 29.9325 23.9361 29.9366 23.9556 29.9407C23.9788 29.9421 24.0021 29.9421 24.012 29.9557C24.0106 29.9694 24.0024 29.9732 23.9982 29.9826ZM23.7648 30.135C23.7691 30.135 23.7705 30.1391 23.7761 30.1391C23.7719 30.1241 23.7936 30.1222 23.7994 30.1309C23.8107 30.1667 23.7511 30.1686 23.7648 30.135ZM23.5879 29.9807C23.5082 29.9821 23.4304 29.9848 23.3565 29.9917C23.337 29.9164 23.3175 29.843 23.3 29.7659C23.3837 29.7618 23.4731 29.7795 23.549 29.7866C23.5588 29.7976 23.5645 29.8092 23.5723 29.8224C23.5878 29.8374 23.6112 29.8469 23.6287 29.8619C23.64 29.8728 23.6482 29.8844 23.6617 29.8976C23.6688 29.9017 23.6772 29.9072 23.6831 29.9113C23.6944 29.9209 23.7084 29.932 23.7239 29.9415C23.7098 29.9551 23.6909 29.9622 23.6812 29.9753C23.6597 29.9863 23.6209 29.9794 23.5879 29.9807ZM23.3759 30.0692C23.3745 30.0651 23.3717 30.0597 23.3717 30.0556C23.3802 30.0515 23.3892 30.0474 23.3969 30.0446C23.4669 30.0296 23.5545 30.0221 23.6361 30.0202C23.6418 30.0202 23.6576 30.0147 23.6594 30.0243C23.57 30.0451 23.4673 30.0523 23.3759 30.0692ZM23.2572 30.1031C23.2105 30.1167 23.1445 30.1294 23.0881 30.1314C23.0589 30.1314 23.0336 30.13 23.0044 30.13C22.9597 30.1259 22.9227 30.1218 22.8917 30.1092C22.8742 30.0997 22.8605 30.0904 22.8469 30.0791C22.8275 30.0602 22.8119 30.0377 22.8217 29.9982C22.8217 29.9969 22.8259 29.9941 22.8259 29.9928C22.8273 29.9846 22.8259 29.9777 22.8259 29.9739C22.8316 29.9657 22.84 29.957 22.84 29.9437C22.8358 29.9287 22.8287 29.9137 22.8186 29.9043C22.7913 29.9029 22.7758 29.9125 22.7621 29.9287C22.7579 29.9328 22.7579 29.9342 22.7565 29.9383C22.7565 29.9383 22.7409 29.9519 22.739 29.9519C22.7347 29.956 22.7157 29.9601 22.7078 29.9601C22.6903 29.9615 22.665 29.956 22.6533 29.9506C22.6125 29.9336 22.5891 29.8979 22.5639 29.864C22.5596 29.8376 22.5483 29.8245 22.5525 29.7925C22.5525 29.7736 22.5582 29.7473 22.5681 29.7322C22.5723 29.7213 22.5991 29.6945 22.5876 29.6701C22.5833 29.6605 22.5701 29.6592 22.5623 29.6513C22.5539 29.6431 22.5567 29.6343 22.5482 29.6249C22.5341 29.6194 22.521 29.6249 22.5152 29.6345C22.5011 29.657 22.4937 29.7003 22.486 29.721C22.4874 29.7624 22.4845 29.8113 22.4944 29.849C22.4986 29.8753 22.5177 29.8867 22.5217 29.9111C22.5392 29.9336 22.5606 29.9582 22.5839 29.9769C22.5853 29.9783 22.5881 29.9783 22.5895 29.981C22.6051 30.0035 22.6538 30.0205 22.6653 30.0431C22.6886 30.0527 22.7061 30.062 22.7295 30.0733C22.749 30.0977 22.7956 30.0958 22.817 30.1166C22.8385 30.1221 22.8657 30.1354 22.885 30.1468C22.9725 30.175 23.0464 30.2164 23.13 30.2447C23.1631 30.2635 23.1942 30.2824 23.2253 30.2974C23.2394 30.3162 23.2583 30.3293 23.27 30.3463C23.2714 30.3463 23.27 30.3463 23.2686 30.3463C23.2511 30.3408 23.2374 30.3161 23.2141 30.3274C23.2198 30.3463 23.2316 30.3594 23.2491 30.3688C23.2491 30.3729 23.2506 30.3729 23.2491 30.3784C23.2562 30.3729 23.2604 30.3879 23.2686 30.392C23.2531 30.3961 23.2434 30.3695 23.2278 30.3657C23.2236 30.3561 23.2137 30.3431 23.2006 30.3431C23.195 30.3513 23.2077 30.3541 23.2048 30.3639C23.2006 30.3584 23.1949 30.353 23.1893 30.347C23.1752 30.3606 23.1992 30.3733 23.2048 30.3846C23.195 30.3806 23.1854 30.3658 23.1718 30.3602C23.1633 30.3657 23.1718 30.3739 23.1718 30.381C23.1633 30.381 23.1633 30.3673 23.1577 30.37C23.1492 30.3809 23.1577 30.3926 23.1633 30.402C23.1676 30.4129 23.1746 30.4227 23.1774 30.4358C23.1859 30.481 23.1619 30.5374 23.1859 30.577C23.1567 30.5468 23.176 30.4848 23.1718 30.4471C23.1676 30.4264 23.1543 30.3925 23.1426 30.3738C23.0784 30.2834 22.9617 30.227 22.8373 30.1931C22.812 30.1781 22.7673 30.1706 22.7343 30.1612C22.6565 30.1404 22.5787 30.1066 22.501 30.0765C22.462 30.0521 22.4367 30.0219 22.4057 29.9919C22.3902 29.973 22.3687 29.9467 22.3552 29.9222C22.3439 29.9053 22.3357 29.8828 22.3299 29.8564C22.3243 29.8339 22.3215 29.817 22.3215 29.7943C22.3172 29.7679 22.3144 29.7416 22.3158 29.7115C22.3215 29.6532 22.3488 29.5798 22.3761 29.5366C22.4013 29.4952 22.4325 29.4613 22.4616 29.4275C22.4946 29.3936 22.5296 29.3597 22.5628 29.3201C22.5958 29.2693 22.6192 29.2205 22.6658 29.1828C22.689 29.1639 22.7163 29.1526 22.7475 29.1357C22.8272 29.0943 22.9283 29.0604 23.0333 29.051C23.0858 29.2373 23.1345 29.4292 23.185 29.6155C23.192 29.6419 23.2005 29.6719 23.1991 29.6983C23.1681 29.6887 23.0824 29.6644 23.0533 29.6813C23.0203 29.6982 23.0589 29.7396 23.0902 29.7396C23.0846 29.7437 23.0761 29.7437 23.0708 29.7451C23.0595 29.7533 23.0435 29.7639 23.026 29.7676C23.0204 29.7717 23.0148 29.7717 23.0086 29.7731C22.9891 29.7813 22.9793 29.7938 22.9696 29.8125C22.9583 29.8351 22.9767 29.8597 23.0086 29.8445C23.026 29.8349 23.0513 29.8087 23.0668 29.8012C23.1115 29.7843 23.1698 29.7693 23.2243 29.7749C23.2458 29.8501 23.2671 29.931 23.2846 30.0138C23.2379 30.022 23.1718 30.0247 23.1193 30.0138C23.0823 30.0029 23.061 30.0002 23.0356 30.022C23.0413 30.0302 23.0455 30.0329 23.0455 30.0446C23.0455 30.0784 22.995 30.0671 22.989 30.0405C22.9792 30.0818 23.0318 30.1139 23.0708 30.1176C23.0764 30.119 23.0849 30.119 23.0922 30.1176C23.1622 30.1162 23.2439 30.0951 23.3022 30.0799C23.3064 30.1024 23.275 30.0988 23.2595 30.1063L23.2572 30.1031ZM23.2087 30.3646C23.2282 30.3816 23.2359 30.4098 23.2476 30.4324C23.2301 30.4135 23.2224 30.3872 23.2087 30.3646ZM22.9539 28.4152C22.9132 28.2459 22.8742 28.0747 22.8255 27.9053C22.8142 27.864 22.8061 27.8207 22.7945 27.7793C22.7804 27.736 22.7692 27.6946 22.7615 27.6513C22.705 27.3936 22.6331 27.1395 22.5709 26.8855C22.5695 26.8855 22.5695 26.8814 22.5695 26.8801C22.6083 26.8951 22.6628 26.8896 22.6978 26.9008C22.6921 26.9347 22.7034 26.9666 22.7483 26.9629C22.7553 26.978 22.7581 26.9949 22.7658 27.0081C22.7968 27.0163 22.8222 27.0027 22.8397 26.9945C22.9953 27.0566 23.1353 27.1318 23.322 27.162C23.3304 27.3407 23.3065 27.5307 23.3025 27.7264C23.3025 27.7923 23.2912 27.8544 23.2884 27.9202C23.2841 28.0445 23.2785 28.1686 23.2631 28.2909C23.249 28.3794 23.2399 28.4716 23.2321 28.5562C23.2279 28.5901 23.2278 28.6201 23.2264 28.6559C23.225 28.6842 23.2151 28.7236 23.2278 28.7462C23.2335 28.7544 23.2419 28.7612 23.2493 28.765C23.2901 28.7933 23.3582 28.8139 23.399 28.8441C23.399 28.855 23.4004 28.8666 23.399 28.878C23.2901 28.8889 23.191 28.9081 23.0859 28.9231C23.0432 28.7538 22.9947 28.5865 22.9539 28.4152ZM22.5417 26.7839C22.5459 26.7729 22.5689 26.7688 22.5709 26.7519C22.5709 26.7369 22.5596 26.7294 22.5568 26.7142C22.5723 26.7183 22.5801 26.7368 22.5938 26.7519C22.6008 26.7601 22.6288 26.7858 22.6405 26.7858C22.656 26.7899 22.6852 26.7776 22.6755 26.7594C22.66 26.7512 22.6405 26.7553 22.6249 26.7444C22.6017 26.7294 22.592 26.7011 22.5802 26.6748C22.5873 26.6578 22.5788 26.6371 22.5647 26.6315C22.5689 26.6032 22.5605 26.5844 22.5472 26.5713C22.5472 26.5699 22.5472 26.5658 22.5472 26.5658H22.5514C22.5787 26.5795 22.6079 26.5922 22.6332 26.6072C22.6837 26.6372 22.7186 26.6749 22.7284 26.7445C22.7479 26.7555 22.7711 26.7634 22.7848 26.7803C22.7764 26.8236 22.7615 26.8594 22.7284 26.88C22.7069 26.8691 22.6876 26.8517 22.6681 26.8386C22.6448 26.8594 22.5709 26.8482 22.5534 26.8304C22.5478 26.825 22.5375 26.7971 22.5417 26.7839ZM22.4795 26.7556C22.4639 26.7597 22.46 26.7725 22.4542 26.7856C22.431 26.7802 22.4134 26.7368 22.4458 26.7216C22.473 26.7107 22.5547 26.7271 22.5547 26.746C22.5561 26.7743 22.5008 26.7542 22.4795 26.7556ZM22.4075 26.6804C22.4308 26.6559 22.4833 26.6694 22.5105 26.6804C22.5246 26.6845 22.5495 26.6913 22.5397 26.7105C22.5027 26.7146 22.4542 26.6955 22.423 26.7242C22.4089 26.7187 22.4036 26.6973 22.4075 26.6804ZM22.4004 26.6146C22.4075 26.6064 22.4297 26.6064 22.4412 26.605C22.482 26.6009 22.4977 26.6186 22.5248 26.6333C22.5403 26.6442 22.5655 26.6483 22.5637 26.6615C22.5637 26.6711 22.5524 26.6724 22.5345 26.6711C22.5073 26.667 22.4762 26.6466 22.4451 26.6541C22.4295 26.6555 22.4178 26.6651 22.4081 26.6651C22.3886 26.661 22.3914 26.6259 22.4004 26.6146ZM22.5463 26.6186C22.5288 26.6227 22.5171 26.6036 22.5035 26.5979C22.4685 26.5829 22.4258 26.5965 22.3946 26.6033C22.3751 26.5112 22.5638 26.5528 22.5463 26.6186ZM22.4179 26.4794C22.4278 26.4794 22.4354 26.4903 22.4411 26.4982C22.4553 26.5119 22.4801 26.5265 22.4936 26.5434C22.4722 26.5339 22.4412 26.5434 22.4256 26.5325C22.4115 26.527 22.3939 26.4813 22.4179 26.4794ZM22.8204 26.7692C22.8204 26.761 22.8317 26.7637 22.836 26.7651C22.8501 26.797 22.8317 26.8347 22.8184 26.8648C22.8071 26.8873 22.7834 26.9269 22.7602 26.9381C22.7446 26.9463 22.7214 26.9463 22.7214 26.9272C22.7214 26.919 22.7446 26.9046 22.7524 26.8952C22.7835 26.8613 22.8069 26.8161 22.8204 26.7692ZM22.8729 26.7936C22.8771 26.7895 22.8884 26.7854 22.8924 26.7936C22.8783 26.7991 22.8594 26.8275 22.8783 26.8388C22.8698 26.8484 22.8568 26.8538 22.8608 26.8746C22.8495 26.8801 22.8393 26.8934 22.8433 26.9048C22.8376 26.913 22.832 26.9184 22.8258 26.9255C22.8258 26.931 22.8272 26.931 22.8272 26.9364C22.8057 26.9405 22.8057 26.9628 22.7864 26.9684C22.7807 26.967 22.7808 26.9547 22.7779 26.9495C22.8247 26.9138 22.8479 26.8535 22.8712 26.7934L22.8729 26.7936ZM22.9002 26.9121C22.9016 26.9039 22.9016 26.8952 22.9058 26.8877C22.91 26.8822 22.9171 26.8727 22.9199 26.8633C22.9241 26.8523 22.9199 26.8388 22.934 26.8313C23.0235 26.8482 23.1207 26.8632 23.2043 26.8896C23.2237 26.8951 23.2432 26.9005 23.2588 26.9085C23.2743 26.9166 23.286 26.9348 23.3015 26.9423C23.3156 26.9437 23.323 26.9505 23.3326 26.941C23.3637 26.9127 23.3213 26.8694 23.2839 26.8694C23.2839 26.8544 23.2881 26.843 23.2923 26.8317C23.298 26.8276 23.3216 26.8303 23.3331 26.8317C23.3876 26.8426 23.4498 26.8637 23.4848 26.8863C23.4735 26.9521 23.4343 26.9898 23.4148 27.0482C23.3915 27.0707 23.3856 27.1122 23.3488 27.1197C23.3273 27.1211 23.2808 27.1101 23.2613 27.1061C23.2302 27.0979 23.201 27.0924 23.1776 27.0872C23.1504 27.079 23.1271 27.0664 23.1018 27.0608C23.0241 27.0326 22.9443 26.995 22.8704 26.9668C22.8718 26.9423 22.8906 26.931 22.9002 26.9121ZM23.3085 26.7691C23.3902 26.7746 23.4582 26.7955 23.5107 26.8293C23.5093 26.8334 23.5093 26.8389 23.5051 26.843C23.4428 26.8186 23.3786 26.7978 23.3028 26.7847C23.3028 26.7751 23.3043 26.7705 23.3085 26.7691ZM23.3513 26.5828C23.3654 26.5019 23.3785 26.421 23.3999 26.3345C23.4174 26.2611 23.431 26.1971 23.4621 26.1407C23.472 26.1218 23.4836 26.1124 23.4991 26.0974C23.5048 26.0919 23.5048 26.0837 23.5104 26.0785C23.5299 26.0635 23.5512 26.0522 23.5726 26.0316C23.5769 26.0316 23.5825 26.0275 23.5825 26.0316C23.604 26.0146 23.639 26.0108 23.6642 25.9977H23.6699C23.6741 26.0598 23.6783 26.1181 23.6913 26.1727C23.6998 26.2046 23.7108 26.231 23.7146 26.2612C23.6699 26.2913 23.6251 26.3233 23.5824 26.3533C23.5711 26.3397 23.5768 26.3195 23.5591 26.312C23.5507 26.327 23.5396 26.3364 23.5396 26.3533C23.5396 26.3643 23.5537 26.3872 23.5509 26.3985C23.5495 26.4136 23.5551 26.4851 23.5509 26.5134C23.5495 26.5284 23.5354 26.6019 23.5334 26.6375C23.532 26.6563 23.5292 26.6694 23.532 26.6864C23.4755 26.6694 23.3958 26.6506 23.3376 26.6431C23.3432 26.6223 23.3428 26.5979 23.3513 26.5828ZM23.7188 26.3044C23.7329 26.3232 23.777 26.3232 23.7615 26.3571C23.7559 26.368 23.709 26.4135 23.6896 26.4173C23.6825 26.4186 23.674 26.4173 23.6701 26.4173C23.6701 26.3965 23.6856 26.3909 23.6915 26.3759C23.7028 26.3609 23.6986 26.3345 23.6901 26.3232C23.6958 26.3123 23.711 26.3095 23.7188 26.3044ZM23.7888 25.9468V25.951C23.7987 26.0112 23.8043 26.0714 23.816 26.1259C23.8216 26.1448 23.8315 26.1617 23.8315 26.1823C23.814 26.1974 23.7945 26.2106 23.7693 26.22C23.7382 26.1542 23.7285 26.0657 23.7285 25.9698C23.748 25.9643 23.7693 25.9557 23.7888 25.9468ZM23.7747 25.4407C23.7803 25.4143 23.7845 25.3918 23.7941 25.3711C23.8012 25.3601 23.8082 25.3503 23.8156 25.3391C23.8583 25.2902 23.9225 25.2676 23.9848 25.2431C23.9862 25.2295 23.9862 25.2148 23.9904 25.2017C23.996 25.2154 23.9946 25.2319 23.9988 25.2431C24.0533 25.2527 24.0844 25.2789 24.1214 25.3089C24.1603 25.3353 24.1933 25.3747 24.205 25.4274C24.2107 25.4538 24.2093 25.4727 24.2163 25.4952C24.2262 25.514 24.2435 25.531 24.2416 25.561C24.2401 25.6664 24.1793 25.7887 24.1054 25.8432C24.0762 25.8677 24.0257 25.894 23.9692 25.8865C23.9265 25.8783 23.8778 25.8507 23.8487 25.8244C23.8235 25.8018 23.7982 25.7661 23.7787 25.7303C23.7476 25.6814 23.7282 25.6268 23.734 25.5629C23.7354 25.514 23.7649 25.4878 23.7747 25.4407ZM24.1888 25.9939C24.1945 25.9695 24.1959 25.96 24.2043 25.9412C24.2218 25.9466 24.2393 25.9548 24.2568 25.9637C24.2393 25.9807 24.2082 25.9826 24.1888 25.9939ZM24.1461 25.8829C24.1461 25.8733 24.1517 25.8604 24.1517 25.8434C24.1517 25.8298 24.1475 25.819 24.1531 25.8096C24.1517 25.8509 24.1726 25.8867 24.1706 25.9244C24.1692 25.9621 24.1492 25.9921 24.1357 26.0204C24.0462 26.0599 23.9684 26.105 23.8906 26.1522C23.8673 26.1108 23.8517 26.0506 23.8401 25.9885C23.8359 25.964 23.8302 25.9377 23.8345 25.9169C23.8345 25.9 23.8458 25.8867 23.8458 25.8661C23.8613 25.877 23.873 25.8906 23.8885 25.9056C23.9177 25.9281 23.9547 25.9602 24.009 25.9602C24.0265 25.9602 24.044 25.9547 24.0615 25.9506C24.083 25.9506 24.1043 25.9602 24.1237 25.9465C24.135 25.9411 24.149 25.9202 24.149 25.9013C24.149 25.8931 24.1461 25.8881 24.1461 25.8829ZM24.3133 26.0786C24.288 26.1125 24.2471 26.1369 24.2103 26.1652C24.1363 26.2198 24.0606 26.2706 23.9867 26.3307C23.9692 26.3444 23.9537 26.359 23.938 26.3759C23.9127 26.4004 23.8797 26.4173 23.8913 26.4587C23.9185 26.4573 23.936 26.4323 23.9535 26.4173C24.0138 26.3646 24.0702 26.3119 24.1305 26.2592C24.1361 26.2552 24.1403 26.251 24.1446 26.2483V26.2524C24.1796 26.2224 24.2185 26.196 24.2573 26.1658C24.2788 26.1489 24.2981 26.132 24.3235 26.1189C24.3277 26.1175 24.3306 26.1134 24.3348 26.1107H24.3306C24.352 26.097 24.3733 26.0843 24.3928 26.0749C24.4027 26.0708 24.4161 26.0667 24.4316 26.064C24.4549 26.0585 24.4919 26.032 24.5113 26.0585C24.4899 26.0774 24.4608 26.0849 24.4374 26.0999C24.4004 26.1263 24.3694 26.1451 24.3344 26.1714C24.3245 26.1824 24.3129 26.1903 24.3014 26.1997C24.2547 26.2392 24.2159 26.2788 24.1769 26.324C24.1536 26.3503 24.1342 26.3728 24.1147 26.3992C24.0719 26.45 24.035 26.5027 23.998 26.5554C23.924 26.6626 23.8521 26.7718 23.7588 26.8621C23.7335 26.8846 23.6596 26.9185 23.6479 26.858C23.6634 26.8566 23.6809 26.8566 23.6926 26.8498C23.7237 26.8348 23.7471 26.8046 23.7684 26.7783C23.7825 26.7613 23.8034 26.7406 23.7936 26.7219C23.7684 26.7205 23.7567 26.7482 23.7431 26.7632C23.7179 26.7742 23.7042 26.7896 23.6692 26.7896C23.6012 26.7896 23.5662 26.7519 23.568 26.6767C23.568 26.6578 23.5638 26.577 23.5723 26.5562C23.5835 26.528 23.6092 26.5035 23.6365 26.4829C23.687 26.4471 23.7239 26.419 23.7726 26.385C23.7882 26.3755 23.7999 26.3606 23.8154 26.3492C23.8446 26.3285 23.8796 26.3098 23.9087 26.289C23.9844 26.2419 24.0623 26.1988 24.1439 26.1592V26.1633C24.1789 26.1444 24.2159 26.1294 24.2509 26.1105H24.2453C24.2685 26.0996 24.29 26.088 24.3133 26.0786ZM24.3034 27.0156V26.9855C24.3034 26.9773 24.302 26.9666 24.302 26.9554C24.302 26.95 24.302 26.9445 24.3034 26.9385C24.302 26.9344 24.3049 26.9385 24.3049 26.9344C24.3091 26.9344 24.3091 26.9358 24.3105 26.9358C24.3119 26.9527 24.3161 26.9752 24.3161 26.996C24.3161 27.0096 24.3161 27.0204 24.3105 27.0318C24.3049 27.0304 24.302 27.0208 24.302 27.0148L24.3034 27.0156ZM23.899 28.6075C23.8815 28.6452 23.8582 28.6771 23.8387 28.711C23.8212 28.7468 23.794 28.7768 23.7687 28.8032C23.7182 28.8596 23.6675 28.9198 23.619 28.9782C23.5762 29.029 23.5315 29.0798 23.4925 29.1362C23.4869 29.1417 23.4827 29.1551 23.4711 29.1551C23.4626 29.1287 23.4626 29.0987 23.4598 29.0685C23.4499 28.98 23.4485 28.8766 23.45 28.7844C23.4514 28.7166 23.4752 28.6753 23.5005 28.6244C23.5075 28.6075 23.5146 28.5906 23.5219 28.5756C23.5569 28.4965 23.5939 28.4119 23.6347 28.3441C23.6658 28.282 23.7066 28.2293 23.7416 28.1729C23.8156 28.0638 23.8913 27.9546 23.9555 27.8342C24.006 27.7439 24.047 27.6535 24.0955 27.5613C24.1247 27.5011 24.1597 27.439 24.1888 27.3807C24.2141 27.3337 24.2452 27.2885 24.2802 27.2584C24.2816 27.2543 24.2844 27.2529 24.2901 27.2543C24.3056 27.2556 24.2943 27.3032 24.2943 27.3145C24.2901 27.3295 24.2802 27.3634 24.2788 27.3728C24.2283 27.5685 24.1661 27.751 24.0999 27.9335C24.09 27.9693 24.0707 28.0069 24.0591 28.0407C24.0478 28.0765 24.0377 28.1179 24.0221 28.1498C24.0137 28.1635 24.0027 28.1781 23.9949 28.1912C23.985 28.2062 23.9754 28.2214 23.9696 28.2364C23.9521 28.2666 23.9327 28.2966 23.923 28.3266C23.9074 28.3436 23.8957 28.3605 23.886 28.3774C23.8645 28.4113 23.8413 28.4452 23.8296 28.4904C23.8239 28.5092 23.814 28.5431 23.8309 28.5506C23.8524 28.5588 23.8737 28.5186 23.8854 28.5054C23.9009 28.4809 23.9107 28.4602 23.9224 28.4413C23.9944 28.3115 24.0527 28.1553 24.1091 28.0142C24.1674 27.8656 24.216 27.7131 24.2608 27.5551C24.2706 27.5156 24.2841 27.476 24.2938 27.4346C24.298 27.4237 24.2938 27.4045 24.3093 27.3989C24.3093 27.4478 24.2994 27.4929 24.2938 27.5419C24.2853 27.5851 24.2743 27.6304 24.2626 27.6717C24.2393 27.7583 24.2159 27.8448 24.1926 27.9276C24.1421 28.0932 24.0836 28.2494 24.0098 28.3943C23.9923 28.43 23.9787 28.4676 23.9553 28.5034C23.9378 28.5372 23.9185 28.5717 23.899 28.6075ZM23.5178 29.4016C23.5262 29.3771 23.543 29.3527 23.5567 29.3282C23.5708 29.3019 23.5859 29.2794 23.6015 29.2567C23.6462 29.1871 23.6929 29.1212 23.7454 29.0535C23.7629 29.0309 23.7803 29.0121 23.794 28.9894C23.8173 28.9556 23.8446 28.9236 23.8718 28.8915C23.8789 28.882 23.8859 28.8671 23.897 28.8596C23.9083 28.8746 23.8956 28.8953 23.8928 28.9085C23.8733 28.9931 23.8578 29.0703 23.8248 29.1474C23.8234 29.1529 23.7801 29.2209 23.8053 29.234C23.8208 29.2381 23.8403 29.1945 23.8443 29.1832C23.8715 29.1192 23.8948 29.0609 23.9162 28.9894C23.9377 28.9217 23.959 28.8559 23.9862 28.7918C23.9975 28.7693 24.0037 28.7466 24.0154 28.7278C24.0239 28.7182 24.0387 28.7108 24.0447 28.6995C24.0461 28.6995 24.046 28.6995 24.046 28.7009C24.0475 28.7328 24.0376 28.778 24.0305 28.825C24.0192 28.889 24.0053 28.9491 23.9917 29.0113C23.9742 29.0865 23.9548 29.1562 23.9353 29.2258C23.9254 29.2616 23.9158 29.2954 23.9041 29.3274C23.8691 29.4214 23.8301 29.5231 23.7932 29.6228C23.7875 29.6378 23.7819 29.6529 23.7737 29.6699C23.7624 29.6944 23.7582 29.7207 23.7368 29.7263C23.7255 29.7304 23.7018 29.7222 23.6843 29.7208C23.624 29.7113 23.5715 29.6831 23.5287 29.6531C23.5216 29.6212 23.5174 29.5835 23.5132 29.5477C23.5089 29.4931 23.498 29.4448 23.5178 29.4016ZM23.4068 28.9857C23.4125 29.0648 23.4153 29.1438 23.4181 29.2266C23.3501 29.2156 23.2742 29.2058 23.2081 29.2252C23.1996 29.2293 23.1926 29.2348 23.1867 29.2402C23.1867 29.2666 23.2008 29.2854 23.2139 29.2985C23.2252 29.2999 23.2392 29.3026 23.2489 29.3081C23.2722 29.304 23.2956 29.2944 23.3267 29.3026C23.3365 29.304 23.3481 29.3163 23.3577 29.3196C23.3732 29.325 23.3869 29.3278 23.3947 29.3332C23.4179 29.3502 23.4297 29.3784 23.4491 29.3934C23.4632 29.4442 23.4706 29.5214 23.4784 29.5816C23.4883 29.6343 23.4978 29.6832 23.5133 29.7284C23.5035 29.7243 23.4919 29.7229 23.4803 29.7229C23.4453 29.7188 23.4064 29.7215 23.3734 29.7147C23.3481 29.7106 23.3151 29.7106 23.2819 29.7093C23.2236 29.4853 23.1652 29.2558 23.1069 29.03C23.1322 29.0163 23.1672 29.0092 23.2002 29.0055C23.2547 28.9973 23.3111 28.9905 23.3655 28.983C23.3753 28.9816 23.3927 28.9816 23.4062 28.9871L23.4068 28.9857ZM23.7997 27.074C23.7764 27.0835 23.7802 27.0551 23.7744 27.0288C23.7702 27.0024 23.7549 26.9686 23.7857 26.9705C23.7956 26.9987 23.7997 27.0401 23.7997 27.074ZM23.8039 26.9272C23.7926 26.9381 23.7689 26.9517 23.7436 26.9381C23.7479 26.9193 23.7689 26.9156 23.7806 26.908C23.7947 26.8984 23.8059 26.8854 23.8194 26.8797C23.8525 26.8756 23.8739 26.8608 23.8952 26.8477C23.9008 26.8477 23.9009 26.8491 23.9037 26.8491C23.8804 26.8793 23.8369 26.9047 23.8039 26.9272ZM23.8836 27.059C23.8724 27.0326 23.8738 26.9988 23.8879 26.9724C23.902 26.9499 23.9403 26.9254 23.9793 26.9235C24.0376 26.9181 24.094 26.9372 24.1135 26.9724C24.133 27.0251 24.1135 27.0834 24.0688 27.1059C24.0085 27.1398 23.905 27.1101 23.8836 27.059ZM23.7183 27.9358C23.6853 27.944 23.6776 27.9791 23.6619 28.0055C23.6367 28.0601 23.6114 28.1109 23.588 28.1729C23.5355 28.297 23.483 28.4345 23.4324 28.5643C23.4282 28.5752 23.4267 28.5926 23.4129 28.602C23.4059 28.587 23.4073 28.5643 23.4073 28.5456C23.4059 28.4459 23.4059 28.3405 23.4115 28.2445C23.4157 28.2069 23.4214 28.173 23.4228 28.1354C23.4242 28.1053 23.4214 28.0771 23.4214 28.0527C23.4228 28.0302 23.4313 28.0075 23.4369 27.9831C23.4425 27.9605 23.4482 27.9379 23.4544 27.919C23.4558 27.9081 23.4615 27.8983 23.4685 27.8871C23.4997 27.793 23.5522 27.7121 23.6047 27.6368C23.6534 27.5691 23.7058 27.507 23.7583 27.4505C23.8283 27.3734 23.9022 27.3075 23.9858 27.2492C24.0345 27.2153 24.085 27.1776 24.1238 27.1363C24.1379 27.1212 24.1471 27.1024 24.1646 27.093C24.166 27.1118 24.1547 27.1307 24.1491 27.1419C24.1219 27.1813 24.0888 27.2209 24.0596 27.2585C24.0012 27.3337 23.9391 27.409 23.8865 27.4955C23.8613 27.5388 23.836 27.5821 23.8108 27.6254C23.733 27.7514 23.6649 27.887 23.5872 28.0168C23.5619 28.0601 23.5385 28.1071 23.5229 28.156C23.5385 28.1547 23.5424 28.1391 23.5502 28.1258C23.6571 27.9546 23.7602 27.7759 23.8691 27.6065C23.9274 27.5163 23.9878 27.4297 24.0596 27.345C24.1121 27.2848 24.1549 27.2207 24.1977 27.1474C24.2132 27.1249 24.2268 27.0985 24.2424 27.0797C24.2579 27.066 24.2696 27.1079 24.2657 27.1324C24.2643 27.1433 24.2516 27.1624 24.2462 27.1776C24.2229 27.2228 24.2092 27.2697 24.186 27.313C24.1549 27.3713 24.1217 27.4279 24.0965 27.4824C24.0382 27.6028 23.97 27.7082 23.9079 27.8154C23.8748 27.87 23.8436 27.9245 23.8126 27.9791C23.7251 28.1316 23.6376 28.2802 23.5521 28.4345C23.545 28.4454 23.5379 28.4664 23.5228 28.4664C23.5271 28.4495 23.5327 28.4307 23.5423 28.4156C23.5773 28.3366 23.6163 28.2519 23.657 28.1729C23.6823 28.1183 23.7038 28.0732 23.7193 28.0073C23.7249 27.9829 23.7378 27.9528 23.7183 27.9358ZM24.1675 26.8482C24.1948 26.8346 24.2161 26.8332 24.2337 26.8238H24.2394V26.8293C24.2394 26.8347 24.2309 26.8388 24.2281 26.8443C24.2086 26.8725 24.2048 26.9176 24.1776 26.9308C24.1601 26.9418 24.1388 26.9349 24.1134 26.939C24.0686 26.8958 23.9656 26.8938 23.9111 26.924C23.8936 26.9322 23.8761 26.9504 23.8469 26.9428C23.8526 26.9221 23.8742 26.9127 23.8917 26.9015C23.9267 26.8826 23.9578 26.862 23.9966 26.8432C24.0161 26.835 24.0374 26.8243 24.0589 26.8295C24.0603 26.8578 24.0744 26.8784 24.1171 26.869C24.1228 26.8676 24.1326 26.8635 24.1444 26.8581C24.1528 26.8567 24.1598 26.851 24.1675 26.8482ZM23.6678 27.0834C23.6692 27.0402 23.6664 27.0025 23.6678 26.9649C23.6692 26.9649 23.6692 26.9649 23.6692 26.9663C23.6678 27.0021 23.6762 27.0496 23.6678 27.0834ZM23.4868 27.0609C23.4882 27.0473 23.4868 27.0327 23.4911 27.0215C23.4967 26.9951 23.5105 26.9706 23.5223 26.9499C23.5321 26.9668 23.5293 26.9951 23.5321 27.0215C23.5378 27.0572 23.5434 27.1005 23.5477 27.1363C23.5491 27.1665 23.5477 27.1927 23.5364 27.2097C23.5223 27.2323 23.5111 27.2549 23.4974 27.2756C23.4875 27.2078 23.4792 27.1324 23.4868 27.0609ZM23.5218 27.3093C23.5303 27.2905 23.5393 27.2735 23.5491 27.2547C23.5705 27.2114 23.5898 27.1814 23.6171 27.1475C23.6326 27.1286 23.6463 27.1098 23.6638 27.0929C23.7125 27.1024 23.7707 27.1079 23.8271 27.1098C23.8426 27.1112 23.8661 27.1098 23.8796 27.1139C23.8951 27.118 23.9126 27.1364 23.9321 27.1402C23.9554 27.1484 23.9846 27.1443 24.0118 27.1484C23.9924 27.1823 23.9574 27.2048 23.9282 27.2312C23.9009 27.2556 23.8717 27.282 23.8464 27.3102C23.7939 27.3666 23.7395 27.4193 23.6909 27.4834C23.6422 27.5436 23.5956 27.6038 23.5489 27.6659C23.5139 27.713 23.4867 27.7656 23.4537 27.8164C23.4452 27.8314 23.4381 27.8522 23.4225 27.8635C23.4182 27.7619 23.4338 27.6622 23.4478 27.5662C23.4534 27.5248 23.471 27.4796 23.4827 27.4364C23.4968 27.395 23.5063 27.3468 23.5218 27.3093ZM23.3468 28.3235C23.3454 28.4045 23.3384 28.4853 23.337 28.5681C23.337 28.602 23.3356 28.6339 23.3327 28.666C23.3313 28.698 23.3327 28.7281 23.3257 28.7563C23.3144 28.7508 23.3062 28.7426 23.2829 28.7467C23.3044 28.5887 23.3218 28.4306 23.3413 28.2707C23.3427 28.2707 23.3427 28.272 23.3456 28.272C23.3526 28.287 23.3468 28.3066 23.3468 28.3235ZM23.3798 28.2332C23.3643 28.2319 23.3488 28.2278 23.3312 28.2237C23.3326 28.0393 23.3312 27.8643 23.341 27.7062C23.3453 27.6629 23.3453 27.6196 23.3453 27.5764C23.3467 27.535 23.3495 27.4954 23.3509 27.4559C23.3551 27.3599 23.3552 27.2659 23.3608 27.1624C23.3861 27.1515 23.4036 27.1324 23.425 27.1191C23.4264 27.1191 23.4264 27.1205 23.4264 27.1205C23.4419 27.1657 23.4306 27.2202 23.4335 27.2672C23.4377 27.318 23.4476 27.3707 23.4405 27.4159C23.4391 27.4347 23.4306 27.4536 23.4264 27.4686C23.4222 27.4855 23.4208 27.5044 23.4109 27.5157C23.4123 27.5382 23.4038 27.5646 23.3968 27.5909C23.3968 27.5991 23.3982 27.606 23.3968 27.6098C23.3968 27.6139 23.3925 27.6193 23.3925 27.6207C23.3673 27.7919 23.3812 28.014 23.377 28.2322L23.3798 28.2332ZM24.5524 26.1484C24.5595 26.162 24.5623 26.1728 24.5679 26.1861C24.5854 26.2463 24.5952 26.3102 24.6049 26.3761C24.6134 26.4062 24.619 26.4401 24.6244 26.4702C24.6314 26.5021 24.6399 26.5323 24.6458 26.5624C24.6317 26.5624 24.6186 26.5664 24.6088 26.5705C24.5427 26.5801 24.4514 26.5801 24.3755 26.6025C24.3755 26.5929 24.3755 26.5888 24.3755 26.5888C24.3755 26.5847 24.3755 26.5834 24.3741 26.5752C24.3699 26.5508 24.3699 26.5527 24.3699 26.5338C24.3699 26.5169 24.3684 26.4905 24.36 26.4944C24.3586 26.4718 24.3288 26.4285 24.325 26.4624C24.3236 26.4733 24.325 26.4849 24.325 26.4925C24.3307 26.5452 24.3292 26.5432 24.3306 26.6015C24.3321 26.6241 24.3363 26.7239 24.3292 26.7446C24.3179 26.7459 24.3059 26.7487 24.2942 26.7459C24.2787 26.7541 24.2612 26.7596 24.2457 26.7629C24.2242 26.7683 24.201 26.7738 24.1717 26.7724C24.1465 26.7683 24.1212 26.7615 24.0998 26.7536C24.0823 26.744 24.0628 26.7291 24.0433 26.7253C23.9869 26.7065 23.9831 26.763 23.9189 26.7517C23.9403 26.697 23.9753 26.6538 24.0064 26.6068C24.0472 26.5391 24.0938 26.4807 24.1444 26.4224V26.4237C24.1658 26.3993 24.1851 26.3749 24.2066 26.3522C24.2338 26.322 24.2611 26.2939 24.2903 26.2656C24.3016 26.2574 24.3097 26.2449 24.3272 26.2431C24.3174 26.2939 24.2942 26.3297 24.2573 26.3597C24.246 26.3706 24.2358 26.3841 24.2262 26.3897C24.2163 26.3979 24.199 26.4007 24.197 26.4142V26.4224C24.1956 26.4487 24.23 26.4543 24.2515 26.4431C24.2747 26.4281 24.2942 26.3867 24.3117 26.3565C24.3642 26.2663 24.4322 26.1665 24.512 26.1157C24.5295 26.1021 24.5466 26.1353 24.5524 26.1484ZM24.6711 26.6432C24.6555 26.6473 24.6361 26.6474 24.6166 26.6514C24.6124 26.6378 24.611 26.6232 24.6067 26.6082C24.618 26.6027 24.636 26.5945 24.6515 26.5986C24.6529 26.6174 24.6615 26.63 24.6711 26.6432ZM24.6824 26.6677C24.6866 26.6718 24.6965 26.6691 24.6965 26.6772C24.6965 26.6882 24.646 26.6961 24.6362 26.6998C24.5662 26.7186 24.4904 26.7525 24.4379 26.7825C24.4204 26.7934 24.4127 26.8089 24.3932 26.8014C24.3988 26.7904 24.4087 26.7806 24.4164 26.775C24.4263 26.7668 24.4417 26.7614 24.4514 26.7562C24.4982 26.7354 24.5447 26.711 24.5992 26.6921C24.6245 26.6839 24.6575 26.6785 24.6809 26.6677H24.6824ZM24.7019 27.1362C24.7486 27.2586 24.7816 27.3865 24.8186 27.5238C24.8242 27.5427 24.838 27.5746 24.8326 27.5916C24.8284 27.6123 24.7685 27.6293 24.7432 27.631C24.7277 27.6324 24.7042 27.6324 24.6965 27.6269C24.6866 27.6215 24.677 27.5893 24.6693 27.5723C24.6245 27.4821 24.5292 27.2073 24.4903 27.1094C24.4748 27.07 24.4805 27.0398 24.4709 27.0022C24.4666 26.9797 24.4709 26.9551 24.4694 26.8818C24.518 26.861 24.5764 26.8479 24.6425 26.8479C24.6496 26.8856 24.6524 26.8874 24.66 26.9251C24.6614 26.9495 24.6643 26.9515 24.6657 26.9759L24.6713 27.0305C24.6727 27.0442 24.6755 27.0588 24.6798 27.0719C24.684 27.0926 24.6941 27.1116 24.7019 27.1362ZM24.8671 27.5972H24.8728C24.8869 27.6109 24.8643 27.633 24.8533 27.6424C24.8203 27.6649 24.7521 27.6819 24.6997 27.6819C24.6783 27.6819 24.6413 27.6805 24.655 27.6517C24.7367 27.6705 24.8399 27.6559 24.8671 27.5972ZM24.8827 27.648C24.8982 27.6439 24.9139 27.6617 24.9139 27.6725C24.9125 27.6913 24.8906 27.6834 24.8691 27.6894C24.8592 27.6908 24.8536 27.7044 24.8399 27.7082C24.8357 27.7096 24.8258 27.7069 24.8205 27.7096C24.8106 27.7096 24.8029 27.7178 24.7932 27.7205C24.7861 27.7205 24.7777 27.7164 24.7699 27.7205C24.7586 27.7205 24.7544 27.7287 24.7447 27.7342C24.7252 27.7246 24.7174 27.7396 24.7039 27.7437C24.6844 27.7478 24.6572 27.7287 24.6728 27.7099C24.6799 27.6962 24.7195 27.6989 24.739 27.6962C24.7545 27.6948 24.7837 27.688 24.807 27.6812C24.842 27.6703 24.8634 27.6499 24.8827 27.648ZM24.9216 27.7121C24.9994 27.7309 25.0733 27.7667 25.1511 27.7892C25.1997 27.8028 25.2463 27.8156 25.2833 27.8381C25.2932 27.8436 25.2988 27.849 25.3066 27.8531C25.3221 27.8613 25.3338 27.8668 25.3473 27.8739C25.353 27.878 25.3629 27.8752 25.3587 27.8848C25.3446 27.893 25.3354 27.8766 25.3256 27.8739C25.2596 27.84 25.1914 27.8005 25.1001 27.7892C25.1099 27.8028 25.1273 27.8029 25.1428 27.8042C25.2245 27.8248 25.2945 27.8739 25.3606 27.9114C25.3705 27.9169 25.3879 27.9223 25.3879 27.9378C25.3766 27.946 25.3606 27.9364 25.3529 27.9296C25.2789 27.8807 25.2051 27.8242 25.0942 27.8072C25.0857 27.8261 25.1157 27.828 25.1253 27.8298C25.1835 27.8434 25.2245 27.8617 25.2711 27.89C25.2824 27.8982 25.2984 27.9088 25.3119 27.9182C25.3274 27.9264 25.3469 27.9319 25.3547 27.9465C25.3314 27.9634 25.2982 27.9451 25.2729 27.9315C25.2515 27.9219 25.236 27.9107 25.2127 27.9013C25.1739 27.8863 25.1232 27.875 25.0727 27.8655C25.0474 27.8601 25.0202 27.8601 24.9969 27.8546C24.9755 27.8505 24.9561 27.8339 24.9327 27.8339C24.9132 27.8564 24.9482 27.8546 24.9717 27.8639C24.9731 27.8653 24.9801 27.8735 24.9816 27.8735C25.0108 27.8816 25.0535 27.8789 25.0885 27.8844C25.1118 27.8885 25.1547 27.9013 25.1547 27.9126C25.1561 27.9371 25.0672 27.9181 25.0419 27.9181C24.9855 27.914 24.9487 27.9222 24.8961 27.9126C24.8572 27.9072 24.8164 27.8976 24.7949 27.8732C24.7879 27.8636 24.7808 27.8487 24.7808 27.8431C24.7808 27.8322 24.785 27.8168 24.7808 27.8018C24.7766 27.7881 24.7667 27.7848 24.7738 27.7735C24.7752 27.7639 24.7808 27.7721 24.7952 27.7653C24.8009 27.7653 24.8065 27.7598 24.8107 27.7571C24.8178 27.7557 24.8282 27.7585 24.836 27.7571C24.8501 27.7557 24.8515 27.7364 24.873 27.7421C24.8885 27.7285 24.9022 27.7196 24.9215 27.7101L24.9216 27.7121ZM25.2716 27.8061C25.2829 27.7979 25.3028 27.8116 25.3221 27.8198C25.3377 27.8253 25.3552 27.8293 25.3669 27.8348C25.3782 27.8444 25.4136 27.8819 25.4214 27.8969C25.4312 27.9177 25.4256 27.9421 25.4115 27.9628C25.3882 27.9797 25.361 27.991 25.3357 28.0041C25.3258 28.0096 25.3162 28.0096 25.3085 28.015C25.2929 28.0232 25.2852 28.0414 25.2695 28.0414C25.2681 28.0277 25.2794 28.0189 25.2836 28.0094C25.2935 28.0012 25.2991 27.9906 25.3069 27.9831C25.3379 27.9749 25.4022 27.9662 25.4061 27.936C25.4061 27.921 25.3906 27.9152 25.3828 27.9002C25.3772 27.8948 25.3758 27.8833 25.3715 27.8795C25.3603 27.8658 25.3365 27.8569 25.319 27.8456C25.3092 27.8401 25.2996 27.8347 25.2918 27.8287C25.2848 27.8246 25.2704 27.8177 25.2704 27.8079C25.2718 27.8079 25.2716 27.8075 25.2716 27.8061ZM25.4214 27.8363C25.4544 27.8322 25.4603 27.8665 25.4876 27.8758C25.507 27.8812 25.5323 27.8744 25.5537 27.8799C25.5752 27.8853 25.581 27.9024 25.5945 27.9193C25.5988 27.9248 25.614 27.9343 25.61 27.9419C25.6086 27.9514 25.5926 27.9514 25.5848 27.9528C25.5615 27.9637 25.5362 27.9867 25.5148 28.0036C25.4933 28.0186 25.4643 28.0375 25.4293 28.043C25.4118 28.0444 25.3903 28.0389 25.371 28.0389C25.3535 28.0389 25.334 28.0499 25.3185 28.0403C25.3298 28.0253 25.3535 28.0253 25.371 28.0159C25.402 28.0022 25.4624 27.9782 25.4585 27.9237C25.4543 27.8954 25.4273 27.8691 25.4215 27.8391L25.4214 27.8363ZM25.6372 27.9831C25.6722 27.9817 25.6897 28.0019 25.7052 28.0225C25.752 28.0903 25.7617 28.1994 25.7947 28.2879C25.7989 28.3067 25.8088 28.3255 25.8142 28.3442C25.8316 28.4045 25.8283 28.476 25.8283 28.5456C25.8269 28.6171 25.8226 28.6924 25.8226 28.7657C25.8269 28.8823 25.8518 28.9934 25.8499 29.1195C25.8499 29.1345 25.8541 29.1533 25.8442 29.1666C25.8343 29.1652 25.8343 29.1497 25.8329 29.1421C25.823 29.1158 25.8097 29.0857 25.8057 29.0537C25.8043 29.0311 25.8071 29.0048 25.8099 28.9821C25.8099 28.9088 25.8057 28.8448 25.7789 28.7902C25.7732 28.7793 25.7556 28.7582 25.7536 28.7488C25.7536 28.7393 25.7635 28.7281 25.7649 28.7169C25.7824 28.6397 25.7222 28.5833 25.7241 28.5061C25.7241 28.476 25.7298 28.4478 25.7284 28.4196C25.7241 28.333 25.6934 28.269 25.6526 28.2163C25.6681 28.1956 25.6953 28.1786 25.7051 28.1467C25.7135 28.1184 25.7136 28.0751 25.7037 28.047C25.6995 28.032 25.6896 28.0075 25.6764 27.9981C25.6434 27.9756 25.5927 27.994 25.5695 28.009C25.5652 28.0131 25.5596 28.0227 25.554 28.0279C25.5441 28.0361 25.5307 28.0374 25.5189 28.0448C25.5539 28.0185 25.587 27.9846 25.6395 27.9827L25.6372 27.9831ZM25.4058 29.5053C25.4253 29.4734 25.4388 29.4263 25.435 29.3736C25.4336 29.3284 25.4175 29.2889 25.4252 29.2437C25.435 29.2004 25.4641 29.1535 25.4874 29.112C25.5015 29.0875 25.5224 29.0498 25.5263 29.014C25.5305 28.9933 25.5263 28.9689 25.5221 28.9519C25.5136 28.9275 25.4968 28.9086 25.4929 28.8879C25.4929 28.8671 25.5042 28.8484 25.5143 28.8333C25.5242 28.8196 25.5396 28.8107 25.5474 28.7975C25.5516 28.792 25.553 28.7838 25.5572 28.7767C25.5643 28.7579 25.5747 28.7373 25.5805 28.7127C25.5848 28.7127 25.5848 28.7072 25.5862 28.7072C25.5862 28.7072 25.5862 28.7113 25.5904 28.7113C25.596 28.7584 25.5689 28.8185 25.5848 28.8656C25.5862 28.8738 25.5932 28.8825 25.596 28.8901C25.6017 28.8983 25.6031 28.9051 25.6102 28.9145C25.6243 28.9409 25.6489 28.9559 25.6568 28.9897C25.6625 29.0123 25.6625 29.0311 25.6568 29.048C25.6526 29.059 25.6456 29.0688 25.6413 29.0894C25.6413 29.1177 25.6554 29.1402 25.6456 29.1666C25.6413 29.1873 25.6223 29.1985 25.6164 29.2249C25.6093 29.2512 25.6178 29.2851 25.6164 29.3095C25.6164 29.3246 25.6107 29.3434 25.6051 29.3622C25.598 29.4074 25.5952 29.4507 25.5643 29.4732C25.5544 29.4814 25.5448 29.4842 25.5351 29.4902C25.5252 29.4956 25.5196 29.5071 25.504 29.509C25.4942 29.4981 25.4998 29.4808 25.504 29.4713C25.5235 29.4186 25.5935 29.349 25.539 29.2907C25.5376 29.3226 25.539 29.364 25.5235 29.3904C25.5136 29.404 25.4943 29.4167 25.4885 29.4298C25.4843 29.4339 25.4801 29.4408 25.4786 29.4487C25.4688 29.4788 25.4772 29.5145 25.4612 29.5483C25.4437 29.5878 25.3775 29.6048 25.3231 29.5841C25.3543 29.5672 25.3883 29.5392 25.4058 29.5053ZM25.1316 29.1403C25.1274 29.1553 25.1102 29.1666 25.1161 29.1873C25.0869 29.1515 25.1104 29.1082 25.1104 29.0537C25.1062 29.0085 25.056 28.971 25.0812 28.9183C25.0954 28.9278 25.1007 28.9408 25.1065 28.9615C25.1108 28.9697 25.1164 28.9752 25.1178 28.9804C25.1192 28.99 25.1192 28.9973 25.1235 29.0068C25.1291 29.0204 25.139 29.0312 25.1429 29.0387C25.1443 29.0575 25.1254 29.0764 25.1254 29.0989C25.1254 29.1098 25.1359 29.129 25.1316 29.1403ZM24.9916 29.3435C24.9959 29.3097 25.0111 29.2795 25.0149 29.2456C25.0163 29.2212 25.0163 29.1986 25.0149 29.1723C25.0079 29.1007 24.943 29.0405 24.9624 28.9559C24.9765 28.9518 24.9624 28.9766 24.9737 28.9784C24.9878 28.9798 24.9893 28.9702 24.997 28.9689C25.0203 28.8955 24.9483 28.8484 24.9737 28.7732C24.9878 28.7841 24.9952 28.7995 25.0145 28.807C25.0201 28.8278 25.032 28.8484 25.034 28.8711C25.034 28.888 25.0241 28.9011 25.0241 28.918C25.0241 28.9613 25.0513 28.9821 25.0688 29.0159C25.0745 29.08 25.0618 29.1477 25.0863 29.2041C25.0976 29.2361 25.1194 29.2549 25.1388 29.2793C25.1445 29.2875 25.1501 29.2982 25.1543 29.3057C25.1776 29.3697 25.1642 29.4412 25.1251 29.4694C25.1096 29.4803 25.0902 29.4863 25.0785 29.4996C25.0686 29.5105 25.0671 29.5278 25.0552 29.5353C25.0467 29.5258 25.0552 29.4959 25.0509 29.4789C25.0495 29.468 25.041 29.4526 25.0354 29.4432C25.0159 29.4149 24.9897 29.3886 24.9916 29.3435ZM24.9684 29.4263C24.9684 29.4222 24.974 29.4222 24.9754 29.4222C24.9968 29.4523 25.0124 29.488 25.0104 29.5332C24.9909 29.5318 24.9734 29.5291 24.9579 29.5277C24.9621 29.4977 24.9726 29.4582 24.9684 29.4263ZM24.9179 29.2833C24.9023 29.2381 24.9334 29.1778 24.9291 29.1233C24.9277 29.0875 24.915 29.0537 24.9019 29.0254C24.8804 28.9802 24.8494 28.9427 24.8436 28.8919C24.838 28.8222 24.8864 28.7846 24.9019 28.7263C24.9118 28.7038 24.9118 28.6792 24.9174 28.6511C24.9174 28.6497 24.9174 28.647 24.9174 28.647C24.9287 28.6456 24.9273 28.6565 24.9273 28.6714C24.9315 28.6921 24.9372 28.7033 24.9428 28.7203C24.9485 28.7285 24.9513 28.7372 24.9527 28.7428C24.9541 28.7617 24.9428 28.7842 24.9414 28.803C24.9372 28.8294 24.9499 28.8594 24.9499 28.8783C24.9499 28.8952 24.9442 28.9102 24.9442 28.9271C24.9372 28.961 24.9287 29.0005 24.9344 29.0382C24.9358 29.057 24.9456 29.0795 24.9518 29.1003C24.9631 29.138 24.9791 29.1736 24.9751 29.2244C24.9737 29.2639 24.9499 29.3016 24.9499 29.3429C24.94 29.3204 24.9256 29.3002 24.9179 29.2833ZM24.7603 29.2211C24.7618 29.2023 24.7617 29.1778 24.7589 29.1609C24.7589 29.1527 24.749 29.1421 24.7533 29.1346C24.7533 29.125 24.7603 29.1209 24.7631 29.1101C24.7826 29.0537 24.7301 29.0122 24.7049 28.9783C24.6601 28.9181 24.6329 28.856 24.6484 28.7469C24.6484 28.7455 24.6527 28.7428 24.6527 28.7414C24.6799 28.7697 24.6974 28.8073 24.7266 28.8299C24.7224 28.8826 24.721 28.939 24.7461 28.9786C24.756 28.9974 24.7694 29.0124 24.7811 29.0313C24.7924 29.0501 24.8123 29.0707 24.8161 29.0877C24.8217 29.1177 24.802 29.1423 24.7928 29.1648C24.7695 29.225 24.7815 29.3116 24.8103 29.3492C24.8244 29.3662 24.859 29.3794 24.857 29.4019C24.857 29.4244 24.8298 29.4302 24.818 29.4489C24.7888 29.4301 24.7733 29.4037 24.7558 29.3698C24.7459 29.3491 24.7364 29.321 24.7364 29.3002C24.7406 29.2738 24.7584 29.2494 24.7603 29.2211ZM24.8128 27.9755C24.8044 27.9864 24.8016 28.0055 24.803 28.0188C24.7855 28.0357 24.7757 28.0565 24.768 28.0771C24.7213 28.0825 24.694 28.1072 24.6765 28.1467C24.6681 28.1655 24.6709 28.1881 24.6723 28.2106C24.6737 28.2202 24.6779 28.2331 24.6779 28.2445C24.6779 28.2689 24.6667 28.3122 24.6547 28.3349C24.6434 28.3612 24.6157 28.3837 24.5982 28.4101C24.5911 28.4197 24.5841 28.4309 24.5787 28.4384C24.5646 28.4778 24.5773 28.5324 24.59 28.5569C24.5985 28.5678 24.6133 28.5776 24.6172 28.5869V28.6208C24.6215 28.6344 24.6229 28.6472 24.6229 28.6547C24.6229 28.6885 24.6088 28.7187 24.6054 28.7468C24.604 28.7657 24.604 28.7863 24.6054 28.8051C24.6125 28.8748 24.6326 28.9275 24.6599 28.9782C24.6655 28.9892 24.6754 28.9971 24.6793 29.0121C24.6463 28.9971 24.6113 28.9744 24.5938 28.9425C24.5743 28.9048 24.5763 28.8597 24.5743 28.8051C24.5701 28.7543 24.5491 28.711 24.5374 28.664C24.5318 28.6357 24.5303 28.6132 24.5275 28.5868C24.5261 28.5605 24.5317 28.536 24.536 28.5078C24.5473 28.4362 24.5612 28.3554 24.5846 28.2876C24.5945 28.2368 24.6216 28.2049 24.6371 28.1597C24.6799 28.0881 24.7208 28.0186 24.7849 27.9715C24.8005 27.9701 24.8064 27.9633 24.8199 27.9619C24.8256 27.966 24.8171 27.97 24.8128 27.9755ZM24.8596 28.173C24.8596 28.1648 24.861 28.1621 24.8638 28.1561C24.868 28.1561 24.868 28.1575 24.8652 28.1575C24.8497 28.1969 24.836 28.2384 24.8244 28.2835C24.8202 28.2753 24.8202 28.2666 24.8244 28.2572C24.8287 28.2289 24.8401 28.1842 24.8596 28.173ZM24.6768 28.4892C24.6838 28.4666 24.702 28.4497 24.7118 28.4289C24.7259 28.3932 24.739 28.3518 24.741 28.3048V28.2966C24.7424 28.2966 24.7424 28.2966 24.7452 28.3007C24.7782 28.4098 24.7102 28.5096 24.7122 28.6093C24.7122 28.6432 24.7235 28.6751 24.7374 28.7034C24.7445 28.7259 24.7607 28.7467 24.7473 28.7806C24.7221 28.7617 24.7104 28.7373 24.6909 28.7072C24.6838 28.6963 24.6754 28.6809 24.6714 28.6734C24.6559 28.6131 24.6598 28.54 24.6768 28.4892ZM24.7235 28.1636C24.739 28.1554 24.7487 28.1429 24.7721 28.1467C24.7546 28.1844 24.7449 28.2275 24.7449 28.2727C24.7393 28.2673 24.7294 28.2645 24.7216 28.2577C24.7002 28.2333 24.7065 28.1844 24.7235 28.1636ZM24.6243 28.4308H24.6299C24.6552 28.3819 24.6902 28.3423 24.7038 28.284C24.7095 28.2854 24.7109 28.2895 24.7151 28.2895C24.7137 28.3969 24.6277 28.4438 24.6159 28.5379C24.5984 28.5171 24.6004 28.4683 24.6174 28.4532V28.4573C24.6272 28.4573 24.616 28.431 24.623 28.4464C24.6287 28.4423 24.62 28.4377 24.6243 28.4308ZM24.8109 28.3951C24.8109 28.4233 24.8124 28.4572 24.8053 28.4872C24.7954 28.5174 24.7723 28.538 24.7683 28.5738C24.7669 28.5792 24.7683 28.5874 24.7683 28.5907C24.7669 28.5989 24.7613 28.6044 24.7584 28.6113C24.7542 28.6396 24.7627 28.666 24.7627 28.7017C24.7355 28.6584 24.7335 28.5926 24.7452 28.5399C24.7551 28.5005 24.7744 28.4666 24.7762 28.427C24.7847 28.3554 24.7748 28.2708 24.7875 28.2031C24.7988 28.1636 24.8245 28.139 24.844 28.109C24.8553 28.1049 24.8615 28.0882 24.877 28.0902C24.8784 28.0861 24.8685 28.0901 24.8714 28.0861C24.9219 28.0522 24.9919 28.0145 25.0716 28.0372C25.0484 28.0413 25.0134 28.0454 24.9861 28.0454C24.9161 28.0717 24.8539 28.1094 24.8208 28.1771C24.8194 28.1785 24.8194 28.1785 24.8166 28.1853C24.8095 28.2003 24.8011 28.238 24.7991 28.2662C24.7906 28.3133 24.8109 28.3518 24.8109 28.3951ZM25.5032 28.2896C25.5145 28.3668 25.5018 28.4421 25.474 28.4985C25.4545 28.5362 25.4293 28.5681 25.404 28.6039C25.4082 28.6176 25.4181 28.6453 25.4054 28.6585C25.3744 28.6544 25.3509 28.6449 25.3257 28.6322C25.3299 28.6716 25.3705 28.6755 25.3997 28.6905C25.4011 28.7014 25.3883 28.7149 25.3821 28.7168C25.3723 28.7182 25.3374 28.6924 25.3257 28.6886C25.32 28.6845 25.3158 28.6749 25.3102 28.6749C25.3102 28.7126 25.3412 28.7238 25.3589 28.7407C25.3532 28.7517 25.3414 28.769 25.3296 28.769C25.2986 28.7731 25.2831 28.7182 25.2732 28.6919C25.2537 28.7 25.2591 28.7276 25.2517 28.7465C25.2031 28.7295 25.1856 28.6807 25.1895 28.628C25.2008 28.5847 25.2828 28.5941 25.2965 28.5489C25.2979 28.5352 25.2951 28.5206 25.2894 28.5075C25.2838 28.4939 25.281 28.4812 25.27 28.4793C25.2601 28.4943 25.2841 28.515 25.27 28.5319C25.2601 28.5374 25.2525 28.5319 25.2427 28.5319C25.2097 28.5278 25.1825 28.5429 25.1513 28.5402C25.1372 28.5388 25.1221 28.5319 25.1066 28.5319C25.0953 28.5319 25.0833 28.5333 25.0716 28.5265C25.0673 28.5096 25.0828 28.4926 25.0645 28.4851C25.056 28.4988 25.047 28.5153 25.0532 28.5397C25.0546 28.5567 25.0727 28.5755 25.0844 28.583C25.1116 28.5981 25.1524 28.598 25.1641 28.6207C25.1698 28.6344 25.1698 28.6546 25.1655 28.6659C25.1613 28.7111 25.1228 28.7412 25.0838 28.7525C25.0895 28.7388 25.0937 28.6979 25.0768 28.6998C25.0655 28.6998 25.0613 28.7299 25.0515 28.743C25.0374 28.7656 25.0028 28.7844 24.9835 28.7485C25.0107 28.7297 25.038 28.7183 25.0497 28.6845C25.0384 28.6845 25.0127 28.6927 24.9914 28.7014C24.97 28.711 24.9544 28.7239 24.9544 28.6845C24.9934 28.6804 25.0186 28.6581 25.0361 28.6318C25.0128 28.64 24.9837 28.6525 24.9506 28.6454C24.9464 28.64 24.952 28.6318 24.9506 28.6285C24.8981 28.5664 24.8574 28.4836 24.8554 28.3801C24.854 28.3162 24.8709 28.2447 24.8943 28.192C24.9042 28.1694 24.9138 28.1543 24.9236 28.1392C24.9348 28.1185 24.9468 28.1016 24.9702 28.0923C24.9994 28.0814 25.0383 28.0734 25.0772 28.0753C25.118 28.0794 25.1452 28.0979 25.1784 28.1055C25.2211 28.1165 25.2503 28.0867 25.2853 28.083C25.3358 28.0775 25.3786 28.0926 25.4098 28.1169C25.4211 28.1223 25.4312 28.1394 25.4428 28.1507C25.4739 28.1809 25.4953 28.2316 25.505 28.29L25.5032 28.2896ZM25.476 28.9238C25.4816 28.9333 25.4915 28.9388 25.4974 28.9501C25.5073 28.9726 25.5073 29.0461 25.4861 29.0536C25.4918 28.9614 25.4025 28.9218 25.4239 28.8278C25.4296 28.8071 25.4352 28.7864 25.4454 28.7657C25.4609 28.7205 25.4843 28.6697 25.4687 28.6114C25.4687 28.6073 25.4616 28.5977 25.4616 28.5906C25.4616 28.5811 25.4888 28.5323 25.4986 28.5229C25.5127 28.5284 25.5127 28.5493 25.5141 28.5587C25.5254 28.5926 25.5471 28.632 25.5491 28.6735C25.5505 28.7112 25.5316 28.7563 25.5161 28.7845C25.4946 28.8147 25.4616 28.8372 25.4656 28.8861C25.4698 28.9011 25.4717 28.9124 25.476 28.9238ZM25.511 28.2068C25.5096 28.2068 25.5096 28.2027 25.5096 28.1986C25.511 28.2027 25.5138 28.2028 25.5152 28.2028C25.5541 28.2216 25.5697 28.2705 25.5735 28.3213C25.5749 28.357 25.558 28.3965 25.556 28.4286C25.5518 28.4663 25.5616 28.5001 25.5774 28.5208C25.5873 28.5317 25.6105 28.5415 25.6105 28.5641C25.6105 28.5866 25.591 28.6017 25.5872 28.6204C25.5731 28.6035 25.5697 28.5791 25.5639 28.5583C25.5583 28.5375 25.5498 28.5131 25.5484 28.4906C25.547 28.4681 25.5526 28.4529 25.554 28.4304C25.5625 28.3513 25.5362 28.2708 25.511 28.2068ZM25.7268 28.681C25.7268 28.7036 25.717 28.7299 25.7093 28.7468C25.6918 28.7732 25.6666 28.7807 25.6568 28.809C25.6456 28.8484 25.6743 28.8861 25.6667 28.9219C25.6554 28.9219 25.6492 28.9069 25.6453 28.8974C25.6382 28.8892 25.6312 28.8786 25.6278 28.8674C25.6122 28.8147 25.6511 28.7395 25.6334 28.6811C25.632 28.6702 25.6193 28.6567 25.6179 28.6492C25.6179 28.6209 25.6451 28.5984 25.6412 28.5626C25.6412 28.5401 25.6271 28.5306 25.6159 28.5137C25.6046 28.5001 25.5926 28.493 25.5926 28.4743C25.5926 28.4441 25.6141 28.4196 25.6198 28.3896C25.6311 28.3332 25.6199 28.2936 25.5984 28.2522C25.5998 28.2509 25.6026 28.2522 25.604 28.2522C25.6273 28.273 25.6468 28.3011 25.6643 28.3331C25.6784 28.3594 25.6896 28.4008 25.6915 28.4385C25.6915 28.4855 25.676 28.5345 25.6817 28.5815C25.6873 28.6173 25.7248 28.6396 25.7268 28.681ZM25.6004 28.0469C25.5919 28.0455 25.6102 28.0373 25.6102 28.0319C25.6317 28.013 25.6647 28.036 25.6686 28.0544C25.6918 28.1185 25.6375 28.1955 25.5869 28.2031C25.5654 28.2072 25.5304 28.199 25.5286 28.1842C25.5342 28.176 25.5399 28.1801 25.5461 28.1788C25.5869 28.1747 25.62 28.1543 25.6413 28.1299C25.6568 28.0904 25.6369 28.0469 25.6004 28.0469ZM25.5863 28.0524C25.5863 28.0633 25.5764 28.0712 25.5806 28.0824C25.5806 28.0906 25.5905 28.0961 25.5905 28.1012C25.5905 28.1094 25.5575 28.1257 25.5438 28.1314C25.5088 28.1424 25.4602 28.1328 25.4466 28.1145C25.5068 28.1063 25.5475 28.0806 25.5863 28.0524ZM25.1623 27.9545C25.1623 27.9375 25.1838 27.9435 25.1896 27.9337C25.2285 27.9378 25.1797 27.9695 25.1623 27.9545ZM25.2013 27.9808C25.2285 27.9754 25.2363 27.9526 25.2616 27.9526C25.2791 27.9789 25.2421 27.992 25.2324 28.0089C25.2129 28.0185 25.1953 28.0334 25.1584 28.0297C25.1351 28.0256 25.1137 28.0128 25.0904 28.0034C25.0359 27.9808 24.9659 27.9951 24.9212 28.0129C24.8785 28.0298 24.8492 28.0581 24.8182 28.0844C24.8434 28.0073 24.8921 27.964 24.9679 27.9527C24.9951 27.9513 25.0262 27.954 25.0534 27.9581C25.1059 27.9636 25.1585 27.9902 25.2013 27.9808ZM24.4623 26.8293C24.4637 26.8183 24.4818 26.8142 24.4954 26.8123C24.5361 26.8014 24.5848 26.786 24.6315 26.786C24.6358 26.7901 24.64 26.7969 24.64 26.8048V26.8089C24.6128 26.8185 24.5797 26.8198 24.5486 26.8239C24.5193 26.828 24.4903 26.8389 24.4649 26.8348C24.4649 26.8335 24.4623 26.8306 24.4623 26.8293ZM24.3476 26.9272C24.3462 26.919 24.3392 26.9162 24.3363 26.9083C24.3596 26.8933 24.3791 26.8631 24.4044 26.8537H24.4086C24.4142 26.9158 24.4199 26.9308 24.4199 26.9308C24.4241 26.9497 24.4255 26.9722 24.4312 26.9911C24.4368 27.0174 24.4453 27.0795 24.4506 27.1059C24.4577 27.1473 24.4856 27.2489 24.4993 27.2865C24.5441 27.4051 24.5985 27.5161 24.651 27.6215C24.6468 27.6365 24.6335 27.6497 24.6369 27.6686C24.6383 27.6822 24.651 27.6836 24.6563 27.693C24.6521 27.7099 24.6422 27.7175 24.6465 27.7325C24.6507 27.7644 24.7009 27.7758 24.7302 27.7777C24.74 27.7913 24.7457 27.8078 24.7534 27.8285C24.7577 27.8394 24.7749 27.8698 24.7729 27.8849C24.7715 27.8958 24.7457 27.9056 24.7379 27.915C24.7165 27.932 24.7009 27.9545 24.6834 27.9789C24.6426 28.0355 24.6037 28.0919 24.5765 28.1596C24.5709 28.1746 24.5666 28.1879 24.5551 28.1991C24.5649 27.7588 24.5278 27.3373 24.347 27.0625C24.3484 27.053 24.3484 27.0437 24.3484 27.0306L24.3498 26.9798C24.3498 26.9629 24.3498 26.9421 24.3455 26.9271L24.3476 26.9272ZM24.4663 28.8144C24.4578 28.8104 24.4663 28.7994 24.4677 28.7919C24.4734 28.7694 24.479 28.7392 24.4852 28.7129C24.4852 28.6959 24.4852 28.6809 24.4965 28.6696C24.4979 28.6696 24.4979 28.6709 24.5008 28.6709C24.4909 28.6992 24.4908 28.7367 24.4852 28.765C24.4796 28.7839 24.4787 28.8033 24.4663 28.8144ZM24.513 28.7279C24.513 28.7265 24.5144 28.7265 24.5144 28.7238H24.5201C24.5531 28.8028 24.5299 28.9044 24.5745 28.9703C24.5998 29.0155 24.6503 29.0305 24.7087 29.0493C24.734 29.0682 24.7172 29.0945 24.72 29.1209C24.72 29.1378 24.7341 29.1528 24.7375 29.1736C24.7375 29.1924 24.7333 29.213 24.7277 29.2338C24.7164 29.2242 24.7163 29.2036 24.7101 29.1905C24.7002 29.1717 24.6887 29.1491 24.6732 29.1341C24.6402 29.0983 24.5817 29.0908 24.5467 29.0533C24.5117 29.0156 24.4845 28.9517 24.4806 28.8858C24.4791 28.8294 24.513 28.7882 24.513 28.7279ZM24.8591 29.3206C24.8535 29.3288 24.8634 29.345 24.8535 29.3469C24.8394 29.3428 24.836 29.3262 24.832 29.315C24.8179 29.283 24.8106 29.2417 24.8208 29.1984C24.8363 29.1495 24.8557 29.1005 24.8382 29.046C24.8298 29.0234 24.811 29.0008 24.7955 28.9744C24.776 28.9386 24.7547 28.9086 24.7625 28.8503C24.7681 28.8108 24.7839 28.7656 24.7857 28.7185C24.7872 28.6677 24.7843 28.6206 24.7999 28.5793C24.8055 28.5605 24.8193 28.5304 24.8309 28.5135C24.8408 28.5094 24.845 28.5323 24.8484 28.5435C24.8597 28.5774 24.8698 28.632 24.8597 28.6753C24.8512 28.7036 24.8364 28.7261 24.8267 28.7524C24.8154 28.7957 24.8072 28.8484 24.8168 28.8954C24.821 28.9162 24.8309 28.9368 24.8382 28.9556C24.8557 28.997 24.8908 29.0347 24.8965 29.0798C24.9008 29.1005 24.898 29.125 24.8951 29.1438C24.8937 29.1871 24.8679 29.2171 24.881 29.2662C24.8866 29.2887 24.9063 29.3114 24.918 29.3339C24.9433 29.3903 24.949 29.4599 24.9166 29.5183C24.8933 29.5128 24.8835 29.4919 24.8699 29.475C24.9068 29.4336 24.8865 29.3582 24.8591 29.3206ZM25.285 29.1982C25.285 29.19 25.2907 29.1775 25.2907 29.1681C25.2907 29.1492 25.2765 29.1323 25.2808 29.1098C25.2822 29.089 25.2983 29.0721 25.3022 29.0496C25.3022 29.0251 25.2881 29.0119 25.2881 28.9855C25.2839 28.9746 25.2938 28.9516 25.2938 28.9366C25.2924 28.9284 25.2825 28.867 25.2705 28.867C25.2549 28.8656 25.2472 28.9028 25.2472 28.9216C25.2458 28.9271 25.2429 28.9499 25.2458 28.9593C25.2472 28.9781 25.2613 28.9895 25.2672 29.0082C25.2771 29.042 25.2531 29.074 25.2531 29.1003C25.2531 29.1153 25.2602 29.1304 25.2602 29.1417C25.2644 29.1681 25.2461 29.1925 25.2461 29.2169C25.2503 29.2376 25.2693 29.2546 25.2753 29.2753C25.2967 29.3524 25.2442 29.4088 25.2188 29.4559C25.2033 29.4709 25.1819 29.4747 25.1624 29.4954C25.1449 29.5179 25.1409 29.5631 25.0924 29.5387C25.098 29.5198 25.1216 29.5179 25.1294 29.501C25.1546 29.4821 25.1818 29.4633 25.1916 29.4294C25.2029 29.3842 25.1874 29.3221 25.1874 29.2638C25.1874 29.2356 25.1986 29.2169 25.2068 29.1905C25.2167 29.1661 25.2223 29.1378 25.2263 29.1153C25.2319 29.0626 25.1991 29.0156 25.2048 28.9741C25.2105 28.9553 25.2321 28.9403 25.2341 28.9214C25.2341 28.9045 25.2256 28.8951 25.22 28.8856C25.1985 28.8911 25.1695 28.8856 25.15 28.8911C25.1457 28.902 25.1415 28.9119 25.1443 28.925C25.1457 28.9359 25.1584 28.9438 25.1618 28.9551C25.1703 28.974 25.1731 28.9928 25.1773 29.0154C25.1816 29.0342 25.1929 29.0531 25.1929 29.0737C25.1943 29.132 25.1521 29.181 25.1559 29.2468C25.146 29.2386 25.1418 29.2279 25.1404 29.2204C25.1361 29.2109 25.1333 29.1997 25.1361 29.1903C25.1361 29.1714 25.1517 29.1601 25.1536 29.1431C25.1551 29.1295 25.1494 29.1149 25.1522 29.098C25.1565 29.0754 25.1755 29.0585 25.1755 29.0416C25.1755 29.0246 25.1614 29.0152 25.156 29.0039C25.156 28.9662 25.1346 28.9475 25.1365 28.9042C25.1365 28.9001 25.1295 28.896 25.1295 28.8892C25.108 28.8782 25.0808 28.8878 25.0633 28.8741C25.0458 28.8591 25.0492 28.8159 25.0341 28.797C25.0482 28.7875 25.0651 28.7888 25.0846 28.7861C25.0987 28.7806 25.1157 28.7691 25.1274 28.7672C25.1429 28.7659 25.1624 28.7768 25.1779 28.7768C25.1934 28.7727 25.2032 28.7659 25.2149 28.7659C25.2304 28.7659 25.2499 28.7809 25.2654 28.7828C25.2739 28.7842 25.2767 28.7814 25.2809 28.7814C25.3062 28.7855 25.3179 28.7984 25.3314 28.8097C25.3761 28.796 25.3956 28.757 25.4151 28.7194C25.4095 28.7741 25.3743 28.8079 25.3821 28.8681C25.3877 28.9189 25.4268 28.9508 25.4385 28.9941C25.44 29.005 25.4428 29.0224 25.4442 29.0393C25.4512 29.1165 25.413 29.1542 25.3877 29.2106C25.3722 29.1996 25.3547 29.1767 25.3547 29.1542C25.3533 29.1222 25.3878 29.0959 25.3937 29.0639C25.4021 29.0131 25.3761 28.9679 25.3644 28.9321C25.3588 28.9114 25.3546 28.8927 25.3489 28.8794C25.3433 28.8712 25.3348 28.8658 25.3314 28.8569C25.3229 28.846 25.3258 28.8267 25.31 28.8192C25.2959 28.8247 25.2945 28.8342 25.2925 28.8456C25.2925 28.8794 25.3333 28.9133 25.345 28.9416C25.3506 28.9525 25.352 28.9698 25.3591 28.9868C25.369 29.0056 25.3766 29.0262 25.3732 29.0545C25.3661 29.0845 25.3304 29.1072 25.3266 29.1391C25.3252 29.1542 25.3337 29.1861 25.3422 29.2013C25.3506 29.2149 25.3616 29.2257 25.3694 29.237C25.3779 29.2521 25.3849 29.2747 25.3889 29.2992C25.3945 29.318 25.4044 29.3444 25.4044 29.3632C25.4058 29.3782 25.4002 29.4159 25.3988 29.4348C25.3931 29.4611 25.3813 29.4761 25.3657 29.495C25.3502 29.5175 25.3462 29.5232 25.319 29.5363C25.3015 29.5459 25.282 29.55 25.2588 29.5571C25.2489 29.5585 25.2373 29.5653 25.2276 29.568C25.2081 29.5721 25.1945 29.5544 25.1711 29.5571C25.1796 29.4988 25.2314 29.4931 25.2606 29.4574C25.2917 29.4255 25.3151 29.3709 25.3091 29.3088C25.3049 29.273 25.2839 29.2411 25.2839 29.1997L25.285 29.1982ZM25.8061 29.3092C25.8047 29.3188 25.7963 29.33 25.7906 29.3393C25.7793 29.3693 25.7634 29.3939 25.7439 29.4184C25.7069 29.4636 25.6447 29.4918 25.5922 29.5313C25.5767 29.5422 25.563 29.5595 25.5475 29.5726C25.5334 29.5877 25.5145 29.6046 25.4988 29.6121C25.4918 29.6162 25.4833 29.6217 25.4716 29.6162C25.4631 29.6012 25.4829 29.6012 25.4911 29.5993C25.4981 29.5883 25.5125 29.5842 25.5183 29.5748C25.5225 29.5707 25.5197 29.5598 25.5239 29.5523C25.5395 29.5223 25.5765 29.5053 25.5997 29.4752C25.6096 29.4615 25.6172 29.4432 25.6192 29.4263C25.6234 29.4181 25.6206 29.4074 25.6263 29.3999C25.6376 29.383 25.6593 29.3774 25.6729 29.3641C25.68 29.3546 25.6944 29.3359 25.7022 29.3265C25.7078 29.3155 25.7217 29.2813 25.7236 29.2682C25.7349 29.206 25.7061 29.1591 25.718 29.08C25.6927 29.1063 25.7039 29.1647 25.7039 29.206C25.7039 29.2643 25.6728 29.302 25.6397 29.3301C25.6439 29.3094 25.6312 29.2907 25.6312 29.2738C25.6354 29.2493 25.6545 29.2343 25.6662 29.2174C25.6857 29.1835 25.6704 29.1421 25.676 29.1025C25.6803 29.0837 25.6902 29.0668 25.6936 29.0498C25.6978 29.031 25.6978 29.0121 25.6936 28.9934C25.6922 28.9825 25.6823 28.969 25.6837 28.9557C25.6837 28.9407 25.6978 28.9256 25.695 28.9011C25.695 28.8861 25.6851 28.8711 25.6851 28.8559C25.6837 28.8371 25.6893 28.807 25.7026 28.7919C25.7082 28.7878 25.7139 28.7878 25.7201 28.7837C25.7243 28.7782 25.7314 28.7612 25.7396 28.7648C25.759 28.773 25.7746 28.8401 25.7766 28.8664C25.7822 28.9078 25.778 28.9586 25.7751 28.9888C25.7737 29.0151 25.7709 29.0471 25.7737 29.0734C25.7751 29.1298 25.8029 29.1694 25.8067 29.2202C25.811 29.2504 25.8132 29.2829 25.8061 29.3092ZM22.3118 25.7755C22.3293 25.766 22.3507 25.7567 22.3662 25.7436C22.3606 25.7624 22.337 25.7755 22.3137 25.7812C22.3137 25.7799 22.3118 25.7796 22.3118 25.7755ZM22.271 26.0201C22.2597 25.9788 22.2569 25.926 22.2477 25.8884C22.2576 25.9109 22.2672 25.9411 22.2749 25.9693C22.2806 25.9994 22.2891 26.0315 22.2848 26.0578C22.2749 26.0496 22.2738 26.0334 22.271 26.0201ZM22.2088 25.7868C22.213 25.7759 22.2282 25.7718 22.236 25.768C22.2402 25.7734 22.2289 25.7762 22.2261 25.7816C22.2346 25.8099 22.2346 25.8437 22.2573 25.8644C22.246 25.8644 22.2418 25.8726 22.232 25.8726C22.232 25.8575 22.2048 25.8037 22.2088 25.7868ZM22.1974 25.7002C22.1742 25.6589 22.1488 25.6175 22.1235 25.5798C22.1334 25.544 22.141 25.4951 22.145 25.4463C22.1534 25.4463 22.1492 25.4558 22.1506 25.4651C22.1619 25.499 22.1914 25.5403 22.1563 25.5536C22.1676 25.61 22.1932 25.659 22.2068 25.7173C22.1997 25.7132 22.2017 25.7062 22.1974 25.7002ZM22.1645 25.8658C22.1352 25.8699 22.1002 25.8672 22.077 25.8604C22.0614 25.8522 22.0477 25.8415 22.0322 25.8303C22.001 25.7739 22.0128 25.676 22.0167 25.6026C22.0266 25.6328 22.0209 25.6911 22.0238 25.7344C22.0252 25.7608 22.0294 25.7908 22.0393 25.8096C22.0492 25.8341 22.084 25.851 22.1151 25.8568C22.1292 25.8609 22.1461 25.8568 22.1617 25.8527C22.1716 25.8513 22.1851 25.8431 22.189 25.854C22.189 25.8636 22.1742 25.8645 22.1645 25.8658ZM26.4308 29.6461C26.4167 29.642 26.4016 29.6379 26.3881 29.6324C26.3589 29.6269 26.32 29.6269 26.2888 29.6269C26.2596 29.6228 26.2306 29.6228 26.1974 29.616C26.1662 29.6106 26.1352 29.6078 26.106 29.5991C26.0827 29.5909 26.0573 29.5727 26.034 29.5596C25.9503 29.5182 25.8629 29.4788 25.7715 29.4448C25.7909 29.4148 25.8123 29.3921 25.8279 29.3638C25.8474 29.3261 25.8512 29.2792 25.8591 29.2284C25.8648 29.1983 25.8746 29.1645 25.8766 29.1381C25.8822 29.076 25.878 29.0196 25.8724 28.9631C25.8549 28.7881 25.8738 28.6169 25.8639 28.4532C25.8597 28.3855 25.8445 28.3139 25.8212 28.2519C25.7997 28.1878 25.7842 28.1183 25.7609 28.0637C25.7538 28.0449 25.7376 28.0167 25.7259 28.0035C25.7146 27.9884 25.6909 27.9771 25.6832 27.9621C25.6817 27.9539 25.6846 27.9485 25.6817 27.9377C25.6733 27.9151 25.6448 27.9075 25.6273 27.8944C25.6131 27.8848 25.604 27.8736 25.5923 27.8661C25.581 27.8565 25.567 27.8511 25.5515 27.8453C25.5402 27.8412 25.5262 27.8413 25.5145 27.8344C25.5032 27.8303 25.499 27.8208 25.4912 27.8156C25.4542 27.7931 25.4173 27.8047 25.3668 27.793C25.3583 27.793 25.3527 27.7849 25.3435 27.7849C25.2813 27.766 25.1937 27.7808 25.1257 27.7604C25.0517 27.7435 24.9895 27.704 24.9293 27.6852C24.9336 27.6513 24.906 27.6438 24.8866 27.6325C24.888 27.6136 24.9021 27.5817 24.8781 27.5684C24.871 27.5684 24.8626 27.5684 24.8509 27.5684C24.8178 27.4536 24.7984 27.3408 24.7673 27.2316C24.7532 27.177 24.7265 27.1244 24.7168 27.0717C24.7112 27.0434 24.7097 27.0153 24.7027 26.9795C24.7013 26.9513 24.6914 26.9212 24.6886 26.8893C24.6787 26.8423 24.6815 26.8008 24.6773 26.7538C24.6928 26.7331 24.7298 26.7105 24.7278 26.6747C24.7292 26.6693 24.7278 26.6638 24.7264 26.6578C24.7208 26.6371 24.7069 26.6165 24.6954 26.5976C24.6661 26.5318 24.6546 26.4527 24.6389 26.3756C24.6234 26.2946 24.6117 26.2194 24.5844 26.1517C24.576 26.1291 24.565 26.1065 24.5592 26.0858C24.5592 26.0845 24.5549 26.0845 24.5549 26.0818C24.5479 26.0346 24.5277 26.0102 24.483 26.0027C24.4773 25.9877 24.4655 25.9763 24.4557 25.9594C24.4501 25.9499 24.4305 25.9255 24.4305 25.9161C24.4248 25.8898 24.4347 25.8709 24.4248 25.854C24.4234 25.8431 24.4093 25.839 24.4073 25.8295C24.4059 25.82 24.4115 25.8107 24.4087 25.8013C24.4073 25.7876 24.3946 25.7863 24.3893 25.773C24.4087 25.7448 24.3893 25.7128 24.3738 25.6959C24.3893 25.6733 24.3723 25.6507 24.3596 25.6357C24.3771 25.6131 24.3554 25.5868 24.3455 25.5698C24.3568 25.5454 24.3455 25.5171 24.33 25.504C24.3455 25.4682 24.3244 25.4457 24.3201 25.425C24.3201 25.4195 24.3215 25.41 24.3215 25.4042C24.3201 25.3933 24.3103 25.3854 24.306 25.3779C24.3046 25.3669 24.3046 25.3571 24.3004 25.3478C24.299 25.3369 24.2947 25.3234 24.2905 25.312C24.2806 25.2443 24.271 25.2029 24.2282 25.1559C24.1621 25.0843 24.0688 25.0656 23.9969 25.0656H23.9954C23.9157 25.0574 23.8321 25.092 23.766 25.1333C23.7213 25.1616 23.6941 25.203 23.6785 25.2518C23.6771 25.2559 23.6729 25.2614 23.6686 25.2655C23.6511 25.2994 23.6337 25.337 23.6337 25.3784C23.6238 25.4029 23.6161 25.4292 23.6084 25.4519C23.6042 25.4655 23.607 25.4782 23.6027 25.4933C23.6027 25.4987 23.5971 25.5069 23.5943 25.514C23.5943 25.5222 23.5985 25.529 23.5985 25.5385C23.5752 25.5535 23.579 25.5817 23.583 25.61C23.5655 25.6209 23.5635 25.6589 23.5788 25.6702C23.5555 25.6891 23.5555 25.7341 23.5731 25.7568C23.5689 25.7718 23.559 25.7756 23.559 25.7907C23.559 25.8043 23.5689 25.8114 23.5689 25.8226C23.5675 25.8335 23.5548 25.8415 23.5514 25.8528C23.5457 25.8753 23.5514 25.8867 23.5599 25.8998C23.5457 25.9186 23.5288 25.943 23.5404 25.9731C23.5347 25.9826 23.5262 25.9867 23.5229 25.9975C23.5186 26.003 23.5229 26.0112 23.5186 26.0201C23.5144 26.037 23.4953 26.0483 23.4836 26.0614C23.4738 26.0724 23.4642 26.0878 23.4564 26.1028C23.4312 26.1423 23.4097 26.1894 23.3962 26.2382C23.3554 26.4114 23.3184 26.6033 23.2697 26.7689C23.2599 26.8027 23.2556 26.8366 23.2367 26.8668C23.1453 26.8348 23.0364 26.8216 22.9353 26.799C22.9311 26.7821 22.9339 26.7633 22.9198 26.7539C22.9023 26.7443 22.879 26.7593 22.8595 26.7634C22.851 26.7409 22.811 26.7295 22.7875 26.7446C22.7763 26.7364 22.7623 26.7336 22.7525 26.7238C22.7412 26.6768 22.7156 26.6391 22.6806 26.6109C22.6651 26.6013 22.6418 26.5921 22.6223 26.5789C22.5913 26.562 22.564 26.547 22.529 26.5356C22.5076 26.5275 22.4628 26.5018 22.4532 26.4829C22.4518 26.4775 22.4518 26.466 22.449 26.4585C22.4178 26.3456 22.3887 26.2384 22.3595 26.1255C22.3553 26.1066 22.3483 26.086 22.3497 26.0728C22.3511 26.0632 22.3581 26.0618 22.3595 26.052C22.3595 26.0411 22.3539 26.0218 22.3525 26.0087C22.3384 25.9617 22.3233 25.9202 22.3175 25.8733C22.372 25.8651 22.4108 25.8431 22.4439 25.815C22.4614 25.7848 22.4828 25.7623 22.479 25.7134C22.4677 25.5891 22.368 25.4989 22.3603 25.3653C22.3589 25.337 22.3687 25.3106 22.3546 25.2862C22.3391 25.2876 22.3313 25.3087 22.3274 25.322C22.2904 25.4255 22.3526 25.5177 22.3682 25.608C22.3766 25.6494 22.3668 25.6946 22.339 25.719C22.3248 25.7299 22.2982 25.7548 22.2807 25.7453C22.2652 25.7077 22.2574 25.6474 22.2666 25.6042C22.251 25.5835 22.2807 25.561 22.2736 25.5346C22.2722 25.525 22.2542 25.5101 22.2444 25.5007C22.2374 25.4871 22.2269 25.4763 22.2192 25.4669C22.1861 25.4142 22.1511 25.352 22.1259 25.2938C22.116 25.2749 22.1118 25.2486 22.0889 25.2411C22.0748 25.252 22.0833 25.2674 22.0847 25.2787C22.0931 25.322 22.096 25.3634 22.1002 25.4123C22.1002 25.4461 22.1002 25.5064 22.0931 25.544C22.0889 25.555 22.079 25.5685 22.0819 25.5817C22.0861 25.5899 22.0974 25.5954 22.1013 25.6025C22.1084 25.6134 22.1126 25.6233 22.1208 25.6364C22.15 25.674 22.1713 25.7173 22.1888 25.7624C22.179 25.7678 22.1693 25.7812 22.1733 25.7943C22.1033 25.8207 22.0624 25.7736 22.0566 25.7153C22.0509 25.6626 22.0566 25.6043 22.0467 25.5497C22.0383 25.4914 22.0155 25.4331 21.9825 25.3954C21.9726 25.3845 21.9553 25.3654 21.9358 25.3729C21.9372 25.3898 21.9499 25.4011 21.9572 25.4162C21.9922 25.5141 21.9767 25.6758 21.9787 25.7944C21.9801 25.8471 22.0099 25.8865 22.0429 25.9054C22.0876 25.9317 22.1499 25.9149 22.2062 25.9054C22.2218 25.9468 22.2374 26.0051 22.249 26.0522C22.2532 26.0631 22.2532 26.0747 22.2575 26.0823C22.2617 26.0864 22.273 26.0905 22.2769 26.0974C22.2854 26.1056 22.2868 26.135 22.2911 26.152C22.3261 26.2818 22.361 26.4192 22.3922 26.5434C22.3922 26.5543 22.381 26.5584 22.3767 26.5659C22.3697 26.5847 22.3725 26.6017 22.3725 26.6261C22.3725 26.637 22.371 26.6469 22.3725 26.6544C22.3725 26.6653 22.3838 26.6751 22.388 26.6863C22.3922 26.7107 22.388 26.7333 22.4075 26.7465C22.4075 26.7729 22.423 26.7973 22.4367 26.8123C22.448 26.8233 22.4639 26.8274 22.4697 26.8368C22.4768 26.8477 22.4838 26.882 22.4892 26.9008C22.4934 26.9253 22.4991 26.9497 22.5047 26.9686C22.5397 27.1021 22.5689 27.2301 22.6059 27.3637C22.7206 27.804 22.8314 28.2424 22.9403 28.6809C22.9618 28.7711 22.9909 28.8558 23.0026 28.948C22.9831 28.9521 22.9618 28.959 22.9423 28.9669C22.9113 28.9806 22.8801 28.9932 22.8471 29.0046C22.7965 29.0271 22.744 29.0535 22.7031 29.0798C22.6947 29.0853 22.6857 29.0894 22.6779 29.0948C22.5592 29.172 22.4718 29.3037 22.3959 29.426C22.3846 29.4448 22.3727 29.4637 22.361 29.4806C22.3553 29.4915 22.3539 29.5051 22.3468 29.5183C22.3412 29.5292 22.3313 29.5391 22.3274 29.5522C22.3041 29.6049 22.2846 29.6576 22.2769 29.7215C22.2656 29.8006 22.2754 29.8739 22.3001 29.9341C22.2651 29.9328 22.1892 29.9451 22.1874 29.9774C22.1874 29.9963 22.2108 30.0132 22.2146 30.0244C22.1971 30.0326 22.1834 30.0339 22.1582 30.0298C22.1174 30.0257 22.0551 30.0203 22.0182 30.0353C22.0069 30.0435 21.987 30.0561 21.991 30.073C21.9924 30.1032 22.0589 30.1107 22.0901 30.1107C22.1042 30.1107 22.1154 30.1052 22.1251 30.1052C22.1524 30.1039 22.1834 30.1052 22.2068 30.1134C22.2181 30.1189 22.2182 30.123 22.2244 30.1244C22.23 30.1257 22.2399 30.123 22.2496 30.1244C22.2567 30.1244 22.2651 30.1298 22.2749 30.1298C22.3041 30.1312 22.3371 30.1298 22.3604 30.1298C22.3547 30.138 22.3463 30.1448 22.3371 30.1523C22.3413 30.1633 22.3371 30.1693 22.3385 30.1862C22.354 30.2106 22.3735 30.2201 22.4047 30.2276C22.4649 30.2426 22.5156 30.2139 22.5739 30.2194C22.6146 30.2235 22.6575 30.2457 22.71 30.2363C22.6906 30.2571 22.677 30.2984 22.6945 30.3248C22.7044 30.3384 22.7198 30.3385 22.7315 30.3473C22.7762 30.3514 22.8229 30.3528 22.8676 30.3487C22.8987 30.3473 22.9551 30.3298 22.9824 30.3487C22.9922 30.3541 22.9979 30.3712 23.0076 30.3845C23.0091 30.3886 23.0175 30.394 23.0271 30.3995C23.0313 30.4036 23.0384 30.4131 23.0426 30.4164C23.0621 30.4273 23.1184 30.4372 23.1301 30.4578C23.1315 30.4591 23.1245 30.4633 23.1315 30.466C23.1301 30.5149 23.1329 30.5676 23.1568 30.6034C23.1681 30.6184 23.1879 30.6259 23.1956 30.6428C23.2229 30.6578 23.2481 30.6786 23.2793 30.6974C23.2968 30.7083 23.3201 30.7144 23.3415 30.7238C23.361 30.7347 23.3765 30.7538 23.392 30.769C23.3963 30.769 23.3963 30.769 23.3963 30.7676C23.3977 30.7676 23.4005 30.7676 23.4005 30.7662C23.3906 30.7703 23.3906 30.7511 23.3906 30.7418C23.3906 30.7154 23.4019 30.6891 23.4081 30.6647C23.4431 30.5047 23.3478 30.3881 23.2719 30.3147C23.2621 30.3038 23.2487 30.2977 23.2447 30.2846C23.2837 30.2764 23.3069 30.2583 23.34 30.2413C23.3541 30.2977 23.3652 30.358 23.3769 30.4182C23.3826 30.4371 23.3868 30.4615 23.4002 30.469C23.4157 30.4772 23.4489 30.4636 23.4547 30.4554C23.4702 30.4346 23.4504 30.3952 23.4448 30.3707C23.4349 30.3274 23.4273 30.2955 23.4156 30.2522C23.4114 30.2352 23.3981 30.2014 23.4043 30.1881C23.41 30.1693 23.4705 30.1674 23.5073 30.1693C23.5268 30.1707 23.556 30.1775 23.5793 30.1775C23.6085 30.1734 23.6338 30.153 23.6668 30.1638C23.6823 30.1734 23.6882 30.1902 23.7057 30.1939C23.7544 30.2075 23.8147 30.2048 23.8652 30.1939C23.8885 30.1857 23.9119 30.1802 23.9352 30.1731C23.9701 30.1635 24.0051 30.1636 24.0284 30.1487C24.0517 30.1432 24.1004 30.135 24.1024 30.1148C24.1024 30.1039 24.0869 30.1053 24.0911 30.0904C24.1106 30.0849 24.1299 30.0767 24.1513 30.0767C24.1824 30.0754 24.2136 30.0849 24.2408 30.0849C24.2563 30.0863 24.2758 30.0767 24.2913 30.0808C24.3263 30.0849 24.3613 30.0997 24.4003 30.0945C24.4178 30.0904 24.4353 30.0835 24.4605 30.0808C24.4838 30.0767 24.5091 30.0863 24.5345 30.089C24.5655 30.0904 24.6025 30.0876 24.6375 30.0849C24.6842 30.0795 24.7327 30.0713 24.7657 30.0547C24.7742 30.0506 24.789 30.0359 24.7988 30.0359C24.8086 30.0345 24.8318 30.0414 24.8493 30.0455C24.8687 30.0455 24.8901 30.0495 24.9057 30.0495C24.9252 30.0495 24.9582 30.0455 24.9602 30.0345C24.9658 30.0236 24.9427 30.0045 24.9349 29.9988C24.8902 29.9724 24.8007 29.9724 24.7424 29.9818C24.7283 29.9859 24.7094 29.9955 24.6997 29.9818C24.7011 29.9668 24.7211 29.9709 24.7327 29.963C24.7426 29.9575 24.7468 29.9479 24.7559 29.9422C24.8045 29.9518 24.8629 29.9518 24.9154 29.9436C24.9426 29.9624 24.9776 29.9661 25.0184 29.9699C25.0227 29.9781 25.017 29.9869 25.0227 29.9944C25.046 30.0113 25.0849 30.0151 25.1219 30.0151C25.2229 30.0206 25.3358 30.0396 25.433 30.0452C25.4738 30.0771 25.5555 30.0696 25.6099 30.0866C25.5944 30.092 25.5847 30.1035 25.573 30.111C25.501 30.0941 25.4155 30.1001 25.3513 30.1192C25.326 30.1301 25.3143 30.1586 25.3372 30.1775C25.3586 30.1982 25.4091 30.2038 25.4539 30.2038C25.4986 30.2038 25.5433 30.2134 25.5841 30.2038C25.5996 30.2025 25.6269 30.1902 25.6346 30.1831C25.6459 30.1776 25.6487 30.1643 25.6487 30.1529C25.6895 30.1529 25.8082 30.1584 25.814 30.1171C25.8154 30.1035 25.8028 30.1002 25.7999 30.0908C25.8214 30.0949 25.8252 30.0663 25.8447 30.0606H25.8739C25.8852 30.0565 25.9031 30.0524 25.9127 30.0497C25.9302 30.0388 25.9341 30.0252 25.9496 30.012C25.9749 30.012 25.9984 30.0202 26.0236 30.0079C26.0489 29.9983 26.0683 29.9721 26.0976 29.9665C26.1268 29.9583 26.152 29.9679 26.1812 29.9747C26.2085 29.9802 26.2395 29.9897 26.2687 29.9897C26.2939 29.9938 26.3349 29.9897 26.3562 29.9761C26.3717 29.9706 26.3834 29.9553 26.399 29.9497C26.4262 29.9415 26.4612 29.9443 26.4787 29.9215C26.4801 29.916 26.4801 29.9045 26.4801 29.9007C26.5326 29.88 26.5578 29.8424 26.5501 29.7709C26.5444 29.7031 26.4918 29.6598 26.4276 29.6467L26.4308 29.6461ZM24.8713 30.1089C24.8557 30.1103 24.8402 30.1198 24.8285 30.1185C24.8186 30.1185 24.8091 30.1103 24.7955 30.1048C24.778 30.0994 24.7527 30.0953 24.7275 30.0939C24.6983 30.0939 24.6108 30.1048 24.6535 30.1391C24.6677 30.1528 24.7041 30.1579 24.7275 30.1635C24.7162 30.1745 24.719 30.1899 24.7317 30.1974C24.7589 30.2199 24.8407 30.2182 24.8834 30.2238C24.9126 30.2224 24.9592 30.2183 24.9962 30.2224C25.0103 30.2265 25.0331 30.2374 25.0487 30.2393C25.0914 30.2475 25.1244 30.2298 25.1478 30.2168C25.1653 30.2031 25.1809 30.1943 25.1731 30.1716C25.1401 30.1472 25.0876 30.1414 25.0292 30.1377C25.0117 30.0944 24.9218 30.0958 24.8713 30.1089ZM24.669 29.567C24.6865 29.5501 24.7138 29.5501 24.7313 29.5368C24.7002 29.5049 24.603 29.5086 24.6088 29.5726C24.6144 29.599 24.675 29.6044 24.669 29.567ZM25.1318 28.7956C25.1304 28.8144 25.1494 28.8332 25.1649 28.8332C25.1844 28.8373 25.2076 28.8182 25.2018 28.7974C25.1863 28.7893 25.1493 28.7915 25.1318 28.7956ZM24.9957 28.312C25.019 28.3038 25.0482 28.3229 25.0249 28.3364C25.0178 28.3378 25.0108 28.335 25.0074 28.3323C25.0116 28.3567 25.0482 28.3548 25.0657 28.3432C25.0699 28.3473 25.0755 28.3473 25.0727 28.3542C25.0397 28.3651 24.9859 28.3553 24.9957 28.312ZM25.0521 28.28C25.0113 28.2593 24.9685 28.2882 24.9335 28.2787C24.9264 28.2787 24.9179 28.2677 24.912 28.2677C24.912 28.3016 24.9275 28.3166 24.9587 28.3204C24.9742 28.3656 25.0229 28.3807 25.089 28.3787C25.096 28.3842 25.0932 28.3924 25.103 28.3938C25.1101 28.3938 25.1206 28.3801 25.1206 28.373C25.1206 28.3634 25.1107 28.3372 25.105 28.3316C25.0994 28.3147 25.0658 28.2894 25.0521 28.28ZM25.3166 28.3441C25.3109 28.3441 25.3081 28.3523 25.3025 28.3482C25.3011 28.3372 25.3095 28.34 25.3138 28.3345C25.3138 28.3156 25.3222 28.3043 25.341 28.3043C25.3551 28.3125 25.3551 28.3326 25.341 28.3401C25.3663 28.3483 25.38 28.3251 25.3818 28.3024C25.3931 28.301 25.3959 28.3065 25.4013 28.312C25.3942 28.3439 25.3516 28.361 25.3166 28.3441ZM25.4216 28.2725C25.3963 28.2739 25.3671 28.2556 25.3418 28.2589C25.3224 28.2602 25.2991 28.2777 25.2854 28.2927C25.2755 28.3116 25.2601 28.3473 25.2601 28.3699C25.2601 28.374 25.2615 28.3808 25.2714 28.3849C25.2813 28.3904 25.2799 28.3712 25.2855 28.3699C25.338 28.374 25.375 28.374 25.4022 28.3548C25.4178 28.3439 25.4255 28.321 25.4334 28.3002C25.4405 28.2866 25.4587 28.272 25.4529 28.2531C25.4515 28.2531 25.4515 28.2518 25.4472 28.2518C25.4388 28.2572 25.4327 28.2706 25.4216 28.2725ZM25.2077 28.267C25.1922 28.2589 25.1862 28.2407 25.1862 28.2388C25.1778 28.267 25.161 28.2707 25.1455 28.2745C25.1313 28.2786 25.124 28.2664 25.1162 28.2664C25.1106 28.3058 25.1765 28.2946 25.1902 28.2745C25.2014 28.2896 25.2484 28.3065 25.2524 28.2705C25.2369 28.2787 25.2214 28.2752 25.2077 28.267ZM24.0079 27.0722C23.9938 27.0859 23.9864 27.0859 23.9749 27.0667C23.9636 27.0531 23.9516 27.0329 23.9534 27.0028C23.9576 26.9765 23.9787 26.954 23.9962 26.9426C23.9976 26.9426 23.9976 26.944 24.0004 26.944C24.0432 26.9703 24.0461 27.0345 24.0079 27.0722ZM23.9904 26.9348C23.9514 26.9389 23.9224 26.9556 23.9106 26.98C23.8994 26.997 23.8951 27.0289 23.9064 27.0497C23.9163 27.0722 23.9589 27.1024 23.9919 27.1024C24.0249 27.1037 24.0677 27.0779 24.0814 27.0535C24.1106 26.9895 24.0585 26.931 23.9904 26.9348ZM23.9847 25.772V25.7665C23.9904 25.7624 24.0002 25.7665 24.0062 25.7679C24.0076 25.7761 23.9867 25.7733 23.9847 25.772ZM24.0762 25.7193C24.0705 25.7193 24.0663 25.7275 24.0606 25.7275C24.0536 25.7275 24.0432 25.722 24.0354 25.722C24.0241 25.7206 24.0139 25.7261 24.0062 25.7275C23.9809 25.7086 23.9595 25.7357 23.942 25.7316C23.9278 25.7316 23.9279 25.722 23.9187 25.722C23.9116 25.7275 23.9131 25.7428 23.9187 25.7484C23.9272 25.7524 23.9401 25.747 23.9479 25.7497C23.9564 25.7606 23.9564 25.7836 23.9752 25.7911C23.9864 25.7966 24.0199 25.7966 24.0336 25.7911C24.0477 25.7829 24.055 25.7667 24.0588 25.7497C24.0659 25.7484 24.0763 25.7443 24.0938 25.7443C24.0952 25.7273 24.0895 25.7193 24.0762 25.7193Z" fill="#191917"/>
<path d="M23.9983 5.02753L21.4528 23.5354L24.0021 22.2201L23.9983 5.02753Z" fill="#EE7A00"/>
<path d="M18.5534 26.0775L8.72554 22.9766L19.1212 28.7664L18.5534 26.0775Z" fill="#EE7A00"/>
<path d="M39.2669 22.9729L27.4342 24.2054L29.4683 26.0682L39.2669 22.9729Z" fill="#EE7A00"/>
<path d="M27.4127 32.2399L33.6586 40.4345L28.5561 29.8163L27.4127 32.2399Z" fill="#EE7A00"/>
<path d="M14.3337 40.4438L23.4362 32.6387L20.5912 32.236L14.3337 40.4438Z" fill="#EE7A00"/>
<path d="M24.352 32.4395L27.2533 32.0349L28.42 29.5342L24.352 32.4395Z" fill="#EE7A00"/>
<path d="M19.5839 29.5378L20.7507 32.0329L23.6461 32.4393L19.5839 29.5378Z" fill="#EE7A00"/>
<path d="M20.8751 24.2823L18.81 26.1583L19.3875 28.8735L20.8751 24.2823Z" fill="#EE7A00"/>
<path d="M27.123 24.2823L29.1881 26.1564L28.6106 28.8735L27.123 24.2823Z" fill="#EE7A00"/>
<path d="M26.5765 23.861L24.0019 22.5119L21.4215 23.861H26.5765Z" fill="#EE7A00"/>
</svg>
