<svg width="48" height="48" viewBox="0 0 48 48" fill="none" xmlns="http://www.w3.org/2000/svg">
<g clip-path="url(#clip0_15_2983)">
<path fill-rule="evenodd" clip-rule="evenodd" d="M33.0179 15.274C32.8602 16.1485 32.8602 16.1485 32.7455 16.7077C32.4588 17.4962 32.086 18.127 31.6129 18.8152C31.5842 18.8295 31.5699 18.8439 31.5412 18.8582C30.2222 20.3636 28.6452 21.2955 26.7527 21.955C26.3799 22.041 26.3799 22.041 26.3369 22.0697V22.1557C26.4659 22.2847 26.7097 22.2561 26.8674 22.2561C27.0107 22.2991 27.0108 22.2991 27.2401 22.3134C27.9283 22.5285 28.5878 22.7865 29.2186 23.1593C29.2616 23.2166 29.5627 23.4317 30.0502 23.8618C30.1935 24.0338 30.3369 24.2059 30.4803 24.3779C30.7814 24.808 30.9964 25.3098 31.1828 25.8116C31.2401 26.0697 31.2975 26.3277 31.3548 26.5858C31.3835 26.8725 31.3835 26.8725 31.3835 27.6181C31.3262 27.9765 31.2545 28.3349 31.1971 28.6933C31.0968 28.9084 31.0681 29.0661 30.8961 29.4962C30.5233 30.2417 30.1075 30.9299 29.5627 31.5607C28.9032 32.2489 28.1864 32.851 27.4265 33.4245C27.2975 33.4819 27.0968 33.5535 27.0107 33.6682C25.8351 34.3277 24.6738 34.7722 23.3978 35.2166C22.6093 35.3743 21.8351 35.532 21.0323 35.6324C19.5699 35.7184 19.5699 35.7184 19.1541 35.7614C17.8638 35.8044 12.8889 36.0482 12.8029 36.0338C12.7312 35.9622 12.7455 35.7758 12.8029 35.7041C14.1362 35.317 15.4982 34.8725 16.8459 34.5428C16.9606 34.4998 19.2258 33.8403 19.4552 33.7543C20.4731 33.5392 21.4767 33.1521 22.4803 32.8797C22.7097 32.7937 23.914 32.4639 25.0323 32.1342C26.0215 31.9048 27.0681 31.5894 28.0287 31.2596C28.0717 31.2023 28.0717 31.1449 28.0717 31.0733C28.043 31.0589 28.0143 31.0303 28 31.0159C27.914 31.0159 26.6237 31.3457 20.6021 32.808C20.5735 32.8224 20.5448 32.8367 20.5305 32.851C19.4265 33.0661 18.3226 33.3815 17.2186 33.6396C17.1326 33.6682 17.0466 33.6969 16.9749 33.7256C12.8029 34.7148 12.8029 34.7148 12.7025 34.7578H12.5878C12.5018 34.6432 12.4444 34.6288 12.4731 34.4711C12.7885 34.2704 12.7885 34.2704 13.5627 33.8259C13.7634 33.7399 15.6702 32.6503 15.8566 32.5643C17.3763 31.6611 18.9534 30.8152 20.4731 29.9263C21.7491 29.2238 23.0394 28.4926 24.3154 27.7901C24.3584 27.7614 24.4014 27.7328 24.4444 27.6898C25.4194 27.188 26.3656 26.6288 27.3262 26.0984C27.7706 25.912 28.2437 25.6252 28.6452 25.3528C28.7168 25.2525 28.6595 25.1234 28.5448 25.1091C27.6129 25.5822 26.6953 26.0697 25.7778 26.5428C25.6344 26.5858 25.6344 26.5858 25.491 26.6862C22.853 28.0338 22.853 28.0338 22.638 28.1199C22.3369 28.3062 21.5484 28.6933 21.4767 28.7507C20.3297 29.3242 19.1828 29.9263 18.0502 30.5428C18.0072 30.5571 17.9785 30.5571 17.9498 30.5715C17.3333 30.9872 16.5878 31.2596 15.957 31.6467C14.853 32.1915 13.7348 32.765 12.6452 33.3385C12.5161 33.3672 11.6846 33.955 11.7706 33.3815C12.1577 33.0231 12.5448 32.6503 12.9319 32.2919C13.0466 32.1629 13.3477 31.8905 13.3907 31.8761C13.8064 31.4173 14.2796 30.8869 14.7957 30.5428C14.8244 30.4998 14.8674 30.4568 14.8961 30.3994C15.8996 29.4675 16.9176 28.5213 17.8781 27.532C20.7599 24.7794 23.6559 22.0267 26.552 19.317C26.638 19.2023 26.724 19.0876 26.853 19.0159C28.6165 17.3242 28.7312 17.1951 30.8244 15.2023C30.9677 15.1019 30.9677 15.1019 31.0108 15.0159C31.0108 14.6718 30.81 14.8295 30.6237 14.9729C30.1075 15.489 29.5484 15.9478 29.0179 16.4496C28.8172 16.7363 28.4588 16.9371 28.2294 17.2095C27.7276 17.6682 27.1398 18.2847 26.5663 18.6862C26.1505 19.1019 25.6774 19.532 25.2186 19.8905C23.5699 21.4819 21.7491 22.9156 20.1147 24.5213C19.3118 25.1521 18.6093 25.9693 17.7921 26.5858C17.5771 26.8295 17.5771 26.8295 16.1147 28.1772C16.0573 28.2202 16.0143 28.2489 15.957 28.2776C14.3226 29.7829 12.6595 31.2596 10.9964 32.7363C10.81 32.7363 10.767 32.6933 10.7814 32.507C12.7742 29.6109 14.767 26.7005 16.7312 23.7901C17.534 22.5858 18.3226 21.3528 19.1685 20.1772C19.7706 19.2883 19.8136 19.2023 20.0287 18.9156C21.5627 16.636 23.1685 14.3421 24.6738 12.0338C24.8602 11.8475 24.8029 11.7328 24.5591 11.7614C23.2832 13.5536 21.9642 15.317 20.7025 17.1378C20.4875 17.4102 20.086 18.0123 15.8136 23.9908C15.7133 24.1485 14.1792 26.2417 14.0789 26.3708C12.7025 28.2919 11.3262 30.2417 9.92115 32.1342C9.84946 32.1915 9.77778 32.2489 9.67742 32.1915V32.0195C10.681 29.4102 11.7419 26.7865 12.8315 24.2202C14.4229 20.2202 16.0143 16.1915 17.6344 12.1915C17.6344 12.1055 17.6344 12.1055 17.5771 12.0338C17.5197 12.0338 17.4624 12.0482 17.4194 12.0912C16.1864 14.8582 14.9104 17.6252 13.6631 20.3923C13.6057 20.4639 12.3011 23.3743 11.9283 24.1199C11.7706 24.507 11.6416 24.7507 11.4695 25.1521C10.4086 27.3887 9.39068 29.6682 8.37276 31.9335C8.24373 31.9908 8.12903 32.0052 8 31.9478C8.01434 31.7901 8.01434 31.7901 8.51613 29.9406C8.55914 29.8403 8.70251 29.2811 8.74552 29.1665C8.78853 28.9657 8.83154 28.8654 9.319 26.9442C9.57706 25.9837 9.83512 25.0231 10.1075 24.0768C10.1505 23.8761 12.5878 15.0589 12.6165 14.9299C12.7025 14.6432 12.7742 14.3708 12.8602 14.084C13.1756 12.851 13.5054 11.7041 13.7491 10.7148C13.7778 10.6432 13.8065 10.6288 13.8638 10.5858C18.2222 10.5858 22.595 10.6001 26.9677 10.5715C28.3011 10.6432 29.6631 10.8725 30.8961 11.446C31.0251 11.5464 31.0251 11.5464 31.3405 11.7184C31.6129 11.9191 31.8996 12.1485 32.1577 12.4066C32.3011 12.6073 32.4301 12.808 32.5735 13.0087C32.6595 13.2095 32.7312 13.4245 32.8172 13.6252C32.8745 13.9263 32.9462 14.2274 33.0036 14.5141C33.0036 14.7435 33.0036 15.0016 33.0179 15.274ZM40 16.4066C39.914 17.0231 39.8136 17.5966 39.6416 18.1844C39.2832 18.9299 39.2832 18.9299 39.0538 19.3457C38.638 19.9765 38.1075 20.507 37.5484 21.0087C37.0036 21.4245 37.0036 21.4245 36.4158 21.8403C35.7133 22.2561 34.9391 22.5858 34.1935 22.9299C33.9068 23.0159 33.5627 23.0876 33.3047 23.2453C33.3047 23.317 33.3047 23.317 33.319 23.3457C34.2796 23.446 35.1254 23.7758 35.9283 24.3062C36.3154 24.636 36.6882 24.9657 37.0179 25.3672C37.405 25.9263 37.7061 26.4711 37.9355 27.1019C37.9928 27.36 38.0502 27.6037 38.1075 27.8618C38.1505 28.2632 38.1505 28.6647 38.1505 29.0804C38.0215 30.2561 37.5914 31.3027 36.9606 32.3062C36.5591 32.8654 36.5591 32.8654 36.1577 33.3815C35.4695 34.0984 34.6237 34.9156 33.7061 35.3313C33.0323 35.8331 32.129 36.1485 31.3548 36.4639C30.8674 36.6073 30.3656 36.765 29.8781 36.9227C28.7742 37.1234 28.7742 37.1234 28.6595 37.1665C27.8136 37.2525 27.8136 37.2525 27.5842 37.2955C22.681 37.4962 17.7204 37.4102 12.8172 37.4102C12.7599 37.3098 12.7312 37.1665 12.8602 37.1091C15.2115 37.0087 17.5771 36.894 19.9283 36.8224C20.3871 36.8224 20.8889 36.8367 21.3333 36.765C22.9104 36.7077 24.4444 36.636 26.0072 36.3923C26.1075 36.3492 26.5233 36.2632 27.1398 36.1055C30.1935 35.1163 32.9749 33.1808 34.2652 30.1414C34.3513 29.869 34.3513 29.869 34.4373 29.7113C34.509 29.3672 34.5806 29.0231 34.6523 28.679C34.6667 27.8331 34.6667 27.8331 34.6523 27.5034C34.5376 26.6862 34.2366 25.869 33.7634 25.1951C33.5484 24.9657 33.3477 24.722 33.1326 24.4926C32.129 23.7041 31.1398 23.1736 29.8495 23.0733C29.8495 22.9729 29.8781 22.9586 29.9642 22.9156C30.2796 22.8295 30.2796 22.8295 30.724 22.6718C32.7599 21.7829 34.5806 20.593 35.7276 18.6432C35.8423 18.3851 35.957 18.1127 36.0717 17.8403C36.2724 17.1808 36.3871 16.5213 36.4444 15.8331C36.4158 15.532 36.4014 15.231 36.3871 14.9299C36.3297 14.7435 36.2724 14.5428 36.215 14.3421C35.9713 13.7543 35.7133 13.3958 35.2688 12.9514C34.5663 12.3923 33.7778 11.9765 32.8889 11.7758C32.8889 11.7614 32.8889 11.7328 32.9032 11.7184C33.362 11.6324 33.9211 11.7184 34.3799 11.7471C34.595 11.7901 34.595 11.7901 35.3692 11.8761C35.6272 11.9335 35.8853 11.9908 36.1577 12.0482C36.9892 12.2776 37.8208 12.5643 38.5233 13.0661C38.724 13.2525 38.9391 13.4389 39.1398 13.6252C39.3118 13.8976 39.4839 14.1557 39.6559 14.4138C39.7419 14.6718 39.828 14.9156 39.914 15.1736C39.9283 15.5464 39.9857 15.9765 40 16.4066Z" fill="#F94F00"/>
</g>
<defs>
<clipPath id="clip0_15_2983">
<rect width="32" height="32" fill="white" transform="translate(8 8)"/>
</clipPath>
</defs>
</svg>
