<svg width="48" height="48" viewBox="0 0 48 48" fill="none" xmlns="http://www.w3.org/2000/svg">
<path d="M23.9981 34.7103L13.1396 44L19.2164 31.297L6.83142 24.3726L20.984 25.8421L23.9981 4L27.0121 25.8421L41.1686 24.3726L28.7817 31.297L34.8584 44L23.9981 34.7103Z" fill="#191917"/>
<path d="M23.9983 34.4431L13.7427 43.2172L19.483 31.2161L7.78255 24.6774L21.1631 26.0623L23.9983 5.51471L26.8354 26.0623L40.2179 24.6736L28.5155 31.2161L34.2559 43.2172L23.9983 34.4431Z" fill="#E3300C"/>
<path fill-rule="evenodd" clip-rule="evenodd" d="M26.8352 26.0622H21.1629L19.4905 31.2217L23.998 34.443L28.5152 31.216L26.8352 26.0622Z" fill="#0073BD"/>
<path fill-rule="evenodd" clip-rule="evenodd" d="M23.9944 33.3424C21.9779 33.3424 20.3367 31.7542 20.3367 29.803C20.3367 27.8498 21.9779 26.2636 23.9944 26.2636C26.0109 26.2636 27.6521 27.8498 27.6521 29.803C27.6521 31.7542 26.0109 33.3424 23.9944 33.3424Z" fill="#191917"/>
<path fill-rule="evenodd" clip-rule="evenodd" d="M23.9942 33.1409C22.0904 33.1409 20.5426 31.6431 20.5426 29.8029C20.5426 27.9626 22.0904 26.463 23.9942 26.463C25.8959 26.463 27.4438 27.9626 27.4438 29.8029C27.4438 31.6431 25.8959 33.1409 23.9942 33.1409Z" fill="white"/>
<path d="M23.8679 27.5093C23.8623 27.5134 23.8595 27.5175 23.8595 27.523C23.8595 27.5339 23.8651 27.5399 23.8736 27.5455C23.8386 27.5441 23.8231 27.5286 23.8231 27.5286C23.8231 27.5286 23.8345 27.5131 23.8679 27.5093ZM23.901 27.5093C23.9094 27.5134 23.9185 27.5148 23.932 27.5202C23.932 27.5202 23.9221 27.5391 23.895 27.5428C23.9007 27.5387 23.9091 27.5318 23.9091 27.522C23.9091 27.5166 23.9052 27.5134 23.901 27.5093ZM23.8252 27.5526C23.8322 27.5581 23.8602 27.5635 23.8816 27.5635C23.9478 27.5635 23.9671 27.5202 23.9749 27.5164C23.9749 27.4712 23.9457 27.4318 23.901 27.4262C23.8835 27.4221 23.8562 27.4302 23.8427 27.4371C23.8252 27.4453 23.8116 27.4634 23.8057 27.4765C23.8272 27.4711 23.8524 27.4446 23.9069 27.454C23.9322 27.4595 23.9633 27.4935 23.9458 27.4992C23.9303 27.4896 23.9264 27.4842 23.9147 27.4823C23.8699 27.4653 23.8271 27.4973 23.8037 27.5161C23.7981 27.5161 23.7939 27.512 23.7896 27.512C23.7967 27.5309 23.8057 27.5395 23.8252 27.5526ZM24.1052 27.5093C24.101 27.5134 24.0996 27.5175 24.0996 27.523C24.0996 27.5339 24.1052 27.5399 24.1137 27.5455C24.0826 27.5414 24.0631 27.5286 24.0631 27.5286C24.0631 27.5286 24.0766 27.5131 24.1052 27.5093ZM24.1422 27.5093H24.1464C24.1535 27.5134 24.1639 27.5134 24.1659 27.5175C24.1701 27.5216 24.1715 27.5216 24.173 27.5216C24.173 27.5216 24.1631 27.5404 24.136 27.546C24.1416 27.5406 24.1472 27.5351 24.1472 27.5235C24.1472 27.5181 24.1464 27.5134 24.1422 27.5093ZM23.9671 27.6843C23.9728 27.6897 23.9785 27.6843 23.9867 27.6843C24.0119 27.6843 24.0372 27.6993 24.0586 27.6898C24.0974 27.6728 24.053 27.6201 24.053 27.5863C24.053 27.5693 24.0544 27.558 24.0628 27.543C24.0628 27.5443 24.1368 27.5824 24.1833 27.5375C24.1876 27.5293 24.1989 27.5293 24.2066 27.5225C24.208 27.5225 24.2123 27.5184 24.2123 27.517C24.2137 27.5129 24.2165 27.5034 24.2165 27.5034C24.2095 27.5034 24.2066 27.517 24.197 27.5088C24.1678 27.49 24.1484 27.4825 24.1153 27.4863C24.0843 27.4863 24.0589 27.5032 24.0589 27.5032C24.0476 27.4468 24.1639 27.4374 24.1931 27.475C24.1875 27.46 24.179 27.4486 24.1716 27.4411C24.1366 27.4111 24.0589 27.4329 24.0374 27.46C24.0219 27.4788 24.02 27.5634 24.0219 27.5954C24.0219 27.6123 24.0374 27.6198 24.036 27.6368C24.036 27.6504 24.0275 27.6631 24.0146 27.665C23.9971 27.6691 23.9574 27.6485 23.9671 27.6843ZM25.5773 31.9481C25.5365 31.9312 25.5306 31.8917 25.5033 31.871C25.4991 31.871 25.4858 31.8559 25.4761 31.854C25.4676 31.8486 25.4586 31.8445 25.4508 31.839C25.4178 31.824 25.3789 31.8182 25.3439 31.8088C25.3298 31.8047 25.3186 31.8047 25.3049 31.8034C25.2894 31.7979 25.2757 31.7884 25.2602 31.7808C25.2077 31.7713 25.1455 31.7754 25.0891 31.7713C25.0016 31.7672 24.9219 31.7543 24.8402 31.7449C24.8032 31.7395 24.7605 31.7354 24.7255 31.7224C24.7142 31.7183 24.7022 31.7115 24.6904 31.7087C24.6555 31.7005 24.6322 31.7046 24.6088 31.7142C24.5975 31.7183 24.5855 31.7279 24.5776 31.7279C24.5621 31.7265 24.5503 31.7034 24.527 31.709C24.5157 31.7199 24.5076 31.7373 24.5172 31.7504C24.5214 31.7558 24.5444 31.7748 24.5483 31.7748C24.5756 31.7857 24.5911 31.7707 24.6086 31.7666C24.6748 31.7497 24.7486 31.7803 24.805 31.7892C24.9547 31.8117 25.1511 31.8028 25.2833 31.8438C25.3086 31.8492 25.3339 31.8534 25.3554 31.8607C25.4176 31.8833 25.4603 31.919 25.509 31.9473C25.5382 31.9831 25.5654 32.0094 25.6198 32.0225C25.6451 32.0307 25.686 32.0307 25.686 31.9962C25.6874 31.9567 25.6123 31.965 25.5773 31.9481ZM26.4951 31.7675C26.505 31.777 26.5261 31.8013 26.5243 31.8183C26.5229 31.8237 26.5144 31.8319 26.5048 31.8319C26.4796 31.8319 26.4834 31.7736 26.4426 31.7773C26.4384 31.7787 26.4313 31.7787 26.4271 31.7882C26.4158 31.8221 26.4893 31.8334 26.4679 31.8861C26.4608 31.9069 26.4348 31.9106 26.4036 31.9106C26.4036 31.901 26.4149 31.8955 26.4149 31.8842C26.4149 31.8503 26.3664 31.8184 26.3372 31.8465C26.3386 31.8729 26.3702 31.8879 26.3586 31.9162C26.3431 31.9331 26.3004 31.9331 26.2867 31.9162C26.2909 31.9148 26.3061 31.9203 26.3139 31.9162C26.321 31.9148 26.3238 31.908 26.3252 31.9025C26.3294 31.8875 26.3139 31.8837 26.298 31.8762C26.2867 31.8666 26.2747 31.8592 26.2668 31.8498C26.2724 31.7915 26.2162 31.7802 26.156 31.7746C26.0548 31.7664 25.9402 31.7557 25.8468 31.7482C25.8525 31.703 25.8079 31.6974 25.7691 31.6899C25.7146 31.679 25.666 31.6763 25.6096 31.6636C25.5863 31.6595 25.5493 31.6485 25.5474 31.6316C25.546 31.6108 25.5766 31.5977 25.5921 31.5864C25.6446 31.5487 25.6951 31.5131 25.7418 31.4735C25.8488 31.4923 25.9208 31.5337 26.0044 31.5807C26.0258 31.5916 26.0491 31.5995 26.0686 31.6089C26.0919 31.6226 26.1153 31.6315 26.1366 31.6391C26.2455 31.6693 26.3972 31.6405 26.4769 31.6918C26.5041 31.7087 26.5294 31.7332 26.5294 31.7709C26.5099 31.7709 26.5099 31.7257 26.4886 31.7238C26.4773 31.7224 26.4671 31.7347 26.4671 31.7426C26.4671 31.7535 26.4834 31.76 26.4951 31.7675ZM26.2093 31.871C26.1878 31.8614 26.1626 31.8614 26.1373 31.86C26.0985 31.8559 26.0575 31.8464 26.0168 31.8412C25.976 31.833 25.9351 31.8317 25.9001 31.8224C25.9253 31.8087 25.9681 31.8128 26.007 31.8128C26.079 31.8087 26.1976 31.8128 26.2248 31.8523C26.2263 31.8577 26.2291 31.8711 26.2291 31.8786C26.2248 31.8786 26.2174 31.8737 26.2093 31.871ZM25.8709 31.8792C25.8808 31.9111 25.9117 31.9205 25.9059 31.9677C25.896 31.9827 25.8826 31.9959 25.8669 32.0071C25.8726 31.9883 25.8655 31.9657 25.8528 31.9544C25.8444 31.9544 25.8486 31.9694 25.843 31.9694C25.8274 31.9653 25.8331 31.9469 25.8099 31.9487C25.8057 31.9694 25.8254 31.9788 25.8274 31.9976C25.8331 32.0445 25.7982 32.0691 25.7535 32.0653C25.7577 32.0445 25.7885 32.0516 25.7943 32.0351C25.7985 32.0126 25.7768 31.9974 25.7632 31.9881C25.752 31.9881 25.7618 31.9991 25.7491 32.0032C25.7336 31.9977 25.7239 31.9712 25.6986 31.9806C25.7099 31.9943 25.7239 32.0183 25.7085 32.037C25.689 32.0479 25.6657 32.052 25.6405 32.052C25.6017 32.0507 25.5627 32.0425 25.5432 32.0201C25.5319 32.0051 25.5258 31.9862 25.514 31.9749C25.4999 31.9612 25.4751 31.9612 25.4596 31.9466C25.4497 31.9411 25.4455 31.9278 25.4381 31.9203C25.424 31.9094 25.4012 31.9014 25.3779 31.892C25.3234 31.8676 25.2398 31.8468 25.1717 31.8412C25.0512 31.8303 24.9209 31.833 24.8042 31.8129C24.7615 31.8047 24.7205 31.796 24.6817 31.7904C24.6389 31.7863 24.5962 31.8 24.5592 31.7959C24.5242 31.7904 24.5048 31.7657 24.495 31.7357C24.4837 31.6529 24.4678 31.5701 24.4308 31.5098C24.4195 31.4835 24.4153 31.4515 24.4238 31.4025C24.4252 31.3762 24.4379 31.3442 24.4433 31.3104C24.4475 31.2765 24.4475 31.2388 24.4531 31.2049C24.4616 31.1466 24.4823 31.092 24.5096 31.0619C24.5251 31.066 24.5368 31.0883 24.5465 31.0977C24.5757 31.1166 24.6127 31.1241 24.6398 31.1485C24.6511 31.1567 24.6613 31.171 24.669 31.1824C24.704 31.2407 24.6905 31.3329 24.7177 31.4044C24.7219 31.414 24.7318 31.4213 24.729 31.4327C24.6902 31.4381 24.6415 31.4368 24.6182 31.4609C24.6357 31.4892 24.6804 31.4664 24.7174 31.4664C24.7544 31.4664 24.7991 31.4773 24.8244 31.4947C24.8438 31.5083 24.8632 31.5379 24.8886 31.5474C24.9275 31.5624 24.9897 31.5643 25.0403 31.5699C25.0985 31.574 25.155 31.5795 25.2017 31.5887C25.2794 31.6038 25.3495 31.632 25.4175 31.6603C25.4288 31.6658 25.4408 31.6699 25.4505 31.6753C25.4604 31.6808 25.468 31.6903 25.4778 31.6941C25.5011 31.7092 25.5322 31.7078 25.5615 31.7111C25.5907 31.7166 25.6159 31.7261 25.6412 31.7336C25.6626 31.7445 25.6957 31.7506 25.7229 31.7675C25.7328 31.7716 25.7404 31.7825 25.7521 31.7863C25.7716 31.7904 25.7909 31.785 25.8066 31.7904C25.8221 31.7945 25.8435 31.8055 25.8591 31.8168C25.8921 31.8356 25.9193 31.8601 25.9193 31.907C25.9052 31.8975 25.9021 31.8585 25.8709 31.8792ZM24.6614 31.9977C24.6244 31.9769 24.5856 31.9469 24.5369 31.9356C24.5214 31.9315 24.5059 31.9274 24.4902 31.9315C24.486 31.9503 24.5135 31.9465 24.531 31.9484C24.568 31.9539 24.5972 31.9692 24.6224 31.9842C24.6337 31.9937 24.6574 32.0049 24.6497 32.0199C24.6356 32.0463 24.5855 32.0011 24.5855 31.9917C24.5713 31.9876 24.566 31.9748 24.5504 31.9692C24.5392 31.9651 24.5252 31.9691 24.5135 31.965C24.498 31.965 24.4882 31.9569 24.4765 31.9541C24.4709 31.9936 24.5368 31.9767 24.5563 31.9936C24.5619 31.9977 24.552 32.0031 24.552 32.0105C24.5591 32.0187 24.5661 32.0214 24.5715 32.0255C24.5715 32.0242 24.5659 32.0173 24.5701 32.0105C24.6168 32.001 24.6188 32.0519 24.5814 32.0632C24.5424 32.0728 24.5172 32.0444 24.4899 32.0369C24.4452 32.0287 24.4062 32.0423 24.3694 32.0328C24.3344 32.0246 24.3227 32.0045 24.2994 31.9839C24.2742 31.9595 24.243 31.9575 24.206 31.9462C24.2235 31.9143 24.2332 31.8747 24.2624 31.8502C24.278 31.8352 24.35 31.8033 24.3869 31.8239C24.4064 31.8321 24.4375 31.8375 24.4511 31.8445C24.4624 31.8499 24.4744 31.8581 24.4821 31.8652C24.4934 31.8748 24.5016 31.8916 24.5132 31.8954C24.5385 31.9036 24.5832 31.9091 24.6124 31.9199C24.6209 31.9212 24.6357 31.924 24.6357 31.9349C24.6357 31.9403 24.6343 31.9485 24.6244 31.9485C24.6173 31.9499 24.6131 31.939 24.6069 31.9349C24.5836 31.9199 24.5389 31.9212 24.5097 31.9104C24.5139 31.9159 24.5252 31.9186 24.5292 31.9214C24.5759 31.9309 24.6128 31.9515 24.6478 31.9702C24.6577 31.9743 24.6765 31.9883 24.6614 31.9977ZM24.1539 31.6797C24.1581 31.4746 24.1652 31.262 24.1733 31.0531C24.1733 31.0531 24.1747 31.0531 24.1776 31.049C24.179 31.049 24.179 31.0531 24.179 31.0531C24.186 31.0613 24.186 31.0756 24.186 31.087C24.1973 31.1697 24.2093 31.2619 24.221 31.3466C24.2351 31.4445 24.2638 31.5367 24.2677 31.6383C24.2445 31.6492 24.2172 31.6552 24.1958 31.6627C24.1817 31.6682 24.1733 31.6816 24.1539 31.6797ZM24.3522 31.5743C24.3367 31.5825 24.3172 31.5825 24.2977 31.5852C24.2608 31.4328 24.2258 31.2578 24.2083 31.0828C24.1888 30.904 24.1733 30.714 24.181 30.539C24.1923 30.5349 24.2043 30.5281 24.2218 30.5335C24.2471 30.5445 24.2373 30.6276 24.2393 30.6634C24.2435 30.8026 24.2534 30.9475 24.2626 31.0755C24.2697 31.1676 24.2821 31.258 24.2976 31.3351C24.3089 31.4217 24.3405 31.4971 24.3522 31.5743ZM24.3035 31.0229C24.286 30.8762 24.2894 30.7106 24.2979 30.5601C24.2993 30.5393 24.2993 30.5187 24.3021 30.4999C24.3077 30.4641 24.3092 30.4283 24.3331 30.4039C24.3444 30.3943 24.3624 30.3831 24.3759 30.3737C24.3914 30.36 24.4031 30.3492 24.4148 30.336C24.4205 30.3135 24.4363 30.2871 24.4381 30.2702C24.4381 30.2647 24.4396 30.2702 24.4396 30.2715C24.4537 30.5858 24.4065 30.8059 24.3753 31.092C24.3669 31.1691 24.3598 31.2481 24.3521 31.329C24.321 31.2406 24.3172 31.1321 24.3035 31.0229ZM24.076 30.4942C24.0527 30.5206 24.0275 30.5488 24.0021 30.577C23.9908 30.5906 23.9788 30.6071 23.9631 30.6164C24.0428 30.3963 24.1459 30.1874 24.2159 29.9541C24.2489 29.8375 24.2839 29.7208 24.3171 29.5984C24.3501 29.4724 24.3658 29.3407 24.3696 29.192C24.3696 29.1907 24.3696 29.1879 24.3738 29.1879C24.3752 29.1879 24.3752 29.1879 24.3752 29.1893C24.4005 29.2029 24.4082 29.2306 24.4141 29.2551C24.4452 29.3322 24.4609 29.4226 24.4784 29.511C24.4882 29.5712 24.4978 29.6333 24.4998 29.6992C24.5012 29.7274 24.5083 29.7613 24.5083 29.7952C24.5097 29.829 24.5139 29.8685 24.5097 29.8967C24.5041 29.9325 24.4747 29.972 24.4552 30.0041C24.4377 30.0398 24.4145 30.0699 24.393 30.1001C24.3541 30.1641 24.3055 30.2242 24.2588 30.2788C24.1966 30.3504 24.1401 30.4265 24.076 30.4942ZM24.1265 30.6955C24.1308 30.8668 24.1166 31.0305 24.1124 31.1998C24.1082 31.3993 24.0909 31.5931 24.0814 31.7737C24.0424 31.7683 24.0056 31.753 23.9627 31.7455C23.918 31.7373 23.8694 31.7373 23.8265 31.7359C23.8927 31.5176 23.9724 31.2975 24.021 31.0604C24.0522 30.9174 24.0832 30.7763 24.1143 30.6314C24.1143 30.6314 24.1157 30.6273 24.1185 30.6273C24.1298 30.6232 24.1265 30.6805 24.1265 30.6955ZM23.8057 31.8866C23.8212 31.8509 23.8369 31.8189 23.8524 31.7775H23.8566C23.8467 31.8133 23.8294 31.8547 23.8158 31.8885C23.8102 31.8899 23.8099 31.8839 23.8057 31.8866ZM23.9982 31.9826C23.984 32.0184 23.9869 32.0561 23.9476 32.0786C23.9406 32.0827 23.9282 32.08 23.9244 32.0841C23.8914 32.1048 23.8933 32.1932 23.8311 32.1556C23.817 32.1237 23.8583 32.1161 23.8738 32.1349C23.8738 32.116 23.8524 32.1141 23.8311 32.1141C23.8353 32.0764 23.8623 32.0633 23.8855 32.0445C23.8841 32.0349 23.8855 32.0294 23.8855 32.0256C23.868 32.0106 23.8526 32.0311 23.8545 32.0501C23.8489 32.0596 23.8273 32.0745 23.8175 32.0895C23.8063 32.1084 23.8062 32.129 23.7845 32.1084C23.7803 32.0576 23.8253 32.0557 23.835 32.0199C23.835 32.0144 23.8308 32.0144 23.8294 32.0103C23.7944 32.0062 23.8061 32.0498 23.7807 32.0555C23.7694 32.0763 23.7652 32.1044 23.7515 32.1232C23.7458 32.1273 23.7402 32.1219 23.734 32.1192C23.7382 32.1151 23.7298 32.1096 23.734 32.1041C23.7354 32.0987 23.7411 32.0987 23.7453 32.0946C23.7278 32.0626 23.7552 32.0288 23.7763 32.0118C23.7588 31.9799 23.7296 32.0401 23.7238 32.0551C23.7196 32.0688 23.7238 32.0834 23.7126 32.0834C23.6984 32.082 23.7111 32.0326 23.7168 32.0193C23.7252 32.0005 23.7401 31.9968 23.744 31.9836C23.7342 31.9836 23.7168 31.9945 23.711 32.0043C23.7054 32.0098 23.7026 32.0232 23.6955 32.0232C23.678 32.0232 23.6941 31.9968 23.6969 31.9931C23.7124 31.9762 23.7202 31.9687 23.7456 31.9649C23.7555 31.9567 23.7597 31.9423 23.7708 31.9366C23.7941 31.9216 23.8583 31.9284 23.8914 31.9311C23.9128 31.9325 23.9361 31.9366 23.9556 31.9407C23.9788 31.9421 24.0021 31.9421 24.012 31.9557C24.0106 31.9694 24.0024 31.9732 23.9982 31.9826ZM23.7648 32.135C23.7691 32.135 23.7705 32.1391 23.7761 32.1391C23.7719 32.1241 23.7936 32.1222 23.7994 32.1309C23.8107 32.1667 23.7511 32.1686 23.7648 32.135ZM23.5879 31.9807C23.5082 31.9821 23.4304 31.9848 23.3565 31.9917C23.337 31.9164 23.3175 31.843 23.3 31.7659C23.3837 31.7618 23.4731 31.7795 23.549 31.7866C23.5588 31.7976 23.5645 31.8092 23.5723 31.8224C23.5878 31.8374 23.6112 31.8469 23.6287 31.8619C23.64 31.8728 23.6482 31.8844 23.6617 31.8976C23.6688 31.9017 23.6772 31.9072 23.6831 31.9113C23.6944 31.9209 23.7084 31.932 23.7239 31.9415C23.7098 31.9551 23.6909 31.9622 23.6812 31.9753C23.6597 31.9863 23.6209 31.9794 23.5879 31.9807ZM23.3759 32.0692C23.3745 32.0651 23.3717 32.0597 23.3717 32.0556C23.3802 32.0515 23.3892 32.0474 23.3969 32.0446C23.4669 32.0296 23.5545 32.0221 23.6361 32.0202C23.6418 32.0202 23.6576 32.0147 23.6594 32.0243C23.57 32.0451 23.4673 32.0523 23.3759 32.0692ZM23.2572 32.1031C23.2105 32.1167 23.1445 32.1294 23.0881 32.1314C23.0589 32.1314 23.0336 32.13 23.0044 32.13C22.9597 32.1259 22.9227 32.1218 22.8917 32.1092C22.8742 32.0997 22.8605 32.0904 22.8469 32.0791C22.8275 32.0602 22.8119 32.0377 22.8217 31.9982C22.8217 31.9969 22.8259 31.9941 22.8259 31.9928C22.8273 31.9846 22.8259 31.9777 22.8259 31.9739C22.8316 31.9657 22.84 31.957 22.84 31.9437C22.8358 31.9287 22.8287 31.9137 22.8186 31.9043C22.7913 31.9029 22.7758 31.9125 22.7621 31.9287C22.7579 31.9328 22.7579 31.9342 22.7565 31.9383C22.7565 31.9383 22.7409 31.9519 22.739 31.9519C22.7347 31.956 22.7157 31.9601 22.7078 31.9601C22.6903 31.9615 22.665 31.956 22.6533 31.9506C22.6125 31.9336 22.5891 31.8979 22.5639 31.864C22.5596 31.8376 22.5483 31.8245 22.5525 31.7925C22.5525 31.7736 22.5582 31.7473 22.5681 31.7322C22.5723 31.7213 22.5991 31.6945 22.5876 31.6701C22.5833 31.6605 22.5701 31.6592 22.5623 31.6513C22.5539 31.6431 22.5567 31.6343 22.5482 31.6249C22.5341 31.6194 22.521 31.6249 22.5152 31.6345C22.5011 31.657 22.4937 31.7003 22.486 31.721C22.4874 31.7624 22.4845 31.8113 22.4944 31.849C22.4986 31.8753 22.5177 31.8867 22.5217 31.9111C22.5392 31.9336 22.5606 31.9582 22.5839 31.9769C22.5853 31.9783 22.5881 31.9783 22.5895 31.981C22.6051 32.0035 22.6538 32.0205 22.6653 32.0431C22.6886 32.0527 22.7061 32.062 22.7295 32.0733C22.749 32.0977 22.7956 32.0958 22.817 32.1166C22.8385 32.1221 22.8657 32.1354 22.885 32.1468C22.9725 32.175 23.0464 32.2164 23.13 32.2447C23.1631 32.2635 23.1942 32.2824 23.2253 32.2974C23.2394 32.3162 23.2583 32.3293 23.27 32.3463C23.2714 32.3463 23.27 32.3463 23.2686 32.3463C23.2511 32.3408 23.2374 32.3161 23.2141 32.3274C23.2198 32.3463 23.2316 32.3594 23.2491 32.3688C23.2491 32.3729 23.2506 32.3729 23.2491 32.3784C23.2562 32.3729 23.2604 32.3879 23.2686 32.392C23.2531 32.3961 23.2434 32.3695 23.2278 32.3657C23.2236 32.3561 23.2137 32.3431 23.2006 32.3431C23.195 32.3513 23.2077 32.3541 23.2048 32.3639C23.2006 32.3584 23.1949 32.353 23.1893 32.347C23.1752 32.3606 23.1992 32.3733 23.2048 32.3846C23.195 32.3806 23.1854 32.3658 23.1718 32.3602C23.1633 32.3657 23.1718 32.3739 23.1718 32.381C23.1633 32.381 23.1633 32.3673 23.1577 32.37C23.1492 32.3809 23.1577 32.3926 23.1633 32.402C23.1676 32.4129 23.1746 32.4227 23.1774 32.4358C23.1859 32.481 23.1619 32.5374 23.1859 32.577C23.1567 32.5468 23.176 32.4848 23.1718 32.4471C23.1676 32.4264 23.1543 32.3925 23.1426 32.3738C23.0784 32.2834 22.9617 32.227 22.8373 32.1931C22.812 32.1781 22.7673 32.1706 22.7343 32.1612C22.6565 32.1404 22.5787 32.1066 22.501 32.0765C22.462 32.0521 22.4367 32.0219 22.4057 31.9919C22.3902 31.973 22.3687 31.9467 22.3552 31.9222C22.3439 31.9053 22.3357 31.8828 22.3299 31.8564C22.3243 31.8339 22.3215 31.817 22.3215 31.7943C22.3172 31.7679 22.3144 31.7416 22.3158 31.7115C22.3215 31.6532 22.3488 31.5798 22.3761 31.5366C22.4013 31.4952 22.4325 31.4613 22.4616 31.4275C22.4946 31.3936 22.5296 31.3597 22.5628 31.3201C22.5958 31.2693 22.6192 31.2205 22.6658 31.1828C22.689 31.1639 22.7163 31.1526 22.7475 31.1357C22.8272 31.0943 22.9283 31.0604 23.0333 31.051C23.0858 31.2373 23.1345 31.4292 23.185 31.6155C23.192 31.6419 23.2005 31.6719 23.1991 31.6983C23.1681 31.6887 23.0824 31.6644 23.0533 31.6813C23.0203 31.6982 23.0589 31.7396 23.0902 31.7396C23.0846 31.7437 23.0761 31.7437 23.0708 31.7451C23.0595 31.7533 23.0435 31.7639 23.026 31.7676C23.0204 31.7717 23.0148 31.7717 23.0086 31.7731C22.9891 31.7813 22.9793 31.7938 22.9696 31.8125C22.9583 31.8351 22.9767 31.8597 23.0086 31.8445C23.026 31.8349 23.0513 31.8087 23.0668 31.8012C23.1115 31.7843 23.1698 31.7693 23.2243 31.7749C23.2458 31.8501 23.2671 31.931 23.2846 32.0138C23.2379 32.022 23.1718 32.0247 23.1193 32.0138C23.0823 32.0029 23.061 32.0002 23.0356 32.022C23.0413 32.0302 23.0455 32.0329 23.0455 32.0446C23.0455 32.0784 22.995 32.0671 22.989 32.0405C22.9792 32.0818 23.0318 32.1139 23.0708 32.1176C23.0764 32.119 23.0849 32.119 23.0922 32.1176C23.1622 32.1162 23.2439 32.0951 23.3022 32.0799C23.3064 32.1024 23.275 32.0988 23.2595 32.1063L23.2572 32.1031ZM23.2087 32.3646C23.2282 32.3816 23.2359 32.4098 23.2476 32.4324C23.2301 32.4135 23.2224 32.3872 23.2087 32.3646ZM22.9539 30.4152C22.9132 30.2459 22.8742 30.0747 22.8255 29.9053C22.8142 29.864 22.8061 29.8207 22.7945 29.7793C22.7804 29.736 22.7692 29.6946 22.7615 29.6513C22.705 29.3936 22.6331 29.1395 22.5709 28.8855C22.5695 28.8855 22.5695 28.8814 22.5695 28.8801C22.6083 28.8951 22.6628 28.8896 22.6978 28.9008C22.6921 28.9347 22.7034 28.9666 22.7483 28.9629C22.7553 28.978 22.7581 28.9949 22.7658 29.0081C22.7968 29.0163 22.8222 29.0027 22.8397 28.9945C22.9953 29.0566 23.1353 29.1318 23.322 29.162C23.3304 29.3407 23.3065 29.5307 23.3025 29.7264C23.3025 29.7923 23.2912 29.8544 23.2884 29.9202C23.2841 30.0445 23.2785 30.1686 23.2631 30.2909C23.249 30.3794 23.2399 30.4716 23.2321 30.5562C23.2279 30.5901 23.2278 30.6201 23.2264 30.6559C23.225 30.6842 23.2151 30.7236 23.2278 30.7462C23.2335 30.7544 23.2419 30.7612 23.2493 30.765C23.2901 30.7933 23.3582 30.8139 23.399 30.8441C23.399 30.855 23.4004 30.8666 23.399 30.878C23.2901 30.8889 23.191 30.9081 23.0859 30.9231C23.0432 30.7538 22.9947 30.5865 22.9539 30.4152ZM22.5417 28.7839C22.5459 28.7729 22.5689 28.7688 22.5709 28.7519C22.5709 28.7369 22.5596 28.7294 22.5568 28.7142C22.5723 28.7183 22.5801 28.7368 22.5938 28.7519C22.6008 28.7601 22.6288 28.7858 22.6405 28.7858C22.656 28.7899 22.6852 28.7776 22.6755 28.7594C22.66 28.7512 22.6405 28.7553 22.6249 28.7444C22.6017 28.7294 22.592 28.7011 22.5802 28.6748C22.5873 28.6578 22.5788 28.6371 22.5647 28.6315C22.5689 28.6032 22.5605 28.5844 22.5472 28.5713C22.5472 28.5699 22.5472 28.5658 22.5472 28.5658H22.5514C22.5787 28.5795 22.6079 28.5922 22.6332 28.6072C22.6837 28.6372 22.7186 28.6749 22.7284 28.7445C22.7479 28.7555 22.7711 28.7634 22.7848 28.7803C22.7764 28.8236 22.7615 28.8594 22.7284 28.88C22.7069 28.8691 22.6876 28.8517 22.6681 28.8386C22.6448 28.8594 22.5709 28.8482 22.5534 28.8304C22.5478 28.825 22.5375 28.7971 22.5417 28.7839ZM22.4795 28.7556C22.4639 28.7597 22.46 28.7725 22.4542 28.7856C22.431 28.7802 22.4134 28.7368 22.4458 28.7216C22.473 28.7107 22.5547 28.7271 22.5547 28.746C22.5561 28.7743 22.5008 28.7542 22.4795 28.7556ZM22.4075 28.6804C22.4308 28.6559 22.4833 28.6694 22.5105 28.6804C22.5246 28.6845 22.5495 28.6913 22.5397 28.7105C22.5027 28.7146 22.4542 28.6955 22.423 28.7242C22.4089 28.7187 22.4036 28.6973 22.4075 28.6804ZM22.4004 28.6146C22.4075 28.6064 22.4297 28.6064 22.4412 28.605C22.482 28.6009 22.4977 28.6186 22.5248 28.6333C22.5403 28.6442 22.5655 28.6483 22.5637 28.6615C22.5637 28.6711 22.5524 28.6724 22.5345 28.6711C22.5073 28.667 22.4762 28.6466 22.4451 28.6541C22.4295 28.6555 22.4178 28.6651 22.4081 28.6651C22.3886 28.661 22.3914 28.6259 22.4004 28.6146ZM22.5463 28.6186C22.5288 28.6227 22.5171 28.6036 22.5035 28.5979C22.4685 28.5829 22.4258 28.5965 22.3946 28.6033C22.3751 28.5112 22.5638 28.5528 22.5463 28.6186ZM22.4179 28.4794C22.4278 28.4794 22.4354 28.4903 22.4411 28.4982C22.4553 28.5119 22.4801 28.5265 22.4936 28.5434C22.4722 28.5339 22.4412 28.5434 22.4256 28.5325C22.4115 28.527 22.3939 28.4813 22.4179 28.4794ZM22.8204 28.7692C22.8204 28.761 22.8317 28.7637 22.836 28.7651C22.8501 28.797 22.8317 28.8347 22.8184 28.8648C22.8071 28.8873 22.7834 28.9269 22.7602 28.9381C22.7446 28.9463 22.7214 28.9463 22.7214 28.9272C22.7214 28.919 22.7446 28.9046 22.7524 28.8952C22.7835 28.8613 22.8069 28.8161 22.8204 28.7692ZM22.8729 28.7936C22.8771 28.7895 22.8884 28.7854 22.8924 28.7936C22.8783 28.7991 22.8594 28.8275 22.8783 28.8388C22.8698 28.8484 22.8568 28.8538 22.8608 28.8746C22.8495 28.8801 22.8393 28.8934 22.8433 28.9048C22.8376 28.913 22.832 28.9184 22.8258 28.9255C22.8258 28.931 22.8272 28.931 22.8272 28.9364C22.8057 28.9405 22.8057 28.9628 22.7864 28.9684C22.7807 28.967 22.7808 28.9547 22.7779 28.9495C22.8247 28.9138 22.8479 28.8535 22.8712 28.7934L22.8729 28.7936ZM22.9002 28.9121C22.9016 28.9039 22.9016 28.8952 22.9058 28.8877C22.91 28.8822 22.9171 28.8727 22.9199 28.8633C22.9241 28.8523 22.9199 28.8388 22.934 28.8313C23.0235 28.8482 23.1207 28.8632 23.2043 28.8896C23.2237 28.8951 23.2432 28.9005 23.2588 28.9085C23.2743 28.9166 23.286 28.9348 23.3015 28.9423C23.3156 28.9437 23.323 28.9505 23.3326 28.941C23.3637 28.9127 23.3213 28.8694 23.2839 28.8694C23.2839 28.8544 23.2881 28.843 23.2923 28.8317C23.298 28.8276 23.3216 28.8303 23.3331 28.8317C23.3876 28.8426 23.4498 28.8637 23.4848 28.8863C23.4735 28.9521 23.4343 28.9898 23.4148 29.0482C23.3915 29.0707 23.3856 29.1122 23.3488 29.1197C23.3273 29.1211 23.2808 29.1101 23.2613 29.1061C23.2302 29.0979 23.201 29.0924 23.1776 29.0872C23.1504 29.079 23.1271 29.0664 23.1018 29.0608C23.0241 29.0326 22.9443 28.995 22.8704 28.9668C22.8718 28.9423 22.8906 28.931 22.9002 28.9121ZM23.3085 28.7691C23.3902 28.7746 23.4582 28.7955 23.5107 28.8293C23.5093 28.8334 23.5093 28.8389 23.5051 28.843C23.4428 28.8186 23.3786 28.7978 23.3028 28.7847C23.3028 28.7751 23.3043 28.7705 23.3085 28.7691ZM23.3513 28.5828C23.3654 28.5019 23.3785 28.421 23.3999 28.3345C23.4174 28.2611 23.431 28.1971 23.4621 28.1407C23.472 28.1218 23.4836 28.1124 23.4991 28.0974C23.5048 28.0919 23.5048 28.0837 23.5104 28.0785C23.5299 28.0635 23.5512 28.0522 23.5726 28.0316C23.5769 28.0316 23.5825 28.0275 23.5825 28.0316C23.604 28.0146 23.639 28.0108 23.6642 27.9977H23.6699C23.6741 28.0598 23.6783 28.1181 23.6913 28.1727C23.6998 28.2046 23.7108 28.231 23.7146 28.2612C23.6699 28.2913 23.6251 28.3233 23.5824 28.3533C23.5711 28.3397 23.5768 28.3195 23.5591 28.312C23.5507 28.327 23.5396 28.3364 23.5396 28.3533C23.5396 28.3643 23.5537 28.3872 23.5509 28.3985C23.5495 28.4136 23.5551 28.4851 23.5509 28.5134C23.5495 28.5284 23.5354 28.6019 23.5334 28.6375C23.532 28.6563 23.5292 28.6694 23.532 28.6864C23.4755 28.6694 23.3958 28.6506 23.3376 28.6431C23.3432 28.6223 23.3428 28.5979 23.3513 28.5828ZM23.7188 28.3044C23.7329 28.3232 23.777 28.3232 23.7615 28.3571C23.7559 28.368 23.709 28.4135 23.6896 28.4173C23.6825 28.4186 23.674 28.4173 23.6701 28.4173C23.6701 28.3965 23.6856 28.3909 23.6915 28.3759C23.7028 28.3609 23.6986 28.3345 23.6901 28.3232C23.6958 28.3123 23.711 28.3095 23.7188 28.3044ZM23.7888 27.9468V27.951C23.7987 28.0112 23.8043 28.0714 23.816 28.1259C23.8216 28.1448 23.8315 28.1617 23.8315 28.1823C23.814 28.1974 23.7945 28.2106 23.7693 28.22C23.7382 28.1542 23.7285 28.0657 23.7285 27.9698C23.748 27.9643 23.7693 27.9557 23.7888 27.9468ZM23.7747 27.4407C23.7803 27.4143 23.7845 27.3918 23.7941 27.3711C23.8012 27.3601 23.8082 27.3503 23.8156 27.3391C23.8583 27.2902 23.9225 27.2676 23.9848 27.2431C23.9862 27.2295 23.9862 27.2148 23.9904 27.2017C23.996 27.2154 23.9946 27.2319 23.9988 27.2431C24.0533 27.2527 24.0844 27.2789 24.1214 27.3089C24.1603 27.3353 24.1933 27.3747 24.205 27.4274C24.2107 27.4538 24.2093 27.4727 24.2163 27.4952C24.2262 27.514 24.2435 27.531 24.2416 27.561C24.2401 27.6664 24.1793 27.7887 24.1054 27.8432C24.0762 27.8677 24.0257 27.894 23.9692 27.8865C23.9265 27.8783 23.8778 27.8507 23.8487 27.8244C23.8235 27.8018 23.7982 27.7661 23.7787 27.7303C23.7476 27.6814 23.7282 27.6268 23.734 27.5629C23.7354 27.514 23.7649 27.4878 23.7747 27.4407ZM24.1888 27.9939C24.1945 27.9695 24.1959 27.96 24.2043 27.9412C24.2218 27.9466 24.2393 27.9548 24.2568 27.9637C24.2393 27.9807 24.2082 27.9826 24.1888 27.9939ZM24.1461 27.8829C24.1461 27.8733 24.1517 27.8604 24.1517 27.8434C24.1517 27.8298 24.1475 27.819 24.1531 27.8096C24.1517 27.8509 24.1726 27.8867 24.1706 27.9244C24.1692 27.9621 24.1492 27.9921 24.1357 28.0204C24.0462 28.0599 23.9684 28.105 23.8906 28.1522C23.8673 28.1108 23.8517 28.0506 23.8401 27.9885C23.8359 27.964 23.8302 27.9377 23.8345 27.9169C23.8345 27.9 23.8458 27.8867 23.8458 27.8661C23.8613 27.877 23.873 27.8906 23.8885 27.9056C23.9177 27.9281 23.9547 27.9602 24.009 27.9602C24.0265 27.9602 24.044 27.9547 24.0615 27.9506C24.083 27.9506 24.1043 27.9602 24.1237 27.9465C24.135 27.9411 24.149 27.9202 24.149 27.9013C24.149 27.8931 24.1461 27.8881 24.1461 27.8829ZM24.3133 28.0786C24.288 28.1125 24.2471 28.1369 24.2103 28.1652C24.1363 28.2198 24.0606 28.2706 23.9867 28.3307C23.9692 28.3444 23.9537 28.359 23.938 28.3759C23.9127 28.4004 23.8797 28.4173 23.8913 28.4587C23.9185 28.4573 23.936 28.4323 23.9535 28.4173C24.0138 28.3646 24.0702 28.3119 24.1305 28.2592C24.1361 28.2552 24.1403 28.251 24.1446 28.2483V28.2524C24.1796 28.2224 24.2185 28.196 24.2573 28.1658C24.2788 28.1489 24.2981 28.132 24.3235 28.1189C24.3277 28.1175 24.3306 28.1134 24.3348 28.1107H24.3306C24.352 28.097 24.3733 28.0843 24.3928 28.0749C24.4027 28.0708 24.4161 28.0667 24.4316 28.064C24.4549 28.0585 24.4919 28.032 24.5113 28.0585C24.4899 28.0774 24.4608 28.0849 24.4374 28.0999C24.4004 28.1263 24.3694 28.1451 24.3344 28.1714C24.3245 28.1824 24.3129 28.1903 24.3014 28.1997C24.2547 28.2392 24.2159 28.2788 24.1769 28.324C24.1536 28.3503 24.1342 28.3728 24.1147 28.3992C24.0719 28.45 24.035 28.5027 23.998 28.5554C23.924 28.6626 23.8521 28.7718 23.7588 28.8621C23.7335 28.8846 23.6596 28.9185 23.6479 28.858C23.6634 28.8566 23.6809 28.8566 23.6926 28.8498C23.7237 28.8348 23.7471 28.8046 23.7684 28.7783C23.7825 28.7613 23.8034 28.7406 23.7936 28.7219C23.7684 28.7205 23.7567 28.7482 23.7431 28.7632C23.7179 28.7742 23.7042 28.7896 23.6692 28.7896C23.6012 28.7896 23.5662 28.7519 23.568 28.6767C23.568 28.6578 23.5638 28.577 23.5723 28.5562C23.5835 28.528 23.6092 28.5035 23.6365 28.4829C23.687 28.4471 23.7239 28.419 23.7726 28.385C23.7882 28.3755 23.7999 28.3606 23.8154 28.3492C23.8446 28.3285 23.8796 28.3098 23.9087 28.289C23.9844 28.2419 24.0623 28.1988 24.1439 28.1592V28.1633C24.1789 28.1444 24.2159 28.1294 24.2509 28.1105H24.2453C24.2685 28.0996 24.29 28.088 24.3133 28.0786ZM24.3034 29.0156V28.9855C24.3034 28.9773 24.302 28.9666 24.302 28.9554C24.302 28.95 24.302 28.9445 24.3034 28.9385C24.302 28.9344 24.3049 28.9385 24.3049 28.9344C24.3091 28.9344 24.3091 28.9358 24.3105 28.9358C24.3119 28.9527 24.3161 28.9752 24.3161 28.996C24.3161 29.0096 24.3161 29.0204 24.3105 29.0318C24.3049 29.0304 24.302 29.0208 24.302 29.0148L24.3034 29.0156ZM23.899 30.6075C23.8815 30.6452 23.8582 30.6771 23.8387 30.711C23.8212 30.7468 23.794 30.7768 23.7687 30.8032C23.7182 30.8596 23.6675 30.9198 23.619 30.9782C23.5762 31.029 23.5315 31.0798 23.4925 31.1362C23.4869 31.1417 23.4827 31.1551 23.4711 31.1551C23.4626 31.1287 23.4626 31.0987 23.4598 31.0685C23.4499 30.98 23.4485 30.8766 23.45 30.7844C23.4514 30.7166 23.4752 30.6753 23.5005 30.6244C23.5075 30.6075 23.5146 30.5906 23.5219 30.5756C23.5569 30.4965 23.5939 30.4119 23.6347 30.3441C23.6658 30.282 23.7066 30.2293 23.7416 30.1729C23.8156 30.0638 23.8913 29.9546 23.9555 29.8342C24.006 29.7439 24.047 29.6535 24.0955 29.5613C24.1247 29.5011 24.1597 29.439 24.1888 29.3807C24.2141 29.3337 24.2452 29.2885 24.2802 29.2584C24.2816 29.2543 24.2844 29.2529 24.2901 29.2543C24.3056 29.2556 24.2943 29.3032 24.2943 29.3145C24.2901 29.3295 24.2802 29.3634 24.2788 29.3728C24.2283 29.5685 24.1661 29.751 24.0999 29.9335C24.09 29.9693 24.0707 30.0069 24.0591 30.0407C24.0478 30.0765 24.0377 30.1179 24.0221 30.1498C24.0137 30.1635 24.0027 30.1781 23.9949 30.1912C23.985 30.2062 23.9754 30.2214 23.9696 30.2364C23.9521 30.2666 23.9327 30.2966 23.923 30.3266C23.9074 30.3436 23.8957 30.3605 23.886 30.3774C23.8645 30.4113 23.8413 30.4452 23.8296 30.4904C23.8239 30.5092 23.814 30.5431 23.8309 30.5506C23.8524 30.5588 23.8737 30.5186 23.8854 30.5054C23.9009 30.4809 23.9107 30.4602 23.9224 30.4413C23.9944 30.3115 24.0527 30.1553 24.1091 30.0142C24.1674 29.8656 24.216 29.7131 24.2608 29.5551C24.2706 29.5156 24.2841 29.476 24.2938 29.4346C24.298 29.4237 24.2938 29.4045 24.3093 29.3989C24.3093 29.4478 24.2994 29.4929 24.2938 29.5419C24.2853 29.5851 24.2743 29.6304 24.2626 29.6717C24.2393 29.7583 24.2159 29.8448 24.1926 29.9276C24.1421 30.0932 24.0836 30.2494 24.0098 30.3943C23.9923 30.43 23.9787 30.4676 23.9553 30.5034C23.9378 30.5372 23.9185 30.5717 23.899 30.6075ZM23.5178 31.4016C23.5262 31.3771 23.543 31.3527 23.5567 31.3282C23.5708 31.3019 23.5859 31.2794 23.6015 31.2567C23.6462 31.1871 23.6929 31.1212 23.7454 31.0535C23.7629 31.0309 23.7803 31.0121 23.794 30.9894C23.8173 30.9556 23.8446 30.9236 23.8718 30.8915C23.8789 30.882 23.8859 30.8671 23.897 30.8596C23.9083 30.8746 23.8956 30.8953 23.8928 30.9085C23.8733 30.9931 23.8578 31.0703 23.8248 31.1474C23.8234 31.1529 23.7801 31.2209 23.8053 31.234C23.8208 31.2381 23.8403 31.1945 23.8443 31.1832C23.8715 31.1192 23.8948 31.0609 23.9162 30.9894C23.9377 30.9217 23.959 30.8559 23.9862 30.7918C23.9975 30.7693 24.0037 30.7466 24.0154 30.7278C24.0239 30.7182 24.0387 30.7108 24.0447 30.6995C24.0461 30.6995 24.046 30.6995 24.046 30.7009C24.0475 30.7328 24.0376 30.778 24.0305 30.825C24.0192 30.889 24.0053 30.9491 23.9917 31.0113C23.9742 31.0865 23.9548 31.1562 23.9353 31.2258C23.9254 31.2616 23.9158 31.2954 23.9041 31.3274C23.8691 31.4214 23.8301 31.5231 23.7932 31.6228C23.7875 31.6378 23.7819 31.6529 23.7737 31.6699C23.7624 31.6944 23.7582 31.7207 23.7368 31.7263C23.7255 31.7304 23.7018 31.7222 23.6843 31.7208C23.624 31.7113 23.5715 31.6831 23.5287 31.6531C23.5216 31.6212 23.5174 31.5835 23.5132 31.5477C23.5089 31.4931 23.498 31.4448 23.5178 31.4016ZM23.4068 30.9857C23.4125 31.0648 23.4153 31.1438 23.4181 31.2266C23.3501 31.2156 23.2742 31.2058 23.2081 31.2252C23.1996 31.2293 23.1926 31.2348 23.1867 31.2402C23.1867 31.2666 23.2008 31.2854 23.2139 31.2985C23.2252 31.2999 23.2392 31.3026 23.2489 31.3081C23.2722 31.304 23.2956 31.2944 23.3267 31.3026C23.3365 31.304 23.3481 31.3163 23.3577 31.3196C23.3732 31.325 23.3869 31.3278 23.3947 31.3332C23.4179 31.3502 23.4297 31.3784 23.4491 31.3934C23.4632 31.4442 23.4706 31.5214 23.4784 31.5816C23.4883 31.6343 23.4978 31.6832 23.5133 31.7284C23.5035 31.7243 23.4919 31.7229 23.4803 31.7229C23.4453 31.7188 23.4064 31.7215 23.3734 31.7147C23.3481 31.7106 23.3151 31.7106 23.2819 31.7093C23.2236 31.4853 23.1652 31.2558 23.1069 31.03C23.1322 31.0163 23.1672 31.0092 23.2002 31.0055C23.2547 30.9973 23.3111 30.9905 23.3655 30.983C23.3753 30.9816 23.3927 30.9816 23.4062 30.9871L23.4068 30.9857ZM23.7997 29.074C23.7764 29.0835 23.7802 29.0551 23.7744 29.0288C23.7702 29.0024 23.7549 28.9686 23.7857 28.9705C23.7956 28.9987 23.7997 29.0401 23.7997 29.074ZM23.8039 28.9272C23.7926 28.9381 23.7689 28.9517 23.7436 28.9381C23.7479 28.9193 23.7689 28.9156 23.7806 28.908C23.7947 28.8984 23.8059 28.8854 23.8194 28.8797C23.8525 28.8756 23.8739 28.8608 23.8952 28.8477C23.9008 28.8477 23.9009 28.8491 23.9037 28.8491C23.8804 28.8793 23.8369 28.9047 23.8039 28.9272ZM23.8836 29.059C23.8724 29.0326 23.8738 28.9988 23.8879 28.9724C23.902 28.9499 23.9403 28.9254 23.9793 28.9235C24.0376 28.9181 24.094 28.9372 24.1135 28.9724C24.133 29.0251 24.1135 29.0834 24.0688 29.1059C24.0085 29.1398 23.905 29.1101 23.8836 29.059ZM23.7183 29.9358C23.6853 29.944 23.6776 29.9791 23.6619 30.0055C23.6367 30.0601 23.6114 30.1109 23.588 30.1729C23.5355 30.297 23.483 30.4345 23.4324 30.5643C23.4282 30.5752 23.4267 30.5926 23.4129 30.602C23.4059 30.587 23.4073 30.5643 23.4073 30.5456C23.4059 30.4459 23.4059 30.3405 23.4115 30.2445C23.4157 30.2069 23.4214 30.173 23.4228 30.1354C23.4242 30.1053 23.4214 30.0771 23.4214 30.0527C23.4228 30.0302 23.4313 30.0075 23.4369 29.9831C23.4425 29.9605 23.4482 29.9379 23.4544 29.919C23.4558 29.9081 23.4615 29.8983 23.4685 29.8871C23.4997 29.793 23.5522 29.7121 23.6047 29.6368C23.6534 29.5691 23.7058 29.507 23.7583 29.4505C23.8283 29.3734 23.9022 29.3075 23.9858 29.2492C24.0345 29.2153 24.085 29.1776 24.1238 29.1363C24.1379 29.1212 24.1471 29.1024 24.1646 29.093C24.166 29.1118 24.1547 29.1307 24.1491 29.1419C24.1219 29.1813 24.0888 29.2209 24.0596 29.2585C24.0012 29.3337 23.9391 29.409 23.8865 29.4955C23.8613 29.5388 23.836 29.5821 23.8108 29.6254C23.733 29.7514 23.6649 29.887 23.5872 30.0168C23.5619 30.0601 23.5385 30.1071 23.5229 30.156C23.5385 30.1547 23.5424 30.1391 23.5502 30.1258C23.6571 29.9546 23.7602 29.7759 23.8691 29.6065C23.9274 29.5163 23.9878 29.4297 24.0596 29.345C24.1121 29.2848 24.1549 29.2207 24.1977 29.1474C24.2132 29.1249 24.2268 29.0985 24.2424 29.0797C24.2579 29.066 24.2696 29.1079 24.2657 29.1324C24.2643 29.1433 24.2516 29.1624 24.2462 29.1776C24.2229 29.2228 24.2092 29.2697 24.186 29.313C24.1549 29.3713 24.1217 29.4279 24.0965 29.4824C24.0382 29.6028 23.97 29.7082 23.9079 29.8154C23.8748 29.87 23.8436 29.9245 23.8126 29.9791C23.7251 30.1316 23.6376 30.2802 23.5521 30.4345C23.545 30.4454 23.5379 30.4664 23.5228 30.4664C23.5271 30.4495 23.5327 30.4307 23.5423 30.4156C23.5773 30.3366 23.6163 30.2519 23.657 30.1729C23.6823 30.1183 23.7038 30.0732 23.7193 30.0073C23.7249 29.9829 23.7378 29.9528 23.7183 29.9358ZM24.1675 28.8482C24.1948 28.8346 24.2161 28.8332 24.2337 28.8238H24.2394V28.8293C24.2394 28.8347 24.2309 28.8388 24.2281 28.8443C24.2086 28.8725 24.2048 28.9176 24.1776 28.9308C24.1601 28.9418 24.1388 28.9349 24.1134 28.939C24.0686 28.8958 23.9656 28.8938 23.9111 28.924C23.8936 28.9322 23.8761 28.9504 23.8469 28.9428C23.8526 28.9221 23.8742 28.9127 23.8917 28.9015C23.9267 28.8826 23.9578 28.862 23.9966 28.8432C24.0161 28.835 24.0374 28.8243 24.0589 28.8295C24.0603 28.8578 24.0744 28.8784 24.1171 28.869C24.1228 28.8676 24.1326 28.8635 24.1444 28.8581C24.1528 28.8567 24.1598 28.851 24.1675 28.8482ZM23.6678 29.0834C23.6692 29.0402 23.6664 29.0025 23.6678 28.9649C23.6692 28.9649 23.6692 28.9649 23.6692 28.9663C23.6678 29.0021 23.6762 29.0496 23.6678 29.0834ZM23.4868 29.0609C23.4882 29.0473 23.4868 29.0327 23.4911 29.0215C23.4967 28.9951 23.5105 28.9706 23.5223 28.9499C23.5321 28.9668 23.5293 28.9951 23.5321 29.0215C23.5378 29.0572 23.5434 29.1005 23.5477 29.1363C23.5491 29.1665 23.5477 29.1927 23.5364 29.2097C23.5223 29.2323 23.5111 29.2549 23.4974 29.2756C23.4875 29.2078 23.4792 29.1324 23.4868 29.0609ZM23.5218 29.3093C23.5303 29.2905 23.5393 29.2735 23.5491 29.2547C23.5705 29.2114 23.5898 29.1814 23.6171 29.1475C23.6326 29.1286 23.6463 29.1098 23.6638 29.0929C23.7125 29.1024 23.7707 29.1079 23.8271 29.1098C23.8426 29.1112 23.8661 29.1098 23.8796 29.1139C23.8951 29.118 23.9126 29.1364 23.9321 29.1402C23.9554 29.1484 23.9846 29.1443 24.0118 29.1484C23.9924 29.1823 23.9574 29.2048 23.9282 29.2312C23.9009 29.2556 23.8717 29.282 23.8464 29.3102C23.7939 29.3666 23.7395 29.4193 23.6909 29.4834C23.6422 29.5436 23.5956 29.6038 23.5489 29.6659C23.5139 29.713 23.4867 29.7656 23.4537 29.8164C23.4452 29.8314 23.4381 29.8522 23.4225 29.8635C23.4182 29.7619 23.4338 29.6622 23.4478 29.5662C23.4534 29.5248 23.471 29.4796 23.4827 29.4364C23.4968 29.395 23.5063 29.3468 23.5218 29.3093ZM23.3468 30.3235C23.3454 30.4045 23.3384 30.4853 23.337 30.5681C23.337 30.602 23.3356 30.6339 23.3327 30.666C23.3313 30.698 23.3327 30.7281 23.3257 30.7563C23.3144 30.7508 23.3062 30.7426 23.2829 30.7467C23.3044 30.5887 23.3218 30.4306 23.3413 30.2707C23.3427 30.2707 23.3427 30.272 23.3456 30.272C23.3526 30.287 23.3468 30.3066 23.3468 30.3235ZM23.3798 30.2332C23.3643 30.2319 23.3488 30.2278 23.3312 30.2237C23.3326 30.0393 23.3312 29.8643 23.341 29.7062C23.3453 29.6629 23.3453 29.6196 23.3453 29.5764C23.3467 29.535 23.3495 29.4954 23.3509 29.4559C23.3551 29.3599 23.3552 29.2659 23.3608 29.1624C23.3861 29.1515 23.4036 29.1324 23.425 29.1191C23.4264 29.1191 23.4264 29.1205 23.4264 29.1205C23.4419 29.1657 23.4306 29.2202 23.4335 29.2672C23.4377 29.318 23.4476 29.3707 23.4405 29.4159C23.4391 29.4347 23.4306 29.4536 23.4264 29.4686C23.4222 29.4855 23.4208 29.5044 23.4109 29.5157C23.4123 29.5382 23.4038 29.5646 23.3968 29.5909C23.3968 29.5991 23.3982 29.606 23.3968 29.6098C23.3968 29.6139 23.3925 29.6193 23.3925 29.6207C23.3673 29.7919 23.3812 30.014 23.377 30.2322L23.3798 30.2332ZM24.5524 28.1484C24.5595 28.162 24.5623 28.1728 24.5679 28.1861C24.5854 28.2463 24.5952 28.3102 24.6049 28.3761C24.6134 28.4062 24.619 28.4401 24.6244 28.4702C24.6314 28.5021 24.6399 28.5323 24.6458 28.5624C24.6317 28.5624 24.6186 28.5664 24.6088 28.5705C24.5427 28.5801 24.4514 28.5801 24.3755 28.6025C24.3755 28.5929 24.3755 28.5888 24.3755 28.5888C24.3755 28.5847 24.3755 28.5834 24.3741 28.5752C24.3699 28.5508 24.3699 28.5527 24.3699 28.5338C24.3699 28.5169 24.3684 28.4905 24.36 28.4944C24.3586 28.4718 24.3288 28.4285 24.325 28.4624C24.3236 28.4733 24.325 28.4849 24.325 28.4925C24.3307 28.5452 24.3292 28.5432 24.3306 28.6015C24.3321 28.6241 24.3363 28.7239 24.3292 28.7446C24.3179 28.7459 24.3059 28.7487 24.2942 28.7459C24.2787 28.7541 24.2612 28.7596 24.2457 28.7629C24.2242 28.7683 24.201 28.7738 24.1717 28.7724C24.1465 28.7683 24.1212 28.7615 24.0998 28.7536C24.0823 28.744 24.0628 28.7291 24.0433 28.7253C23.9869 28.7065 23.9831 28.763 23.9189 28.7517C23.9403 28.697 23.9753 28.6538 24.0064 28.6068C24.0472 28.5391 24.0938 28.4807 24.1444 28.4224V28.4237C24.1658 28.3993 24.1851 28.3749 24.2066 28.3522C24.2338 28.322 24.2611 28.2939 24.2903 28.2656C24.3016 28.2574 24.3097 28.2449 24.3272 28.2431C24.3174 28.2939 24.2942 28.3297 24.2573 28.3597C24.246 28.3706 24.2358 28.3841 24.2262 28.3897C24.2163 28.3979 24.199 28.4007 24.197 28.4142V28.4224C24.1956 28.4487 24.23 28.4543 24.2515 28.4431C24.2747 28.4281 24.2942 28.3867 24.3117 28.3565C24.3642 28.2663 24.4322 28.1665 24.512 28.1157C24.5295 28.1021 24.5466 28.1353 24.5524 28.1484ZM24.6711 28.6432C24.6555 28.6473 24.6361 28.6474 24.6166 28.6514C24.6124 28.6378 24.611 28.6232 24.6067 28.6082C24.618 28.6027 24.636 28.5945 24.6515 28.5986C24.6529 28.6174 24.6615 28.63 24.6711 28.6432ZM24.6824 28.6677C24.6866 28.6718 24.6965 28.6691 24.6965 28.6772C24.6965 28.6882 24.646 28.6961 24.6362 28.6998C24.5662 28.7186 24.4904 28.7525 24.4379 28.7825C24.4204 28.7934 24.4127 28.8089 24.3932 28.8014C24.3988 28.7904 24.4087 28.7806 24.4164 28.775C24.4263 28.7668 24.4417 28.7614 24.4514 28.7562C24.4982 28.7354 24.5447 28.711 24.5992 28.6921C24.6245 28.6839 24.6575 28.6785 24.6809 28.6677H24.6824ZM24.7019 29.1362C24.7486 29.2586 24.7816 29.3865 24.8186 29.5238C24.8242 29.5427 24.838 29.5746 24.8326 29.5916C24.8284 29.6123 24.7685 29.6293 24.7432 29.631C24.7277 29.6324 24.7042 29.6324 24.6965 29.6269C24.6866 29.6215 24.677 29.5893 24.6693 29.5723C24.6245 29.4821 24.5292 29.2073 24.4903 29.1094C24.4748 29.07 24.4805 29.0398 24.4709 29.0022C24.4666 28.9797 24.4709 28.9551 24.4694 28.8818C24.518 28.861 24.5764 28.8479 24.6425 28.8479C24.6496 28.8856 24.6524 28.8874 24.66 28.9251C24.6614 28.9495 24.6643 28.9515 24.6657 28.9759L24.6713 29.0305C24.6727 29.0442 24.6755 29.0588 24.6798 29.0719C24.684 29.0926 24.6941 29.1116 24.7019 29.1362ZM24.8671 29.5972H24.8728C24.8869 29.6109 24.8643 29.633 24.8533 29.6424C24.8203 29.6649 24.7521 29.6819 24.6997 29.6819C24.6783 29.6819 24.6413 29.6805 24.655 29.6517C24.7367 29.6705 24.8399 29.6559 24.8671 29.5972ZM24.8827 29.648C24.8982 29.6439 24.9139 29.6617 24.9139 29.6725C24.9125 29.6913 24.8906 29.6834 24.8691 29.6894C24.8592 29.6908 24.8536 29.7044 24.8399 29.7082C24.8357 29.7096 24.8258 29.7069 24.8205 29.7096C24.8106 29.7096 24.8029 29.7178 24.7932 29.7205C24.7861 29.7205 24.7777 29.7164 24.7699 29.7205C24.7586 29.7205 24.7544 29.7287 24.7447 29.7342C24.7252 29.7246 24.7174 29.7396 24.7039 29.7437C24.6844 29.7478 24.6572 29.7287 24.6728 29.7099C24.6799 29.6962 24.7195 29.6989 24.739 29.6962C24.7545 29.6948 24.7837 29.688 24.807 29.6812C24.842 29.6703 24.8634 29.6499 24.8827 29.648ZM24.9216 29.7121C24.9994 29.7309 25.0733 29.7667 25.1511 29.7892C25.1997 29.8028 25.2463 29.8156 25.2833 29.8381C25.2932 29.8436 25.2988 29.849 25.3066 29.8531C25.3221 29.8613 25.3338 29.8668 25.3473 29.8739C25.353 29.878 25.3629 29.8752 25.3587 29.8848C25.3446 29.893 25.3354 29.8766 25.3256 29.8739C25.2596 29.84 25.1914 29.8005 25.1001 29.7892C25.1099 29.8028 25.1273 29.8029 25.1428 29.8042C25.2245 29.8248 25.2945 29.8739 25.3606 29.9114C25.3705 29.9169 25.3879 29.9223 25.3879 29.9378C25.3766 29.946 25.3606 29.9364 25.3529 29.9296C25.2789 29.8807 25.2051 29.8242 25.0942 29.8072C25.0857 29.8261 25.1157 29.828 25.1253 29.8298C25.1835 29.8434 25.2245 29.8617 25.2711 29.89C25.2824 29.8982 25.2984 29.9088 25.3119 29.9182C25.3274 29.9264 25.3469 29.9319 25.3547 29.9465C25.3314 29.9634 25.2982 29.9451 25.2729 29.9315C25.2515 29.9219 25.236 29.9107 25.2127 29.9013C25.1739 29.8863 25.1232 29.875 25.0727 29.8655C25.0474 29.8601 25.0202 29.8601 24.9969 29.8546C24.9755 29.8505 24.9561 29.8339 24.9327 29.8339C24.9132 29.8564 24.9482 29.8546 24.9717 29.8639C24.9731 29.8653 24.9801 29.8735 24.9816 29.8735C25.0108 29.8816 25.0535 29.8789 25.0885 29.8844C25.1118 29.8885 25.1547 29.9013 25.1547 29.9126C25.1561 29.9371 25.0672 29.9181 25.0419 29.9181C24.9855 29.914 24.9487 29.9222 24.8961 29.9126C24.8572 29.9072 24.8164 29.8976 24.7949 29.8732C24.7879 29.8636 24.7808 29.8487 24.7808 29.8431C24.7808 29.8322 24.785 29.8168 24.7808 29.8018C24.7766 29.7881 24.7667 29.7848 24.7738 29.7735C24.7752 29.7639 24.7808 29.7721 24.7952 29.7653C24.8009 29.7653 24.8065 29.7598 24.8107 29.7571C24.8178 29.7557 24.8282 29.7585 24.836 29.7571C24.8501 29.7557 24.8515 29.7364 24.873 29.7421C24.8885 29.7285 24.9022 29.7196 24.9215 29.7101L24.9216 29.7121ZM25.2716 29.8061C25.2829 29.7979 25.3028 29.8116 25.3221 29.8198C25.3377 29.8253 25.3552 29.8293 25.3669 29.8348C25.3782 29.8444 25.4136 29.8819 25.4214 29.8969C25.4312 29.9177 25.4256 29.9421 25.4115 29.9628C25.3882 29.9797 25.361 29.991 25.3357 30.0041C25.3258 30.0096 25.3162 30.0096 25.3085 30.015C25.2929 30.0232 25.2852 30.0414 25.2695 30.0414C25.2681 30.0277 25.2794 30.0189 25.2836 30.0094C25.2935 30.0012 25.2991 29.9906 25.3069 29.9831C25.3379 29.9749 25.4022 29.9662 25.4061 29.936C25.4061 29.921 25.3906 29.9152 25.3828 29.9002C25.3772 29.8948 25.3758 29.8833 25.3715 29.8795C25.3603 29.8658 25.3365 29.8569 25.319 29.8456C25.3092 29.8401 25.2996 29.8347 25.2918 29.8287C25.2848 29.8246 25.2704 29.8177 25.2704 29.8079C25.2718 29.8079 25.2716 29.8075 25.2716 29.8061ZM25.4214 29.8363C25.4544 29.8322 25.4603 29.8665 25.4876 29.8758C25.507 29.8812 25.5323 29.8744 25.5537 29.8799C25.5752 29.8853 25.581 29.9024 25.5945 29.9193C25.5988 29.9248 25.614 29.9343 25.61 29.9419C25.6086 29.9514 25.5926 29.9514 25.5848 29.9528C25.5615 29.9637 25.5362 29.9867 25.5148 30.0036C25.4933 30.0186 25.4643 30.0375 25.4293 30.043C25.4118 30.0444 25.3903 30.0389 25.371 30.0389C25.3535 30.0389 25.334 30.0499 25.3185 30.0403C25.3298 30.0253 25.3535 30.0253 25.371 30.0159C25.402 30.0022 25.4624 29.9782 25.4585 29.9237C25.4543 29.8954 25.4273 29.8691 25.4215 29.8391L25.4214 29.8363ZM25.6372 29.9831C25.6722 29.9817 25.6897 30.0019 25.7052 30.0225C25.752 30.0903 25.7617 30.1994 25.7947 30.2879C25.7989 30.3067 25.8088 30.3255 25.8142 30.3442C25.8316 30.4045 25.8283 30.476 25.8283 30.5456C25.8269 30.6171 25.8226 30.6924 25.8226 30.7657C25.8269 30.8823 25.8518 30.9934 25.8499 31.1195C25.8499 31.1345 25.8541 31.1533 25.8442 31.1666C25.8343 31.1652 25.8343 31.1497 25.8329 31.1421C25.823 31.1158 25.8097 31.0857 25.8057 31.0537C25.8043 31.0311 25.8071 31.0048 25.8099 30.9821C25.8099 30.9088 25.8057 30.8448 25.7789 30.7902C25.7732 30.7793 25.7556 30.7582 25.7536 30.7488C25.7536 30.7393 25.7635 30.7281 25.7649 30.7169C25.7824 30.6397 25.7222 30.5833 25.7241 30.5061C25.7241 30.476 25.7298 30.4478 25.7284 30.4196C25.7241 30.333 25.6934 30.269 25.6526 30.2163C25.6681 30.1956 25.6953 30.1786 25.7051 30.1467C25.7135 30.1184 25.7136 30.0751 25.7037 30.047C25.6995 30.032 25.6896 30.0075 25.6764 29.9981C25.6434 29.9756 25.5927 29.994 25.5695 30.009C25.5652 30.0131 25.5596 30.0227 25.554 30.0279C25.5441 30.0361 25.5307 30.0374 25.5189 30.0448C25.5539 30.0185 25.587 29.9846 25.6395 29.9827L25.6372 29.9831ZM25.4058 31.5053C25.4253 31.4734 25.4388 31.4263 25.435 31.3736C25.4336 31.3284 25.4175 31.2889 25.4252 31.2437C25.435 31.2004 25.4641 31.1535 25.4874 31.112C25.5015 31.0875 25.5224 31.0498 25.5263 31.014C25.5305 30.9933 25.5263 30.9689 25.5221 30.9519C25.5136 30.9275 25.4968 30.9086 25.4929 30.8879C25.4929 30.8671 25.5042 30.8484 25.5143 30.8333C25.5242 30.8196 25.5396 30.8107 25.5474 30.7975C25.5516 30.792 25.553 30.7838 25.5572 30.7767C25.5643 30.7579 25.5747 30.7373 25.5805 30.7127C25.5848 30.7127 25.5848 30.7072 25.5862 30.7072C25.5862 30.7072 25.5862 30.7113 25.5904 30.7113C25.596 30.7584 25.5689 30.8185 25.5848 30.8656C25.5862 30.8738 25.5932 30.8825 25.596 30.8901C25.6017 30.8983 25.6031 30.9051 25.6102 30.9145C25.6243 30.9409 25.6489 30.9559 25.6568 30.9897C25.6625 31.0123 25.6625 31.0311 25.6568 31.048C25.6526 31.059 25.6456 31.0688 25.6413 31.0894C25.6413 31.1177 25.6554 31.1402 25.6456 31.1666C25.6413 31.1873 25.6223 31.1985 25.6164 31.2249C25.6093 31.2512 25.6178 31.2851 25.6164 31.3095C25.6164 31.3246 25.6107 31.3434 25.6051 31.3622C25.598 31.4074 25.5952 31.4507 25.5643 31.4732C25.5544 31.4814 25.5448 31.4842 25.5351 31.4902C25.5252 31.4956 25.5196 31.5071 25.504 31.509C25.4942 31.4981 25.4998 31.4808 25.504 31.4713C25.5235 31.4186 25.5935 31.349 25.539 31.2907C25.5376 31.3226 25.539 31.364 25.5235 31.3904C25.5136 31.404 25.4943 31.4167 25.4885 31.4298C25.4843 31.4339 25.4801 31.4408 25.4786 31.4487C25.4688 31.4788 25.4772 31.5145 25.4612 31.5483C25.4437 31.5878 25.3775 31.6048 25.3231 31.5841C25.3543 31.5672 25.3883 31.5392 25.4058 31.5053ZM25.1316 31.1403C25.1274 31.1553 25.1102 31.1666 25.1161 31.1873C25.0869 31.1515 25.1104 31.1082 25.1104 31.0537C25.1062 31.0085 25.056 30.971 25.0812 30.9183C25.0954 30.9278 25.1007 30.9408 25.1065 30.9615C25.1108 30.9697 25.1164 30.9752 25.1178 30.9804C25.1192 30.99 25.1192 30.9973 25.1235 31.0068C25.1291 31.0204 25.139 31.0312 25.1429 31.0387C25.1443 31.0575 25.1254 31.0764 25.1254 31.0989C25.1254 31.1098 25.1359 31.129 25.1316 31.1403ZM24.9916 31.3435C24.9959 31.3097 25.0111 31.2795 25.0149 31.2456C25.0163 31.2212 25.0163 31.1986 25.0149 31.1723C25.0079 31.1007 24.943 31.0405 24.9624 30.9559C24.9765 30.9518 24.9624 30.9766 24.9737 30.9784C24.9878 30.9798 24.9893 30.9702 24.997 30.9689C25.0203 30.8955 24.9483 30.8484 24.9737 30.7732C24.9878 30.7841 24.9952 30.7995 25.0145 30.807C25.0201 30.8278 25.032 30.8484 25.034 30.8711C25.034 30.888 25.0241 30.9011 25.0241 30.918C25.0241 30.9613 25.0513 30.9821 25.0688 31.0159C25.0745 31.08 25.0618 31.1477 25.0863 31.2041C25.0976 31.2361 25.1194 31.2549 25.1388 31.2793C25.1445 31.2875 25.1501 31.2982 25.1543 31.3057C25.1776 31.3697 25.1642 31.4412 25.1251 31.4694C25.1096 31.4803 25.0902 31.4863 25.0785 31.4996C25.0686 31.5105 25.0671 31.5278 25.0552 31.5353C25.0467 31.5258 25.0552 31.4959 25.0509 31.4789C25.0495 31.468 25.041 31.4526 25.0354 31.4432C25.0159 31.4149 24.9897 31.3886 24.9916 31.3435ZM24.9684 31.4263C24.9684 31.4222 24.974 31.4222 24.9754 31.4222C24.9968 31.4523 25.0124 31.488 25.0104 31.5332C24.9909 31.5318 24.9734 31.5291 24.9579 31.5277C24.9621 31.4977 24.9726 31.4582 24.9684 31.4263ZM24.9179 31.2833C24.9023 31.2381 24.9334 31.1778 24.9291 31.1233C24.9277 31.0875 24.915 31.0537 24.9019 31.0254C24.8804 30.9802 24.8494 30.9427 24.8436 30.8919C24.838 30.8222 24.8864 30.7846 24.9019 30.7263C24.9118 30.7038 24.9118 30.6792 24.9174 30.6511C24.9174 30.6497 24.9174 30.647 24.9174 30.647C24.9287 30.6456 24.9273 30.6565 24.9273 30.6714C24.9315 30.6921 24.9372 30.7033 24.9428 30.7203C24.9485 30.7285 24.9513 30.7372 24.9527 30.7428C24.9541 30.7617 24.9428 30.7842 24.9414 30.803C24.9372 30.8294 24.9499 30.8594 24.9499 30.8783C24.9499 30.8952 24.9442 30.9102 24.9442 30.9271C24.9372 30.961 24.9287 31.0005 24.9344 31.0382C24.9358 31.057 24.9456 31.0795 24.9518 31.1003C24.9631 31.138 24.9791 31.1736 24.9751 31.2244C24.9737 31.2639 24.9499 31.3016 24.9499 31.3429C24.94 31.3204 24.9256 31.3002 24.9179 31.2833ZM24.7603 31.2211C24.7618 31.2023 24.7617 31.1778 24.7589 31.1609C24.7589 31.1527 24.749 31.1421 24.7533 31.1346C24.7533 31.125 24.7603 31.1209 24.7631 31.1101C24.7826 31.0537 24.7301 31.0122 24.7049 30.9783C24.6601 30.9181 24.6329 30.856 24.6484 30.7469C24.6484 30.7455 24.6527 30.7428 24.6527 30.7414C24.6799 30.7697 24.6974 30.8073 24.7266 30.8299C24.7224 30.8826 24.721 30.939 24.7461 30.9786C24.756 30.9974 24.7694 31.0124 24.7811 31.0313C24.7924 31.0501 24.8123 31.0707 24.8161 31.0877C24.8217 31.1177 24.802 31.1423 24.7928 31.1648C24.7695 31.225 24.7815 31.3116 24.8103 31.3492C24.8244 31.3662 24.859 31.3794 24.857 31.4019C24.857 31.4244 24.8298 31.4302 24.818 31.4489C24.7888 31.4301 24.7733 31.4037 24.7558 31.3698C24.7459 31.3491 24.7364 31.321 24.7364 31.3002C24.7406 31.2738 24.7584 31.2494 24.7603 31.2211ZM24.8128 29.9755C24.8044 29.9864 24.8016 30.0055 24.803 30.0188C24.7855 30.0357 24.7757 30.0565 24.768 30.0771C24.7213 30.0825 24.694 30.1072 24.6765 30.1467C24.6681 30.1655 24.6709 30.1881 24.6723 30.2106C24.6737 30.2202 24.6779 30.2331 24.6779 30.2445C24.6779 30.2689 24.6667 30.3122 24.6547 30.3349C24.6434 30.3612 24.6157 30.3837 24.5982 30.4101C24.5911 30.4197 24.5841 30.4309 24.5787 30.4384C24.5646 30.4778 24.5773 30.5324 24.59 30.5569C24.5985 30.5678 24.6133 30.5776 24.6172 30.5869V30.6208C24.6215 30.6344 24.6229 30.6472 24.6229 30.6547C24.6229 30.6885 24.6088 30.7187 24.6054 30.7468C24.604 30.7657 24.604 30.7863 24.6054 30.8051C24.6125 30.8748 24.6326 30.9275 24.6599 30.9782C24.6655 30.9892 24.6754 30.9971 24.6793 31.0121C24.6463 30.9971 24.6113 30.9744 24.5938 30.9425C24.5743 30.9048 24.5763 30.8597 24.5743 30.8051C24.5701 30.7543 24.5491 30.711 24.5374 30.664C24.5318 30.6357 24.5303 30.6132 24.5275 30.5868C24.5261 30.5605 24.5317 30.536 24.536 30.5078C24.5473 30.4362 24.5612 30.3554 24.5846 30.2876C24.5945 30.2368 24.6216 30.2049 24.6371 30.1597C24.6799 30.0881 24.7208 30.0186 24.7849 29.9715C24.8005 29.9701 24.8064 29.9633 24.8199 29.9619C24.8256 29.966 24.8171 29.97 24.8128 29.9755ZM24.8596 30.173C24.8596 30.1648 24.861 30.1621 24.8638 30.1561C24.868 30.1561 24.868 30.1575 24.8652 30.1575C24.8497 30.1969 24.836 30.2384 24.8244 30.2835C24.8202 30.2753 24.8202 30.2666 24.8244 30.2572C24.8287 30.2289 24.8401 30.1842 24.8596 30.173ZM24.6768 30.4892C24.6838 30.4666 24.702 30.4497 24.7118 30.4289C24.7259 30.3932 24.739 30.3518 24.741 30.3048V30.2966C24.7424 30.2966 24.7424 30.2966 24.7452 30.3007C24.7782 30.4098 24.7102 30.5096 24.7122 30.6093C24.7122 30.6432 24.7235 30.6751 24.7374 30.7034C24.7445 30.7259 24.7607 30.7467 24.7473 30.7806C24.7221 30.7617 24.7104 30.7373 24.6909 30.7072C24.6838 30.6963 24.6754 30.6809 24.6714 30.6734C24.6559 30.6131 24.6598 30.54 24.6768 30.4892ZM24.7235 30.1636C24.739 30.1554 24.7487 30.1429 24.7721 30.1467C24.7546 30.1844 24.7449 30.2275 24.7449 30.2727C24.7393 30.2673 24.7294 30.2645 24.7216 30.2577C24.7002 30.2333 24.7065 30.1844 24.7235 30.1636ZM24.6243 30.4308H24.6299C24.6552 30.3819 24.6902 30.3423 24.7038 30.284C24.7095 30.2854 24.7109 30.2895 24.7151 30.2895C24.7137 30.3969 24.6277 30.4438 24.6159 30.5379C24.5984 30.5171 24.6004 30.4683 24.6174 30.4532V30.4573C24.6272 30.4573 24.616 30.431 24.623 30.4464C24.6287 30.4423 24.62 30.4377 24.6243 30.4308ZM24.8109 30.3951C24.8109 30.4233 24.8124 30.4572 24.8053 30.4872C24.7954 30.5174 24.7723 30.538 24.7683 30.5738C24.7669 30.5792 24.7683 30.5874 24.7683 30.5907C24.7669 30.5989 24.7613 30.6044 24.7584 30.6113C24.7542 30.6396 24.7627 30.666 24.7627 30.7017C24.7355 30.6584 24.7335 30.5926 24.7452 30.5399C24.7551 30.5005 24.7744 30.4666 24.7762 30.427C24.7847 30.3554 24.7748 30.2708 24.7875 30.2031C24.7988 30.1636 24.8245 30.139 24.844 30.109C24.8553 30.1049 24.8615 30.0882 24.877 30.0902C24.8784 30.0861 24.8685 30.0901 24.8714 30.0861C24.9219 30.0522 24.9919 30.0145 25.0716 30.0372C25.0484 30.0413 25.0134 30.0454 24.9861 30.0454C24.9161 30.0717 24.8539 30.1094 24.8208 30.1771C24.8194 30.1785 24.8194 30.1785 24.8166 30.1853C24.8095 30.2003 24.8011 30.238 24.7991 30.2662C24.7906 30.3133 24.8109 30.3518 24.8109 30.3951ZM25.5032 30.2896C25.5145 30.3668 25.5018 30.4421 25.474 30.4985C25.4545 30.5362 25.4293 30.5681 25.404 30.6039C25.4082 30.6176 25.4181 30.6453 25.4054 30.6585C25.3744 30.6544 25.3509 30.6449 25.3257 30.6322C25.3299 30.6716 25.3705 30.6755 25.3997 30.6905C25.4011 30.7014 25.3883 30.7149 25.3821 30.7168C25.3723 30.7182 25.3374 30.6924 25.3257 30.6886C25.32 30.6845 25.3158 30.6749 25.3102 30.6749C25.3102 30.7126 25.3412 30.7238 25.3589 30.7407C25.3532 30.7517 25.3414 30.769 25.3296 30.769C25.2986 30.7731 25.2831 30.7182 25.2732 30.6919C25.2537 30.7 25.2591 30.7276 25.2517 30.7465C25.2031 30.7295 25.1856 30.6807 25.1895 30.628C25.2008 30.5847 25.2828 30.5941 25.2965 30.5489C25.2979 30.5352 25.2951 30.5206 25.2894 30.5075C25.2838 30.4939 25.281 30.4812 25.27 30.4793C25.2601 30.4943 25.2841 30.515 25.27 30.5319C25.2601 30.5374 25.2525 30.5319 25.2427 30.5319C25.2097 30.5278 25.1825 30.5429 25.1513 30.5402C25.1372 30.5388 25.1221 30.5319 25.1066 30.5319C25.0953 30.5319 25.0833 30.5333 25.0716 30.5265C25.0673 30.5096 25.0828 30.4926 25.0645 30.4851C25.056 30.4988 25.047 30.5153 25.0532 30.5397C25.0546 30.5567 25.0727 30.5755 25.0844 30.583C25.1116 30.5981 25.1524 30.598 25.1641 30.6207C25.1698 30.6344 25.1698 30.6546 25.1655 30.6659C25.1613 30.7111 25.1228 30.7412 25.0838 30.7525C25.0895 30.7388 25.0937 30.6979 25.0768 30.6998C25.0655 30.6998 25.0613 30.7299 25.0515 30.743C25.0374 30.7656 25.0028 30.7844 24.9835 30.7485C25.0107 30.7297 25.038 30.7183 25.0497 30.6845C25.0384 30.6845 25.0127 30.6927 24.9914 30.7014C24.97 30.711 24.9544 30.7239 24.9544 30.6845C24.9934 30.6804 25.0186 30.6581 25.0361 30.6318C25.0128 30.64 24.9837 30.6525 24.9506 30.6454C24.9464 30.64 24.952 30.6318 24.9506 30.6285C24.8981 30.5664 24.8574 30.4836 24.8554 30.3801C24.854 30.3162 24.8709 30.2447 24.8943 30.192C24.9042 30.1694 24.9138 30.1543 24.9236 30.1392C24.9348 30.1185 24.9468 30.1016 24.9702 30.0923C24.9994 30.0814 25.0383 30.0734 25.0772 30.0753C25.118 30.0794 25.1452 30.0979 25.1784 30.1055C25.2211 30.1165 25.2503 30.0867 25.2853 30.083C25.3358 30.0775 25.3786 30.0926 25.4098 30.1169C25.4211 30.1223 25.4312 30.1394 25.4428 30.1507C25.4739 30.1809 25.4953 30.2316 25.505 30.29L25.5032 30.2896ZM25.476 30.9238C25.4816 30.9333 25.4915 30.9388 25.4974 30.9501C25.5073 30.9726 25.5073 31.0461 25.4861 31.0536C25.4918 30.9614 25.4025 30.9218 25.4239 30.8278C25.4296 30.8071 25.4352 30.7864 25.4454 30.7657C25.4609 30.7205 25.4843 30.6697 25.4687 30.6114C25.4687 30.6073 25.4616 30.5977 25.4616 30.5906C25.4616 30.5811 25.4888 30.5323 25.4986 30.5229C25.5127 30.5284 25.5127 30.5493 25.5141 30.5587C25.5254 30.5926 25.5471 30.632 25.5491 30.6735C25.5505 30.7112 25.5316 30.7563 25.5161 30.7845C25.4946 30.8147 25.4616 30.8372 25.4656 30.8861C25.4698 30.9011 25.4717 30.9124 25.476 30.9238ZM25.511 30.2068C25.5096 30.2068 25.5096 30.2027 25.5096 30.1986C25.511 30.2027 25.5138 30.2028 25.5152 30.2028C25.5541 30.2216 25.5697 30.2705 25.5735 30.3213C25.5749 30.357 25.558 30.3965 25.556 30.4286C25.5518 30.4663 25.5616 30.5001 25.5774 30.5208C25.5873 30.5317 25.6105 30.5415 25.6105 30.5641C25.6105 30.5866 25.591 30.6017 25.5872 30.6204C25.5731 30.6035 25.5697 30.5791 25.5639 30.5583C25.5583 30.5375 25.5498 30.5131 25.5484 30.4906C25.547 30.4681 25.5526 30.4529 25.554 30.4304C25.5625 30.3513 25.5362 30.2708 25.511 30.2068ZM25.7268 30.681C25.7268 30.7036 25.717 30.7299 25.7093 30.7468C25.6918 30.7732 25.6666 30.7807 25.6568 30.809C25.6456 30.8484 25.6743 30.8861 25.6667 30.9219C25.6554 30.9219 25.6492 30.9069 25.6453 30.8974C25.6382 30.8892 25.6312 30.8786 25.6278 30.8674C25.6122 30.8147 25.6511 30.7395 25.6334 30.6811C25.632 30.6702 25.6193 30.6567 25.6179 30.6492C25.6179 30.6209 25.6451 30.5984 25.6412 30.5626C25.6412 30.5401 25.6271 30.5306 25.6159 30.5137C25.6046 30.5001 25.5926 30.493 25.5926 30.4743C25.5926 30.4441 25.6141 30.4196 25.6198 30.3896C25.6311 30.3332 25.6199 30.2936 25.5984 30.2522C25.5998 30.2509 25.6026 30.2522 25.604 30.2522C25.6273 30.273 25.6468 30.3011 25.6643 30.3331C25.6784 30.3594 25.6896 30.4008 25.6915 30.4385C25.6915 30.4855 25.676 30.5345 25.6817 30.5815C25.6873 30.6173 25.7248 30.6396 25.7268 30.681ZM25.6004 30.0469C25.5919 30.0455 25.6102 30.0373 25.6102 30.0319C25.6317 30.013 25.6647 30.036 25.6686 30.0544C25.6918 30.1185 25.6375 30.1955 25.5869 30.2031C25.5654 30.2072 25.5304 30.199 25.5286 30.1842C25.5342 30.176 25.5399 30.1801 25.5461 30.1788C25.5869 30.1747 25.62 30.1543 25.6413 30.1299C25.6568 30.0904 25.6369 30.0469 25.6004 30.0469ZM25.5863 30.0524C25.5863 30.0633 25.5764 30.0712 25.5806 30.0824C25.5806 30.0906 25.5905 30.0961 25.5905 30.1012C25.5905 30.1094 25.5575 30.1257 25.5438 30.1314C25.5088 30.1424 25.4602 30.1328 25.4466 30.1145C25.5068 30.1063 25.5475 30.0806 25.5863 30.0524ZM25.1623 29.9545C25.1623 29.9375 25.1838 29.9435 25.1896 29.9337C25.2285 29.9378 25.1797 29.9695 25.1623 29.9545ZM25.2013 29.9808C25.2285 29.9754 25.2363 29.9526 25.2616 29.9526C25.2791 29.9789 25.2421 29.992 25.2324 30.0089C25.2129 30.0185 25.1953 30.0334 25.1584 30.0297C25.1351 30.0256 25.1137 30.0128 25.0904 30.0034C25.0359 29.9808 24.9659 29.9951 24.9212 30.0129C24.8785 30.0298 24.8492 30.0581 24.8182 30.0844C24.8434 30.0073 24.8921 29.964 24.9679 29.9527C24.9951 29.9513 25.0262 29.954 25.0534 29.9581C25.1059 29.9636 25.1585 29.9902 25.2013 29.9808ZM24.4623 28.8293C24.4637 28.8183 24.4818 28.8142 24.4954 28.8123C24.5361 28.8014 24.5848 28.786 24.6315 28.786C24.6358 28.7901 24.64 28.7969 24.64 28.8048V28.8089C24.6128 28.8185 24.5797 28.8198 24.5486 28.8239C24.5193 28.828 24.4903 28.8389 24.4649 28.8348C24.4649 28.8335 24.4623 28.8306 24.4623 28.8293ZM24.3476 28.9272C24.3462 28.919 24.3392 28.9162 24.3363 28.9083C24.3596 28.8933 24.3791 28.8631 24.4044 28.8537H24.4086C24.4142 28.9158 24.4199 28.9308 24.4199 28.9308C24.4241 28.9497 24.4255 28.9722 24.4312 28.9911C24.4368 29.0174 24.4453 29.0795 24.4506 29.1059C24.4577 29.1473 24.4856 29.2489 24.4993 29.2865C24.5441 29.4051 24.5985 29.5161 24.651 29.6215C24.6468 29.6365 24.6335 29.6497 24.6369 29.6686C24.6383 29.6822 24.651 29.6836 24.6563 29.693C24.6521 29.7099 24.6422 29.7175 24.6465 29.7325C24.6507 29.7644 24.7009 29.7758 24.7302 29.7777C24.74 29.7913 24.7457 29.8078 24.7534 29.8285C24.7577 29.8394 24.7749 29.8698 24.7729 29.8849C24.7715 29.8958 24.7457 29.9056 24.7379 29.915C24.7165 29.932 24.7009 29.9545 24.6834 29.9789C24.6426 30.0355 24.6037 30.0919 24.5765 30.1596C24.5709 30.1746 24.5666 30.1879 24.5551 30.1991C24.5649 29.7588 24.5278 29.3373 24.347 29.0625C24.3484 29.053 24.3484 29.0437 24.3484 29.0306L24.3498 28.9798C24.3498 28.9629 24.3498 28.9421 24.3455 28.9271L24.3476 28.9272ZM24.4663 30.8144C24.4578 30.8104 24.4663 30.7994 24.4677 30.7919C24.4734 30.7694 24.479 30.7392 24.4852 30.7129C24.4852 30.6959 24.4852 30.6809 24.4965 30.6696C24.4979 30.6696 24.4979 30.6709 24.5008 30.6709C24.4909 30.6992 24.4908 30.7367 24.4852 30.765C24.4796 30.7839 24.4787 30.8033 24.4663 30.8144ZM24.513 30.7279C24.513 30.7265 24.5144 30.7265 24.5144 30.7238H24.5201C24.5531 30.8028 24.5299 30.9044 24.5745 30.9703C24.5998 31.0155 24.6503 31.0305 24.7087 31.0493C24.734 31.0682 24.7172 31.0945 24.72 31.1209C24.72 31.1378 24.7341 31.1528 24.7375 31.1736C24.7375 31.1924 24.7333 31.213 24.7277 31.2338C24.7164 31.2242 24.7163 31.2036 24.7101 31.1905C24.7002 31.1717 24.6887 31.1491 24.6732 31.1341C24.6402 31.0983 24.5817 31.0908 24.5467 31.0533C24.5117 31.0156 24.4845 30.9517 24.4806 30.8858C24.4791 30.8294 24.513 30.7882 24.513 30.7279ZM24.8591 31.3206C24.8535 31.3288 24.8634 31.345 24.8535 31.3469C24.8394 31.3428 24.836 31.3262 24.832 31.315C24.8179 31.283 24.8106 31.2417 24.8208 31.1984C24.8363 31.1495 24.8557 31.1005 24.8382 31.046C24.8298 31.0234 24.811 31.0008 24.7955 30.9744C24.776 30.9386 24.7547 30.9086 24.7625 30.8503C24.7681 30.8108 24.7839 30.7656 24.7857 30.7185C24.7872 30.6677 24.7843 30.6206 24.7999 30.5793C24.8055 30.5605 24.8193 30.5304 24.8309 30.5135C24.8408 30.5094 24.845 30.5323 24.8484 30.5435C24.8597 30.5774 24.8698 30.632 24.8597 30.6753C24.8512 30.7036 24.8364 30.7261 24.8267 30.7524C24.8154 30.7957 24.8072 30.8484 24.8168 30.8954C24.821 30.9162 24.8309 30.9368 24.8382 30.9556C24.8557 30.997 24.8908 31.0347 24.8965 31.0798C24.9008 31.1005 24.898 31.125 24.8951 31.1438C24.8937 31.1871 24.8679 31.2171 24.881 31.2662C24.8866 31.2887 24.9063 31.3114 24.918 31.3339C24.9433 31.3903 24.949 31.4599 24.9166 31.5183C24.8933 31.5128 24.8835 31.4919 24.8699 31.475C24.9068 31.4336 24.8865 31.3582 24.8591 31.3206ZM25.285 31.1982C25.285 31.19 25.2907 31.1775 25.2907 31.1681C25.2907 31.1492 25.2765 31.1323 25.2808 31.1098C25.2822 31.089 25.2983 31.0721 25.3022 31.0496C25.3022 31.0251 25.2881 31.0119 25.2881 30.9855C25.2839 30.9746 25.2938 30.9516 25.2938 30.9366C25.2924 30.9284 25.2825 30.867 25.2705 30.867C25.2549 30.8656 25.2472 30.9028 25.2472 30.9216C25.2458 30.9271 25.2429 30.9499 25.2458 30.9593C25.2472 30.9781 25.2613 30.9895 25.2672 31.0082C25.2771 31.042 25.2531 31.074 25.2531 31.1003C25.2531 31.1153 25.2602 31.1304 25.2602 31.1417C25.2644 31.1681 25.2461 31.1925 25.2461 31.2169C25.2503 31.2376 25.2693 31.2546 25.2753 31.2753C25.2967 31.3524 25.2442 31.4088 25.2188 31.4559C25.2033 31.4709 25.1819 31.4747 25.1624 31.4954C25.1449 31.5179 25.1409 31.5631 25.0924 31.5387C25.098 31.5198 25.1216 31.5179 25.1294 31.501C25.1546 31.4821 25.1818 31.4633 25.1916 31.4294C25.2029 31.3842 25.1874 31.3221 25.1874 31.2638C25.1874 31.2356 25.1986 31.2169 25.2068 31.1905C25.2167 31.1661 25.2223 31.1378 25.2263 31.1153C25.2319 31.0626 25.1991 31.0156 25.2048 30.9741C25.2105 30.9553 25.2321 30.9403 25.2341 30.9214C25.2341 30.9045 25.2256 30.8951 25.22 30.8856C25.1985 30.8911 25.1695 30.8856 25.15 30.8911C25.1457 30.902 25.1415 30.9119 25.1443 30.925C25.1457 30.9359 25.1584 30.9438 25.1618 30.9551C25.1703 30.974 25.1731 30.9928 25.1773 31.0154C25.1816 31.0342 25.1929 31.0531 25.1929 31.0737C25.1943 31.132 25.1521 31.181 25.1559 31.2468C25.146 31.2386 25.1418 31.2279 25.1404 31.2204C25.1361 31.2109 25.1333 31.1997 25.1361 31.1903C25.1361 31.1714 25.1517 31.1601 25.1536 31.1431C25.1551 31.1295 25.1494 31.1149 25.1522 31.098C25.1565 31.0754 25.1755 31.0585 25.1755 31.0416C25.1755 31.0246 25.1614 31.0152 25.156 31.0039C25.156 30.9662 25.1346 30.9475 25.1365 30.9042C25.1365 30.9001 25.1295 30.896 25.1295 30.8892C25.108 30.8782 25.0808 30.8878 25.0633 30.8741C25.0458 30.8591 25.0492 30.8159 25.0341 30.797C25.0482 30.7875 25.0651 30.7888 25.0846 30.7861C25.0987 30.7806 25.1157 30.7691 25.1274 30.7672C25.1429 30.7659 25.1624 30.7768 25.1779 30.7768C25.1934 30.7727 25.2032 30.7659 25.2149 30.7659C25.2304 30.7659 25.2499 30.7809 25.2654 30.7828C25.2739 30.7842 25.2767 30.7814 25.2809 30.7814C25.3062 30.7855 25.3179 30.7984 25.3314 30.8097C25.3761 30.796 25.3956 30.757 25.4151 30.7194C25.4095 30.7741 25.3743 30.8079 25.3821 30.8681C25.3877 30.9189 25.4268 30.9508 25.4385 30.9941C25.44 31.005 25.4428 31.0224 25.4442 31.0393C25.4512 31.1165 25.413 31.1542 25.3877 31.2106C25.3722 31.1996 25.3547 31.1767 25.3547 31.1542C25.3533 31.1222 25.3878 31.0959 25.3937 31.0639C25.4021 31.0131 25.3761 30.9679 25.3644 30.9321C25.3588 30.9114 25.3546 30.8927 25.3489 30.8794C25.3433 30.8712 25.3348 30.8658 25.3314 30.8569C25.3229 30.846 25.3258 30.8267 25.31 30.8192C25.2959 30.8247 25.2945 30.8342 25.2925 30.8456C25.2925 30.8794 25.3333 30.9133 25.345 30.9416C25.3506 30.9525 25.352 30.9698 25.3591 30.9868C25.369 31.0056 25.3766 31.0262 25.3732 31.0545C25.3661 31.0845 25.3304 31.1072 25.3266 31.1391C25.3252 31.1542 25.3337 31.1861 25.3422 31.2013C25.3506 31.2149 25.3616 31.2257 25.3694 31.237C25.3779 31.2521 25.3849 31.2747 25.3889 31.2992C25.3945 31.318 25.4044 31.3444 25.4044 31.3632C25.4058 31.3782 25.4002 31.4159 25.3988 31.4348C25.3931 31.4611 25.3813 31.4761 25.3657 31.495C25.3502 31.5175 25.3462 31.5232 25.319 31.5363C25.3015 31.5459 25.282 31.55 25.2588 31.5571C25.2489 31.5585 25.2373 31.5653 25.2276 31.568C25.2081 31.5721 25.1945 31.5544 25.1711 31.5571C25.1796 31.4988 25.2314 31.4931 25.2606 31.4574C25.2917 31.4255 25.3151 31.3709 25.3091 31.3088C25.3049 31.273 25.2839 31.2411 25.2839 31.1997L25.285 31.1982ZM25.8061 31.3092C25.8047 31.3188 25.7963 31.33 25.7906 31.3393C25.7793 31.3693 25.7634 31.3939 25.7439 31.4184C25.7069 31.4636 25.6447 31.4918 25.5922 31.5313C25.5767 31.5422 25.563 31.5595 25.5475 31.5726C25.5334 31.5877 25.5145 31.6046 25.4988 31.6121C25.4918 31.6162 25.4833 31.6217 25.4716 31.6162C25.4631 31.6012 25.4829 31.6012 25.4911 31.5993C25.4981 31.5883 25.5125 31.5842 25.5183 31.5748C25.5225 31.5707 25.5197 31.5598 25.5239 31.5523C25.5395 31.5223 25.5765 31.5053 25.5997 31.4752C25.6096 31.4615 25.6172 31.4432 25.6192 31.4263C25.6234 31.4181 25.6206 31.4074 25.6263 31.3999C25.6376 31.383 25.6593 31.3774 25.6729 31.3641C25.68 31.3546 25.6944 31.3359 25.7022 31.3265C25.7078 31.3155 25.7217 31.2813 25.7236 31.2682C25.7349 31.206 25.7061 31.1591 25.718 31.08C25.6927 31.1063 25.7039 31.1647 25.7039 31.206C25.7039 31.2643 25.6728 31.302 25.6397 31.3301C25.6439 31.3094 25.6312 31.2907 25.6312 31.2738C25.6354 31.2493 25.6545 31.2343 25.6662 31.2174C25.6857 31.1835 25.6704 31.1421 25.676 31.1025C25.6803 31.0837 25.6902 31.0668 25.6936 31.0498C25.6978 31.031 25.6978 31.0121 25.6936 30.9934C25.6922 30.9825 25.6823 30.969 25.6837 30.9557C25.6837 30.9407 25.6978 30.9256 25.695 30.9011C25.695 30.8861 25.6851 30.8711 25.6851 30.8559C25.6837 30.8371 25.6893 30.807 25.7026 30.7919C25.7082 30.7878 25.7139 30.7878 25.7201 30.7837C25.7243 30.7782 25.7314 30.7612 25.7396 30.7648C25.759 30.773 25.7746 30.8401 25.7766 30.8664C25.7822 30.9078 25.778 30.9586 25.7751 30.9888C25.7737 31.0151 25.7709 31.0471 25.7737 31.0734C25.7751 31.1298 25.8029 31.1694 25.8067 31.2202C25.811 31.2504 25.8132 31.2829 25.8061 31.3092ZM22.3118 27.7755C22.3293 27.766 22.3507 27.7567 22.3662 27.7436C22.3606 27.7624 22.337 27.7755 22.3137 27.7812C22.3137 27.7799 22.3118 27.7796 22.3118 27.7755ZM22.271 28.0201C22.2597 27.9788 22.2569 27.926 22.2477 27.8884C22.2576 27.9109 22.2672 27.9411 22.2749 27.9693C22.2806 27.9994 22.2891 28.0315 22.2848 28.0578C22.2749 28.0496 22.2738 28.0334 22.271 28.0201ZM22.2088 27.7868C22.213 27.7759 22.2282 27.7718 22.236 27.768C22.2402 27.7734 22.2289 27.7762 22.2261 27.7816C22.2346 27.8099 22.2346 27.8437 22.2573 27.8644C22.246 27.8644 22.2418 27.8726 22.232 27.8726C22.232 27.8575 22.2048 27.8037 22.2088 27.7868ZM22.1974 27.7002C22.1742 27.6589 22.1488 27.6175 22.1235 27.5798C22.1334 27.544 22.141 27.4951 22.145 27.4463C22.1534 27.4463 22.1492 27.4558 22.1506 27.4651C22.1619 27.499 22.1914 27.5403 22.1563 27.5536C22.1676 27.61 22.1932 27.659 22.2068 27.7173C22.1997 27.7132 22.2017 27.7062 22.1974 27.7002ZM22.1645 27.8658C22.1352 27.8699 22.1002 27.8672 22.077 27.8604C22.0614 27.8522 22.0477 27.8415 22.0322 27.8303C22.001 27.7739 22.0128 27.676 22.0167 27.6026C22.0266 27.6328 22.0209 27.6911 22.0238 27.7344C22.0252 27.7608 22.0294 27.7908 22.0393 27.8096C22.0492 27.8341 22.084 27.851 22.1151 27.8568C22.1292 27.8609 22.1461 27.8568 22.1617 27.8527C22.1716 27.8513 22.1851 27.8431 22.189 27.854C22.189 27.8636 22.1742 27.8645 22.1645 27.8658ZM26.4308 31.6461C26.4167 31.642 26.4016 31.6379 26.3881 31.6324C26.3589 31.6269 26.32 31.6269 26.2888 31.6269C26.2596 31.6228 26.2306 31.6228 26.1974 31.616C26.1662 31.6106 26.1352 31.6078 26.106 31.5991C26.0827 31.5909 26.0573 31.5727 26.034 31.5596C25.9503 31.5182 25.8629 31.4788 25.7715 31.4448C25.7909 31.4148 25.8123 31.3921 25.8279 31.3638C25.8474 31.3261 25.8512 31.2792 25.8591 31.2284C25.8648 31.1983 25.8746 31.1645 25.8766 31.1381C25.8822 31.076 25.878 31.0196 25.8724 30.9631C25.8549 30.7881 25.8738 30.6169 25.8639 30.4532C25.8597 30.3855 25.8445 30.3139 25.8212 30.2519C25.7997 30.1878 25.7842 30.1183 25.7609 30.0637C25.7538 30.0449 25.7376 30.0167 25.7259 30.0035C25.7146 29.9884 25.6909 29.9771 25.6832 29.9621C25.6817 29.9539 25.6846 29.9485 25.6817 29.9377C25.6733 29.9151 25.6448 29.9075 25.6273 29.8944C25.6131 29.8848 25.604 29.8736 25.5923 29.8661C25.581 29.8565 25.567 29.8511 25.5515 29.8453C25.5402 29.8412 25.5262 29.8413 25.5145 29.8344C25.5032 29.8303 25.499 29.8208 25.4912 29.8156C25.4542 29.7931 25.4173 29.8047 25.3668 29.793C25.3583 29.793 25.3527 29.7849 25.3435 29.7849C25.2813 29.766 25.1937 29.7808 25.1257 29.7604C25.0517 29.7435 24.9895 29.704 24.9293 29.6852C24.9336 29.6513 24.906 29.6438 24.8866 29.6325C24.888 29.6136 24.9021 29.5817 24.8781 29.5684C24.871 29.5684 24.8626 29.5684 24.8509 29.5684C24.8178 29.4536 24.7984 29.3408 24.7673 29.2316C24.7532 29.177 24.7265 29.1244 24.7168 29.0717C24.7112 29.0434 24.7097 29.0153 24.7027 28.9795C24.7013 28.9513 24.6914 28.9212 24.6886 28.8893C24.6787 28.8423 24.6815 28.8008 24.6773 28.7538C24.6928 28.7331 24.7298 28.7105 24.7278 28.6747C24.7292 28.6693 24.7278 28.6638 24.7264 28.6578C24.7208 28.6371 24.7069 28.6165 24.6954 28.5976C24.6661 28.5318 24.6546 28.4527 24.6389 28.3756C24.6234 28.2946 24.6117 28.2194 24.5844 28.1517C24.576 28.1291 24.565 28.1065 24.5592 28.0858C24.5592 28.0845 24.5549 28.0845 24.5549 28.0818C24.5479 28.0346 24.5277 28.0102 24.483 28.0027C24.4773 27.9877 24.4655 27.9763 24.4557 27.9594C24.4501 27.9499 24.4305 27.9255 24.4305 27.9161C24.4248 27.8898 24.4347 27.8709 24.4248 27.854C24.4234 27.8431 24.4093 27.839 24.4073 27.8295C24.4059 27.82 24.4115 27.8107 24.4087 27.8013C24.4073 27.7876 24.3946 27.7863 24.3893 27.773C24.4087 27.7448 24.3893 27.7128 24.3738 27.6959C24.3893 27.6733 24.3723 27.6507 24.3596 27.6357C24.3771 27.6131 24.3554 27.5868 24.3455 27.5698C24.3568 27.5454 24.3455 27.5171 24.33 27.504C24.3455 27.4682 24.3244 27.4457 24.3201 27.425C24.3201 27.4195 24.3215 27.41 24.3215 27.4042C24.3201 27.3933 24.3103 27.3854 24.306 27.3779C24.3046 27.3669 24.3046 27.3571 24.3004 27.3478C24.299 27.3369 24.2947 27.3234 24.2905 27.312C24.2806 27.2443 24.271 27.2029 24.2282 27.1559C24.1621 27.0843 24.0688 27.0656 23.9969 27.0656H23.9954C23.9157 27.0574 23.8321 27.092 23.766 27.1333C23.7213 27.1616 23.6941 27.203 23.6785 27.2518C23.6771 27.2559 23.6729 27.2614 23.6686 27.2655C23.6511 27.2994 23.6337 27.337 23.6337 27.3784C23.6238 27.4029 23.6161 27.4292 23.6084 27.4519C23.6042 27.4655 23.607 27.4782 23.6027 27.4933C23.6027 27.4987 23.5971 27.5069 23.5943 27.514C23.5943 27.5222 23.5985 27.529 23.5985 27.5385C23.5752 27.5535 23.579 27.5817 23.583 27.61C23.5655 27.6209 23.5635 27.6589 23.5788 27.6702C23.5555 27.6891 23.5555 27.7341 23.5731 27.7568C23.5689 27.7718 23.559 27.7756 23.559 27.7907C23.559 27.8043 23.5689 27.8114 23.5689 27.8226C23.5675 27.8335 23.5548 27.8415 23.5514 27.8528C23.5457 27.8753 23.5514 27.8867 23.5599 27.8998C23.5457 27.9186 23.5288 27.943 23.5404 27.9731C23.5347 27.9826 23.5262 27.9867 23.5229 27.9975C23.5186 28.003 23.5229 28.0112 23.5186 28.0201C23.5144 28.037 23.4953 28.0483 23.4836 28.0614C23.4738 28.0724 23.4642 28.0878 23.4564 28.1028C23.4312 28.1423 23.4097 28.1894 23.3962 28.2382C23.3554 28.4114 23.3184 28.6033 23.2697 28.7689C23.2599 28.8027 23.2556 28.8366 23.2367 28.8668C23.1453 28.8348 23.0364 28.8216 22.9353 28.799C22.9311 28.7821 22.9339 28.7633 22.9198 28.7539C22.9023 28.7443 22.879 28.7593 22.8595 28.7634C22.851 28.7409 22.811 28.7295 22.7875 28.7446C22.7763 28.7364 22.7623 28.7336 22.7525 28.7238C22.7412 28.6768 22.7156 28.6391 22.6806 28.6109C22.6651 28.6013 22.6418 28.5921 22.6223 28.5789C22.5913 28.562 22.564 28.547 22.529 28.5356C22.5076 28.5275 22.4628 28.5018 22.4532 28.4829C22.4518 28.4775 22.4518 28.466 22.449 28.4585C22.4178 28.3456 22.3887 28.2384 22.3595 28.1255C22.3553 28.1066 22.3483 28.086 22.3497 28.0728C22.3511 28.0632 22.3581 28.0618 22.3595 28.052C22.3595 28.0411 22.3539 28.0218 22.3525 28.0087C22.3384 27.9617 22.3233 27.9202 22.3175 27.8733C22.372 27.8651 22.4108 27.8431 22.4439 27.815C22.4614 27.7848 22.4828 27.7623 22.479 27.7134C22.4677 27.5891 22.368 27.4989 22.3603 27.3653C22.3589 27.337 22.3687 27.3106 22.3546 27.2862C22.3391 27.2876 22.3313 27.3087 22.3274 27.322C22.2904 27.4255 22.3526 27.5177 22.3682 27.608C22.3766 27.6494 22.3668 27.6946 22.339 27.719C22.3248 27.7299 22.2982 27.7548 22.2807 27.7453C22.2652 27.7077 22.2574 27.6474 22.2666 27.6042C22.251 27.5835 22.2807 27.561 22.2736 27.5346C22.2722 27.525 22.2542 27.5101 22.2444 27.5007C22.2374 27.4871 22.2269 27.4763 22.2192 27.4669C22.1861 27.4142 22.1511 27.352 22.1259 27.2938C22.116 27.2749 22.1118 27.2486 22.0889 27.2411C22.0748 27.252 22.0833 27.2674 22.0847 27.2787C22.0931 27.322 22.096 27.3634 22.1002 27.4123C22.1002 27.4461 22.1002 27.5064 22.0931 27.544C22.0889 27.555 22.079 27.5685 22.0819 27.5817C22.0861 27.5899 22.0974 27.5954 22.1013 27.6025C22.1084 27.6134 22.1126 27.6233 22.1208 27.6364C22.15 27.674 22.1713 27.7173 22.1888 27.7624C22.179 27.7678 22.1693 27.7812 22.1733 27.7943C22.1033 27.8207 22.0624 27.7736 22.0566 27.7153C22.0509 27.6626 22.0566 27.6043 22.0467 27.5497C22.0383 27.4914 22.0155 27.4331 21.9825 27.3954C21.9726 27.3845 21.9553 27.3654 21.9358 27.3729C21.9372 27.3898 21.9499 27.4011 21.9572 27.4162C21.9922 27.5141 21.9767 27.6758 21.9787 27.7944C21.9801 27.8471 22.0099 27.8865 22.0429 27.9054C22.0876 27.9317 22.1499 27.9149 22.2062 27.9054C22.2218 27.9468 22.2374 28.0051 22.249 28.0522C22.2532 28.0631 22.2532 28.0747 22.2575 28.0823C22.2617 28.0864 22.273 28.0905 22.2769 28.0974C22.2854 28.1056 22.2868 28.135 22.2911 28.152C22.3261 28.2818 22.361 28.4192 22.3922 28.5434C22.3922 28.5543 22.381 28.5584 22.3767 28.5659C22.3697 28.5847 22.3725 28.6017 22.3725 28.6261C22.3725 28.637 22.371 28.6469 22.3725 28.6544C22.3725 28.6653 22.3838 28.6751 22.388 28.6863C22.3922 28.7107 22.388 28.7333 22.4075 28.7465C22.4075 28.7729 22.423 28.7973 22.4367 28.8123C22.448 28.8233 22.4639 28.8274 22.4697 28.8368C22.4768 28.8477 22.4838 28.882 22.4892 28.9008C22.4934 28.9253 22.4991 28.9497 22.5047 28.9686C22.5397 29.1021 22.5689 29.2301 22.6059 29.3637C22.7206 29.804 22.8314 30.2424 22.9403 30.6809C22.9618 30.7711 22.9909 30.8558 23.0026 30.948C22.9831 30.9521 22.9618 30.959 22.9423 30.9669C22.9113 30.9806 22.8801 30.9932 22.8471 31.0046C22.7965 31.0271 22.744 31.0535 22.7031 31.0798C22.6947 31.0853 22.6857 31.0894 22.6779 31.0948C22.5592 31.172 22.4718 31.3037 22.3959 31.426C22.3846 31.4448 22.3727 31.4637 22.361 31.4806C22.3553 31.4915 22.3539 31.5051 22.3468 31.5183C22.3412 31.5292 22.3313 31.5391 22.3274 31.5522C22.3041 31.6049 22.2846 31.6576 22.2769 31.7215C22.2656 31.8006 22.2754 31.8739 22.3001 31.9341C22.2651 31.9328 22.1892 31.9451 22.1874 31.9774C22.1874 31.9963 22.2108 32.0132 22.2146 32.0244C22.1971 32.0326 22.1834 32.0339 22.1582 32.0298C22.1174 32.0257 22.0551 32.0203 22.0182 32.0353C22.0069 32.0435 21.987 32.0561 21.991 32.073C21.9924 32.1032 22.0589 32.1107 22.0901 32.1107C22.1042 32.1107 22.1154 32.1052 22.1251 32.1052C22.1524 32.1039 22.1834 32.1052 22.2068 32.1134C22.2181 32.1189 22.2182 32.123 22.2244 32.1244C22.23 32.1257 22.2399 32.123 22.2496 32.1244C22.2567 32.1244 22.2651 32.1298 22.2749 32.1298C22.3041 32.1312 22.3371 32.1298 22.3604 32.1298C22.3547 32.138 22.3463 32.1448 22.3371 32.1523C22.3413 32.1633 22.3371 32.1693 22.3385 32.1862C22.354 32.2106 22.3735 32.2201 22.4047 32.2276C22.4649 32.2426 22.5156 32.2139 22.5739 32.2194C22.6146 32.2235 22.6575 32.2457 22.71 32.2363C22.6906 32.2571 22.677 32.2984 22.6945 32.3248C22.7044 32.3384 22.7198 32.3385 22.7315 32.3473C22.7762 32.3514 22.8229 32.3528 22.8676 32.3487C22.8987 32.3473 22.9551 32.3298 22.9824 32.3487C22.9922 32.3541 22.9979 32.3712 23.0076 32.3845C23.0091 32.3886 23.0175 32.394 23.0271 32.3995C23.0313 32.4036 23.0384 32.4131 23.0426 32.4164C23.0621 32.4273 23.1184 32.4372 23.1301 32.4578C23.1315 32.4591 23.1245 32.4633 23.1315 32.466C23.1301 32.5149 23.1329 32.5676 23.1568 32.6034C23.1681 32.6184 23.1879 32.6259 23.1956 32.6428C23.2229 32.6578 23.2481 32.6786 23.2793 32.6974C23.2968 32.7083 23.3201 32.7144 23.3415 32.7238C23.361 32.7347 23.3765 32.7538 23.392 32.769C23.3963 32.769 23.3963 32.769 23.3963 32.7676C23.3977 32.7676 23.4005 32.7676 23.4005 32.7662C23.3906 32.7703 23.3906 32.7511 23.3906 32.7418C23.3906 32.7154 23.4019 32.6891 23.4081 32.6647C23.4431 32.5047 23.3478 32.3881 23.2719 32.3147C23.2621 32.3038 23.2487 32.2977 23.2447 32.2846C23.2837 32.2764 23.3069 32.2583 23.34 32.2413C23.3541 32.2977 23.3652 32.358 23.3769 32.4182C23.3826 32.4371 23.3868 32.4615 23.4002 32.469C23.4157 32.4772 23.4489 32.4636 23.4547 32.4554C23.4702 32.4346 23.4504 32.3952 23.4448 32.3707C23.4349 32.3274 23.4273 32.2955 23.4156 32.2522C23.4114 32.2352 23.3981 32.2014 23.4043 32.1881C23.41 32.1693 23.4705 32.1674 23.5073 32.1693C23.5268 32.1707 23.556 32.1775 23.5793 32.1775C23.6085 32.1734 23.6338 32.153 23.6668 32.1638C23.6823 32.1734 23.6882 32.1902 23.7057 32.1939C23.7544 32.2075 23.8147 32.2048 23.8652 32.1939C23.8885 32.1857 23.9119 32.1802 23.9352 32.1731C23.9701 32.1635 24.0051 32.1636 24.0284 32.1487C24.0517 32.1432 24.1004 32.135 24.1024 32.1148C24.1024 32.1039 24.0869 32.1053 24.0911 32.0904C24.1106 32.0849 24.1299 32.0767 24.1513 32.0767C24.1824 32.0754 24.2136 32.0849 24.2408 32.0849C24.2563 32.0863 24.2758 32.0767 24.2913 32.0808C24.3263 32.0849 24.3613 32.0997 24.4003 32.0945C24.4178 32.0904 24.4353 32.0835 24.4605 32.0808C24.4838 32.0767 24.5091 32.0863 24.5345 32.089C24.5655 32.0904 24.6025 32.0876 24.6375 32.0849C24.6842 32.0795 24.7327 32.0713 24.7657 32.0547C24.7742 32.0506 24.789 32.0359 24.7988 32.0359C24.8086 32.0345 24.8318 32.0414 24.8493 32.0455C24.8687 32.0455 24.8901 32.0495 24.9057 32.0495C24.9252 32.0495 24.9582 32.0455 24.9602 32.0345C24.9658 32.0236 24.9427 32.0045 24.9349 31.9988C24.8902 31.9724 24.8007 31.9724 24.7424 31.9818C24.7283 31.9859 24.7094 31.9955 24.6997 31.9818C24.7011 31.9668 24.7211 31.9709 24.7327 31.963C24.7426 31.9575 24.7468 31.9479 24.7559 31.9422C24.8045 31.9518 24.8629 31.9518 24.9154 31.9436C24.9426 31.9624 24.9776 31.9661 25.0184 31.9699C25.0227 31.9781 25.017 31.9869 25.0227 31.9944C25.046 32.0113 25.0849 32.0151 25.1219 32.0151C25.2229 32.0206 25.3358 32.0396 25.433 32.0452C25.4738 32.0771 25.5555 32.0696 25.6099 32.0866C25.5944 32.092 25.5847 32.1035 25.573 32.111C25.501 32.0941 25.4155 32.1001 25.3513 32.1192C25.326 32.1301 25.3143 32.1586 25.3372 32.1775C25.3586 32.1982 25.4091 32.2038 25.4539 32.2038C25.4986 32.2038 25.5433 32.2134 25.5841 32.2038C25.5996 32.2025 25.6269 32.1902 25.6346 32.1831C25.6459 32.1776 25.6487 32.1643 25.6487 32.1529C25.6895 32.1529 25.8082 32.1584 25.814 32.1171C25.8154 32.1035 25.8028 32.1002 25.7999 32.0908C25.8214 32.0949 25.8252 32.0663 25.8447 32.0606H25.8739C25.8852 32.0565 25.9031 32.0524 25.9127 32.0497C25.9302 32.0388 25.9341 32.0252 25.9496 32.012C25.9749 32.012 25.9984 32.0202 26.0236 32.0079C26.0489 31.9983 26.0683 31.9721 26.0976 31.9665C26.1268 31.9583 26.152 31.9679 26.1812 31.9747C26.2085 31.9802 26.2395 31.9897 26.2687 31.9897C26.2939 31.9938 26.3349 31.9897 26.3562 31.9761C26.3717 31.9706 26.3834 31.9553 26.399 31.9497C26.4262 31.9415 26.4612 31.9443 26.4787 31.9215C26.4801 31.916 26.4801 31.9045 26.4801 31.9007C26.5326 31.88 26.5578 31.8424 26.5501 31.7709C26.5444 31.7031 26.4918 31.6598 26.4276 31.6467L26.4308 31.6461ZM24.8713 32.1089C24.8557 32.1103 24.8402 32.1198 24.8285 32.1185C24.8186 32.1185 24.8091 32.1103 24.7955 32.1048C24.778 32.0994 24.7527 32.0953 24.7275 32.0939C24.6983 32.0939 24.6108 32.1048 24.6535 32.1391C24.6677 32.1528 24.7041 32.1579 24.7275 32.1635C24.7162 32.1745 24.719 32.1899 24.7317 32.1974C24.7589 32.2199 24.8407 32.2182 24.8834 32.2238C24.9126 32.2224 24.9592 32.2183 24.9962 32.2224C25.0103 32.2265 25.0331 32.2374 25.0487 32.2393C25.0914 32.2475 25.1244 32.2298 25.1478 32.2168C25.1653 32.2031 25.1809 32.1943 25.1731 32.1716C25.1401 32.1472 25.0876 32.1414 25.0292 32.1377C25.0117 32.0944 24.9218 32.0958 24.8713 32.1089ZM24.669 31.567C24.6865 31.5501 24.7138 31.5501 24.7313 31.5368C24.7002 31.5049 24.603 31.5086 24.6088 31.5726C24.6144 31.599 24.675 31.6044 24.669 31.567ZM25.1318 30.7956C25.1304 30.8144 25.1494 30.8332 25.1649 30.8332C25.1844 30.8373 25.2076 30.8182 25.2018 30.7974C25.1863 30.7893 25.1493 30.7915 25.1318 30.7956ZM24.9957 30.312C25.019 30.3038 25.0482 30.3229 25.0249 30.3364C25.0178 30.3378 25.0108 30.335 25.0074 30.3323C25.0116 30.3567 25.0482 30.3548 25.0657 30.3432C25.0699 30.3473 25.0755 30.3473 25.0727 30.3542C25.0397 30.3651 24.9859 30.3553 24.9957 30.312ZM25.0521 30.28C25.0113 30.2593 24.9685 30.2882 24.9335 30.2787C24.9264 30.2787 24.9179 30.2677 24.912 30.2677C24.912 30.3016 24.9275 30.3166 24.9587 30.3204C24.9742 30.3656 25.0229 30.3807 25.089 30.3787C25.096 30.3842 25.0932 30.3924 25.103 30.3938C25.1101 30.3938 25.1206 30.3801 25.1206 30.373C25.1206 30.3634 25.1107 30.3372 25.105 30.3316C25.0994 30.3147 25.0658 30.2894 25.0521 30.28ZM25.3166 30.3441C25.3109 30.3441 25.3081 30.3523 25.3025 30.3482C25.3011 30.3372 25.3095 30.34 25.3138 30.3345C25.3138 30.3156 25.3222 30.3043 25.341 30.3043C25.3551 30.3125 25.3551 30.3326 25.341 30.3401C25.3663 30.3483 25.38 30.3251 25.3818 30.3024C25.3931 30.301 25.3959 30.3065 25.4013 30.312C25.3942 30.3439 25.3516 30.361 25.3166 30.3441ZM25.4216 30.2725C25.3963 30.2739 25.3671 30.2556 25.3418 30.2589C25.3224 30.2602 25.2991 30.2777 25.2854 30.2927C25.2755 30.3116 25.2601 30.3473 25.2601 30.3699C25.2601 30.374 25.2615 30.3808 25.2714 30.3849C25.2813 30.3904 25.2799 30.3712 25.2855 30.3699C25.338 30.374 25.375 30.374 25.4022 30.3548C25.4178 30.3439 25.4255 30.321 25.4334 30.3002C25.4405 30.2866 25.4587 30.272 25.4529 30.2531C25.4515 30.2531 25.4515 30.2518 25.4472 30.2518C25.4388 30.2572 25.4327 30.2706 25.4216 30.2725ZM25.2077 30.267C25.1922 30.2589 25.1862 30.2407 25.1862 30.2388C25.1778 30.267 25.161 30.2707 25.1455 30.2745C25.1313 30.2786 25.124 30.2664 25.1162 30.2664C25.1106 30.3058 25.1765 30.2946 25.1902 30.2745C25.2014 30.2896 25.2484 30.3065 25.2524 30.2705C25.2369 30.2787 25.2214 30.2752 25.2077 30.267ZM24.0079 29.0722C23.9938 29.0859 23.9864 29.0859 23.9749 29.0667C23.9636 29.0531 23.9516 29.0329 23.9534 29.0028C23.9576 28.9765 23.9787 28.954 23.9962 28.9426C23.9976 28.9426 23.9976 28.944 24.0004 28.944C24.0432 28.9703 24.0461 29.0345 24.0079 29.0722ZM23.9904 28.9348C23.9514 28.9389 23.9224 28.9556 23.9106 28.98C23.8994 28.997 23.8951 29.0289 23.9064 29.0497C23.9163 29.0722 23.9589 29.1024 23.9919 29.1024C24.0249 29.1037 24.0677 29.0779 24.0814 29.0535C24.1106 28.9895 24.0585 28.931 23.9904 28.9348ZM23.9847 27.772V27.7665C23.9904 27.7624 24.0002 27.7665 24.0062 27.7679C24.0076 27.7761 23.9867 27.7733 23.9847 27.772ZM24.0762 27.7193C24.0705 27.7193 24.0663 27.7275 24.0606 27.7275C24.0536 27.7275 24.0432 27.722 24.0354 27.722C24.0241 27.7206 24.0139 27.7261 24.0062 27.7275C23.9809 27.7086 23.9595 27.7357 23.942 27.7316C23.9278 27.7316 23.9279 27.722 23.9187 27.722C23.9116 27.7275 23.9131 27.7428 23.9187 27.7484C23.9272 27.7524 23.9401 27.747 23.9479 27.7497C23.9564 27.7606 23.9564 27.7836 23.9752 27.7911C23.9864 27.7966 24.0199 27.7966 24.0336 27.7911C24.0477 27.7829 24.055 27.7667 24.0588 27.7497C24.0659 27.7484 24.0763 27.7443 24.0938 27.7443C24.0952 27.7273 24.0895 27.7193 24.0762 27.7193Z" fill="#191917"/>
<path d="M23.9982 7.02753L21.4528 25.5354L24.0021 24.2201L23.9982 7.02753Z" fill="#EE7A00"/>
<path d="M18.5534 28.0775L8.72555 24.9766L19.1212 30.7664L18.5534 28.0775Z" fill="#EE7A00"/>
<path d="M39.2669 24.9729L27.4342 26.2054L29.4683 28.0682L39.2669 24.9729Z" fill="#EE7A00"/>
<path d="M27.4127 34.2399L33.6586 42.4345L28.5561 31.8163L27.4127 34.2399Z" fill="#EE7A00"/>
<path d="M14.3337 42.4438L23.4362 34.6387L20.5912 34.236L14.3337 42.4438Z" fill="#EE7A00"/>
<path d="M24.352 34.4395L27.2533 34.0349L28.42 31.5342L24.352 34.4395Z" fill="#EE7A00"/>
<path d="M19.5839 31.5378L20.7507 34.0329L23.6461 34.4393L19.5839 31.5378Z" fill="#EE7A00"/>
<path d="M20.8751 26.2823L18.81 28.1583L19.3875 30.8735L20.8751 26.2823Z" fill="#EE7A00"/>
<path d="M27.123 26.2823L29.1881 28.1564L28.6106 30.8735L27.123 26.2823Z" fill="#EE7A00"/>
<path d="M26.5765 25.861L24.0019 24.5119L21.4215 25.861H26.5765Z" fill="#EE7A00"/>
</svg>
