<svg width="48" height="48" viewBox="0 0 48 48" fill="none" xmlns="http://www.w3.org/2000/svg">
<path d="M30.5606 10.126L41.4882 30.2384C42.807 32.4051 41.4411 34.6188 38.9447 34.242C38.144 34.1007 33.1041 33.4413 26.6983 32.5464L28.5353 30.0971L37.2019 31.0391C37.9085 31.1333 38.2382 30.8978 37.8614 30.1442C37.8614 30.1442 29.7128 13.7057 29.6186 13.5173C29.336 12.9992 29.0534 13.1876 28.7708 13.6115C28.7708 13.6115 20.7635 28.1659 20.6693 28.3543C20.3867 28.9196 20.4809 29.2022 21.3287 29.2964L24.4845 29.6261L22.6476 31.887L18.5497 31.2275C17.5135 31.0862 17.1838 30.4268 17.749 29.3906C18.1729 28.5898 27.7345 11.1152 27.7345 11.1152C27.9229 10.7854 28.1113 10.5028 28.2998 10.1731C28.865 9.2311 29.8541 8.94849 30.5606 10.126Z" fill="#009FE8"/>
<path d="M6.91565 25.5753L21.2345 23.0318L20.0099 25.2456L10.1186 26.8941C9.60044 26.9884 9.64754 27.2239 9.97726 27.4594C9.97726 27.4594 18.5969 33.3942 19.4447 33.9594C20.1041 34.4304 20.4809 34.6188 21.0461 33.8652C21.0461 33.8652 28.0643 25.2927 28.394 24.6804C28.9121 23.9738 29.1476 23.6912 28.2998 23.8325L23.4483 24.6333L24.6729 22.3724L31.173 21.1949C32.6802 20.9593 33.2454 21.9956 32.5389 23.0789C31.9266 23.9738 21.5643 37.8688 21.5643 37.8688C20.9048 38.8579 20.3867 38.8108 19.6331 38.1043C18.691 37.3036 6.44464 27.1768 6.44464 27.1768C5.69101 26.5644 5.92652 25.7637 6.91565 25.5753Z" fill="#FBC600"/>
</svg>
