<svg width="48" height="48" viewBox="0 0 48 48" fill="none" xmlns="http://www.w3.org/2000/svg">
<path d="M31.2896 8.86228L43.4313 31.2094C44.8967 33.6168 43.379 36.0765 40.6052 35.6578C39.7155 35.5008 34.1157 34.7681 26.9981 33.7738L29.0392 31.0523L38.6688 32.099C39.4539 32.2037 39.8202 31.942 39.4015 31.1047C39.4015 31.1047 30.3476 12.8397 30.2429 12.6304C29.9289 12.0547 29.6149 12.2641 29.3009 12.7351C29.3009 12.7351 20.4039 28.9066 20.2992 29.116C19.9852 29.744 20.0899 30.058 21.0319 30.1627L24.5384 30.529L22.4973 33.0411L17.9442 32.3084C16.7928 32.1514 16.4264 31.4187 17.0544 30.2673C17.5255 29.3776 28.1495 9.96132 28.1495 9.96132C28.3588 9.59497 28.5682 9.28096 28.7775 8.91461C29.4055 7.86791 30.5046 7.5539 31.2896 8.86228Z" fill="#009FE8"/>
<path d="M5.01739 26.0281L20.9273 23.202L19.5665 25.6618L8.57617 27.4935C8.00049 27.5982 8.05283 27.8599 8.41917 28.1216C8.41917 28.1216 17.9965 34.7158 18.9385 35.3438C19.6712 35.8671 20.0899 36.0765 20.7179 35.2391C20.7179 35.2391 28.5159 25.7141 28.8822 25.0338C29.4579 24.2487 29.7196 23.9347 28.7775 24.0917L23.387 24.9814L24.7477 22.4694L31.97 21.161C33.6447 20.8993 34.2727 22.0507 33.4877 23.2544C32.8073 24.2487 21.2936 39.6876 21.2936 39.6876C20.5609 40.7866 19.9852 40.7343 19.1479 39.9493C18.1012 39.0596 4.49404 27.8075 4.49404 27.8075C3.65668 27.1272 3.91836 26.2375 5.01739 26.0281Z" fill="#FBC600"/>
</svg>
