<svg width="48" height="48" viewBox="0 0 48 48" fill="none" xmlns="http://www.w3.org/2000/svg">
<g clip-path="url(#clip0_15_3003)">
<path fill-rule="evenodd" clip-rule="evenodd" d="M40.3094 23.5743L30.5669 14.0177L28.2286 14.0366H24.3388V12.897L28.2286 12.8682L30.6164 12.836L41.0654 23.4701L40.3094 23.5743ZM37.1239 23.6353L30.5669 17.2657H28.2286L24.3476 17.2846L24.3454 16.1383L28.2286 16.104L30.6186 16.0774L37.8787 23.5244L37.1239 23.6353ZM28.2286 37.7003L24.6337 41.2719L24.5171 40.5137L28.2286 36.697L34.0253 30.7132V24.439H35.1465L35.2027 30.7698L28.2286 37.7003ZM28.2286 33.4036L30.799 30.7132V24.439H31.9236L31.9808 30.7698L28.2286 34.4689L24.5754 38.065L24.472 37.3134L28.2286 33.4036ZM20.1311 26.0031L18.0657 23.8226L20.1311 21.7852L24.3729 17.6149L28.2286 21.6932L30.4535 24.0466L28.2286 26.2437L24.1408 30.2565L20.1311 26.0031ZM20.1311 35.3147L17.7389 35.3324L7.2965 24.7083L8.04585 24.5975L17.7884 34.1496H20.1311L24.012 34.1419V35.2748L20.1311 35.3147ZM11.2182 24.5454L17.784 30.9017L20.1311 30.8995L24.012 30.8917V32.0324L20.1311 32.0734L17.7257 32.1022L10.471 24.6507L11.2182 24.5454ZM23.8767 10.8651L20.1311 14.7726L17.5562 17.4519V23.724H16.4284L16.3789 17.4076L20.1311 13.704L23.7799 10.1013L23.8767 10.8651ZM20.1311 10.4693L23.7281 6.90434L23.8316 7.65702L20.1311 11.4781L14.3344 17.4519V23.724H13.2043L13.157 17.4076L20.1311 10.4693ZM30.8276 10.8995V4L23.8987 4.02217L20.1311 8.00288L11.3172 17.3489H4.69636V24.1208L17.4935 37.4486V44H24.0098L28.2286 39.751L36.9049 31.0025H43.3035V23.5743L30.8276 10.8995Z" fill="#CE0F3E"/>
</g>
<defs>
<clipPath id="clip0_15_3003">
<rect width="40" height="40" fill="white" transform="translate(4 4)"/>
</clipPath>
</defs>
</svg>
