<svg width="48" height="48" viewBox="0 0 48 48" fill="none" xmlns="http://www.w3.org/2000/svg">
<g clip-path="url(#clip0_15_3020)">
<path fill-rule="evenodd" clip-rule="evenodd" d="M37.0475 23.6595L29.2535 16.0142L27.3829 16.0293H24.2711V15.1176L27.3829 15.0946L29.2931 15.0688L37.6523 23.5761L37.0475 23.6595ZM34.4991 23.7082L29.2535 18.6126H27.3829L24.2781 18.6276L24.2764 17.7107L27.3829 17.6832L29.2949 17.6619L35.103 23.6196L34.4991 23.7082ZM27.3829 34.9602L24.507 37.8175L24.4137 37.211L27.3829 34.1576L32.0202 29.3706V24.3512H32.9172L32.9621 29.4158L27.3829 34.9602ZM27.3829 31.5229L29.4392 29.3706V24.3512H30.3389L30.3847 29.4158L27.3829 32.3751L24.4603 35.252L24.3776 34.6507L27.3829 31.5229ZM20.9049 25.6025L19.2526 23.8581L20.9049 22.2281L24.2984 18.8919L27.3829 22.1545L29.1628 24.0372L27.3829 25.7949L24.1126 29.0052L20.9049 25.6025ZM20.9049 33.0518L18.9911 33.066L10.6372 24.5667L11.2367 24.478L19.0307 32.1197H20.9049L24.0096 32.1135V33.0198L20.9049 33.0518ZM13.7745 24.4363L19.0272 29.5213L20.9049 29.5196L24.0096 29.5134V30.4259L20.9049 30.4587L18.9805 30.4818L13.1768 24.5206L13.7745 24.4363ZM23.9013 13.4921L20.9049 16.6181L18.845 18.7616V23.7792H17.9427L17.9031 18.7261L20.9049 15.7632L23.8239 12.8811L23.9013 13.4921ZM20.9049 13.1755L23.7825 10.3235L23.8653 10.9256L20.9049 13.9825L16.2675 18.7616V23.7792H15.3635L15.3256 18.7261L20.9049 13.1755ZM29.4621 13.5196V8L23.919 8.01773L20.9049 11.2023L13.8538 18.6791H8.55708V24.0967L18.7948 34.7589V40H24.0079L27.3829 36.6008L34.3239 29.602H39.4428V23.6595L29.4621 13.5196Z" fill="#CE0F3E"/>
</g>
<defs>
<clipPath id="clip0_15_3020">
<rect width="32" height="32" fill="white" transform="translate(8 8)"/>
</clipPath>
</defs>
</svg>
