<svg width="48" height="48" viewBox="0 0 48 48" fill="none" xmlns="http://www.w3.org/2000/svg">
<path d="M17.757 28.3205L17.6981 28.3775C16.7743 29.3188 15.7052 29.8162 14.6039 29.8162C12.304 29.8162 10.6355 28.0907 10.6355 25.7108C10.6355 23.3345 12.304 21.6063 14.6039 21.6063C15.7052 21.6063 16.7743 22.1064 17.6981 23.0514L17.757 23.1074L19.2361 21.3186L19.1965 21.2708C17.9666 19.8174 16.4902 19.1105 14.6756 19.1105C12.8564 19.1105 11.1907 19.7236 9.99203 20.8277C8.68668 22.0245 8 23.7123 8 25.7108C8 27.7092 8.68668 29.4006 9.99203 30.5975C11.1907 31.708 12.8564 32.3165 14.6756 32.3165C16.4902 32.3165 17.9666 31.6087 19.1965 30.1544L19.2361 30.1103L17.757 28.3205Z" fill="#004685"/>
<path d="M20.73 32.0726H23.3425V19.317H20.73V32.0726Z" fill="#004685"/>
<path d="M33.5779 29.2997C32.8802 29.7244 32.2321 29.9386 31.6493 29.9386C30.8045 29.9386 30.4221 29.4918 30.4221 28.499V21.7305H33.0852V19.3294H30.4221V15.3601L27.862 16.7316V19.3294H25.6521V21.7305H27.862V28.9302C27.862 30.8909 29.0239 32.233 30.7595 32.268C31.937 32.291 32.6467 31.9398 33.0769 31.6824L33.1045 31.6649L33.7324 29.205L33.5779 29.2997Z" fill="#004685"/>
<path d="M35.7404 32.0726H38.3566V19.317H35.7404V32.0726Z" fill="#004685"/>
<path d="M39.8805 17.0811C37.4932 13.7001 33.5293 11.6833 29.4966 11.6833C25.4647 11.6833 21.5 13.7001 19.1172 17.0811L18.9941 17.2549H22L22.0331 17.219C24.0785 15.1066 26.7498 13.9906 29.4966 13.9906C32.2433 13.9906 34.9128 15.1066 36.9628 17.219L36.9958 17.2549H40L39.8805 17.0811Z" fill="#EE1C25"/>
</svg>
