<svg width="48" height="48" viewBox="0 0 48 48" fill="none" xmlns="http://www.w3.org/2000/svg">
<path d="M16.1962 31.9006L16.1227 31.9719C14.9679 33.1485 13.6315 33.7702 12.2549 33.7702C9.37994 33.7702 7.29438 31.6134 7.29438 28.6384C7.29438 25.6681 9.37994 23.5078 12.2549 23.5078C13.6315 23.5078 14.9679 24.1329 16.1227 25.3142L16.1962 25.3843L18.0451 23.1482L17.9957 23.0884C16.4582 21.2717 14.6128 20.3881 12.3445 20.3881C10.0705 20.3881 7.98842 21.1545 6.49003 22.5346C4.85836 24.0306 4 26.1403 4 28.6384C4 31.1365 4.85836 33.2508 6.49003 34.7469C7.98842 36.1349 10.0705 36.8956 12.3445 36.8956C14.6128 36.8956 16.4582 36.0108 17.9957 34.193L18.0451 34.1379L16.1962 31.9006Z" fill="#004685"/>
<path d="M19.9125 36.5907H23.1781V20.6462H19.9125V36.5907Z" fill="#004685"/>
<path d="M35.9724 33.1246C35.1003 33.6554 34.2902 33.9232 33.5617 33.9232C32.5057 33.9232 32.0276 33.3647 32.0276 32.1237V23.6631H35.3565V20.6617H32.0276V15.7001L28.8275 17.4145V20.6617H26.0651V23.6631H28.8275V32.6626C28.8275 35.1136 30.2799 36.7912 32.4494 36.8349C33.9213 36.8636 34.8084 36.4247 35.3462 36.1029L35.3806 36.0811L36.1654 33.0062L35.9724 33.1246Z" fill="#004685"/>
<path d="M38.6755 36.5907H41.9458V20.6462H38.6755V36.5907Z" fill="#004685"/>
<path d="M43.8506 17.8514C40.8665 13.6251 35.9117 11.104 30.8707 11.104C25.8309 11.104 20.8749 13.6251 17.8966 17.8514L17.7426 18.0685H21.5L21.5414 18.0237C24.0981 15.3832 27.4373 13.9882 30.8707 13.9882C34.3041 13.9882 37.641 15.3832 40.2034 18.0237L40.2448 18.0685H44L43.8506 17.8514Z" fill="#EE1C25"/>
</svg>
