<svg width="48" height="48" viewBox="0 0 48 48" fill="none" xmlns="http://www.w3.org/2000/svg">
<path d="M24.0088 43.0997C23.8152 43.0997 23.6393 43.0469 23.4633 42.9589L9.56305 35.129C9.21114 34.9355 9 34.5836 9 34.1789V10.0909C9 9.49267 9.47507 9 10.0909 9H37.9091C38.5073 9 39 9.47507 39 10.0909V34.1789C39 34.566 38.7713 34.9355 38.4369 35.129L24.5367 42.9589C24.3607 43.0645 24.2023 43.0997 24.0088 43.0997ZM11.1994 33.563L24.0088 40.7771L36.8358 33.563V11.1818H11.1994V33.563Z" fill="#200B4F"/>
<path d="M24.0088 32.2082C23.8152 32.2082 23.6393 32.1554 23.4633 32.0675L19.0645 29.5689C18.7126 29.3754 18.5015 29.0235 18.5015 28.6188V24.044H20.6833V27.9678L24.0088 29.8329L27.8798 27.651L28.9531 29.5513L24.5543 32.0499C24.3607 32.1554 24.2023 32.2082 24.0088 32.2082Z" fill="#200B4F"/>
<path d="M24.0088 37.6628C23.8153 37.6628 23.6393 37.61 23.4634 37.522L14.2962 32.3666C13.9443 32.173 13.7332 31.8035 13.7332 31.4164V19.61C13.7332 19.0117 14.2082 18.5191 14.8241 18.5191H28.2669V20.7009H15.915V30.8006L23.9736 35.3402L32.0323 30.8006V26.0675H34.2493V31.3988C34.2493 31.7859 34.0205 32.1554 33.6862 32.349L24.5191 37.5044C24.3607 37.6276 24.2024 37.6628 24.0088 37.6628Z" fill="#200B4F"/>
<path d="M34.2493 21.8974H32.0675V15.9502H17.6041V13.7684H33.1408C33.739 13.7684 34.2317 14.2434 34.2317 14.8593V21.8974H34.2493Z" fill="#200B4F"/>
</svg>
