<svg width="48" height="48" viewBox="0 0 48 48" fill="none" xmlns="http://www.w3.org/2000/svg">
<g clip-path="url(#clip0_15_3087)">
<path fill-rule="evenodd" clip-rule="evenodd" d="M10.7881 37.3454H37.2126V10.6541H10.7881V37.3454Z" fill="white"/>
<path fill-rule="evenodd" clip-rule="evenodd" d="M36.3494 36.5077L26.7605 28.3853C26.7605 28.3853 25.4615 27.1042 24.0046 27.1042C22.533 27.1042 21.234 28.3853 21.234 28.3853L11.6481 36.5077L11.6174 36.4796L19.66 26.7939C19.66 26.7939 20.9253 25.4862 20.9253 23.9968C20.9253 22.5222 19.66 21.213 19.66 21.213L11.6174 11.52L11.6481 11.486L21.234 19.6172C21.234 19.6172 22.533 20.9013 24.0046 20.9013C25.4615 20.9013 26.7605 19.6172 26.7605 19.6172L36.3494 11.486L36.3889 11.5288L28.3301 21.213C28.3301 21.213 27.0736 22.5222 27.0736 23.9968C27.0736 25.4862 28.3301 26.7939 28.3301 26.7939L36.3889 36.4766L36.3494 36.5077ZM40.8358 23.9968V23.9939C40.8358 21.3682 40.9412 19.0144 42.8692 14.88C43.4265 13.6773 44.6597 11.9248 42.8428 9.87983C41.3668 8.39336 39.6904 8.63717 38.5611 9.2947C39.2106 8.15399 39.452 6.45327 37.9775 4.9609C35.9544 3.13163 34.2136 4.37429 33.0287 4.94021C28.9314 6.89212 26.6128 6.99998 24.0046 6.99998C21.3861 6.99998 19.0646 6.89212 14.976 4.94021C13.7853 4.37429 12.0372 3.13163 10.02 4.9609C8.54544 6.45327 8.79412 8.15399 9.44362 9.2947C8.31139 8.63421 6.63207 8.39336 5.15461 9.87983C3.33925 11.9248 4.57826 13.6773 5.12536 14.88C7.06506 19.0144 7.17185 21.3682 7.17185 23.9968C7.17185 26.6329 7.06506 28.9926 5.12536 33.124C4.57826 34.3179 3.33925 36.0821 5.15461 38.1256C6.63207 39.6077 8.31139 39.3624 9.44362 38.7123C8.79412 39.8559 8.54544 41.5522 10.02 43.0298C12.0372 44.8724 13.7853 43.6268 14.976 43.0608C19.0675 41.1104 21.3861 41.007 24.0046 41.007C26.6128 41.007 28.9314 41.1104 33.0273 43.0608C34.2136 43.6268 35.9544 44.8724 37.9775 43.0298C39.452 41.5522 39.2048 39.8559 38.5582 38.7123C39.6904 39.3624 41.3668 39.6165 42.8428 38.1256C44.6597 36.0821 43.4265 34.3179 42.8692 33.124C40.9412 28.9867 40.8358 26.6329 40.8358 23.9968Z" fill="#FF3333"/>
</g>
<defs>
<clipPath id="clip0_15_3087">
<rect width="40" height="40" fill="white" transform="translate(4 4)"/>
</clipPath>
</defs>
</svg>
