<svg width="48" height="48" viewBox="0 0 48 48" fill="none" xmlns="http://www.w3.org/2000/svg">
<g clip-path="url(#clip0_15_3106)">
<path fill-rule="evenodd" clip-rule="evenodd" d="M13.4304 34.6763H34.57V13.3232H13.4304V34.6763Z" fill="white"/>
<path fill-rule="evenodd" clip-rule="evenodd" d="M33.8795 34.0061L26.2084 27.5082C26.2084 27.5082 25.1692 26.4834 24.0036 26.4834C22.8264 26.4834 21.7872 27.5082 21.7872 27.5082L14.1185 34.0061L14.0939 33.9837L20.528 26.2351C20.528 26.2351 21.5403 25.189 21.5403 23.9975C21.5403 22.8177 20.528 21.7704 20.528 21.7704L14.0939 14.016L14.1185 13.9888L21.7872 20.4938C21.7872 20.4938 22.8264 21.521 24.0036 21.521C25.1692 21.521 26.2084 20.4938 26.2084 20.4938L33.8795 13.9888L33.9111 14.0231L27.4641 21.7704C27.4641 21.7704 26.4589 22.8177 26.4589 23.9975C26.4589 25.189 27.4641 26.2351 27.4641 26.2351L33.9111 33.9813L33.8795 34.0061ZM37.4687 23.9975V23.9951C37.4687 21.8945 37.5529 20.0115 39.0953 16.704C39.5412 15.7418 40.5277 14.3399 39.0743 12.7039C37.8935 11.5147 36.5523 11.7097 35.6489 12.2358C36.1685 11.3232 36.3616 9.96262 35.182 8.76872C33.5635 7.3053 32.1709 8.29943 31.223 8.75217C27.9451 10.3137 26.0902 10.4 24.0036 10.4C21.9089 10.4 20.0517 10.3137 16.7808 8.75217C15.8282 8.29943 14.4298 7.3053 12.816 8.76872C11.6363 9.96262 11.8353 11.3232 12.3549 12.2358C11.4491 11.7074 10.1056 11.5147 8.92368 12.7039C7.47139 14.3399 8.4626 15.7418 8.90027 16.704C10.452 20.0115 10.5375 21.8945 10.5375 23.9975C10.5375 26.1063 10.452 27.9941 8.90027 31.2992C8.4626 32.2543 7.47139 33.6657 8.92368 35.3005C10.1056 36.4861 11.4491 36.2899 12.3549 35.7698C11.8353 36.6847 11.6363 38.0418 12.816 39.2238C14.4298 40.6979 15.8282 39.7014 16.7808 39.2487C20.054 37.6883 21.9089 37.6056 24.0036 37.6056C26.0902 37.6056 27.9451 37.6883 31.2218 39.2487C32.1709 39.7014 33.5635 40.6979 35.182 39.2238C36.3616 38.0418 36.1638 36.6847 35.6466 35.7698C36.5523 36.2899 37.8935 36.4932 39.0743 35.3005C40.5277 33.6657 39.5412 32.2543 39.0953 31.2992C37.5529 27.9893 37.4687 26.1063 37.4687 23.9975Z" fill="#FF3333"/>
</g>
<defs>
<clipPath id="clip0_15_3106">
<rect width="32" height="32" fill="white" transform="translate(8 8)"/>
</clipPath>
</defs>
</svg>
