<svg width="48" height="48" viewBox="0 0 48 48" fill="none" xmlns="http://www.w3.org/2000/svg">
<g clip-path="url(#clip0_19_1988)">
<mask id="mask0_19_1988" style="mask-type:luminance" maskUnits="userSpaceOnUse" x="6" y="19" width="36" height="11">
<path d="M41.8895 19H6V29.2699H41.8895V19Z" fill="white"/>
</mask>
<g mask="url(#mask0_19_1988)">
<path d="M7.54772 28.8277C7.06016 28.5329 6.6789 28.1162 6.40819 27.5762C6.13606 27.0376 6 26.4183 6 25.7181C6 25.018 6.13606 24.3986 6.40819 23.8586C6.68032 23.32 7.06016 22.9033 7.54772 22.6085C8.03669 22.3137 8.5937 22.1663 9.22016 22.1663C9.65386 22.1663 10.0564 22.2386 10.4291 22.3803C10.8019 22.5235 11.118 22.7233 11.3759 22.9813V19H13.5458V29.131H11.597L11.5701 28.2183C11.3121 28.5499 10.9805 28.8079 10.5751 28.9921C10.1698 29.1764 9.71906 29.2685 9.22016 29.2685C8.5937 29.2685 8.03669 29.1211 7.54772 28.8263V28.8277ZM8.60504 26.9611C8.90409 27.2843 9.29386 27.4444 9.77291 27.4444C10.252 27.4444 10.6431 27.2857 10.9479 26.9682C11.2512 26.6507 11.4043 26.234 11.4043 25.7167C11.4043 25.1994 11.2526 24.7841 10.9479 24.4666C10.6431 24.1491 10.252 23.9904 9.77291 23.9904C9.29386 23.9904 8.90409 24.152 8.60504 24.4737C8.30457 24.7969 8.15575 25.2107 8.15575 25.7181C8.15575 26.2255 8.30457 26.6394 8.60504 26.9625" fill="#FFB300"/>
<path d="M14.7761 19H16.946V23.0507C17.4718 22.4512 18.1663 22.1521 19.0323 22.1521C19.8983 22.1521 20.5361 22.4328 21.0293 22.9954C21.5225 23.5581 21.7691 24.3178 21.7691 25.2759V29.1324H19.5992V25.4006C19.5992 24.9584 19.4915 24.6126 19.2747 24.3646C19.0578 24.1165 18.7559 23.9918 18.369 23.9918C17.9452 23.9918 17.6022 24.135 17.3386 24.4198C17.0764 24.7061 16.9446 25.0789 16.9446 25.5395V29.1324H14.7747V19H14.7761Z" fill="#FFB300"/>
<path d="M24.0978 28.8206C23.6046 28.5215 23.2205 28.102 22.9441 27.5634C22.6678 27.0248 22.5303 26.4097 22.5303 25.7181C22.5303 25.0264 22.6678 24.4127 22.9441 23.8727C23.2205 23.3341 23.6046 22.9146 24.0978 22.6156C24.5911 22.3165 25.1552 22.1663 25.7915 22.1663C26.2522 22.1663 26.6759 22.247 27.0629 22.4086C27.4498 22.5702 27.9033 22.9245 28.1797 23.2278L28.1953 22.3037H30.0747V29.131H28.1953L28.2109 28.316C27.6298 28.9524 26.7199 29.2699 25.7901 29.2699C25.1537 29.2699 24.5896 29.1196 24.0964 28.8206H24.0978ZM25.1325 26.9611C25.4315 27.2842 25.8213 27.4444 26.3004 27.4444C26.7794 27.4444 27.1706 27.2856 27.4753 26.9682C27.7786 26.6507 27.9317 26.234 27.9317 25.7167C27.9317 25.1993 27.78 24.7841 27.4753 24.4666C27.1706 24.1491 26.7794 23.9904 26.3004 23.9904C25.8213 23.9904 25.4315 24.1519 25.1325 24.4737C24.8334 24.7968 24.6832 25.2107 24.6832 25.7181C24.6832 26.2255 24.8334 26.6393 25.1325 26.9625" fill="#FFB300"/>
<path d="M31.3049 22.0118H33.3104L33.3217 23.106C33.5896 22.8012 33.9085 22.5674 34.2827 22.4001C34.6554 22.2343 35.0679 22.1521 35.52 22.1521C36.3676 22.1521 37.0422 22.4285 37.5439 22.9812C38.0457 23.534 38.298 24.2993 38.298 25.2745V29.131H36.128V25.3992C36.128 24.957 36.0175 24.6112 35.7964 24.3631C35.5753 24.1151 35.2706 23.9904 34.8836 23.9904C34.4598 23.9904 34.1183 24.1335 33.8603 24.4184C33.6024 24.7047 33.4734 25.0774 33.4734 25.5381V29.131H31.3035V22.0118H31.3049Z" fill="#FFB300"/>
<path d="M39.6331 19.343C39.8812 19.1148 40.1944 19 40.5756 19C40.9569 19 41.2701 19.1134 41.5182 19.343C41.7648 19.5712 41.8895 19.8674 41.8895 20.2288C41.8895 20.5902 41.7676 20.8709 41.5252 21.1005C41.2829 21.3287 40.9654 21.442 40.5756 21.442C40.1859 21.442 39.8684 21.3287 39.626 21.1005C39.3837 20.8723 39.2618 20.5817 39.2618 20.2288C39.2618 19.8759 39.3851 19.5726 39.6331 19.343Z" fill="#FFB300"/>
<path d="M41.6145 21.836H39.4446V29.1324H41.6145V21.836Z" fill="#FFB300"/>
</g>
</g>
<defs>
<clipPath id="clip0_19_1988">
<rect width="36" height="10.3465" fill="white" transform="translate(6 19)"/>
</clipPath>
</defs>
</svg>
