<svg width="48" height="48" viewBox="0 0 48 48" fill="none" xmlns="http://www.w3.org/2000/svg">
<g clip-path="url(#clip0_19_1938)">
<mask id="mask0_19_1938" style="mask-type:luminance" maskUnits="userSpaceOnUse" x="4" y="18" width="40" height="12">
<path d="M43.8772 18H4V29.411H43.8772V18Z" fill="white"/>
</mask>
<g mask="url(#mask0_19_1938)">
<path d="M5.71969 28.9197C5.17795 28.5921 4.75433 28.1291 4.45354 27.5291C4.15118 26.9307 4 26.2425 4 25.4646C4 24.6866 4.15118 23.9984 4.45354 23.3984C4.75591 22.8 5.17795 22.337 5.71969 22.0094C6.26299 21.6819 6.88189 21.5181 7.57795 21.5181C8.05984 21.5181 8.50709 21.5984 8.92126 21.7559C9.33543 21.915 9.68661 22.137 9.97323 22.4236V18H12.3843V29.2567H10.2189L10.189 28.2425C9.90236 28.611 9.53386 28.8976 9.08346 29.1024C8.63307 29.3071 8.13228 29.4094 7.57795 29.4094C6.88189 29.4094 6.26299 29.2457 5.71969 28.9181V28.9197ZM6.89449 26.8457C7.22677 27.2047 7.65984 27.3827 8.19213 27.3827C8.72441 27.3827 9.15906 27.2063 9.49764 26.8535C9.83465 26.5008 10.0047 26.0378 10.0047 25.463C10.0047 24.8882 9.83622 24.4268 9.49764 24.074C9.15906 23.7213 8.72441 23.5449 8.19213 23.5449C7.65984 23.5449 7.22677 23.7244 6.89449 24.0819C6.56063 24.4409 6.39528 24.9008 6.39528 25.4646C6.39528 26.0283 6.56063 26.4882 6.89449 26.8472" fill="#FFB300"/>
<path d="M13.7512 18H16.1622V22.5008C16.7465 21.8346 17.5181 21.5024 18.4803 21.5024C19.4425 21.5024 20.1512 21.8142 20.6992 22.4394C21.2472 23.0646 21.5213 23.9087 21.5213 24.9732V29.2583H19.1102V25.1118C19.1102 24.6205 18.9905 24.2362 18.7496 23.9606C18.5087 23.685 18.1732 23.5465 17.7433 23.5465C17.2724 23.5465 16.8913 23.7055 16.5984 24.022C16.3071 24.3402 16.1606 24.7543 16.1606 25.2661V29.2583H13.7496V18H13.7512Z" fill="#FFB300"/>
<path d="M24.1087 28.9118C23.5606 28.5795 23.1339 28.1133 22.8268 27.5149C22.5197 26.9165 22.3669 26.233 22.3669 25.4645C22.3669 24.696 22.5197 24.0141 22.8268 23.4141C23.1339 22.8157 23.5606 22.3496 24.1087 22.0173C24.6567 21.685 25.2835 21.5181 25.9906 21.5181C26.5024 21.5181 26.9732 21.6078 27.4032 21.7874C27.8331 21.9669 28.337 22.3606 28.6441 22.6976L28.6614 21.6708H30.7496V29.2567H28.6614L28.6788 28.3511C28.0331 29.0582 27.0221 29.411 25.989 29.411C25.2819 29.411 24.6551 29.2441 24.1071 28.9118H24.1087ZM25.2583 26.8456C25.5906 27.2047 26.0236 27.3826 26.5559 27.3826C27.0882 27.3826 27.5229 27.2063 27.8614 26.8535C28.1984 26.5007 28.3685 26.0378 28.3685 25.4629C28.3685 24.8881 28.2 24.4267 27.8614 24.074C27.5229 23.7212 27.0882 23.5448 26.5559 23.5448C26.0236 23.5448 25.5906 23.7244 25.2583 24.0818C24.926 24.4409 24.7591 24.9007 24.7591 25.4645C24.7591 26.0283 24.926 26.4881 25.2583 26.8472" fill="#FFB300"/>
<path d="M32.1165 21.3464H34.3449L34.3575 22.5622C34.6551 22.2236 35.0094 21.9638 35.4252 21.7779C35.8394 21.5937 36.2976 21.5023 36.8 21.5023C37.7417 21.5023 38.4913 21.8094 39.0488 22.4236C39.6063 23.0378 39.8866 23.8882 39.8866 24.9716V29.2567H37.4756V25.1102C37.4756 24.6189 37.3528 24.2346 37.1071 23.959C36.8614 23.6834 36.5228 23.5449 36.0929 23.5449C35.622 23.5449 35.2425 23.7039 34.9559 24.0205C34.6693 24.3386 34.526 24.7527 34.526 25.2645V29.2567H32.115V21.3464H32.1165Z" fill="#FFB300"/>
<path d="M41.3701 18.3811C41.6457 18.1276 41.9937 18 42.4173 18C42.841 18 43.189 18.126 43.4646 18.3811C43.7386 18.6346 43.8772 18.9638 43.8772 19.3654C43.8772 19.7669 43.7417 20.0787 43.4724 20.3339C43.2032 20.5874 42.8504 20.7134 42.4173 20.7134C41.9843 20.7134 41.6315 20.5874 41.3622 20.3339C41.0929 20.0803 40.9575 19.7575 40.9575 19.3654C40.9575 18.9732 41.0945 18.6362 41.3701 18.3811Z" fill="#FFB300"/>
<path d="M43.5717 21.1512H41.1606V29.2583H43.5717V21.1512Z" fill="#FFB300"/>
</g>
</g>
<defs>
<clipPath id="clip0_19_1938">
<rect width="40" height="11.4961" fill="white" transform="translate(4 18)"/>
</clipPath>
</defs>
</svg>
