<svg width="48" height="48" viewBox="0 0 48 48" fill="none" xmlns="http://www.w3.org/2000/svg">
<rect x="20.625" y="29.9688" width="6.75" height="6.75" rx="3.375" fill="#002C8A"/>
<path d="M31.8182 30.2799C32.445 29.8304 32.5948 28.9505 32.0691 28.3861C31.2176 27.4719 30.2132 26.7079 29.0977 26.1303C27.5675 25.3378 25.8717 24.9185 24.1485 24.9065C22.4254 24.8945 20.7238 25.2902 19.1828 26.0612C18.0593 26.6233 17.0444 27.3732 16.1803 28.2754C15.6468 28.8325 15.7843 29.7144 16.4047 30.1725C17.0252 30.6307 17.8925 30.4882 18.45 29.9551C19.0355 29.3952 19.7033 28.924 20.4325 28.5591C21.5797 27.9852 22.8464 27.6907 24.1291 27.6996C25.4118 27.7085 26.6742 28.0207 27.8133 28.6106C28.5374 28.9855 29.1985 29.466 29.7762 30.0341C30.3262 30.5749 31.1914 30.7294 31.8182 30.2799Z" fill="#002C8A"/>
<path d="M35.7212 26.5783C36.6929 25.908 36.9218 24.554 36.0956 23.7108C34.8228 22.4119 33.3279 21.3247 31.6708 20.4991C29.3573 19.3465 26.7933 18.7366 24.188 18.7191C21.5827 18.7017 19.0101 19.2772 16.6801 20.3986C15.0108 21.2021 13.4999 22.2696 12.2082 23.5518C11.3706 24.3832 11.5806 25.7399 12.5427 26.4234C13.4558 27.072 14.7075 26.8659 15.5279 26.1035C16.4237 25.271 17.4487 24.5716 18.5697 24.032C20.3041 23.1972 22.2192 22.7688 24.1586 22.7818C26.098 22.7948 28.0066 23.2488 29.7288 24.1068C30.841 24.6609 31.8551 25.3734 32.7383 26.2169C33.5489 26.9911 34.7986 27.2148 35.7212 26.5783Z" fill="#007E02"/>
<path d="M39.4399 21.3353C40.807 20.4603 41.1189 18.5795 39.9272 17.4774C38.252 15.9282 36.3008 14.6277 34.146 13.6317C31.0288 12.191 27.5741 11.4286 24.0638 11.4067C20.5536 11.3849 17.0873 12.1043 13.9479 13.5061C11.7757 14.4761 9.80263 15.7538 8.10233 17.284C6.89688 18.3688 7.18239 20.2522 8.53648 21.1446C9.69773 21.9099 11.2346 21.6568 12.279 20.7385C13.5134 19.6533 14.9347 18.7441 16.4939 18.0479C18.8308 17.0043 21.4111 16.4688 24.0242 16.4851C26.6372 16.5013 29.209 17.0689 31.5294 18.1414C33.0744 18.8554 34.4788 19.7799 35.6944 20.8775C36.7289 21.8116 38.2658 22.0867 39.4399 21.3353Z" fill="#E88B30"/>
</svg>
