<svg width="48" height="48" viewBox="0 0 48 48" fill="none" xmlns="http://www.w3.org/2000/svg">
<rect x="20.25" y="30.625" width="7.5" height="7.5" rx="3.75" fill="#002C8A"/>
<path d="M32.6869 30.9707C33.3834 30.4713 33.5498 29.4937 32.9656 28.8665C32.0196 27.8508 30.9036 27.0019 29.6641 26.36C27.9639 25.4795 26.0796 25.0136 24.165 25.0003C22.2504 24.987 20.3598 25.4266 18.6475 26.2833C17.3993 26.9078 16.2716 27.741 15.3114 28.7435C14.7186 29.3625 14.8714 30.3423 15.5608 30.8514C16.2503 31.3605 17.2139 31.2022 17.8333 30.6099C18.4839 29.9877 19.2259 29.4642 20.0362 29.0588C21.3108 28.421 22.7182 28.0938 24.1434 28.1037C25.5687 28.1137 26.9713 28.4605 28.237 29.1159C29.0415 29.5325 29.7762 30.0664 30.418 30.6976C31.0291 31.2985 31.9904 31.4701 32.6869 30.9707Z" fill="#002C8A"/>
<path d="M37.0235 26.8579C38.1032 26.1131 38.3576 24.6086 37.4396 23.6718C36.0253 22.2285 34.3643 21.0205 32.5232 20.1032C29.9526 18.8225 27.1036 18.1448 24.2089 18.1254C21.3141 18.106 18.4557 18.7455 15.8668 19.9916C14.012 20.8843 12.3332 22.0704 10.8979 23.4951C9.96734 24.4189 10.2007 25.9263 11.2696 26.6857C12.2842 27.4064 13.675 27.1774 14.5866 26.3303C15.5819 25.4053 16.7208 24.6282 17.9663 24.0287C19.8935 23.1011 22.0213 22.6251 24.1762 22.6395C26.3311 22.654 28.4518 23.1584 30.3654 24.1118C31.6011 24.7274 32.7279 25.519 33.7092 26.4563C34.6098 27.3165 35.9984 27.5651 37.0235 26.8579Z" fill="#007E02"/>
<path d="M41.1554 21.0323C42.6745 20.0601 43.021 17.9703 41.6969 16.7457C39.8356 15.0244 37.6675 13.5794 35.2733 12.4727C31.8098 10.8719 27.9712 10.0248 24.0709 10.0005C20.1706 9.97628 16.3192 10.7756 12.831 12.3332C10.4175 13.411 8.22514 14.8306 6.33592 16.5308C4.99653 17.7361 5.31377 19.8288 6.81831 20.8204C8.10858 21.6707 9.81621 21.3895 10.9767 20.3692C12.3482 19.1634 13.9275 18.1532 15.6599 17.3796C18.2565 16.2201 21.1235 15.6251 24.0269 15.6431C26.9303 15.6612 29.7877 16.2918 32.366 17.4835C34.0826 18.2769 35.6431 19.3041 36.9937 20.5236C38.1433 21.5615 39.8509 21.8672 41.1554 21.0323Z" fill="#E88B30"/>
</svg>
