<svg width="48" height="48" viewBox="0 0 48 48" fill="none" xmlns="http://www.w3.org/2000/svg">
<path d="M21.5563 3.63952C16.9382 4.1997 12.6485 6.39814 9.50271 9.79092C7.52203 11.9259 6.31455 13.6382 5.32951 15.7098C2.82983 20.9839 2.89338 27.3361 5.50957 32.5997C6.07321 33.7336 7.04259 35.2647 7.41986 35.6558C7.49756 35.7363 7.65876 35.7475 7.62795 35.8551C7.57499 35.9925 8.98371 37.5884 9.85224 38.3706C13.1569 41.3511 17.1183 43.0634 21.5774 43.4333C22.9756 43.5601 24.1407 43.5073 26.1637 43.2642C31.4385 42.6195 34.3724 40.495 35.6435 36.3941C35.9294 35.4534 35.9294 35.168 35.6223 35.2103C35.4316 35.2315 35.2304 35.5168 34.7432 36.4575C34.3936 37.1234 33.9276 37.9478 33.7051 38.2754C33.2285 38.9836 32.2752 39.8926 31.5868 40.2942C31.1313 40.569 29.6167 41.108 29.3307 41.108C29.0129 41.108 29.2248 40.9284 29.9556 40.5584C31.0995 39.9983 32.8896 38.6242 32.8896 38.3177C32.8896 38.1803 32.8154 38.0112 32.7307 37.9372C32.4341 37.6941 32.0528 37.7998 31.322 38.3494C30.0827 39.269 29.8073 39.343 27.8055 39.4169C26.1531 39.4698 26.026 39.4909 25.4329 39.7869C24.9245 40.03 24.7021 40.2414 24.2254 40.8861C23.8971 41.33 23.5052 41.7951 23.3569 41.9219C22.6896 42.5243 21.1961 42.6406 19.4908 42.2284C15.4765 41.256 11.9706 39.1527 9.2591 36.0876C9.03164 35.8379 8.82047 35.6262 8.69939 35.5337C8.64065 35.4889 8.53254 35.485 8.57062 35.4217C8.6024 35.3689 8.49648 35.168 8.3376 34.9672C7.18309 33.5404 5.89088 30.9931 5.213 28.7947C3.02048 21.7026 5.36129 13.2788 10.7526 8.94536C13.284 6.91604 16.1332 5.56316 19.3214 4.88671C20.5394 4.62248 20.8784 4.60134 23.0391 4.60134C25.5388 4.59077 26.1214 4.65419 28.0703 5.14038C30.8771 5.83796 33.917 7.44451 36.1625 9.43155C39.0329 11.9682 41.2254 15.5301 42.1469 19.1765C42.6341 21.1213 42.7718 22.4531 42.7082 24.6726C42.6235 27.6955 42.1257 29.8199 40.8864 32.42C40.5687 33.0647 40.3357 33.6038 40.3568 33.6038C40.431 33.6038 41.4478 31.733 41.7868 30.9614C43.1425 27.8857 43.7145 24.3133 43.3649 21.153C42.973 17.5594 41.7444 14.3252 39.679 11.5137C35.527 5.83796 28.5151 2.79397 21.5563 3.63952Z" fill="#0D9644"/>
<path d="M9.53737 9.79103C12.6832 6.39825 16.9729 4.19982 21.5909 3.63964C28.5498 2.79409 35.5616 5.83808 39.7136 11.5138C41.779 14.3253 43.0077 17.5595 43.3996 21.1531C43.7491 24.3134 43.1772 27.8858 41.8214 30.9615C41.4825 31.7331 40.4656 33.6039 40.3915 33.6039C40.3703 33.6039 40.6033 33.0648 40.9211 32.4201C42.1604 29.82 42.6582 27.6956 42.7429 24.6727C42.8065 22.4532 42.6688 21.1214 42.1815 19.1767C41.26 15.5302 39.0675 11.9683 36.1971 9.43167C33.9516 7.44462 30.9118 5.83807 28.1049 5.14049C26.156 4.6543 25.5735 4.59089 23.0738 4.60145C20.913 4.60145 20.5741 4.62259 19.356 4.88683C16.1679 5.56327 12.0688 7.76171 9.53737 9.79103Z" fill="#C1232D"/>
<path d="M14.2733 23.66V32.8334H23.4467H32.62V31.0386V29.2438H25.2612H17.9023V23.66V18.0763H23.4467H28.991V19.9708V21.8653H25.2612H21.5314V23.66V25.4548H27.0757H32.62V19.9708V14.4867H23.4467H14.2733V23.66Z" fill="#194782"/>
</svg>
