<svg width="48" height="48" viewBox="0 0 48 48" fill="none" xmlns="http://www.w3.org/2000/svg">
<path d="M25.2969 43.9564C25.2969 43.9564 25.2583 43.995 25.2292 44.0048C25.1323 44.0629 25.0065 44.0531 24.9097 43.9854C24.0482 43.4434 19.5271 40.3259 16.5742 36.6857C16.4096 36.4728 16.3323 36.3761 16.3323 36.2599C16.2838 34.556 19.3139 32.6198 21.6278 31.3708H21.6472C21.6472 31.3708 21.7149 31.3516 21.744 31.3708C21.773 31.3902 21.7924 31.4193 21.8021 31.4579C21.8021 33.8589 22.4797 40.442 25.3066 43.4916C25.4325 43.6272 25.4227 43.8402 25.2873 43.966L25.2969 43.9564Z" fill="url(#paint0_linear_9_152)"/>
<path d="M24.0482 28.8535L30.8638 25.8039C32.6065 25.136 33.9626 23.7419 34.5808 21.9993L35.4325 19.6467C35.462 19.5499 35.4325 19.4531 35.3658 19.3853C35.2873 19.3176 35.1911 19.2982 35.095 19.3369L22.083 24.7681L22.1312 24.5648C22.1989 24.1872 22.4313 23.8484 22.7702 23.6644C24.9775 22.3284 32.8675 18.3495 32.8675 18.3495C35.3756 17.1974 37.2538 15.0385 38.027 12.4246L38.6275 10.4109C38.6668 10.2947 38.6275 10.1689 38.5314 10.0818C38.4352 10.0043 38.3076 9.97526 38.1919 10.0237C38.1919 10.0237 26.3136 14.5738 22.4894 16.4035C18.675 18.2333 14.7639 20.5858 13.4086 27.5078C12.8567 30.3153 13.8637 32.6872 15.761 35.3787C15.7514 32.7357 22.5379 29.5893 24.0579 28.8632L24.0482 28.8535Z" fill="url(#paint1_linear_9_152)"/>
<path d="M7.87067 17.6039C6.9316 16.781 6.13776 16.7132 6.00214 16.781C5.94425 16.5292 7.07683 15.9193 7.22206 15.7644C7.67717 15.261 7.93839 14.6027 8.48064 14.1767C9.57456 13.2861 10.9299 13.5668 12.0723 14.2639C12.6532 14.6317 14.2409 15.8128 14.2699 15.8806C15.1799 16.6551 16.0223 17.5167 16.7967 18.4558C16.8548 18.5139 16.8838 18.5913 16.8838 18.6688C16.8838 18.7462 16.8646 18.8334 16.8161 18.8915C16.7095 18.9883 16.4772 19.2012 16.0705 19.6175C13.3889 22.4057 12.6047 26.404 12.4014 27.8465C12.4014 27.8756 12.3627 28.1273 12.3627 28.1273C12.3627 28.1273 11.0559 20.1597 7.88029 17.6135L7.87067 17.6039Z" fill="url(#paint2_linear_9_152)"/>
<defs>
<linearGradient id="paint0_linear_9_152" x1="20.8726" y1="9.9852" x2="20.8726" y2="44.0435" gradientUnits="userSpaceOnUse">
<stop stop-color="#F9A228"/>
<stop offset="1" stop-color="#F68921"/>
</linearGradient>
<linearGradient id="paint1_linear_9_152" x1="25.9456" y1="9.98494" x2="25.9456" y2="44.0433" gradientUnits="userSpaceOnUse">
<stop stop-color="#F9A228"/>
<stop offset="1" stop-color="#F68921"/>
</linearGradient>
<linearGradient id="paint2_linear_9_152" x1="11.4333" y1="9.98479" x2="11.4333" y2="44.043" gradientUnits="userSpaceOnUse">
<stop stop-color="#F9A228"/>
<stop offset="1" stop-color="#F68921"/>
</linearGradient>
</defs>
</svg>
