<svg width="48" height="48" viewBox="0 0 48 48" fill="none" xmlns="http://www.w3.org/2000/svg">
<path d="M27.1069 43.9008C27.1069 43.9008 27.0626 43.9451 27.0293 43.9564C26.9183 44.0229 26.7742 44.0117 26.6633 43.9341C25.6763 43.3131 20.4969 39.7417 17.1141 35.5715C16.9254 35.3276 16.8369 35.2167 16.8369 35.0836C16.7813 33.1317 20.2527 30.9135 22.9035 29.4827H22.9257C22.9257 29.4827 23.0033 29.4606 23.0366 29.4827C23.0699 29.5049 23.0921 29.5382 23.1031 29.5825C23.1031 32.3331 23.8795 39.8748 27.1179 43.3684C27.2623 43.5238 27.251 43.7677 27.0959 43.9119L27.1069 43.9008Z" fill="url(#paint0_linear_5_69)"/>
<path d="M25.6764 26.5988L33.4843 23.1052C35.4808 22.3399 37.0344 20.7429 37.7426 18.7465L38.7184 16.0514C38.7521 15.9405 38.7183 15.8296 38.6419 15.752C38.552 15.6743 38.4418 15.6522 38.3316 15.6965L23.4249 21.9185L23.4802 21.6856C23.5578 21.253 23.824 20.8649 24.2123 20.6541C26.7409 19.1236 35.7798 14.5653 35.7798 14.5653C38.6531 13.2455 40.8048 10.7722 41.6906 7.77765L42.3786 5.47075C42.4235 5.33765 42.3786 5.19347 42.2684 5.09366C42.1583 5.00493 42.0121 4.97166 41.8795 5.02711C41.8795 5.02711 28.2716 10.2398 23.8905 12.336C19.5207 14.4322 15.0401 17.1272 13.4874 25.0572C12.8552 28.2735 14.0088 30.9908 16.1824 34.0741C16.1714 31.0463 23.9461 27.4417 25.6874 26.6099L25.6764 26.5988Z" fill="url(#paint1_linear_5_69)"/>
<path d="M7.14307 13.7111C6.06725 12.7684 5.15781 12.6908 5.00246 12.7684C4.93613 12.48 6.23363 11.7813 6.40001 11.6038C6.92139 11.0271 7.22064 10.2729 7.84185 9.78493C9.09506 8.76458 10.6477 9.08622 11.9565 9.88476C12.622 10.3062 14.4409 11.6593 14.4741 11.7369C15.5167 12.6242 16.4816 13.6113 17.3688 14.6871C17.4354 14.7536 17.4687 14.8424 17.4687 14.9311C17.4687 15.0198 17.4466 15.1196 17.3911 15.1862C17.269 15.2971 17.0028 15.5411 16.5369 16.018C13.4649 19.2122 12.5664 23.7927 12.3335 25.4452C12.3335 25.4785 12.2892 25.7669 12.2892 25.7669C12.2892 25.7669 10.7921 16.6391 7.15409 13.7222L7.14307 13.7111Z" fill="url(#paint2_linear_5_69)"/>
<defs>
<linearGradient id="paint0_linear_5_69" x1="22.0383" y1="4.98302" x2="22.0383" y2="44.0007" gradientUnits="userSpaceOnUse">
<stop stop-color="#F9A228"/>
<stop offset="1" stop-color="#F68921"/>
</linearGradient>
<linearGradient id="paint1_linear_5_69" x1="27.85" y1="4.98275" x2="27.85" y2="44.0004" gradientUnits="userSpaceOnUse">
<stop stop-color="#F9A228"/>
<stop offset="1" stop-color="#F68921"/>
</linearGradient>
<linearGradient id="paint2_linear_5_69" x1="11.2244" y1="4.9826" x2="11.2244" y2="44.0002" gradientUnits="userSpaceOnUse">
<stop stop-color="#F9A228"/>
<stop offset="1" stop-color="#F68921"/>
</linearGradient>
</defs>
</svg>
