<svg width="48" height="48" viewBox="0 0 48 48" fill="none" xmlns="http://www.w3.org/2000/svg">
<path d="M4 42.2163L6.29676 29.8413C6.29676 29.8343 6.30177 29.8283 6.30377 29.8212L6.29776 29.8553L6.30578 29.8232C7.57897 25.8603 12.9996 25.5796 13.975 25.5716C14.3369 25.5716 14.777 25.5666 15.2783 25.5646H19.2582L19.0106 26.8919L17.0567 37.4584C16.8092 38.7959 16.1011 40.0046 15.0555 40.8746C14.0099 41.7446 12.6926 42.2211 11.3324 42.2213L4 42.2163Z" fill="#00387D"/>
<path d="M13.9757 25.5718C12.9992 25.5798 7.57963 25.8615 6.30343 29.8225L6.26935 30.0019C6.26935 30.0019 7.40418 27.3793 11.9285 27.0245C14.2846 26.8448 16.649 26.7989 19.0103 26.8871L19.2579 25.5588H15.2779C14.7767 25.5588 14.3386 25.5588 13.9747 25.5658" fill="url(#paint0_linear_13_760)"/>
<path d="M8.18645 19.7291L8.9213 15.7862L8.17844 19.7762C8.17844 19.7581 8.18646 19.7411 8.19147 19.7221V19.7281" fill="#F99300"/>
<path d="M7.08483 25.5717L7.80464 21.686L7.81466 21.693L8.13346 19.9807C8.13847 19.9496 8.14449 19.9195 8.1505 19.8885L8.17156 19.7762C8.17156 19.7581 8.17958 19.7421 8.18459 19.7231C8.42338 18.9543 8.84029 18.2529 9.40141 17.6757C9.96253 17.0986 10.652 16.6621 11.4137 16.4017C12.4428 16.0345 13.5218 15.8263 14.6137 15.7842L34.4634 15.7842L34.2198 17.0874L33.6494 20.1571C33.3672 21.6769 32.5618 23.0499 31.3729 24.0379C30.1841 25.0258 28.6869 25.5664 27.1411 25.5657C27.1411 25.5657 23.0508 25.5537 19.2583 25.5527C17.8057 25.5527 16.3972 25.5527 15.2784 25.5577C14.7771 25.5577 14.339 25.5577 13.9751 25.5647C12.9956 25.5787 7.57606 25.8604 6.29986 29.8194C6.29805 29.8269 6.29571 29.8342 6.29285 29.8414L7.08483 25.5717Z" fill="#F99300"/>
<g style="mix-blend-mode:multiply">
<mask id="mask0_13_760" style="mask-type:luminance" maskUnits="userSpaceOnUse" x="8" y="19" width="1" height="1">
<path d="M8.17595 19.7767H8.15497V19.8886H8.17595V19.7767Z" fill="white"/>
</mask>
<g mask="url(#mask0_13_760)">
<mask id="mask1_13_760" style="mask-type:luminance" maskUnits="userSpaceOnUse" x="8" y="19" width="1" height="1">
<path d="M8.15497 19.8886L8.17594 19.7777C8.16895 19.8137 8.16196 19.8516 8.15497 19.8886Z" fill="white"/>
</mask>
<g mask="url(#mask1_13_760)">
<path d="M8.17594 19.8886H8.15497V19.7767H8.17692L8.17594 19.8886Z" fill="url(#paint1_linear_13_760)"/>
</g>
</g>
</g>
<path d="M15.8769 15.7862H14.6137C13.5228 15.8279 12.4445 16.0351 11.4157 16.4007C10.6539 16.6609 9.96417 17.0974 9.40288 17.6745C8.84158 18.2517 8.42451 18.9532 8.18562 19.7221C8.18562 19.7411 8.17661 19.7581 8.1736 19.7762L8.15255 19.8875C8.14553 19.9276 8.13752 19.9657 8.1315 20.0078C8.1315 20.0078 8.59063 18.49 11.149 17.6449C13.7075 16.7997 15.9461 16.9591 19.0308 16.9822L34.2169 17.0915L34.4605 15.7882L15.8769 15.7862Z" fill="url(#paint2_linear_13_760)"/>
<path d="M12.8118 5.99997C12.2322 6.00017 11.671 6.20301 11.2252 6.57338C10.7794 6.94375 10.4771 7.45833 10.3707 8.02805L8.92308 15.7885L8.18823 19.7314V19.7254C8.42712 18.9565 8.84419 18.255 9.40549 17.6778C9.96679 17.1007 10.6565 16.6643 11.4183 16.4041C12.4467 16.0384 13.5247 15.8312 14.6154 15.7895H37.6962C38.9015 15.7896 40.07 15.3745 41.0051 14.614C41.9401 13.8535 42.5846 12.7941 42.83 11.614L44 5.99997H12.8118Z" fill="#00387D"/>
<defs>
<linearGradient id="paint0_linear_13_760" x1="18.4656" y1="26.4252" x2="15.0691" y2="33.605" gradientUnits="userSpaceOnUse">
<stop stop-opacity="0.129"/>
<stop offset="0.752" stop-opacity="0.545"/>
<stop offset="1"/>
</linearGradient>
<linearGradient id="paint1_linear_13_760" x1="-217.734" y1="282.003" x2="-217.534" y2="282.003" gradientUnits="userSpaceOnUse">
<stop stop-color="white"/>
<stop offset="0.038" stop-color="white"/>
<stop offset="0.2" stop-color="#C4C4C4"/>
<stop offset="0.388" stop-color="#878786"/>
<stop offset="0.561" stop-color="#565655"/>
<stop offset="0.711" stop-color="#333332"/>
<stop offset="0.834" stop-color="#1D1D1C"/>
<stop offset="0.914" stop-color="#161615"/>
<stop offset="1" stop-color="#161615"/>
</linearGradient>
<linearGradient id="paint2_linear_13_760" x1="34.0392" y1="16.6263" x2="31.7508" y2="25.3579" gradientUnits="userSpaceOnUse">
<stop stop-opacity="0.129"/>
<stop offset="0.752" stop-opacity="0.545"/>
<stop offset="1"/>
</linearGradient>
</defs>
</svg>
