<svg width="48" height="48" viewBox="0 0 48 48" fill="none" xmlns="http://www.w3.org/2000/svg">
<path d="M8 38.4731L9.8374 28.5731C9.8374 28.5675 9.84141 28.5627 9.84302 28.5571L9.83821 28.5843L9.84462 28.5587C10.8632 25.3883 15.1996 25.1638 15.98 25.1573C16.2695 25.1573 16.6216 25.1533 17.0226 25.1517H20.2066L20.0085 26.2136L18.4454 34.6668C18.2473 35.7368 17.6809 36.7037 16.8444 37.3997C16.0079 38.0958 14.9541 38.4769 13.8659 38.4771L8 38.4731Z" fill="#00387D"/>
<g style="mix-blend-mode:multiply">
<mask id="mask0_13_858" style="mask-type:luminance" maskUnits="userSpaceOnUse" x="17" y="25" width="4" height="1">
<path d="M20.2058 25.1456H17.0211V25.1496H20.2058V25.1456Z" fill="white"/>
</mask>
<g mask="url(#mask0_13_858)">
<mask id="mask1_13_858" style="mask-type:luminance" maskUnits="userSpaceOnUse" x="17" y="25" width="4" height="1">
<path d="M17.0211 25.1493H20.205C19.0429 25.1493 17.9161 25.1493 17.0211 25.1533" fill="white"/>
</mask>
<g mask="url(#mask1_13_858)">
<path d="M17.0826 24.7057L17.0203 25.1496L20.1422 25.5879L20.2045 25.1441L17.0826 24.7057Z" fill="url(#paint0_linear_13_858)"/>
</g>
</g>
</g>
<path d="M15.9805 25.1575C15.1993 25.1639 10.8637 25.3893 9.8427 28.558L9.81543 28.7016C9.81543 28.7016 10.7233 26.6035 14.3428 26.3196C16.2276 26.1759 18.1192 26.1392 20.0082 26.2098L20.2063 25.1471H17.0223C16.6213 25.1471 16.2708 25.1471 15.9797 25.1527" fill="url(#paint1_linear_13_858)"/>
<path d="M11.3492 20.4833L11.9371 17.329L11.3428 20.521C11.3428 20.5066 11.3492 20.4929 11.3532 20.4777V20.4825" fill="#F99300"/>
<path d="M10.4679 25.1574L11.0437 22.0488L11.0517 22.0544L11.3068 20.6846C11.3108 20.6597 11.3156 20.6356 11.3204 20.6108L11.3373 20.521C11.3373 20.5065 11.3437 20.4937 11.3477 20.4785C11.5387 19.8635 11.8722 19.3023 12.3211 18.8406C12.77 18.3789 13.3216 18.0297 13.931 17.8214C14.7542 17.5276 15.6175 17.361 16.491 17.3274H32.3708L32.1759 18.37L31.7195 20.8257C31.4937 22.0416 30.8494 23.14 29.8983 23.9303C28.9473 24.7207 27.7495 25.1531 26.5129 25.1526C26.5129 25.1526 23.2407 25.1429 20.2067 25.1421C19.0446 25.1421 17.9177 25.1421 17.0227 25.1461C16.6217 25.1461 16.2712 25.1461 15.9801 25.1518C15.1965 25.163 10.8609 25.3884 9.8399 28.5555C9.83845 28.5615 9.83658 28.5674 9.83429 28.5731L10.4679 25.1574Z" fill="#F99300"/>
<g style="mix-blend-mode:multiply">
<mask id="mask2_13_858" style="mask-type:luminance" maskUnits="userSpaceOnUse" x="11" y="20" width="1" height="1">
<path d="M11.3409 20.5215H11.3239V20.6119H11.3409V20.5215Z" fill="white"/>
</mask>
<g mask="url(#mask2_13_858)">
<mask id="mask3_13_858" style="mask-type:luminance" maskUnits="userSpaceOnUse" x="11" y="20" width="1" height="1">
<path d="M11.3239 20.6121L11.3409 20.5225C11.3352 20.5515 11.3296 20.5822 11.3239 20.6121Z" fill="white"/>
</mask>
<g mask="url(#mask3_13_858)">
<path d="M11.3409 20.6119H11.3239V20.5215H11.3416L11.3409 20.6119Z" fill="url(#paint2_linear_13_858)"/>
</g>
</g>
</g>
<path d="M17.5015 17.329H16.491C15.6182 17.3624 14.7555 17.5281 13.9326 17.8206C13.3231 18.0288 12.7713 18.378 12.3223 18.8397C11.8732 19.3014 11.5396 19.8626 11.3485 20.4777C11.3485 20.4929 11.3413 20.5066 11.3389 20.521L11.322 20.61C11.3164 20.6421 11.31 20.6726 11.3052 20.7063C11.3052 20.7063 11.6725 19.492 13.7192 18.8159C15.7659 18.1398 17.5568 18.2674 20.0246 18.2858L32.1734 18.3732L32.3683 17.3306L17.5015 17.329Z" fill="url(#paint3_linear_13_858)"/>
<path d="M15.0495 9.5C14.5858 9.50016 14.1368 9.66244 13.7802 9.95873C13.4235 10.255 13.1817 10.6667 13.0966 11.1225L11.9385 17.3308L11.3506 20.4851V20.4803C11.5417 19.8652 11.8753 19.304 12.3244 18.8423C12.7734 18.3806 13.3252 18.0314 13.9347 17.8233C14.7574 17.5307 15.6198 17.365 16.4923 17.3316H34.9569C35.9211 17.3317 36.856 16.9996 37.604 16.3912C38.3521 15.7828 38.8677 14.9353 39.064 13.9912L40 9.5H15.0495Z" fill="#00387D"/>
<defs>
<linearGradient id="paint0_linear_13_858" x1="196.313" y1="241.61" x2="196.335" y2="241.458" gradientUnits="userSpaceOnUse">
<stop stop-color="white"/>
<stop offset="0.19" stop-color="white"/>
<stop offset="0.498" stop-color="#8E8E8D"/>
<stop offset="0.752" stop-color="#373737"/>
<stop offset="0.866" stop-color="#161615"/>
<stop offset="1" stop-color="#161615"/>
</linearGradient>
<linearGradient id="paint1_linear_13_858" x1="19.5724" y1="25.8402" x2="16.8552" y2="31.584" gradientUnits="userSpaceOnUse">
<stop stop-opacity="0.129"/>
<stop offset="0.752" stop-opacity="0.545"/>
<stop offset="1"/>
</linearGradient>
<linearGradient id="paint2_linear_13_858" x1="-171.198" y1="232.404" x2="-171.036" y2="232.404" gradientUnits="userSpaceOnUse">
<stop stop-color="white"/>
<stop offset="0.038" stop-color="white"/>
<stop offset="0.2" stop-color="#C4C4C4"/>
<stop offset="0.388" stop-color="#878786"/>
<stop offset="0.561" stop-color="#565655"/>
<stop offset="0.711" stop-color="#333332"/>
<stop offset="0.834" stop-color="#1D1D1C"/>
<stop offset="0.914" stop-color="#161615"/>
<stop offset="1" stop-color="#161615"/>
</linearGradient>
<linearGradient id="paint3_linear_13_858" x1="32.0313" y1="18.0011" x2="30.2006" y2="24.9864" gradientUnits="userSpaceOnUse">
<stop stop-opacity="0.129"/>
<stop offset="0.752" stop-opacity="0.545"/>
<stop offset="1"/>
</linearGradient>
</defs>
</svg>
