<svg width="48" height="48" viewBox="0 0 48 48" fill="none" xmlns="http://www.w3.org/2000/svg">
<g clip-path="url(#clip0_15_3271)">
<path d="M23.9983 12.9224C23.7469 12.1591 23.4743 11.4018 23.2198 10.6415C23.0562 10.1598 22.7866 9.85084 22.3141 9.66606C22.0808 9.57215 21.8052 9.55701 21.5598 9.59639C21.3296 9.63274 21.1115 9.72664 20.9237 9.86295C20.8025 9.94777 20.7025 10.0568 20.6147 10.1719C20.5178 10.2961 20.5087 10.4203 20.4481 10.5233C20.439 10.5142 20.4299 10.5082 20.4208 10.5021C20.4632 10.384 20.5117 10.2628 20.5693 10.1507C20.9146 9.45099 21.4568 8.84514 22.1475 8.47255C22.3292 8.37259 22.517 8.2908 22.7109 8.2181C22.926 8.13934 23.1471 8.09391 23.3682 8.0515C23.5348 8.01818 23.7832 8.00303 23.9559 8C24.6102 8 25.1555 8.12117 25.7431 8.40894C26.2732 8.66945 26.7488 9.08143 27.0911 9.5661C27.3062 9.86902 27.4849 10.2022 27.6061 10.5536C28.2059 12.3015 28.8147 14.0493 29.4236 15.7972C29.466 15.9244 29.5145 16.0486 29.5569 16.1788C31.3714 16.2243 33.1889 16.2485 35.0064 16.2848C35.1154 16.2848 35.2245 16.2849 35.3366 16.297C35.3487 16.297 35.3548 16.3091 35.3638 16.3151C35.3487 16.3303 35.3335 16.3454 35.3184 16.3636C35.2578 16.4636 35.2245 16.5423 35.1548 16.6453C35.1064 16.715 35.0125 16.8937 34.967 16.9755C34.9519 16.9997 34.9307 17.0694 34.9155 17.0967C34.8973 17.13 34.8246 17.2209 34.8004 17.2572C34.7459 17.3451 34.6641 17.4905 34.6126 17.5874C34.6005 17.6116 34.5762 17.6813 34.5641 17.7086C34.5308 17.7631 34.4854 17.8206 34.449 17.8721C34.0128 18.7173 33.4706 19.62 32.9768 20.4348C33.1374 20.4258 33.2949 20.4197 33.4554 20.4197C33.4585 20.4258 33.4615 20.4288 33.4554 20.4439C31.9408 20.4167 30.4293 20.4015 28.9147 20.3409C28.2331 20.3016 27.5849 20.0168 27.0336 19.6109C26.3914 19.1384 25.9218 18.478 25.6644 17.7267C25.1252 16.1576 24.5799 14.5885 24.0347 13.0224C24.0256 12.9982 24.0134 12.9709 23.9922 12.9285" fill="#D62A23"/>
<path d="M10.7426 23.4973C10.7638 23.5034 10.7759 23.5003 10.788 23.5003C10.7971 23.5003 10.8031 23.5003 10.8122 23.5003C10.8486 23.4731 10.9788 23.4034 11.0243 23.4064C11.0303 23.4004 11.0394 23.3913 11.0455 23.3852C11.0546 23.3852 11.0636 23.3852 11.0727 23.3822C11.1454 23.3398 11.2303 23.2944 11.309 23.2641C11.3181 23.261 11.3242 23.252 11.3302 23.2459C11.3454 23.2429 11.3635 23.2489 11.3787 23.2429C12.0815 22.9066 12.7873 22.5613 13.4961 22.2553C13.5052 22.2523 13.5112 22.2402 13.5173 22.2341C13.5264 22.2341 13.5355 22.2341 13.5446 22.2311C13.6173 22.1887 13.7021 22.1433 13.7808 22.113C13.7899 22.1069 13.796 22.0978 13.802 22.0918C13.8202 22.0918 13.8354 22.0918 13.8535 22.0918C14.0565 21.9827 14.2625 21.9009 14.4624 21.7889C14.4776 21.7828 14.4957 21.7858 14.5109 21.7889C14.5169 21.7828 14.526 21.7737 14.5321 21.7676C14.5412 21.7676 14.5503 21.7676 14.5593 21.7646C14.632 21.7222 14.7169 21.6768 14.7956 21.6465C14.8047 21.6404 14.8108 21.6313 14.8168 21.6253C14.8259 21.6253 14.835 21.6253 14.8441 21.6222C14.8501 21.6222 14.8592 21.6222 14.8683 21.6222C14.9016 21.592 14.9804 21.5556 15.0258 21.5495C15.0258 21.5344 15.0319 21.5162 15.0349 21.498C15.9346 22.1826 16.8373 22.8672 17.74 23.5488C18.1035 23.8275 18.4155 24.1577 18.6669 24.5454C19.0365 25.121 19.2394 25.7935 19.2697 26.475C19.2879 26.9233 19.2182 27.3626 19.088 27.7927C18.5973 29.4012 18.1186 31.0127 17.6219 32.6212C17.6219 32.6212 17.6219 32.6273 17.6219 32.6303C17.3765 33.427 17.1402 34.1964 16.913 34.9659C16.7555 35.499 16.8221 35.9927 17.1947 36.4229C17.3644 36.6198 17.5885 36.7682 17.8369 36.85C17.9308 36.8833 18.0429 36.8924 18.1429 36.9045C18.4094 36.9348 18.6215 36.9167 18.8729 36.8106C18.8881 36.8137 18.9002 36.8167 18.9153 36.8227C18.779 36.9015 18.6397 36.9772 18.4973 37.0408C17.634 37.4256 16.7131 37.4649 15.8165 37.1832C15.1591 36.9772 14.5715 36.5743 14.108 36.0685C13.6536 35.5717 13.3658 34.978 13.2235 34.3297C13.1871 34.1692 13.1659 33.9995 13.1538 33.836C13.1265 33.4482 13.1599 33.0575 13.2447 32.6818C13.278 32.5395 13.3204 32.3971 13.3628 32.2578C13.9232 30.4221 14.4776 28.5833 15.038 26.7476C15.0077 26.7234 14.9774 26.6992 14.9471 26.6749C13.5536 25.6208 12.1632 24.5636 10.7607 23.5003" fill="#D62A23"/>
<path d="M20.3451 10.7354C20.3451 10.7687 20.4026 10.8595 20.4147 10.8777C20.5238 10.9868 20.6328 11.0958 20.7419 11.2049C20.7419 11.214 20.7419 11.2231 20.7449 11.2321C21.0842 11.5532 21.3659 11.9167 21.7052 12.2409C21.7052 12.2499 21.7052 12.259 21.7052 12.2681C21.8142 12.3772 21.9233 12.4862 22.0323 12.5953C22.0323 12.6044 22.0323 12.6135 22.0323 12.6225C22.1414 12.7316 22.2504 12.8406 22.3595 12.9497C22.3595 12.9588 22.3595 12.9679 22.3595 12.977C22.6987 13.298 22.9805 13.6616 23.3197 13.9857C23.3197 13.9948 23.3197 14.0039 23.3197 14.0129C23.3894 14.0826 23.456 14.1493 23.5257 14.2189C23.5348 14.1856 23.5409 14.1614 23.5469 14.1281C23.556 14.1281 23.5651 14.122 23.5863 14.1311C23.1713 15.3306 22.7442 16.5272 22.3352 17.7298C22.2807 17.8903 22.2171 18.0478 22.1444 18.1993C21.9324 18.6355 21.6385 19.0232 21.2841 19.3504C20.8146 19.7836 20.2209 20.1047 19.5999 20.2531C19.4484 20.2894 19.2364 20.3349 19.0819 20.3409C17.4916 20.4015 15.9012 20.4076 14.3079 20.4439C14.1049 20.447 13.8989 20.4591 13.696 20.4621C13.6839 20.4621 13.6748 20.4742 13.6627 20.4803C13.6354 20.456 13.6172 20.456 13.5778 20.456C12.7933 20.4742 12.0087 20.4863 11.2272 20.4984C11.0363 20.4984 10.8909 20.5227 10.7092 20.5742C10.4578 20.6408 10.1882 20.8407 10.0246 21.0437C9.69138 21.4496 9.60354 22.013 9.78529 22.5038C9.8489 22.6734 9.94584 22.834 10.0731 22.9642C10.1124 23.0066 10.167 23.0399 10.2124 23.0672C10.2124 23.0824 10.2124 23.0975 10.2124 23.1126C10.1064 23.0278 10.0034 22.94 9.90646 22.8461C9.48237 22.4311 9.15522 21.9313 8.95832 21.3739C8.75839 20.8014 8.70993 20.1864 8.79171 19.5867C8.89168 18.8627 9.21277 18.169 9.68836 17.6116C10.2185 16.9906 10.9636 16.5454 11.7634 16.3818C11.9178 16.3515 12.0754 16.3182 12.2329 16.3121C14.2988 16.2485 16.3677 16.2212 18.4367 16.1818C18.467 16.1001 18.4942 16.0213 18.5245 15.9395C19.1152 14.2068 19.721 12.4771 20.3299 10.7414" fill="#D62A23"/>
<path d="M20.345 10.7355C20.3662 10.6749 20.3874 10.6083 20.4086 10.5477C20.4086 10.5386 20.4177 10.5325 20.4268 10.4992C20.4359 10.5053 20.445 10.5144 20.4541 10.5204C20.5146 10.4174 20.5237 10.2963 20.6176 10.169C20.7085 10.0539 20.8085 9.94488 20.9266 9.86006C21.1144 9.72375 21.3295 9.62984 21.5627 9.59349C21.8081 9.55411 22.0807 9.56926 22.317 9.66316C22.7896 9.85097 23.0592 10.1569 23.2227 10.6386C23.4802 11.3989 23.7498 12.1562 24.0012 12.9195C24.0043 12.9468 24.0012 12.9559 23.9952 12.965C23.8619 13.3497 23.7286 13.7344 23.5984 14.1191C23.5772 14.11 23.5681 14.113 23.559 14.1161C23.5529 14.1494 23.5469 14.1736 23.5378 14.207C23.4681 14.1373 23.4015 14.0706 23.3318 14.001C23.3318 13.9919 23.3318 13.9828 23.3318 13.9737C22.9925 13.6496 22.7108 13.2861 22.3715 12.965C22.3715 12.9559 22.3715 12.9468 22.3715 12.9377C22.2625 12.8287 22.1534 12.7196 22.0444 12.6106C22.0444 12.6015 22.0444 12.5924 22.0444 12.5833C21.9353 12.4743 21.8263 12.3652 21.7172 12.2562C21.7172 12.2471 21.7172 12.238 21.7172 12.2289C21.378 11.9048 21.0962 11.5413 20.757 11.2202C20.757 11.2111 20.757 11.202 20.7539 11.1929C20.6449 11.0839 20.5358 10.9748 20.4268 10.8658C20.4116 10.8476 20.3601 10.7597 20.3571 10.7234" fill="#AD1F1E"/>
<path d="M10.7424 23.4975C10.7424 23.4975 10.7242 23.4854 10.7182 23.4824C10.5758 23.3763 10.4365 23.2673 10.2941 23.1613C10.2638 23.1401 10.2608 23.1279 10.2244 23.1067C10.2244 23.0916 10.2244 23.0764 10.2244 23.0613C10.179 23.034 10.1245 22.9977 10.0851 22.9583C9.96089 22.8281 9.86093 22.6675 9.79731 22.4979C9.61556 22.0102 9.70341 21.4437 10.0366 21.0378C10.2002 20.8348 10.4668 20.6349 10.7212 20.5683C10.903 20.5198 11.0484 20.4956 11.2392 20.4925C12.0238 20.4804 12.8053 20.4683 13.5899 20.4501C13.6292 20.4501 13.6474 20.4501 13.6747 20.4744C14.1169 20.8227 14.5713 21.159 15.0227 21.4952C15.0196 21.5164 15.0166 21.5316 15.0136 21.5467C14.9682 21.5558 14.8894 21.5921 14.8561 21.6194C14.85 21.6194 14.8409 21.6194 14.8318 21.6194C14.8227 21.6194 14.8137 21.6194 14.8046 21.6224C14.7985 21.6285 14.7925 21.6376 14.7834 21.6436C14.7076 21.6739 14.6198 21.7194 14.5471 21.7618C14.538 21.7648 14.5289 21.7618 14.5198 21.7648C14.5138 21.7709 14.5047 21.7769 14.4986 21.786C14.4835 21.786 14.4623 21.783 14.4502 21.786C14.2533 21.8981 14.0442 21.9799 13.8413 22.0889C13.8231 22.0889 13.808 22.0889 13.7898 22.0889C13.7837 22.095 13.7777 22.1041 13.7686 22.1101C13.6929 22.1404 13.605 22.1859 13.5323 22.2283C13.5232 22.2313 13.5141 22.2283 13.505 22.2313C13.499 22.2374 13.4929 22.2465 13.4838 22.2525C12.775 22.5585 12.0692 22.9038 11.3664 23.24C11.3513 23.2461 11.3331 23.24 11.318 23.2431C11.3119 23.2491 11.3059 23.2582 11.2968 23.2612C11.218 23.2945 11.1332 23.337 11.0605 23.3794C11.0514 23.3824 11.0423 23.3794 11.0332 23.3824C11.0272 23.3885 11.0181 23.3945 11.012 23.4036C10.9666 23.4006 10.8394 23.4702 10.8 23.4975C10.7909 23.4975 10.7848 23.4975 10.7757 23.4975C10.7636 23.4975 10.7485 23.5005 10.7303 23.4945" fill="#AD1F1E"/>
<path d="M29.1177 36.8167C29.1177 36.8167 29.1449 36.8016 29.1601 36.8046C29.3055 36.8561 29.4509 36.9046 29.6054 36.9137C29.7962 36.9227 30.084 36.8864 30.2627 36.8167C30.8231 36.6047 31.2169 36.0261 31.1957 35.4263C31.1897 35.29 31.1745 35.1567 31.1351 35.0265C30.8898 34.2358 30.6535 33.4452 30.4021 32.6213C30.399 32.5971 30.396 32.5789 30.3869 32.5577C29.8932 30.9371 29.4055 29.3104 28.9117 27.6898C28.8754 27.5656 28.842 27.4414 28.8208 27.3141C28.7118 26.6901 28.7421 26.0389 28.939 25.433C29.1874 24.6818 29.6508 24.0214 30.2809 23.5458C31.638 22.5189 32.9981 21.489 34.3552 20.4591C34.234 20.4591 34.1159 20.4591 33.9977 20.447C34.1128 20.447 34.2189 20.447 34.3249 20.447C34.334 20.447 34.34 20.453 34.3491 20.456C34.3643 20.447 34.3824 20.4409 34.3945 20.4288C35.0367 19.9593 35.6668 19.4685 36.2999 18.9899C36.7725 18.6325 37.0209 18.1266 36.9179 17.5298C36.8452 17.1058 36.624 16.7816 36.2757 16.5393C36.1212 16.4302 35.9364 16.3697 35.7547 16.3333C35.7486 16.3242 35.7425 16.3182 35.7365 16.3091C35.6759 16.3212 35.6092 16.3273 35.5487 16.3182C35.5365 16.3182 35.5275 16.3091 35.5184 16.3061C35.5275 16.303 35.5365 16.297 35.5487 16.297C35.6062 16.2909 35.6789 16.2909 35.7365 16.297C35.9334 16.3212 36.1303 16.3485 36.3241 16.3909C36.8028 16.4969 37.2692 16.715 37.6661 17.0058C38.2749 17.4511 38.7566 18.0872 39.008 18.7991C39.1837 19.2898 39.2594 19.7381 39.2443 20.2591C39.217 21.071 38.9383 21.804 38.4446 22.4462C38.2386 22.7158 37.9841 22.9551 37.7145 23.1611C36.1424 24.3546 34.5672 25.5451 32.992 26.7386C33.5857 28.6773 34.1886 30.6099 34.755 32.5577C34.8247 32.8 34.861 33.0575 34.8762 33.3089C34.9095 33.8451 34.8307 34.3813 34.6399 34.8841C34.34 35.6777 33.7554 36.3563 33.0314 36.7985C32.8375 36.9167 32.6285 37.0136 32.4195 37.1015C32.2166 37.1863 31.9984 37.2378 31.7834 37.2862C31.5925 37.3317 31.3926 37.3408 31.1957 37.3559C31.0291 37.368 30.8201 37.3559 30.6535 37.3377C30.3051 37.2953 29.9659 37.2135 29.6417 37.0803C29.457 37.0045 29.2782 36.9137 29.1056 36.8137" fill="#D62A23"/>
<path d="M34.0006 20.444C33.8976 20.444 33.7946 20.4379 33.6947 20.4349C33.6159 20.4349 33.5371 20.4349 33.4584 20.4349C33.4644 20.4198 33.4614 20.4137 33.4584 20.4107C33.2978 20.4107 33.1373 20.4137 32.9798 20.4258C33.4735 19.611 34.0158 18.7052 34.452 17.8631C34.4883 17.8146 34.5337 17.7541 34.5671 17.7026C34.5822 17.6753 34.6034 17.6056 34.6155 17.5814C34.667 17.4875 34.7488 17.3391 34.8033 17.2512C34.8245 17.2149 34.9003 17.124 34.9185 17.0876C34.9336 17.0604 34.9548 16.9907 34.9699 16.9665C35.0154 16.8847 35.1093 16.706 35.1578 16.6363C35.2305 16.5303 35.2638 16.4515 35.3213 16.3546C35.3365 16.3394 35.3516 16.3243 35.3668 16.3061C35.3759 16.3 35.3789 16.291 35.3849 16.291C35.4274 16.291 35.4637 16.291 35.5213 16.3061C35.5303 16.3091 35.5394 16.3182 35.5516 16.3182C35.6121 16.3273 35.6788 16.3212 35.7394 16.3091C35.7454 16.3182 35.7515 16.3243 35.7575 16.3334C35.9393 16.3697 36.1241 16.4303 36.2786 16.5394C36.6299 16.7817 36.848 17.1058 36.9207 17.5299C37.0237 18.1236 36.7753 18.6325 36.3028 18.99C35.6697 19.4686 35.0396 19.9593 34.3974 20.4288C34.3823 20.4379 34.3671 20.447 34.352 20.4561C34.3429 20.4531 34.3368 20.447 34.3278 20.447C34.2217 20.444 34.1127 20.447 33.9976 20.447" fill="#AD1F1E"/>
<path d="M18.9001 36.8168C18.9001 36.8168 18.8729 36.8107 18.8577 36.8047C18.6063 36.9076 18.3943 36.9289 18.1277 36.8986C18.0277 36.8864 17.9187 36.8774 17.8217 36.844C17.5764 36.7622 17.3522 36.6138 17.1795 36.4169C16.81 35.9837 16.7403 35.493 16.8978 34.9599C17.125 34.1905 17.3613 33.421 17.6067 32.6244C17.6158 32.6213 17.6248 32.6183 17.6309 32.6122C19.0274 31.6459 20.4238 30.6736 21.8172 29.7042C22.1807 29.4498 22.5867 29.262 23.0168 29.1469C23.6681 28.9742 24.3648 28.9772 25.0161 29.1529C25.4674 29.2741 25.8794 29.4831 26.2611 29.7497C27.6303 30.7069 29.0025 31.6611 30.3777 32.6122C30.3838 32.6183 30.3929 32.6213 30.402 32.6274C30.6534 33.4483 30.8897 34.2389 31.135 35.0326C31.1744 35.1628 31.1896 35.2961 31.1956 35.4324C31.2138 36.0292 30.82 36.6108 30.2626 36.8228C30.0839 36.8895 29.7961 36.9289 29.6053 36.9198C29.4478 36.9107 29.3054 36.8622 29.16 36.8107C29.1449 36.8047 29.1328 36.8198 29.1176 36.8228C29.0661 36.7834 29.0116 36.7562 28.9692 36.7259C28.0119 36.0564 27.0547 35.3931 26.0945 34.7266C26.0945 35.8171 26.1005 36.9076 26.0945 37.9982C26.0914 38.5162 25.8461 39.022 25.4886 39.3855C25.1342 39.749 24.6314 39.9732 24.1255 39.9974C23.6984 40.0186 23.2925 39.9096 22.9259 39.6975C22.3322 39.3552 21.9414 38.6979 21.9233 38.0224C21.893 36.9319 21.9233 35.8202 21.9233 34.7266C20.963 35.3931 20.0088 36.0655 19.0486 36.7289C18.9971 36.7622 18.9516 36.7925 18.9032 36.8228" fill="#48337E"/>
</g>
<defs>
<clipPath id="clip0_15_3271">
<rect width="32" height="32" fill="white" transform="translate(8 8)"/>
</clipPath>
</defs>
</svg>
