<svg width="48" height="48" viewBox="0 0 48 48" fill="none" xmlns="http://www.w3.org/2000/svg">
<g clip-path="url(#clip0_15_3213)">
<path d="M23.9979 10.1531C23.6836 9.19886 23.3428 8.25223 23.0247 7.30182C22.8203 6.69977 22.4833 6.31355 21.8926 6.08257C21.601 5.96519 21.2565 5.94627 20.9497 5.99549C20.662 6.04093 20.3893 6.1583 20.1546 6.32869C20.0031 6.43471 19.8782 6.57103 19.7684 6.71492C19.6472 6.87017 19.6358 7.02541 19.5601 7.15416C19.5487 7.1428 19.5374 7.13522 19.526 7.12765C19.579 6.97997 19.6396 6.82851 19.7116 6.68841C20.1432 5.81373 20.821 5.05643 21.6843 4.59069C21.9115 4.46574 22.1463 4.3635 22.3886 4.27263C22.6575 4.17418 22.9339 4.11739 23.2103 4.06438C23.4185 4.02272 23.729 4.00379 23.9449 4C24.7627 4 25.4443 4.15146 26.1789 4.51118C26.8415 4.83682 27.436 5.35178 27.8639 5.95762C28.1327 6.33627 28.3561 6.75278 28.5076 7.19201C29.2573 9.37682 30.0184 11.5616 30.7795 13.7464C30.8325 13.9055 30.8931 14.0607 30.9461 14.2235C33.2142 14.2803 35.4861 14.3106 37.758 14.3561C37.8943 14.3561 38.0306 14.3561 38.1707 14.3712C38.1859 14.3712 38.1934 14.3864 38.2048 14.3939C38.1859 14.4129 38.1669 14.4318 38.148 14.4545C38.0723 14.5795 38.0306 14.6779 37.9435 14.8067C37.8829 14.8937 37.7656 15.1171 37.7088 15.2194C37.6898 15.2497 37.6633 15.3368 37.6444 15.3708C37.6217 15.4125 37.5308 15.5261 37.5005 15.5715C37.4324 15.6813 37.3301 15.8631 37.2657 15.9843C37.2506 16.0145 37.2203 16.1016 37.2052 16.1357C37.1635 16.2039 37.1067 16.2758 37.0613 16.3402C36.516 17.3966 35.8382 18.525 35.221 19.5436C35.4217 19.5322 35.6186 19.5246 35.8193 19.5246C35.8231 19.5322 35.8269 19.536 35.8193 19.5549C33.9261 19.5208 32.0366 19.5019 30.1434 19.4262C29.2914 19.377 28.4811 19.021 27.7919 18.5136C26.9892 17.9229 26.4023 17.0975 26.0804 16.1584C25.4064 14.197 24.7249 12.2356 24.0433 10.278C24.032 10.2477 24.0168 10.2136 23.9903 10.1606" fill="#D62A23"/>
<path d="M7.42819 23.3716C7.4547 23.3792 7.46984 23.3754 7.48499 23.3754C7.49635 23.3754 7.50392 23.3754 7.51528 23.3754C7.56072 23.3414 7.72354 23.2543 7.78034 23.2581C7.78791 23.2505 7.79927 23.2391 7.80684 23.2315C7.8182 23.2315 7.82956 23.2315 7.84092 23.2278C7.9318 23.1747 8.03782 23.118 8.13627 23.0801C8.14763 23.0763 8.1552 23.0649 8.16277 23.0574C8.1817 23.0536 8.20442 23.0612 8.22336 23.0536C9.10182 22.6333 9.98408 22.2016 10.8701 21.8192C10.8815 21.8154 10.889 21.8003 10.8966 21.7927C10.908 21.7927 10.9193 21.7927 10.9307 21.7889C11.0216 21.7359 11.1276 21.6791 11.226 21.6412C11.2374 21.6336 11.245 21.6223 11.2526 21.6147C11.2753 21.6147 11.2942 21.6147 11.3169 21.6147C11.5706 21.4784 11.8281 21.3762 12.078 21.2361C12.0969 21.2285 12.1197 21.2323 12.1386 21.2361C12.1462 21.2285 12.1575 21.2171 12.1651 21.2096C12.1765 21.2096 12.1878 21.2096 12.1992 21.2058C12.29 21.1528 12.3961 21.096 12.4945 21.0581C12.5059 21.0505 12.5135 21.0392 12.521 21.0316C12.5324 21.0316 12.5437 21.0316 12.5551 21.0278C12.5627 21.0278 12.574 21.0278 12.5854 21.0278C12.627 20.9899 12.7255 20.9445 12.7823 20.9369C12.7823 20.918 12.7899 20.8953 12.7937 20.8726C13.9182 21.7283 15.0466 22.5841 16.175 23.436C16.6294 23.7844 17.0194 24.1971 17.3337 24.6818C17.7956 25.4012 18.0493 26.2418 18.0872 27.0938C18.1099 27.6542 18.0228 28.2032 17.86 28.7409C17.2466 30.7515 16.6483 32.7659 16.0273 34.7766C16.0273 34.7766 16.0273 34.7841 16.0273 34.7879C15.7206 35.7838 15.4253 36.7455 15.1413 37.7073C14.9444 38.3737 15.0277 38.9909 15.4934 39.5286C15.7055 39.7747 15.9857 39.9603 16.2962 40.0625C16.4135 40.1042 16.5536 40.1155 16.6786 40.1307C17.0118 40.1685 17.2769 40.1458 17.5911 40.0133C17.6101 40.0171 17.6252 40.0209 17.6442 40.0284C17.4738 40.1269 17.2996 40.2215 17.1216 40.3011C16.0425 40.7819 14.8914 40.8312 13.7706 40.479C12.9489 40.2215 12.2143 39.7179 11.635 39.0856C11.067 38.4646 10.7073 37.7225 10.5293 36.9121C10.4839 36.7115 10.4574 36.4994 10.4422 36.2949C10.4082 35.8103 10.4498 35.3218 10.5558 34.8523C10.5975 34.6743 10.6505 34.4964 10.7035 34.3222C11.404 32.0276 12.0969 29.7292 12.7974 27.4346C12.7596 27.4043 12.7217 27.374 12.6838 27.3437C10.9421 26.026 9.20406 24.7045 7.45091 23.3754" fill="#D62A23"/>
<path d="M19.4313 7.41919C19.4313 7.46084 19.5033 7.57444 19.5184 7.59716C19.6547 7.73347 19.791 7.86979 19.9274 8.0061C19.9274 8.01746 19.9274 8.02882 19.9311 8.04018C20.3552 8.44155 20.7074 8.89592 21.1315 9.30108C21.1315 9.31244 21.1315 9.32379 21.1315 9.33515C21.2678 9.47147 21.4041 9.60779 21.5404 9.7441C21.5404 9.75546 21.5404 9.76682 21.5404 9.77818C21.6767 9.91449 21.813 10.0508 21.9493 10.1871C21.9493 10.1985 21.9493 10.2098 21.9493 10.2212C22.3734 10.6226 22.7256 11.0769 23.1497 11.4821C23.1497 11.4935 23.1497 11.5048 23.1497 11.5162C23.2368 11.6033 23.3201 11.6866 23.4071 11.7737C23.4185 11.732 23.4261 11.7017 23.4336 11.6601C23.445 11.6601 23.4564 11.6525 23.4829 11.6639C22.9641 13.1633 22.4302 14.659 21.9191 16.1622C21.8509 16.3629 21.7714 16.5598 21.6805 16.7491C21.4154 17.2944 21.0482 17.779 20.6051 18.188C20.0182 18.7294 19.2761 19.1308 18.4998 19.3164C18.3105 19.3618 18.0455 19.4186 17.8524 19.4262C15.8644 19.5019 13.8765 19.5095 11.8848 19.5549C11.6311 19.5587 11.3737 19.5738 11.12 19.5776C11.1048 19.5776 11.0935 19.5928 11.0783 19.6003C11.0442 19.5701 11.0215 19.57 10.9723 19.57C9.9916 19.5928 9.01089 19.6079 8.03398 19.6231C7.79543 19.6231 7.61368 19.6534 7.38649 19.7177C7.07221 19.801 6.73521 20.0509 6.53074 20.3046C6.11423 20.812 6.00442 21.5163 6.23161 22.1297C6.31113 22.3418 6.43229 22.5424 6.59133 22.7053C6.64055 22.7583 6.70871 22.7999 6.7655 22.834C6.7655 22.8529 6.7655 22.8719 6.7655 22.8908C6.63298 22.7848 6.50424 22.675 6.38307 22.5576C5.85296 22.0388 5.44402 21.4141 5.1979 20.7174C4.94799 20.0017 4.8874 19.233 4.98964 18.4833C5.11459 17.5784 5.51596 16.7112 6.11044 16.0145C6.77308 15.2383 7.70455 14.6817 8.70419 14.4772C8.8973 14.4394 9.0942 14.3977 9.2911 14.3901C11.8735 14.3106 14.4597 14.2765 17.0458 14.2273C17.0837 14.1251 17.1178 14.0266 17.1556 13.9244C17.894 11.7585 18.6513 9.59643 19.4124 7.42677" fill="#D62A23"/>
<path d="M19.4313 7.41932C19.4578 7.34359 19.4843 7.26029 19.5108 7.18456C19.5108 7.1732 19.5221 7.16562 19.5335 7.12397C19.5448 7.13155 19.5562 7.14291 19.5676 7.15048C19.6433 7.02174 19.6547 6.87028 19.772 6.71125C19.8856 6.56736 20.0106 6.43105 20.1583 6.32503C20.393 6.15464 20.6619 6.03725 20.9534 5.99181C21.2601 5.94259 21.6009 5.96153 21.8963 6.07891C22.487 6.31367 22.8239 6.69611 23.0284 7.29816C23.3503 8.24857 23.6873 9.19519 24.0015 10.1494C24.0053 10.1835 24.0015 10.1948 23.994 10.2062C23.8274 10.6871 23.6608 11.168 23.4979 11.6488C23.4714 11.6375 23.4601 11.6413 23.4487 11.645C23.4411 11.6867 23.4336 11.717 23.4222 11.7586C23.3351 11.6716 23.2518 11.5882 23.1647 11.5012C23.1647 11.4898 23.1647 11.4784 23.1647 11.4671C22.7406 11.0619 22.3885 10.6076 21.9644 10.2062C21.9644 10.1948 21.9644 10.1835 21.9644 10.1721C21.8281 10.0358 21.6918 9.89947 21.5555 9.76316C21.5555 9.7518 21.5555 9.74044 21.5555 9.72908C21.4192 9.59277 21.2828 9.45646 21.1465 9.32015C21.1465 9.30879 21.1465 9.29743 21.1465 9.28607C20.7224 8.88091 20.3703 8.42653 19.9462 8.02516C19.9462 8.0138 19.9462 8.00244 19.9424 7.99108C19.8061 7.85477 19.6698 7.71846 19.5335 7.58215C19.5146 7.55943 19.4502 7.44962 19.4464 7.40418" fill="#AD1F1E"/>
<path d="M7.42803 23.3718C7.42803 23.3718 7.40531 23.3567 7.39774 23.3529C7.21977 23.2204 7.04559 23.0841 6.86763 22.9515C6.82976 22.925 6.82598 22.9099 6.78054 22.8834C6.78054 22.8644 6.78054 22.8455 6.78054 22.8266C6.72374 22.7925 6.65558 22.7471 6.60636 22.6978C6.45111 22.535 6.32616 22.3343 6.24664 22.1223C6.01945 21.5127 6.12926 20.8046 6.54578 20.2972C6.75025 20.0435 7.08346 19.7936 7.40152 19.7103C7.62871 19.6497 7.81047 19.6194 8.04901 19.6156C9.02972 19.6005 10.0066 19.5853 10.9873 19.5626C11.0366 19.5626 11.0593 19.5626 11.0934 19.5929C11.6462 20.0284 12.2142 20.4487 12.7783 20.869C12.7746 20.8955 12.7708 20.9144 12.767 20.9333C12.7102 20.9447 12.6117 20.9901 12.5701 21.0242C12.5625 21.0242 12.5512 21.0242 12.5398 21.0242C12.5284 21.0242 12.5171 21.0242 12.5057 21.028C12.4981 21.0356 12.4906 21.0469 12.4792 21.0545C12.3845 21.0924 12.2747 21.1492 12.1839 21.2022C12.1725 21.206 12.1611 21.2022 12.1498 21.206C12.1422 21.2135 12.1309 21.2211 12.1233 21.2325C12.1043 21.2325 12.0778 21.2287 12.0627 21.2325C11.8166 21.3726 11.5553 21.4748 11.3016 21.6111C11.2789 21.6111 11.26 21.6111 11.2372 21.6111C11.2297 21.6187 11.2221 21.6301 11.2107 21.6376C11.1161 21.6755 11.0063 21.7323 10.9154 21.7853C10.904 21.7891 10.8927 21.7853 10.8813 21.7891C10.8737 21.7967 10.8662 21.808 10.8548 21.8156C9.96877 22.198 9.08651 22.6297 8.20805 23.05C8.18911 23.0576 8.1664 23.05 8.14746 23.0538C8.13989 23.0613 8.13232 23.0727 8.12096 23.0765C8.02251 23.1181 7.91649 23.1712 7.82561 23.2242C7.81425 23.228 7.80289 23.2242 7.79153 23.2279C7.78396 23.2355 7.7726 23.2431 7.76503 23.2545C7.70823 23.2507 7.5492 23.3378 7.49997 23.3718C7.48861 23.3718 7.48104 23.3718 7.46968 23.3718C7.45453 23.3718 7.4356 23.3756 7.41288 23.368" fill="#AD1F1E"/>
<path d="M30.3971 40.0209C30.3971 40.0209 30.4312 40.0019 30.4501 40.0057C30.6319 40.0701 30.8136 40.1307 31.0067 40.142C31.2453 40.1534 31.605 40.1079 31.8284 40.0209C32.5289 39.7558 33.0211 39.0326 32.9946 38.2829C32.9871 38.1125 32.9681 37.9459 32.9189 37.783C32.6122 36.7948 32.3168 35.8065 32.0026 34.7766C31.9988 34.7463 31.995 34.7236 31.9836 34.6971C31.3664 32.6713 30.7568 30.6379 30.1396 28.6122C30.0942 28.4569 30.0525 28.3017 30.026 28.1426C29.8897 27.3626 29.9276 26.5485 30.1737 25.7912C30.4842 24.8522 31.0635 24.0267 31.8511 23.4322C33.5475 22.1486 35.2476 20.8612 36.9439 19.5738C36.7925 19.5738 36.6448 19.5738 36.4971 19.5586C36.641 19.5586 36.7735 19.5586 36.9061 19.5586C36.9174 19.5586 36.925 19.5662 36.9364 19.57C36.9553 19.5586 36.978 19.5511 36.9932 19.5359C37.7959 18.949 38.5835 18.3356 39.3749 17.7373C39.9656 17.2905 40.2761 16.6582 40.1473 15.9123C40.0564 15.3822 39.78 14.977 39.3446 14.6741C39.1515 14.5378 38.9205 14.462 38.6933 14.4166C38.6857 14.4052 38.6782 14.3977 38.6706 14.3863C38.5948 14.4014 38.5115 14.409 38.4358 14.3977C38.4207 14.3977 38.4093 14.3863 38.398 14.3825C38.4093 14.3787 38.4207 14.3712 38.4358 14.3712C38.5078 14.3636 38.5986 14.3636 38.6706 14.3712C38.9167 14.4015 39.1628 14.4355 39.4052 14.4885C40.0034 14.6211 40.5865 14.8937 41.0826 15.2572C41.8437 15.8138 42.4457 16.609 42.76 17.4988C42.9796 18.1122 43.0743 18.6726 43.0553 19.3239C43.0213 20.3387 42.6729 21.255 42.0557 22.0577C41.7982 22.3947 41.4802 22.6939 41.1432 22.9514C39.178 24.4432 37.209 25.9313 35.24 27.4232C35.9822 29.8466 36.7357 32.2623 37.4438 34.6971C37.5308 35 37.5763 35.3218 37.5952 35.6361C37.6369 36.3063 37.5384 36.9765 37.2999 37.6051C36.925 38.5971 36.1942 39.4453 35.2892 39.9981C35.0469 40.1458 34.7856 40.267 34.5244 40.3768C34.2707 40.4828 33.998 40.5472 33.7292 40.6078C33.4907 40.6646 33.2407 40.6759 32.9946 40.6949C32.7864 40.71 32.5251 40.6949 32.3168 40.6721C31.8814 40.6191 31.4573 40.5169 31.0522 40.3503C30.8212 40.2556 30.5978 40.142 30.3819 40.0171" fill="#D62A23"/>
<path d="M36.5008 19.5549C36.372 19.5549 36.2433 19.5474 36.1183 19.5436C36.0199 19.5436 35.9214 19.5436 35.823 19.5436C35.8305 19.5246 35.8268 19.5171 35.823 19.5133C35.6223 19.5133 35.4216 19.5171 35.2247 19.5322C35.8419 18.5137 36.5197 17.3815 37.0649 16.3288C37.1104 16.2683 37.1672 16.1925 37.2088 16.1282C37.2278 16.0941 37.2543 16.007 37.2694 15.9767C37.3338 15.8593 37.436 15.6738 37.5042 15.564C37.5307 15.5185 37.6253 15.4049 37.6481 15.3595C37.667 15.3254 37.6935 15.2383 37.7124 15.208C37.7692 15.1058 37.8866 14.8824 37.9472 14.7953C38.0381 14.6628 38.0797 14.5643 38.1517 14.4432C38.1706 14.4242 38.1895 14.4053 38.2085 14.3826C38.2198 14.375 38.2236 14.3636 38.2312 14.3636C38.2842 14.3636 38.3296 14.3637 38.4016 14.3826C38.4129 14.3864 38.4243 14.3977 38.4394 14.3977C38.5152 14.4091 38.5985 14.4015 38.6742 14.3864C38.6818 14.3977 38.6893 14.4053 38.6969 14.4167C38.9241 14.4621 39.1551 14.5378 39.3482 14.6741C39.7874 14.9771 40.0601 15.3822 40.1509 15.9123C40.2797 16.6545 39.9692 17.2906 39.3785 17.7374C38.5871 18.3357 37.7995 18.9491 36.9968 19.536C36.9779 19.5474 36.9589 19.5587 36.94 19.5701C36.9286 19.5663 36.9211 19.5587 36.9097 19.5587C36.7772 19.5549 36.6409 19.5587 36.497 19.5587" fill="#AD1F1E"/>
<path d="M17.6252 40.0209C17.6252 40.0209 17.5911 40.0133 17.5722 40.0058C17.2579 40.1345 16.9928 40.161 16.6596 40.1232C16.5347 40.108 16.3983 40.0966 16.2772 40.055C15.9705 39.9528 15.6903 39.7672 15.4744 39.5211C15.0125 38.9796 14.9254 38.3662 15.1223 37.6998C15.4063 36.738 15.7016 35.7763 16.0083 34.7804C16.0197 34.7766 16.031 34.7728 16.0386 34.7653C17.7842 33.5574 19.5298 32.3419 21.2716 31.1302C21.7259 30.8122 22.2333 30.5774 22.771 30.4335C23.5851 30.2177 24.456 30.2215 25.2701 30.4411C25.8343 30.5926 26.3492 30.8538 26.8263 31.187C28.5378 32.3836 30.2531 33.5763 31.9722 34.7653C31.9798 34.7728 31.9911 34.7766 32.0025 34.7842C32.3168 35.8103 32.6121 36.7986 32.9188 37.7907C32.968 37.9535 32.987 38.1201 32.9945 38.2905C33.0173 39.0364 32.525 39.7634 31.8283 40.0285C31.6049 40.1118 31.2452 40.161 31.0066 40.1497C30.8097 40.1383 30.6318 40.0777 30.45 40.0134C30.4311 40.0058 30.4159 40.0247 30.397 40.0285C30.3326 39.9793 30.2645 39.9452 30.2115 39.9073C29.0149 39.0705 27.8184 38.2413 26.6181 37.4082C26.6181 38.7714 26.6257 40.1345 26.6181 41.4977C26.6143 42.1451 26.3076 42.7775 25.8608 43.2319C25.4178 43.6863 24.7892 43.9664 24.1569 43.9967C23.623 44.0232 23.1156 43.8869 22.6574 43.6219C21.9153 43.194 21.4268 42.3723 21.4041 41.5279C21.3662 40.1648 21.4041 38.7752 21.4041 37.4082C20.2038 38.2413 19.011 39.0819 17.8107 39.9111C17.7463 39.9528 17.6895 39.9906 17.629 40.0285" fill="#48337E"/>
</g>
<defs>
<clipPath id="clip0_15_3213">
<rect width="40" height="40" fill="white" transform="translate(4 4)"/>
</clipPath>
</defs>
</svg>
