<svg width="48" height="48" viewBox="0 0 48 48" fill="none" xmlns="http://www.w3.org/2000/svg">
<rect width="48" height="48" fill="#0039FB"/>
<rect x="9.3898" y="7.25" width="14.2539" height="4.27616" rx="2.13808" fill="#FFC400"/>
<rect x="8.32075" y="12.5952" width="9.9777" height="4.27616" rx="2.13808" fill="#FFC400"/>
<rect x="7.60806" y="17.9405" width="4.27616" height="4.27616" rx="2.13808" fill="#FFC400"/>
<rect x="17.9421" y="17.9405" width="4.27616" height="4.27616" rx="2.13808" fill="#FFC400"/>
<path fill-rule="evenodd" clip-rule="evenodd" d="M27.7751 9.95563C28.0218 8.39742 29.3651 7.25006 30.9428 7.25006H39.7922C41.7634 7.25006 43.2681 9.01171 42.9598 10.9587L41.6057 19.511C41.359 21.0693 40.0157 22.2166 38.438 22.2166H29.5886C27.6174 22.2166 26.1127 20.455 26.421 18.508L27.7751 9.95563ZM31.2471 10.8135L30.0058 18.6532H38.1337L39.3749 10.8135H31.2471Z" fill="white"/>
<path fill-rule="evenodd" clip-rule="evenodd" d="M24.9243 28.4858C25.171 26.9275 26.5144 25.7802 28.092 25.7802H36.9414C38.9127 25.7802 40.4173 27.5418 40.109 29.4888L38.7549 38.0412C38.5082 39.5994 37.1649 40.7467 35.5873 40.7467H26.7379C24.7666 40.7467 23.2619 38.9851 23.5702 37.0381L24.9243 28.4858ZM28.3963 29.3436L27.1551 37.1833H35.2829L36.5242 29.3436H28.3963Z" fill="white"/>
<path fill-rule="evenodd" clip-rule="evenodd" d="M6.3943 28.4858C6.64102 26.9275 7.98434 25.7802 9.56196 25.7802H18.4114C20.3826 25.7802 21.8873 27.5418 21.579 29.4888L20.2249 38.0412C19.9782 39.5994 18.6349 40.7467 17.0572 40.7467H8.20784C6.23657 40.7467 4.73191 38.9851 5.04018 37.0381L6.3943 28.4858ZM9.86633 29.3436L8.62505 37.1833H16.7529L17.9942 29.3436H9.86633Z" fill="white"/>
</svg>
