<svg width="48" height="48" viewBox="0 0 48 48" fill="none" xmlns="http://www.w3.org/2000/svg">
<rect width="48" height="48" rx="24" fill="#0039FB"/>
<rect x="11.6967" y="9.89447" width="12.0033" height="3.60098" rx="1.80049" fill="#FFC400"/>
<rect x="10.7964" y="14.3957" width="8.40228" height="3.60098" rx="1.80049" fill="#FFC400"/>
<rect x="10.1963" y="18.897" width="3.60098" height="3.60098" rx="1.80049" fill="#FFC400"/>
<rect x="18.8986" y="18.897" width="3.60098" height="3.60098" rx="1.80049" fill="#FFC400"/>
<path fill-rule="evenodd" clip-rule="evenodd" d="M27.179 12.1729C27.3868 10.8607 28.518 9.89453 29.8465 9.89453H37.2987C38.9587 9.89453 40.2258 11.378 39.9662 13.0176L38.8258 20.2196C38.6181 21.5317 37.4869 22.4979 36.1583 22.4979H28.7062C27.0462 22.4979 25.7791 21.0145 26.0387 19.3749L27.179 12.1729ZM30.1028 12.8953L29.0576 19.4971H35.902L36.9473 12.8953H30.1028Z" fill="white"/>
<path fill-rule="evenodd" clip-rule="evenodd" d="M24.7784 27.7772C24.9861 26.465 26.1174 25.4988 27.4459 25.4988H34.898C36.558 25.4988 37.8251 26.9823 37.5655 28.6219L36.4252 35.8238C36.2174 37.136 35.0862 38.1022 33.7577 38.1022H26.3056C24.6456 38.1022 23.3785 36.6187 23.6381 34.9791L24.7784 27.7772ZM27.7022 28.4996L26.6569 35.1014H33.5014L34.5467 28.4996H27.7022Z" fill="white"/>
<path fill-rule="evenodd" clip-rule="evenodd" d="M9.17415 27.7772C9.38191 26.465 10.5131 25.4988 11.8417 25.4988H19.2938C20.9538 25.4988 22.2209 26.9823 21.9613 28.6219L20.821 35.8238C20.6132 37.136 19.482 38.1022 18.1535 38.1022H10.7013C9.04133 38.1022 7.77424 36.6187 8.03384 34.9791L9.17415 27.7772ZM12.098 28.4996L11.0527 35.1014H17.8972L18.9424 28.4996H12.098Z" fill="white"/>
</svg>
