<svg width="48" height="48" viewBox="0 0 48 48" fill="none" xmlns="http://www.w3.org/2000/svg">
<path fill-rule="evenodd" clip-rule="evenodd" d="M16.4017 13.2528C25.0935 4.62507 35.6135 2.41202 39.8151 8.28141C44.0167 14.1829 40.3282 26.0179 31.6364 34.6135C22.9446 43.2412 12.4246 45.4542 8.22301 39.5848C4.0535 33.7154 7.70984 21.8804 16.4017 13.2528Z" fill="#F99D28"/>
<path fill-rule="evenodd" clip-rule="evenodd" d="M22.1748 8.6663C21.2447 9.37191 20.2504 10.2058 19.2882 11.1359C11.6548 18.6411 8.51167 28.9686 12.2642 34.1324C16.1451 39.2962 25.5104 37.4039 33.2401 29.8025C37.4096 25.7613 40.232 21.0145 41.3867 16.6204C41.7395 13.381 41.2584 10.5265 39.8151 8.34557C36.4795 3.7591 29.3271 4.11191 22.1748 8.6663Z" fill="#AF2A30"/>
<path fill-rule="evenodd" clip-rule="evenodd" d="M26.4726 38.9113C22.3993 41.9582 18.1978 43.4977 14.0924 42.8563C15.8243 42.9525 17.2035 41.0281 18.3581 38.4622C19.5128 35.8322 20.2184 33.3947 20.7636 31.1175C21.5654 27.4932 21.6296 24.9274 21.2126 24.3821C20.507 23.452 18.9354 23.7086 17.1393 24.7349C16.2734 25.216 15.1508 24.8953 16.4979 23.2596C17.877 21.6238 23.2653 17.6468 25.2218 17.0374C27.3707 16.428 29.8082 17.2619 28.9743 19.6032C28.397 21.271 20.8919 40.9639 26.4726 38.9113ZM32.5986 8.40969C33.625 9.43603 32.9835 11.6491 31.2836 13.381C29.5517 15.113 27.2745 15.7224 26.2802 14.7281C25.2218 13.7338 25.8632 11.4887 27.5952 9.72468C29.3592 7.96066 31.6364 7.41542 32.5986 8.40969Z" fill="white"/>
</svg>
