<svg width="48" height="48" viewBox="0 0 48 48" fill="none" xmlns="http://www.w3.org/2000/svg">
<path fill-rule="evenodd" clip-rule="evenodd" d="M17.2042 14.384C24.9811 6.66454 34.3938 4.68444 38.1531 9.936C41.9124 15.2163 38.6122 25.8055 30.8353 33.4963C23.0584 41.2158 13.6458 43.1959 9.88649 37.9443C6.15587 32.6928 9.42733 22.1035 17.2042 14.384Z" fill="#F99D28"/>
<path fill-rule="evenodd" clip-rule="evenodd" d="M22.3697 10.2804C21.5375 10.9117 20.6479 11.6578 19.7869 12.49C12.9571 19.2052 10.1447 28.4456 13.5023 33.0658C16.9746 37.686 25.3542 35.9929 32.2702 29.1917C36.0008 25.5759 38.5261 21.3287 39.5592 17.3972C39.8749 14.4988 39.4444 11.9448 38.1531 9.9934C35.1686 5.88972 28.7691 6.20539 22.3697 10.2804Z" fill="#AF2A30"/>
<path fill-rule="evenodd" clip-rule="evenodd" d="M26.2151 37.3417C22.5706 40.0679 18.8113 41.4454 15.138 40.8714C16.6877 40.9575 17.9216 39.2357 18.9547 36.9399C19.9878 34.5868 20.6192 32.4058 21.107 30.3683C21.8244 27.1255 21.8818 24.8298 21.5088 24.3419C20.8774 23.5097 19.4713 23.7393 17.8643 24.6576C17.0894 25.088 16.085 24.8011 17.2903 23.3375C18.5243 21.874 23.3454 18.3155 25.0959 17.7703C27.0186 17.225 29.1996 17.9712 28.4535 20.0661C27.9369 21.5583 21.2218 39.1783 26.2151 37.3417ZM31.6962 10.0508C32.6145 10.9691 32.0406 12.9492 30.5196 14.4988C28.97 16.0485 26.9325 16.5937 26.0429 15.7041C25.0959 14.8145 25.6698 12.8057 27.2195 11.2274C28.7978 9.64902 30.8353 9.16118 31.6962 10.0508Z" fill="white"/>
</svg>
