<svg width="48" height="48" viewBox="0 0 48 48" fill="none" xmlns="http://www.w3.org/2000/svg">
<path fill-rule="evenodd" clip-rule="evenodd" d="M28.2449 14.6576C28.136 14.6302 28.0544 14.6302 27.9456 14.6028C27.8367 14.5754 27.7551 14.548 27.6462 14.5206C27.4286 14.3837 26.9932 14.1919 26.8843 13.9453C26.7755 13.8905 26.6122 13.5069 26.585 13.5069C26.5578 13.4248 26.5306 13.3152 26.5306 13.233V10.2741C26.5578 10.1919 26.585 10.1097 26.585 10.0549C26.585 9.9453 26.8571 9.45215 26.9932 9.45215C27.0204 9.42475 27.0204 9.39736 27.0476 9.36996C27.1564 9.28777 27.2381 9.20557 27.3741 9.15078C27.5646 9.01379 27.8095 8.9316 28.0272 8.9042C28.0544 8.87681 28.0816 8.84941 28.1088 8.84941C28.1632 8.84941 28.5714 8.76722 28.6258 8.82201H28.9524C29.2245 8.87681 29.7143 9.04119 29.9047 9.28777H29.9592C30.0408 9.42475 30.1769 9.56174 30.2857 9.72612C30.3673 9.72612 30.5034 10.1919 30.5034 10.2467V13.2604C30.449 13.4248 30.3945 13.5891 30.3401 13.7535C30.2313 13.8631 30.1496 14.0001 30.0952 14.1097C30.0408 14.1371 29.9864 14.1919 29.932 14.2741C29.7415 14.3563 29.551 14.4658 29.3605 14.5754C29.1973 14.6028 29.0612 14.6302 28.8979 14.6576C28.7075 14.6576 28.4898 14.6576 28.2449 14.6576ZM21.932 17.0686V14.0549C21.9864 13.6165 22.068 13.1234 22.3401 12.7946C22.3401 12.5754 22.8299 12.1919 22.9388 12.0549C23.2381 11.8083 23.6462 11.6713 24.0272 11.6987C24.4081 11.6987 25.0884 12.0275 25.2517 12.3837C25.551 12.5206 25.6598 13.096 25.7959 13.37C25.6871 13.4248 25.551 13.4795 25.4694 13.5617C25.2517 13.5617 24.9796 13.9179 24.7619 13.9179C24.4626 14.1371 24.1905 14.3289 23.9184 14.548H23.8639C23.8095 14.6028 23.7551 14.6576 23.7279 14.7124C23.5918 14.822 23.4558 14.9316 23.3197 15.0686C23.2381 15.1508 23.1837 15.233 23.102 15.3152C22.8299 15.5069 22.6122 15.9179 22.3945 16.1645C22.2585 16.3837 22.1496 16.5754 22.0408 16.7672C22.0136 16.8768 21.9864 16.959 21.932 17.0686ZM19.0204 21.5343C18.4762 21.4248 17.9864 21.096 17.7143 20.6028C17.6871 20.548 17.6598 20.548 17.6598 20.5206C17.5782 20.5206 17.3605 19.9453 17.3605 19.8631C17.3061 19.7809 17.2789 19.6987 17.3061 19.5891C17.2789 19.5069 17.2517 19.3974 17.2517 19.3426V14.7672C17.2789 14.685 17.3061 14.6028 17.3061 14.548C17.3061 14.4385 17.3333 14.3015 17.3877 14.2193C17.415 14.1097 17.4422 14.0001 17.4694 13.8905C17.5782 13.6713 17.7143 13.4795 17.8503 13.2878C17.9047 13.2056 17.9864 13.1234 18.068 13.0686C18.068 12.959 18.3945 12.822 18.4762 12.7672C18.6667 12.7124 18.8299 12.6576 19.0204 12.6028C19.2653 12.6302 19.5102 12.6576 19.7823 12.685C19.7823 12.7124 20.3265 12.9042 20.3265 13.0412C20.3809 13.096 20.6803 13.37 20.6803 13.4795C20.8435 13.4795 21.0884 14.2467 21.1428 14.4111C21.1428 15.6987 21.1428 17.0138 21.1701 18.3289C21.1973 18.5754 21.2245 18.822 21.2245 19.096C21.1973 19.4795 21.1156 19.8357 21.0068 20.1919C20.8979 20.3289 20.8163 20.4932 20.7619 20.6576C20.653 20.7946 20.5442 20.9316 20.4354 21.096C20.3537 21.1508 20.2721 21.2056 20.2177 21.2878C20 21.37 19.7551 21.4795 19.5646 21.5617C19.3741 21.5069 19.1837 21.5069 19.0204 21.5343ZM14.2585 23.37C14.068 23.2878 13.932 23.2604 13.7687 23.2056C13.6599 23.1508 13.551 23.0686 13.4694 23.0138C13.0612 22.685 12.5442 22.0001 12.5442 21.4522C12.517 21.3974 12.4898 21.37 12.4898 21.3152V16.4658C12.4898 16.4385 12.517 16.3837 12.5442 16.3837C12.5714 16.3015 12.5986 16.1919 12.5986 16.1097C12.5986 16.0275 12.653 15.8905 12.653 15.8083C12.7347 15.6439 12.8163 15.5069 12.8979 15.37C12.8979 15.1782 13.2789 14.8768 13.3877 14.7672C13.5238 14.685 13.6871 14.5754 13.8503 14.4932C13.9047 14.4658 14.0136 14.4385 14.0952 14.4385C14.2041 14.4111 14.3129 14.3837 14.4218 14.3837C14.585 14.3837 14.7211 14.4111 14.8843 14.4385C14.9388 14.4932 15.3197 14.5754 15.3197 14.6576C15.3741 14.685 15.6735 14.8494 15.6735 14.9042C15.7551 14.959 15.8367 15.1234 15.8911 15.1234C15.9456 15.1782 15.9728 15.2604 16.0544 15.3426C16.3265 15.8357 16.4898 16.3837 16.517 16.9316C16.4898 18.3837 16.4898 19.8357 16.4898 21.2878C16.3809 21.5069 16.2993 21.7535 16.2721 22.0001C16.1905 22.1371 16.1088 22.2741 16.0544 22.4385C15.9728 22.4385 15.7551 22.8494 15.6735 22.9042C15.483 23.0138 15.3197 23.1234 15.1564 23.2604C15.0748 23.2878 14.966 23.3152 14.8843 23.3426C14.6667 23.3152 14.449 23.3426 14.2585 23.37ZM31.3197 27.0686C31.2925 26.7946 31.2925 26.5206 31.2925 26.2741C31.2653 26.1371 31.2381 26.0001 31.2381 25.8631C31.1564 25.6713 31.102 25.5069 31.0476 25.3152C30.9932 25.2604 30.449 24.5754 30.3673 24.5754C30.2313 24.4932 30.0952 24.4111 29.9592 24.3289C29.7687 24.2741 29.6054 24.1919 29.4422 24.1371C29.3061 24.1097 29.1973 24.0549 29.0612 24.0549C28.9252 24.0275 28.7619 24.0275 28.6258 24.0275C28.7619 24.0001 28.8707 24.0001 29.0068 24.0001C29.0068 23.37 29.0068 22.7398 29.034 22.1371H28.4898V24.0275C28.1905 24.0275 27.8911 24.0275 27.5918 24.0823L27.1837 24.2193L26.6939 24.4932H26.6394C26.5306 24.5754 26.3945 24.685 26.3129 24.7946C26.2041 24.9316 26.0952 25.0686 25.9864 25.233C25.9047 25.3974 25.8503 25.5617 25.7959 25.7261C25.7687 26.0549 25.7415 26.4111 25.7415 26.7672L24.9252 26.3015C24.8435 26.2467 24.4354 25.8357 24.3265 25.8357L23.7279 25.3152C23.6735 25.233 23.619 25.1508 23.5646 25.096C23.483 25.096 22.966 24.2741 22.8843 24.2193C22.8027 24.1645 22.5578 23.7535 22.5578 23.6165C22.3945 23.2878 22.2313 22.959 22.1224 22.6028C22.068 22.3289 21.9864 22.0549 21.932 21.8083C21.8775 21.6165 21.8775 21.4521 21.8503 21.2878V19.6713C21.9592 19.1508 22.0136 18.3837 22.3129 17.9179C22.3129 17.6987 22.585 17.2878 22.6667 17.096C22.7483 16.959 22.8571 16.822 22.9388 16.685C22.9388 16.5206 23.2109 16.3563 23.2109 16.2467C23.2381 16.1919 23.2653 16.1645 23.2925 16.1371C23.3741 16.0275 23.4558 15.9453 23.5646 15.8357C23.5646 15.7261 23.7279 15.6165 23.7823 15.5617C23.7823 15.5343 23.7823 15.5069 23.8095 15.5069C23.8639 15.4521 23.9456 15.37 24.0272 15.3152C24.1905 15.1508 24.3537 15.0138 24.5442 14.8768C24.5714 14.8494 24.5986 14.822 24.6258 14.822C24.8163 14.7398 25.0068 14.4385 25.2245 14.4385C25.4422 14.2467 25.7143 14.0823 25.9864 14.0275C25.9864 14.1371 26.3129 14.6302 26.4762 14.6302C26.5306 14.7124 26.8027 14.959 26.9115 14.959C27.0748 15.0686 27.2653 15.1508 27.4286 15.233C27.8367 15.3426 28.2449 15.3974 28.6803 15.3974C29.034 15.37 29.3877 15.2878 29.7143 15.1508C29.9047 15.1508 30.0408 14.9042 30.2041 14.9042C30.2585 14.822 30.3401 14.7398 30.4218 14.685C30.6667 14.4385 30.8299 14.1645 30.966 13.8631C30.966 13.8357 30.9932 13.8083 31.0204 13.8083C31.1837 13.8631 31.3469 13.9179 31.5102 14.0001C31.7823 14.1371 32.0816 14.2741 32.3809 14.4385C32.4898 14.4932 32.6258 14.5754 32.7619 14.6576L33.17 14.9864L33.6054 15.3426C33.6871 15.3426 33.9047 15.6165 33.932 15.6987L34.2041 15.9727C34.4218 16.3015 34.6667 16.6576 34.9115 16.9864C34.9115 17.0686 35.102 17.2604 35.102 17.37C35.2925 17.6987 35.4286 18.0549 35.5646 18.4385C35.619 18.8768 35.7279 19.3152 35.8095 19.7261C35.8095 20.0275 35.8095 20.3289 35.8367 20.6028C35.8095 21.2604 35.7007 21.9179 35.5374 22.548C35.4013 22.8768 35.2653 23.233 35.102 23.5617C35.0204 23.7261 34.9115 23.8905 34.8299 24.0275C34.8299 24.1371 34.5034 24.5206 34.4762 24.5754C34.3401 24.7398 34.2041 24.9042 34.0952 25.0686C34.068 25.0686 34.0408 25.096 34.0408 25.1234C34.0408 25.2056 33.6054 25.5617 33.551 25.6713H33.4966C33.4694 25.6987 33.4422 25.7261 33.4422 25.7261C33.17 25.9179 32.9252 26.1097 32.6803 26.3289C32.3265 26.5206 31.9456 26.7124 31.619 26.9316C31.5646 26.959 31.4286 27.0138 31.3197 27.0686ZM15.3469 30.4932C15.2925 30.4385 15.2653 30.4385 15.2381 30.4111C15.2109 30.3837 15.1837 30.3563 15.1837 30.3289C15.0748 30.3289 14.966 29.8083 14.9116 29.6713C14.8843 29.5891 14.8843 29.5343 14.8571 29.4522C14.8299 27.6439 14.8299 25.8631 14.8299 24.0549C14.9116 24.0275 14.9932 24.0001 15.0748 24.0001C15.2109 23.9179 15.4558 23.8631 15.5646 23.7535C15.7279 23.7535 15.8095 23.5069 15.9728 23.5069C16.3537 23.2604 16.7347 22.5754 16.8979 22.1645C16.9252 22.0275 16.9524 21.9179 17.0068 21.8083C17.0884 21.5891 17.1156 21.37 17.1156 21.1234C17.1973 21.1234 17.2245 21.3426 17.3333 21.3426V21.3974C17.4422 21.4522 17.8231 21.8631 17.9592 21.8631C17.9592 21.9727 18.6122 22.1645 18.6667 22.1919C18.9388 22.1919 19.2381 22.1919 19.5374 22.2193C19.619 22.1919 19.7007 22.1919 19.7551 22.1919C19.9728 22.0275 20.3809 21.9727 20.5986 21.7535C20.8163 21.6165 20.9796 21.4522 21.1428 21.2604C21.1973 21.5891 21.2517 21.8905 21.3333 22.2467C21.3605 22.4111 21.3877 22.548 21.4422 22.7124C21.6599 23.1782 21.8503 23.6987 22.068 24.1919C22.1224 24.1919 22.3673 24.7672 22.4762 24.7946C22.5034 24.822 22.5306 24.8768 22.5578 24.9042C22.6122 24.9864 22.6667 25.096 22.7483 25.2056C22.9388 25.4248 23.102 25.6165 23.3197 25.8083C23.483 26.0001 23.6735 26.1919 23.8911 26.3289C23.9184 26.3837 23.9728 26.4111 24 26.4659C24.1088 26.5206 24.1905 26.5754 24.2721 26.6302C24.3809 26.685 24.4898 26.7946 24.6258 26.8768L24.7075 26.959C24.7891 27.0138 24.8979 27.0686 25.0068 27.1508H25.0612L25.1428 27.233C25.2245 27.2604 25.3061 27.2878 25.3877 27.3152C25.4694 27.37 25.5782 27.3974 25.6871 27.4795V29.5617C25.6326 29.7535 25.6054 29.9727 25.551 30.1645C25.4694 30.2467 25.4149 30.3289 25.3605 30.4385L15.3469 30.4932ZM26.6394 33.6987V32.6576H28.3265C28.4081 32.685 28.4898 32.7124 28.5442 32.7398C28.5442 33.0412 28.5442 33.3426 28.5714 33.6439C27.9184 33.6439 27.2653 33.6713 26.6394 33.6987ZM30.6122 35.4522C30.585 32.4111 30.5578 29.37 30.5578 26.3289C30.5578 26.1371 30.5034 25.9453 30.4218 25.7535C30.4218 25.6165 30.2313 25.5343 30.2313 25.4248C30.0952 25.3426 29.9047 25.0412 29.7143 25.0412C29.5238 24.9316 29.3333 24.8494 29.1156 24.7946L28.1632 24.7398C28.0544 24.7398 27.9456 24.7672 27.8367 24.7946C27.619 24.8494 27.4013 24.9316 27.2109 25.0686C27.0204 25.0686 26.7483 25.4248 26.6667 25.5617C26.6122 25.7809 26.5578 26.0001 26.5034 26.2193V28.3289C26.4762 28.7672 26.4762 29.2056 26.4762 29.6439C26.4218 29.8357 26.3945 30.0549 26.3945 30.2467C26.2585 30.4932 26.1224 30.7398 26.0136 30.9864C25.9047 31.0412 25.8231 31.096 25.7415 31.1782C25.6326 31.2056 25.5238 31.233 25.4149 31.233H15.3197C15.1837 31.1782 15.0748 31.096 14.966 31.0412C14.8299 31.0412 14.449 30.548 14.449 30.4385L14.1769 29.6165C14.1224 27.7535 14.1224 25.8905 14.0952 24.0275C13.7143 24.0001 13.3877 23.8357 13.0884 23.5891C12.9524 23.5891 12.3809 22.9864 12.3809 22.8768C12.1905 22.8768 11.8911 21.8631 11.8367 21.7261C11.8095 21.5617 11.7551 21.3974 11.7551 21.233C11.7551 19.5891 11.5374 17.8631 11.8095 16.2741C11.8095 16.1919 11.8367 16.1097 11.8639 16.0275C11.9456 15.7261 12.0544 15.4248 12.2177 15.1508C12.2721 14.9864 12.3537 14.8494 12.4898 14.7398V14.685C12.6258 14.5206 12.7619 14.3563 12.9252 14.2193C13.034 14.1097 13.1701 14.0275 13.2789 13.9727C13.5782 13.8357 13.8775 13.7261 14.1769 13.6439H14.7755C15.1564 13.6987 15.5102 13.8357 15.8095 14.0549C15.8911 14.1097 15.9456 14.1645 16.0272 14.1919C16.0544 14.2193 16.0816 14.2467 16.1088 14.2467L16.3265 14.5206C16.3809 14.6028 16.4354 14.6576 16.517 14.7398C16.5442 14.5754 16.5714 14.4111 16.5986 14.2467C16.653 14.0823 16.7075 13.8905 16.7891 13.7261C16.7891 13.3974 17.2245 12.8768 17.3877 12.6576C17.4422 12.6028 17.4966 12.548 17.551 12.5206C17.6326 12.3289 18.0408 12.1371 18.2313 12.0275C18.3945 11.9453 18.585 11.8905 18.7483 11.8357C19.2109 11.8083 20.0272 11.7535 20.3809 12.1097C20.5714 12.1097 20.8707 12.4932 21.0612 12.6028L21.415 13.0686C21.415 13.0138 21.415 12.959 21.4422 12.9042C21.4694 12.822 21.4966 12.7398 21.5238 12.6576C21.6054 12.4658 21.7143 12.3015 21.7959 12.1371C21.8231 12.0823 21.8503 12.0275 21.8775 12.0001C22.0408 11.8083 22.2041 11.6439 22.3673 11.4795C22.4218 11.4522 22.449 11.37 22.5578 11.37C22.6394 11.2878 22.7211 11.233 22.8027 11.1782C23.0204 11.0412 23.2653 10.959 23.5102 10.9042H24.4081C24.7347 10.9864 25.0612 11.1508 25.3333 11.37C25.4966 11.37 25.6598 11.6439 25.7687 11.6987V10.4111C25.7959 10.2467 25.8231 10.0823 25.8231 9.9453C25.932 9.61653 26.0952 9.31516 26.3129 9.06859C26.3401 9.04119 26.3401 9.01379 26.3673 8.9864C26.585 8.84941 26.8843 8.41105 27.1564 8.41105C27.3741 8.19188 27.8367 8.13708 28.1088 8.08229C28.2177 8.05489 28.3265 8.05489 28.4626 8.05489C28.9252 8.02749 29.3877 8.10968 29.7959 8.32886C29.932 8.38366 30.068 8.46585 30.2313 8.54804C30.4218 8.71242 30.585 8.87681 30.7755 9.06859C30.7755 9.17818 31.0204 9.50694 31.0476 9.56174C31.102 9.69873 31.1292 9.83571 31.1837 10.0001C31.1837 10.1371 31.2109 10.2741 31.2381 10.4111V13.0138C31.3469 13.0412 31.4286 13.0686 31.5374 13.096C31.8639 13.233 32.1632 13.3974 32.517 13.5617C32.5986 13.5891 32.653 13.6165 32.7075 13.6439C32.9524 13.8631 33.2789 13.9727 33.4966 14.1919C33.5782 14.1919 33.7415 14.3837 33.8231 14.4111C33.9592 14.548 34.1224 14.685 34.2857 14.822C34.449 14.959 34.5578 15.096 34.6939 15.2604C34.6939 15.37 34.966 15.5617 35.0204 15.7261C35.1564 15.9179 35.2925 16.1371 35.4558 16.3563C35.619 16.5754 35.7279 16.822 35.8639 17.0686C35.9184 17.2604 36.1905 17.6713 36.1905 17.8631C36.2177 17.9453 36.2449 18.0001 36.2721 18.0823C36.3537 18.4658 36.4626 18.8768 36.5442 19.2878C36.5714 19.6165 36.5986 20.0001 36.6258 20.3563C36.5714 20.7672 36.5714 21.1782 36.5442 21.5891C36.4898 21.8905 36.4081 22.1919 36.3537 22.4658C36.2449 22.7398 36.136 23.0138 36.0816 23.2878C35.8639 23.6713 35.6462 24.0823 35.4558 24.4932V24.548C35.2381 24.8494 34.9932 25.1508 34.8027 25.4522C34.5306 25.6987 34.2857 25.9453 34.0408 26.2193C33.9864 26.2467 33.9592 26.2741 33.932 26.3289C33.8775 26.3563 33.8503 26.3837 33.8503 26.4111C33.7687 26.4385 33.6871 26.4932 33.6054 26.5754C33.6054 26.6302 32.8163 27.096 32.7347 27.1782C32.6803 27.2056 32.6258 27.233 32.5714 27.2604C32.4081 27.2604 32.2449 27.4522 32.1088 27.4522C31.9184 27.5343 31.7279 27.6165 31.5374 27.6987C31.4558 27.7261 31.3741 27.7535 31.3197 27.7809C31.3197 30.3289 31.3197 32.8768 31.3469 35.3974L30.6122 35.4522ZM26.6394 35.8083V34.6302H28.3809L28.5986 34.685C28.7347 34.822 28.7075 35.2604 28.7075 35.3974C28.653 35.4795 28.6258 35.5891 28.5714 35.6987C28.517 35.7261 28.4354 35.7535 28.3809 35.7809H26.6394V35.8083ZM24.9796 36.7946V31.8083H29.5238C29.6054 31.8357 29.7143 31.8631 29.8231 31.8631C29.8775 31.8905 29.932 31.9179 29.9864 31.9179C30.0136 31.9453 30.0408 32.0001 30.0408 32.0275C30.068 32.1097 30.0952 32.2193 30.1496 32.3015C30.1496 32.3837 30.1769 32.4385 30.2041 32.5206C30.1769 32.8768 30.1769 33.2604 30.1769 33.6439C30.1224 33.8083 30.0136 33.9727 29.8775 34.0823C29.7959 34.1097 29.7143 34.1371 29.6598 34.1371C29.7143 34.1645 29.7687 34.1919 29.8503 34.1919C29.932 34.2741 30.0136 34.3289 30.0952 34.4111C30.1224 34.4932 30.1496 34.548 30.1769 34.6302C30.2041 34.7398 30.2313 34.8494 30.2313 34.9864C30.2041 35.3426 30.2041 35.7261 30.2041 36.0823C30.1769 36.1371 30.1496 36.1919 30.1496 36.2741C30.068 36.4385 29.932 36.5754 29.7687 36.6576C29.551 36.7124 29.3877 36.7398 29.1973 36.7946H24.9796ZM18.8843 36.7946C18.6939 36.7398 18.5578 36.7124 18.3945 36.685V36.6302C18.3129 36.5754 18.2313 36.4932 18.1769 36.4385C18.1224 36.3289 18.0952 36.2193 18.0952 36.1097V31.8357H19.7279C19.7279 33.1508 19.7279 34.4932 19.7551 35.8357H21.8775V31.8357H23.5374C23.5102 33.2056 23.5102 34.6028 23.5102 36.0001C23.4558 36.2467 23.3469 36.4659 23.2109 36.6576C23.0748 36.7124 22.9388 36.7398 22.8299 36.7946C21.4694 36.7672 20.1632 36.7672 18.8843 36.7946ZM12.2449 36.7946C12.0544 36.7672 11.8911 36.7124 11.7279 36.6028C11.7007 36.5754 11.6735 36.548 11.6462 36.548C11.5374 36.3289 11.4558 36.0823 11.4286 35.8083V32.7398C11.4558 32.5754 11.483 32.4111 11.483 32.2741C11.5102 32.1645 11.5646 32.0823 11.6462 31.9727C11.7279 31.9179 11.7823 31.8905 11.8639 31.8631C11.9728 31.8357 12.0544 31.8083 12.1633 31.8083H15.9456C16.0544 31.8083 16.136 31.8357 16.2449 31.8631C16.3265 31.8905 16.4081 31.9179 16.4626 31.9453C16.517 32.2193 16.5986 32.4932 16.6803 32.7946C16.6803 33.0412 16.6803 33.3152 16.7075 33.5891H15.0748V32.7672H13.0884V35.8083H15.0748V34.7124H16.7075C16.7347 35.3152 16.6803 35.9179 16.4898 36.5206C16.3537 36.5754 16.2449 36.6302 16.136 36.7124C16 36.7398 15.8639 36.7672 15.7279 36.7946H12.2449Z" fill="#2E3192"/>
<path fill-rule="evenodd" clip-rule="evenodd" d="M27.1292 18.8768L28.7619 16.3562L30.4218 18.8768L28.7619 21.3973L27.1292 18.8768Z" fill="#2E3192"/>
<path fill-rule="evenodd" clip-rule="evenodd" d="M30.4218 19.452H33.3061L31.9184 21.8904H29.034L30.4218 19.452Z" fill="#2E3192"/>
<path fill-rule="evenodd" clip-rule="evenodd" d="M27.1293 19.452H24.2449L25.6054 21.8904H28.517L27.1293 19.452Z" fill="#2E3192"/>
<path fill-rule="evenodd" clip-rule="evenodd" d="M24 4.82192C34.585 4.82192 43.1837 13.4521 43.1837 24.0274C43.1837 34.6027 34.5578 43.2055 24 43.2055C13.4422 43.2055 4.81633 34.5753 4.81633 24.0274C4.81633 13.4795 13.4422 4.82192 24 4.82192ZM24 4C35.0204 4 44 12.9863 44 24C44 35.0137 35.0204 44 24 44C12.9796 44 4 35.0137 4 24C4 12.9863 12.9796 4 24 4Z" fill="#2E3192"/>
</svg>
