<svg width="48" height="48" viewBox="0 0 48 48" fill="none" xmlns="http://www.w3.org/2000/svg">
<g clip-path="url(#clip0_19_1910)">
<path d="M24.004 9.59558C26.496 11.9514 28.9886 14.3058 31.4813 16.6603C31.2547 16.8935 31.0234 17.1221 30.7942 17.352C28.5354 15.2189 26.276 13.0857 24.0192 10.9499C21.8156 13.1615 19.5875 15.3478 17.3825 17.5581C17.1473 17.3314 16.9061 17.1102 16.6708 16.8822C18.5694 14.9883 20.4793 13.1063 22.3752 11.2091C22.9327 10.6867 23.465 10.1372 24.004 9.59558Z" fill="#013CC8"/>
<path d="M17.9095 17.9726C19.9576 15.9352 22.0263 13.919 24.0763 11.8842C26.167 13.8492 28.2503 15.8222 30.3403 17.7872C30.1103 18.0172 29.8797 18.2471 29.6505 18.4783C27.8011 16.7293 25.9517 14.9802 24.0923 13.2425C22.2721 15.042 20.444 16.8323 18.6278 18.6358C18.3839 18.4192 18.148 18.1939 17.9095 17.9726Z" fill="#013CC8"/>
<path d="M19.0909 19.0997C20.7409 17.4663 22.4102 15.8521 24.0556 14.2134C25.7422 15.775 27.4135 17.352 29.0961 18.917C28.8655 19.1469 28.6349 19.3768 28.405 19.6081C26.9656 18.2611 25.5196 16.922 24.0815 15.5737C22.6501 16.9666 21.2287 18.3707 19.8033 19.7702C19.564 19.5489 19.3308 19.3203 19.0909 19.0997Z" fill="#013CC8"/>
<path d="M29.2862 19.4486C30.1441 18.6319 30.9675 17.7793 31.8088 16.9453C34.2961 19.3064 36.7908 21.6589 39.2841 24.0133C39.0555 24.2413 38.8263 24.4685 38.601 24.6998C36.3389 22.5779 34.0868 20.4448 31.8367 18.3103C29.6038 20.4953 27.4029 22.7128 25.1807 24.9091C24.9488 24.6792 24.7089 24.4586 24.4703 24.2359C26.0778 22.6424 27.686 21.0495 29.2862 19.4486Z" fill="#013CC8"/>
<path d="M12.6492 20.5571C13.7623 19.4287 14.9 18.3269 16.0191 17.2045C18.5078 19.5629 21.0064 21.9127 23.4944 24.2725C23.2658 24.5017 23.0372 24.7303 22.808 24.9589C20.5505 22.8278 18.2911 20.6973 16.039 18.5601C14.7139 19.8719 13.3849 21.1791 12.0704 22.5015C11.1607 23.3727 10.2961 24.2898 9.38236 25.157C9.15044 24.9317 8.91187 24.7151 8.67862 24.4918C9.44815 23.7109 10.2396 22.952 11.0118 22.1739C11.5554 21.6329 12.0903 21.082 12.6492 20.5571Z" fill="#013CC8"/>
<path d="M25.7111 25.3173C27.7652 23.2944 29.8173 21.2689 31.8747 19.2494C32.0793 19.3876 32.2401 19.5817 32.4242 19.7451C34.3314 21.5407 36.2313 23.3443 38.1459 25.1319C37.9153 25.3645 37.6834 25.5957 37.4514 25.8276C35.6073 24.0766 33.7486 22.3408 31.9046 20.5898C30.0784 22.388 28.2489 24.1836 26.4288 25.9891C26.1842 25.7711 25.9497 25.5419 25.7111 25.3173Z" fill="#013CC8"/>
<path d="M16.0906 19.4865C18.1739 21.4608 20.2679 23.4239 22.3539 25.3949C22.1219 25.6228 21.8967 25.8574 21.6588 26.078C19.808 24.333 17.956 22.5899 16.1052 20.8455C14.2844 22.6477 12.4523 24.438 10.6308 26.2402C10.4042 26.0116 10.145 25.8149 9.94034 25.5657C11.4223 24.0559 12.956 22.5979 14.4499 21.1C15.0054 20.5704 15.5351 20.0155 16.0906 19.4865Z" fill="#013CC8"/>
<path d="M28.9148 24.4665C29.8977 23.5003 30.8832 22.5354 31.8674 21.5705C33.552 23.1355 35.2266 24.7111 36.9085 26.2787C36.6726 26.5047 36.4327 26.7266 36.2021 26.9579C34.7681 25.6089 33.32 24.2745 31.886 22.9255C30.4559 24.319 29.0358 25.7225 27.6077 27.118C27.3651 26.8968 27.1286 26.6695 26.894 26.4402C27.5831 25.7983 28.2363 25.1191 28.9148 24.4665Z" fill="#013CC8"/>
<path d="M11.1021 26.7047C12.7508 25.0699 14.4228 23.4598 16.0668 21.8197C17.7554 23.378 19.4221 24.9603 21.1093 26.5206C20.8814 26.7559 20.6481 26.9858 20.4169 27.2177C18.9735 25.8694 17.5308 24.5197 16.0821 23.1774C14.674 24.5882 13.2306 25.9638 11.8231 27.3752C11.5805 27.1539 11.338 26.9333 11.1021 26.7047Z" fill="#013CC8"/>
<path d="M7.99997 25.1603C10.7106 27.5474 13.4272 29.9277 16.1339 32.3194C18.6259 30.0214 21.1166 27.7221 23.6026 25.4175C23.5767 25.8614 23.6411 26.304 23.6285 26.7479C21.1338 29.0379 18.6452 31.3339 16.1558 33.6299C13.4963 31.2827 10.8495 28.921 8.19136 26.5718C8.12623 26.5074 8.0332 26.4462 8.04582 26.3412C8.03519 25.9478 8.00794 25.5544 7.99997 25.1603Z" fill="#013CC8"/>
<path d="M24.3734 25.2767C27.0687 27.6385 29.7927 29.9684 32.5006 32.3155C34.9122 29.9797 37.3265 27.6458 39.7308 25.3033C39.7255 25.7439 39.7693 26.1832 39.78 26.6231C37.3763 28.9716 34.9455 31.2921 32.5365 33.6346C29.8372 31.2702 27.1272 28.9177 24.4252 26.556C24.4093 26.1293 24.402 25.7027 24.3734 25.2767Z" fill="#013CC8"/>
<path d="M32.6156 34.858C35.0432 32.437 37.4355 29.9823 39.8398 27.5381C39.8584 27.9594 39.8577 28.382 39.8764 28.804C37.4727 31.2608 35.0625 33.711 32.6628 36.1711C29.9535 33.8047 27.2522 31.4289 24.5409 29.0645C24.5349 28.602 24.4957 28.1415 24.4824 27.679C27.191 30.0753 29.9063 32.463 32.6156 34.858Z" fill="#013CC8"/>
<path d="M8.07562 27.558C10.7883 29.9922 13.4969 32.4317 16.2155 34.8586C18.7162 32.4769 21.1842 30.0606 23.6656 27.659C23.6477 28.0677 23.7268 28.4764 23.6856 28.8851C23.5148 29.1256 23.2749 29.3097 23.0675 29.5184C20.7968 31.7452 18.5048 33.9495 16.2381 36.1803C13.7315 33.9508 11.2288 31.7173 8.72421 29.4851C8.52219 29.2964 8.29625 29.1309 8.11549 28.9209C8.10951 28.4671 8.08227 28.0125 8.07562 27.558Z" fill="#013CC8"/>
<path d="M32.7332 37.0888C35.1388 34.6406 37.5365 32.1852 39.9321 29.7271C39.9687 30.1696 39.99 30.6129 39.9999 31.0568C37.5903 33.5043 35.1767 35.9484 32.7651 38.3946C30.0671 36.0614 27.3558 33.7435 24.6558 31.4123C24.6106 30.9684 24.6226 30.5225 24.6006 30.0779C27.3053 32.4217 30.0292 34.7436 32.7332 37.0888Z" fill="#013CC8"/>
<path d="M16.2848 37.084C18.7841 34.6857 21.2542 32.2582 23.7289 29.8359C23.7588 30.2825 23.7747 30.7297 23.7714 31.1776C21.2801 33.5846 18.7867 35.9902 16.3027 38.4045C13.6027 36.0314 10.8954 33.6657 8.19072 31.2986C8.17078 30.8507 8.17809 30.4028 8.16547 29.9556C9.23936 30.9318 10.3465 31.8707 11.4337 32.8323C13.0518 34.2485 14.6679 35.6666 16.2848 37.084Z" fill="#013CC8"/>
</g>
<defs>
<clipPath id="clip0_19_1910">
<rect width="32" height="32" fill="white" transform="translate(8 8)"/>
</clipPath>
</defs>
</svg>
