<svg width="48" height="48" viewBox="0 0 48 48" fill="none" xmlns="http://www.w3.org/2000/svg">
<g clip-path="url(#clip0_19_1862)">
<path d="M24.0049 5.99451C27.1199 8.93923 30.2358 11.8823 33.3516 14.8254C33.0683 15.1169 32.7793 15.4027 32.4927 15.6901C29.6692 13.0236 26.845 10.3572 24.024 7.68741C21.2695 10.4519 18.4843 13.1848 15.7281 15.9476C15.4341 15.6643 15.1325 15.3877 14.8385 15.1028C17.2117 12.7354 19.599 10.3829 21.9689 8.01137C22.6659 7.35847 23.3312 6.6715 24.0049 5.99451Z" fill="#013CC8"/>
<path d="M16.3868 16.4658C18.9469 13.919 21.5328 11.3987 24.0954 8.85522C26.7087 11.3115 29.3128 13.7778 31.9253 16.2341C31.6379 16.5215 31.3496 16.8089 31.063 17.098C28.7513 14.9116 26.4395 12.7253 24.1153 10.5531C21.8401 12.8026 19.555 15.0404 17.2847 17.2948C16.9799 17.024 16.685 16.7424 16.3868 16.4658Z" fill="#013CC8"/>
<path d="M17.8636 17.8747C19.9261 15.8329 22.0128 13.8152 24.0695 11.7668C26.1778 13.7189 28.2669 15.69 30.3701 17.6463C30.0819 17.9337 29.7937 18.2211 29.5062 18.5102C27.707 16.8264 25.8995 15.1526 24.1019 13.4672C22.3126 15.2083 20.5358 16.9635 18.7541 18.7129C18.455 18.4362 18.1635 18.1505 17.8636 17.8747Z" fill="#013CC8"/>
<path d="M30.6077 18.3108C31.6801 17.2899 32.7093 16.2242 33.7609 15.1817C36.8701 18.1331 39.9885 21.0736 43.1051 24.0167C42.8194 24.3016 42.5328 24.5857 42.2512 24.8748C39.4236 22.2225 36.6085 19.556 33.7958 16.8879C31.0048 19.6191 28.2536 22.3911 25.4758 25.1365C25.1859 24.849 24.8861 24.5733 24.5879 24.295C26.5972 22.303 28.6075 20.3119 30.6077 18.3108Z" fill="#013CC8"/>
<path d="M9.81148 19.6963C11.2029 18.2859 12.625 16.9086 14.0238 15.5056C17.1347 18.4537 20.258 21.3909 23.368 24.3406C23.0823 24.6272 22.7965 24.913 22.5099 25.1987C19.6881 22.5347 16.8639 19.8716 14.0487 17.2002C12.3924 18.8399 10.731 20.4739 9.08797 22.1269C7.95079 23.2159 6.87008 24.3622 5.72791 25.4462C5.43801 25.1646 5.1398 24.8939 4.84824 24.6147C5.81015 23.6387 6.79948 22.6901 7.76472 21.7174C8.4442 21.0412 9.11289 20.3526 9.81148 19.6963Z" fill="#013CC8"/>
<path d="M26.1388 25.6466C28.7064 23.1181 31.2715 20.5862 33.8433 18.0618C34.0991 18.2345 34.3001 18.4771 34.5302 18.6814C36.9143 20.9259 39.2891 23.1804 41.6823 25.4149C41.3941 25.7056 41.1042 25.9947 40.8143 26.2846C38.5091 24.0958 36.1858 21.926 33.8807 19.7372C31.598 21.985 29.3111 24.2295 27.0359 26.4864C26.7303 26.214 26.437 25.9274 26.1388 25.6466Z" fill="#013CC8"/>
<path d="M14.1132 18.3582C16.7174 20.8261 19.3348 23.2799 21.9423 25.7436C21.6524 26.0286 21.3708 26.3218 21.0734 26.5976C18.76 24.4162 16.4449 22.2374 14.1315 20.0569C11.8555 22.3097 9.56531 24.5475 7.28845 26.8003C7.00519 26.5145 6.68123 26.2686 6.42538 25.9571C8.27778 24.0698 10.195 22.2474 12.0623 20.375C12.7567 19.713 13.4188 19.0194 14.1132 18.3582Z" fill="#013CC8"/>
<path d="M30.1435 24.5832C31.3721 23.3754 32.604 22.1693 33.8342 20.9631C35.9399 22.9194 38.0332 24.8889 40.1356 26.8484C39.8408 27.1309 39.5409 27.4083 39.2526 27.6974C37.4601 26.0111 35.65 24.3431 33.8574 22.6569C32.0698 24.3988 30.2947 26.1532 28.5096 27.8976C28.2064 27.621 27.9107 27.3369 27.6175 27.0503C28.4789 26.2479 29.2954 25.3989 30.1435 24.5832Z" fill="#013CC8"/>
<path d="M7.87756 27.3809C9.93845 25.3375 12.0284 23.3248 14.0835 21.2747C16.1942 23.2226 18.2775 25.2004 20.3866 27.1508C20.1017 27.4449 19.8101 27.7323 19.521 28.0222C17.7168 26.3368 15.9135 24.6497 14.1026 22.9717C12.3424 24.7352 10.5382 26.4547 8.77884 28.2191C8.47565 27.9424 8.17245 27.6667 7.87756 27.3809Z" fill="#013CC8"/>
<path d="M3.99994 25.4504C7.38824 28.4342 10.784 31.4097 14.1673 34.3993C17.2823 31.5268 20.3957 28.6527 23.5032 25.7719C23.4708 26.3268 23.5514 26.88 23.5356 27.4349C20.4173 30.2974 17.3064 33.1674 14.1947 36.0373C10.8704 33.1034 7.56185 30.1512 4.23917 27.2148C4.15777 27.1342 4.04147 27.0578 4.05726 26.9265C4.04396 26.4348 4.00991 25.943 3.99994 25.4504Z" fill="#013CC8"/>
<path d="M24.4667 25.5959C27.8359 28.5481 31.2408 31.4605 34.6258 34.3944C37.6403 31.4746 40.6581 28.5573 43.6635 25.6292C43.6568 26.1799 43.7116 26.729 43.7249 27.2789C40.7204 30.2145 37.6818 33.1152 34.6706 36.0433C31.2965 33.0878 27.909 30.1472 24.5315 27.195C24.5116 26.6617 24.5024 26.1284 24.4667 25.5959Z" fill="#013CC8"/>
<path d="M34.7695 37.5725C37.804 34.5464 40.7944 31.4779 43.7997 28.4227C43.823 28.9493 43.8222 29.4776 43.8454 30.0051C40.8409 33.0761 37.828 36.1388 34.8285 39.2139C31.4419 36.2559 28.0652 33.2862 24.6761 30.3307C24.6686 29.7526 24.6196 29.1769 24.603 28.5988C27.9888 31.5942 31.3829 34.5788 34.7695 37.5725Z" fill="#013CC8"/>
<path d="M4.09451 28.4475C7.4853 31.4903 10.8711 34.5396 14.2694 37.5733C17.3952 34.5961 20.4803 31.5758 23.582 28.5738C23.5596 29.0846 23.6584 29.5955 23.6069 30.1064C23.3934 30.4071 23.0936 30.6372 22.8344 30.898C19.996 33.6816 17.131 36.4369 14.2976 39.2255C11.1643 36.4386 8.03604 33.6467 4.90525 30.8565C4.65272 30.6205 4.37029 30.4137 4.14435 30.1512C4.13688 29.5839 4.10282 29.0157 4.09451 28.4475Z" fill="#013CC8"/>
<path d="M34.9165 40.361C37.9235 37.3009 40.9206 34.2315 43.9152 31.1589C43.9608 31.7121 43.9874 32.2662 43.9999 32.821C40.9879 35.8804 37.9709 38.9356 34.9564 41.9933C31.5839 39.0768 28.1947 36.1794 24.8197 33.2655C24.7633 32.7106 24.7782 32.1532 24.7508 31.5975C28.1316 34.5272 31.5365 37.4296 34.9165 40.361Z" fill="#013CC8"/>
<path d="M14.3559 40.3551C17.4801 37.3572 20.5677 34.3228 23.6611 31.295C23.6985 31.8532 23.7184 32.4122 23.7142 32.9721C20.6001 35.9808 17.4834 38.9878 14.3784 42.0056C11.0034 39.0393 7.61921 36.0821 4.23838 33.1233C4.21346 32.5634 4.2226 32.0035 4.20682 31.4445C5.54918 32.6648 6.93307 33.8385 8.29205 35.0405C10.3147 36.8106 12.3349 38.5833 14.3559 40.3551Z" fill="#013CC8"/>
</g>
<defs>
<clipPath id="clip0_19_1862">
<rect width="40" height="40" fill="white" transform="translate(4 4)"/>
</clipPath>
</defs>
</svg>
