<svg width="48" height="48" viewBox="0 0 48 48" fill="none" xmlns="http://www.w3.org/2000/svg">
<path d="M33.321 24.8443C33.3215 26.7542 32.7555 28.6213 31.6944 30.2097C30.6334 31.798 29.125 33.0361 27.36 33.7675C25.595 34.4989 23.6527 34.6907 21.7787 34.3187C19.9046 33.9466 18.183 33.0274 16.8316 31.6773C15.4802 30.3273 14.5596 28.6069 14.1862 26.7338C13.8129 24.8607 14.0036 22.919 14.7341 21.1542C15.4647 19.3895 16.7024 17.8809 18.2907 16.8193C19.879 15.7576 21.7465 15.1906 23.6571 15.19C26.2193 15.1893 28.6769 16.206 30.4892 18.0165C32.3015 19.827 33.3201 22.283 33.321 24.8443Z" fill="#C41D1D"/>
<path d="M20.5694 29.2861C18.0558 29.8114 16.2412 28.5143 14.794 27.4628L14.4904 27.241C13.6002 26.5783 12.5524 26.1593 11.4505 26.0255H11.3714C9.78219 25.8002 7.32221 25.7212 4.42516 27.7212L4 27.1373C7.09772 25.0123 9.73032 25.0896 11.4386 25.314H11.5083C12.7281 25.4676 13.8892 25.9267 14.8841 26.6485L15.1877 26.8729C16.5312 27.836 18.2063 29.0396 20.4223 28.5729C21.5226 28.3426 22.6935 27.7408 24.1127 26.68L24.1552 26.6468C25.5887 25.4635 26.9199 24.1615 28.1347 22.7547L29.4901 21.2051C30.8914 19.5969 34.4084 15.5951 36.8071 13.1769C39.0333 10.9176 41.4142 9.51 43.8546 9L44 9.6868C41.6931 10.173 39.4406 11.51 37.3131 13.6673C34.933 16.0771 31.422 20.05 30.0199 21.665L28.6593 23.2179C27.4218 24.6657 26.0623 26.0045 24.5956 27.2197L24.5497 27.2563C23.0302 28.3834 21.7811 29.0277 20.5736 29.2793L20.5694 29.2861Z" fill="#FFE401"/>
<path d="M20.2837 27.9093C18.509 28.2833 17.2225 27.4902 15.6026 26.3291L15.2991 26.1013C14.1686 25.2944 12.8523 24.7865 11.4726 24.6249C10.2813 24.5445 9.0849 24.5832 7.90127 24.7405L7.80603 24.0452C9.03664 23.8773 10.2813 23.8365 11.5202 23.9236C13.0287 24.0966 14.4688 24.6484 15.7064 25.5276L16.0099 25.7528C17.5303 26.84 18.6366 27.5327 20.1383 27.2174C21.0166 27.0321 22.0438 26.4966 23.2751 25.576L23.2929 25.5582C24.6556 24.4212 25.9187 23.17 27.0684 21.8182C27.4672 21.3685 27.9264 20.8424 28.4246 20.2712C30.604 17.7739 33.6558 14.3399 35.8224 12.1647C36.8054 11.194 37.8725 10.3122 39.0112 9.52972L39.3972 10.1188C38.2996 10.8728 37.2704 11.7218 36.3216 12.656C34.172 14.8167 31.1295 18.2414 28.9561 20.731C28.4578 21.3048 27.9986 21.8309 27.6032 22.2806C26.4208 23.6619 25.1243 24.9414 23.7275 26.1056L23.7028 26.1234C22.3669 27.1375 21.2692 27.7002 20.2811 27.9093H20.2837Z" fill="#FFE401"/>
<path d="M20.0039 26.5423C18.7003 26.8186 17.793 26.1709 16.4232 25.1823L16.1196 24.9571C14.7756 23.9942 13.2046 23.3964 11.5602 23.2222L11.5967 22.5167C13.3799 22.6948 15.0846 23.3399 16.5388 24.3867L16.8432 24.6145C18.969 26.1343 19.594 26.5899 22.4486 24.4539C23.7379 23.3689 24.9363 22.1803 26.0318 20.9L27.3787 19.3598C29.5947 16.8149 32.6312 13.335 34.8539 11.1514L35.3462 11.6529C33.1422 13.8068 30.1176 17.2739 27.9076 19.8086L26.5582 21.3522C25.4392 22.6718 24.2075 23.8916 22.8771 24.9979C21.6612 25.9099 20.7768 26.3749 20.02 26.5177L20.0039 26.5423Z" fill="#FFE401"/>
</svg>
