<svg width="48" height="48" viewBox="0 0 48 48" fill="none" xmlns="http://www.w3.org/2000/svg">
<path fill-rule="evenodd" clip-rule="evenodd" d="M24.9149 25.6689C35.3551 38.8169 11.9093 49.3284 7.27704 29.6239L3.5 30.2296L9.98493 19.54L21.5653 26.6307L17.5746 27.4505C18.608 32.4032 24.701 31.6903 24.9149 25.6689C24.8792 25.7043 24.8435 25.7043 24.808 25.7399C6.45746 26.0963 10.3413 1.51033 30.8297 8.81485L31.8631 6L38.17 16.832L25.5563 22.3194L27.0528 18.5424C21.8506 16.6539 19.6057 22.3907 24.808 25.7399C34.0723 10.5964 52.6364 24.8491 38.17 38.1755L40.4148 40.5274L27.5159 40.5984L27.801 28.3413L30.6516 31.1559C34.5354 27.5571 30.1528 22.2124 24.9149 25.6689Z" fill="#F4B035"/>
</svg>
