<svg width="48" height="48" viewBox="0 0 48 48" fill="none" xmlns="http://www.w3.org/2000/svg">
<path d="M32.3889 25.2598C32.3894 26.9787 31.8799 28.6592 30.925 30.0887C29.97 31.5182 28.6125 32.6325 27.024 33.2908C25.4355 33.949 23.6874 34.1216 22.0008 33.7868C20.3142 33.4519 18.7647 32.6247 17.5484 31.4096C16.3322 30.1945 15.5036 28.6462 15.1676 26.9604C14.8316 25.2746 15.0032 23.5271 15.6607 21.9388C16.3183 20.3505 17.4322 18.9928 18.8616 18.0373C20.2911 17.0819 21.9718 16.5716 23.6914 16.571C25.9974 16.5703 28.2092 17.4854 29.8403 19.1149C31.4713 20.7443 32.3881 22.9547 32.3889 25.2598Z" fill="#C41D1D"/>
<path d="M20.9124 29.2575C18.6502 29.7303 17.0171 28.5629 15.7146 27.6166L15.4414 27.4169C14.6402 26.8205 13.6971 26.4434 12.7055 26.3229H12.6343C11.204 26.1202 8.98999 26.0491 6.38264 27.8491L6 27.3236C8.78795 25.4111 11.1573 25.4807 12.6948 25.6826H12.7575C13.8553 25.8209 14.9003 26.234 15.7957 26.8837L16.0689 27.0857C17.2781 27.9524 18.7857 29.0356 20.78 28.6157C21.7703 28.4083 22.8241 27.8667 24.1014 26.912L24.1397 26.8822C25.4298 25.8171 26.6279 24.6453 27.7212 23.3792L28.9411 21.9846C30.2023 20.5373 33.3675 16.9356 35.5264 14.7592C37.5299 12.7258 39.6728 11.459 41.8691 11L42 11.6181C39.9238 12.0557 37.8965 13.259 35.9818 15.2006C33.8397 17.3694 30.6798 20.945 29.4179 22.3985L28.1934 23.7962C27.0797 25.0991 25.8561 26.3041 24.5361 27.3978L24.4948 27.4307C23.1272 28.4451 22.003 29.0249 20.9163 29.2514L20.9124 29.2575Z" fill="#FFE401"/>
<path d="M20.6553 28.0183C19.0581 28.3549 17.9002 27.6412 16.4424 26.5962L16.1692 26.3912C15.1517 25.6649 13.967 25.2078 12.7253 25.0623C11.6531 24.99 10.5764 25.0249 9.51113 25.1664L9.42542 24.5406C10.533 24.3895 11.6531 24.3528 12.7682 24.4312C14.1258 24.5869 15.4219 25.0835 16.5357 25.8748L16.8089 26.0775C18.1773 27.0559 19.1729 27.6794 20.5244 27.3956C21.315 27.2288 22.2394 26.7469 23.3476 25.9184L23.3636 25.9023C24.5901 24.8791 25.7268 23.753 26.7615 22.5363C27.1205 22.1316 27.5337 21.6581 27.9822 21.144C29.9436 18.8964 32.6902 15.8058 34.6402 13.8482C35.5249 12.9745 36.4852 12.1809 37.51 11.4767L37.8575 12.0069C36.8696 12.6855 35.9434 13.4496 35.0894 14.2904C33.1548 16.235 30.4166 19.3172 28.4605 21.5579C28.012 22.0743 27.5988 22.5478 27.2429 22.9525C26.1787 24.1956 25.0119 25.3472 23.7547 26.395L23.7325 26.411C22.5302 27.3237 21.5423 27.8301 20.653 28.0183H20.6553Z" fill="#FFE401"/>
<path d="M20.4035 26.7881C19.2303 27.0367 18.4138 26.4538 17.1809 25.5641L16.9077 25.3613C15.6981 24.4947 14.2841 23.9567 12.8042 23.8L12.8371 23.165C14.442 23.3254 15.9762 23.9059 17.285 24.848L17.5589 25.0531C19.4722 26.4209 20.0347 26.8309 22.6037 24.9085C23.7642 23.932 24.8427 22.8623 25.8287 21.71L27.0409 20.3238C29.0352 18.0334 31.7681 14.9015 33.7685 12.9362L34.2117 13.3876C32.228 15.3261 29.5059 18.4465 27.5169 20.7277L26.3024 22.117C25.2953 23.3046 24.1868 24.4024 22.9894 25.3981C21.8951 26.2189 21.0992 26.6374 20.4181 26.7659L20.4035 26.7881Z" fill="#FFE401"/>
</svg>
