<svg width="48" height="48" viewBox="0 0 48 48" fill="none" xmlns="http://www.w3.org/2000/svg">
<path fill-rule="evenodd" clip-rule="evenodd" d="M24.2734 24.7532C33.6696 36.5864 12.5683 46.0468 8.39934 28.3127L5 28.8578L10.8364 19.2372L21.2588 25.6189L17.6671 26.3566C18.5972 30.8141 24.0809 30.1725 24.2734 24.7532C24.2413 24.785 24.2092 24.785 24.1772 24.8171C7.66172 25.1379 11.1572 3.01051 29.5968 9.58457L30.5268 7.05121L36.203 16.8L24.8507 21.7387L26.1975 18.3393C21.5155 16.6397 19.4951 21.8028 24.1772 24.8171C32.515 11.188 49.2228 24.0154 36.203 36.0091L38.2233 38.1259L26.6143 38.1898L26.8709 27.1584L29.4364 29.6916C32.9319 26.4526 28.9875 21.6424 24.2734 24.7532Z" fill="#F4B035"/>
</svg>
