<svg width="48" height="48" viewBox="0 0 48 48" fill="none" xmlns="http://www.w3.org/2000/svg">
<g clip-path="url(#clip0_15_3338)">
<path d="M4 14.2603V24.5068L4.52055 24.6027C6.27397 24.8904 9.26027 24.2466 10.2055 23.3836C10.411 23.1918 10.5753 22.9863 10.5753 22.9452C10.5753 22.8904 10.411 22.3836 10.2192 21.8219C9.09589 18.5753 11.1507 15.7808 15.0274 15.3014C16.4658 15.1233 18.3699 15.6986 19.5479 16.6712L20.1233 17.137L20.2055 15.3288C20.3014 13.137 20.7397 11.3014 21.4932 9.86301C22.411 8.12329 24.4521 6.24657 25.3288 6.35616C25.8767 6.41096 25.7945 6.83561 24.9589 8.19178C24.0959 9.63013 23.3836 11.0411 23.1918 11.7397C23.1096 12.0411 23.0411 12.9726 23.0411 13.8082C23.0411 15.7945 23.4521 17.4521 24.4795 19.589C24.8904 20.4521 25.2329 21.1781 25.2329 21.2055C25.2329 21.2192 25.0685 21.2603 24.863 21.2877C24.5753 21.3151 24.411 21.4795 24.1507 22.0137C23.8356 22.6164 23.7123 22.726 23.137 22.9041C21.726 23.3562 21.2603 24.4247 21.726 26.1507C21.9863 27.1233 22.3699 27.7123 23.5205 28.9315C24.9726 30.4521 25.0274 30.5616 24.7671 31.3014C24.4247 32.3288 24.5753 32.6575 26.7945 35.5616C28.4521 37.7397 29.3151 39.3425 29.4384 40.4521C29.5342 41.4384 29.2192 42.5479 28.589 43.3699L28.1096 44H36.0548H44V24V4H24H4V14.2603ZM34.1096 8.15068C34.4795 8.54794 35.3973 10.5342 35.726 11.6712C35.9178 12.3425 35.9863 13 35.9726 14.3425C35.9726 15.9315 35.9315 16.2466 35.589 17.2192C35.0274 18.8356 34.1233 20.5068 33.1233 21.7534L32.2329 22.863L32.5616 23.9041C33.1233 25.6438 33.1233 25.9452 32.6986 26.8356C32.4795 27.274 31.8493 28.0959 31.274 28.726C30.6986 29.3288 30.1507 29.9178 30.0548 30.0411C29.9589 30.1644 29.726 31.1507 29.5479 32.2329C29.3699 33.3151 29.1096 34.4658 28.9863 34.7808C28.7945 35.2877 28.6986 35.3699 28.3699 35.3699C28.0411 35.3699 27.8904 35.2466 27.5616 34.7123C27.3425 34.3562 27.1507 33.9589 27.1507 33.8219C27.1507 33.3425 27.4247 33.0411 27.8356 33.0411C28.1507 33.0411 28.2603 32.9726 28.3014 32.7397C28.8767 29.6849 29.2877 28.3973 29.863 27.7945C30.7808 26.8219 30.9315 25.8493 30.3836 24.5068C29.9315 23.4247 29.3562 22.7123 28.0137 21.6027L26.863 20.6575L27.5205 20.4795C30.3973 19.6712 32.411 17.7397 33.1233 15.0959C33.4521 13.863 33.4521 11.4384 33.1233 9.78082C32.9178 8.79452 32.9041 8.42466 33.0137 8.16438C33.2192 7.73972 33.7123 7.72603 34.1096 8.15068ZM25.5342 25.5342C26.137 25.7123 26.6027 26.2055 26.6027 26.6712C26.6027 27.0274 25.7808 28.6712 25.6438 28.589C25.589 28.5616 25.5342 28.1781 25.5205 27.7534C25.4932 26.8219 25.3836 26.6575 24.7534 26.5479C24.2877 26.4521 24.2192 26.3562 24.2603 25.9178C24.3288 25.3151 24.5753 25.2466 25.5342 25.5342Z" fill="#98272B"/>
<path d="M19.1506 26.7261C19.0958 26.8083 19.0958 27.1645 19.1506 27.5343C19.2054 27.9453 19.1506 28.6028 19.0136 29.2877C18.1369 33.6302 18.2602 34.3836 20.3013 37.1234C21.3835 38.5891 21.6575 39.3836 21.4109 40.3699C21.1369 41.4658 21.2191 42.2056 21.7259 43.1097L22.178 43.9316L22.9451 43.9727C23.3835 44.0001 23.7259 43.9727 23.7259 43.9316C23.7259 43.8905 23.6164 43.6302 23.4794 43.3425C22.9314 42.2329 22.8355 41.6302 22.9177 39.3973C22.9588 37.9864 22.6712 37.3562 21.3698 36.0138C19.6575 34.2466 19.2739 32.9316 19.6575 30.0275C19.8081 28.9316 19.8355 28.2192 19.7396 27.7124C19.6164 26.9453 19.315 26.4521 19.1506 26.7261Z" fill="#98272B"/>
<path d="M11.1918 28.1781C10.0959 28.6027 8.0137 28.9452 6.0274 29.0274L4 29.1096V36.5616V44H6.73973C8.24658 44 9.47945 43.9589 9.47945 43.9178C9.47945 43.863 9.30137 43.4521 9.06849 42.9863C8.84932 42.5342 8.63014 41.8219 8.57534 41.411C8.47945 40.6712 8.47945 40.6712 8.80822 40.7671C11.1781 41.5068 12.5753 41.3425 13.1233 40.274C13.2329 40.0548 13.4247 39.3425 13.5342 38.6849C13.9041 36.5479 14.3014 35.5342 15.1096 34.6712C15.8904 33.8493 16.1507 32.137 15.7123 30.8356C15.4247 30 14.589 28.9452 13.8493 28.4795C13.0685 28 11.9863 27.8767 11.1918 28.1781Z" fill="#98272B"/>
<path d="M22.1373 31.1918C22.0277 31.6576 22.3976 33.822 22.6989 34.4658C22.8359 34.7398 23.5071 35.5754 24.2058 36.3288C25.6852 37.9042 26.1921 38.8357 26.3017 40.1096C26.3839 41.2603 26.2469 41.8631 25.7811 42.411C25.288 42.9726 25.2743 43.0411 25.6989 43.0411C26.7674 43.0411 27.7263 41.0548 27.425 39.4932C27.1373 37.9452 26.8222 37.4932 25.0414 36.0274C23.9455 35.1233 23.2743 34.4658 23.0688 34.0959C22.7537 33.5069 22.4934 32.274 22.4934 31.3562C22.4934 30.7809 22.2743 30.6713 22.1373 31.1918Z" fill="#98272B"/>
<path d="M17.1093 35.4384C16.986 35.5479 16.7668 36.0548 16.6024 36.5479C16.123 37.9726 16.2463 39.1096 17.0682 40.7945C17.4654 41.6164 17.7531 42.4658 17.8627 43.0548L18.0134 44H18.7394H19.4791V43.5205C19.4791 42.9589 19.2873 42.5479 18.4106 41.1918C17.4791 39.7808 17.1641 38.9041 17.1504 37.7945C17.1504 37.274 17.2463 36.6575 17.3558 36.3699C17.6983 35.5479 17.5476 34.9863 17.1093 35.4384Z" fill="#98272B"/>
</g>
<defs>
<clipPath id="clip0_15_3338">
<rect width="40" height="40" fill="white" transform="translate(4 4)"/>
</clipPath>
</defs>
</svg>
