<svg width="48" height="48" viewBox="0 0 48 48" fill="none" xmlns="http://www.w3.org/2000/svg">
<g clip-path="url(#clip0_15_3363)">
<path d="M10 17.1822V24.3548L10.3644 24.4219C11.5918 24.6233 13.6822 24.1726 14.3438 23.5685C14.4877 23.4342 14.6027 23.2904 14.6027 23.2616C14.6027 23.2233 14.4877 22.8685 14.3534 22.4753C13.5671 20.2027 15.0055 18.2466 17.7192 17.911C18.726 17.7863 20.0589 18.189 20.8836 18.8699L21.2863 19.1959L21.3438 17.9301C21.411 16.3959 21.7178 15.111 22.2452 14.1041C22.8877 12.8863 24.3164 11.5726 24.9301 11.6493C25.3137 11.6877 25.2562 11.9849 24.6712 12.9342C24.0671 13.9411 23.5685 14.9288 23.4342 15.4178C23.3767 15.6288 23.3288 16.2808 23.3288 16.8658C23.3288 18.2562 23.6164 19.4164 24.3356 20.9123C24.6233 21.5164 24.863 22.0247 24.863 22.0438C24.863 22.0534 24.7479 22.0822 24.6041 22.1014C24.4027 22.1205 24.2877 22.2356 24.1055 22.6096C23.8849 23.0315 23.7986 23.1082 23.3959 23.2329C22.4082 23.5493 22.0822 24.2973 22.4082 25.5055C22.5904 26.1863 22.8589 26.5986 23.6644 27.4521C24.6808 28.5164 24.7192 28.5932 24.537 29.111C24.2973 29.8301 24.4027 30.0603 25.9562 32.0932C27.1164 33.6178 27.7205 34.7397 27.8068 35.5164C27.874 36.2068 27.6534 36.9836 27.2123 37.5589L26.8767 38H32.4384H38V24V10H24H10V17.1822ZM31.0767 12.9055C31.3356 13.1836 31.9781 14.574 32.2082 15.3699C32.3425 15.8397 32.3904 16.3 32.3808 17.2397C32.3808 18.3521 32.3521 18.5726 32.1123 19.2534C31.7192 20.3849 31.0863 21.5548 30.3863 22.4274L29.763 23.2041L29.9932 23.9329C30.3863 25.1507 30.3863 25.3616 30.089 25.9849C29.9356 26.2918 29.4945 26.8671 29.0918 27.3082C28.689 27.7301 28.3055 28.1425 28.2384 28.2288C28.1712 28.3151 28.0082 29.0055 27.8836 29.763C27.7589 30.5205 27.5767 31.326 27.4904 31.5466C27.3562 31.9014 27.289 31.9589 27.0589 31.9589C26.8288 31.9589 26.7233 31.8726 26.4932 31.4986C26.3397 31.2493 26.2055 30.9712 26.2055 30.8753C26.2055 30.5397 26.3973 30.3288 26.6849 30.3288C26.9055 30.3288 26.9822 30.2808 27.011 30.1178C27.4137 27.9795 27.7014 27.0781 28.1041 26.6562C28.7466 25.9753 28.8521 25.2945 28.4685 24.3548C28.1521 23.5973 27.7493 23.0986 26.8096 22.3219L26.0041 21.6603L26.4644 21.5356C28.4781 20.9699 29.8877 19.6178 30.3863 17.7671C30.6164 16.9041 30.6164 15.2069 30.3863 14.0466C30.2425 13.3562 30.2329 13.0973 30.3096 12.9151C30.4534 12.6178 30.7986 12.6082 31.0767 12.9055ZM25.074 25.074C25.4959 25.1986 25.8219 25.5438 25.8219 25.8699C25.8219 26.1192 25.2466 27.2699 25.1507 27.2123C25.1123 27.1932 25.074 26.9247 25.0644 26.6274C25.0452 25.9753 24.9685 25.8603 24.5274 25.7836C24.2014 25.7164 24.1534 25.6493 24.1822 25.3425C24.2301 24.9205 24.4027 24.8726 25.074 25.074Z" fill="#98272B"/>
<path d="M20.6054 25.9083C20.567 25.9658 20.567 26.2151 20.6054 26.474C20.6437 26.7617 20.6054 27.222 20.5095 27.7014C19.8958 30.7411 19.9821 31.2685 21.4108 33.1863C22.1684 34.2124 22.3602 34.7685 22.1876 35.4589C21.9958 36.2261 22.0533 36.7439 22.4081 37.3768L22.7245 37.9521L23.2615 37.9809C23.5684 38 23.8081 37.9809 23.8081 37.9521C23.8081 37.9233 23.7314 37.7411 23.6355 37.5398C23.2519 36.7631 23.1848 36.3411 23.2424 34.7781C23.2711 33.7905 23.0697 33.3494 22.1588 32.4096C20.9602 31.1726 20.6917 30.2521 20.9602 28.2192C21.0656 27.4521 21.0848 26.9535 21.0177 26.5987C20.9314 26.0617 20.7204 25.7165 20.6054 25.9083Z" fill="#98272B"/>
<path d="M15.0342 26.9247C14.2671 27.2219 12.8096 27.4616 11.4192 27.5192L10 27.5767V32.7932V38H11.9178C12.9726 38 13.8356 37.9712 13.8356 37.9425C13.8356 37.9041 13.711 37.6164 13.5479 37.2904C13.3945 36.974 13.2411 36.4753 13.2027 36.1877C13.1356 35.6699 13.1356 35.6699 13.3658 35.737C15.0247 36.2548 16.0027 36.1397 16.3863 35.3918C16.463 35.2384 16.5973 34.7397 16.674 34.2795C16.9329 32.7836 17.211 32.074 17.7767 31.4699C18.3233 30.8945 18.5055 29.6959 18.1986 28.7849C17.9973 28.2 17.4123 27.4616 16.8945 27.1356C16.3479 26.8 15.5904 26.7137 15.0342 26.9247Z" fill="#98272B"/>
<path d="M22.6961 29.0343C22.6194 29.3603 22.8783 30.8754 23.0893 31.3261C23.1851 31.5178 23.655 32.1028 24.144 32.6302C25.1797 33.7329 25.5345 34.385 25.6112 35.2767C25.6687 36.0822 25.5728 36.5041 25.2468 36.8877C24.9016 37.2809 24.892 37.3288 25.1892 37.3288C25.9372 37.3288 26.6084 35.9384 26.3975 34.8452C26.1961 33.7617 25.9756 33.4452 24.729 32.4192C23.9619 31.7863 23.492 31.3261 23.3482 31.0672C23.1276 30.6548 22.9454 29.7918 22.9454 29.1493C22.9454 28.7466 22.792 28.6699 22.6961 29.0343Z" fill="#98272B"/>
<path d="M19.1765 32.0068C19.0902 32.0836 18.9367 32.4384 18.8217 32.7836C18.4861 33.7808 18.5724 34.5767 19.1477 35.7562C19.4258 36.3315 19.6272 36.926 19.7039 37.3384L19.8094 38H20.3176H20.8354V37.6644C20.8354 37.2712 20.7011 36.9836 20.0874 36.0342C19.4354 35.0466 19.2148 34.4329 19.2052 33.6562C19.2052 33.2918 19.2724 32.8603 19.3491 32.6589C19.5888 32.0836 19.4833 31.6904 19.1765 32.0068Z" fill="#98272B"/>
</g>
<defs>
<clipPath id="clip0_15_3363">
<rect width="28" height="28" fill="white" transform="translate(10 10)"/>
</clipPath>
</defs>
</svg>
