<svg width="48" height="48" viewBox="0 0 48 48" fill="none" xmlns="http://www.w3.org/2000/svg">
<g clip-path="url(#clip0_15_3179)">
<path d="M17.1057 4.93579H17.3026C18.1262 7.01762 19.2788 8.94578 20.1264 11.0156C17.329 10.5258 14.4908 10.9196 11.6742 10.7851C10.2863 10.7227 8.91284 10.3769 7.68103 9.72376C8.92724 8.82812 10.4208 8.39831 11.751 7.65634C13.5231 6.72468 15.4417 6.05955 17.1057 4.93579ZM4 14.627C6.91505 15.2489 9.93334 15.2345 12.822 15.9981C14.6925 16.3895 16.5918 17.1987 17.8068 18.7306C18.52 19.7439 18.7961 21.0094 18.7481 22.2364C16.575 23.3193 14.3515 24.3014 12.1496 25.3291C11.3452 25.6965 10.5817 26.2704 9.65961 26.2488C7.85631 22.3348 5.79609 18.5409 4 14.627Z" fill="#DE4019"/>
<path d="M28.3456 6.89273C28.4633 6.46772 28.9675 6.71984 29.2389 6.81109C34.1373 8.73925 38.9901 10.7851 43.8981 12.6868C44.1599 12.9942 43.8429 13.3976 43.7733 13.7241C41.8283 18.3824 39.9097 23.0527 38.0632 27.7519C37.9696 27.9224 37.8591 28.0856 37.7367 28.2369C37.5326 27.4781 37.5302 26.6785 37.2949 25.9294C36.7066 24.2822 35.5972 22.7574 33.9932 21.9794C32.6173 21.139 30.9725 21.0862 29.443 20.7332C29.9568 19.8544 30.6916 19.1316 31.4047 18.416C31.7577 18.0126 32.3292 18.0751 32.8094 18.003C32.783 17.8806 32.7302 17.6357 32.7062 17.5108C31.9642 17.201 31.2655 16.6608 30.4491 16.6079C28.8018 17.0546 27.1978 17.6789 25.5362 18.0847C25.2937 17.3019 24.9719 16.5431 24.7822 15.7435C25.894 12.7684 27.1546 9.84139 28.3456 6.89273Z" fill="#0084C4"/>
<path d="M23.2888 26.5874C23.4665 26.148 24.014 26.2056 24.4006 26.1648C25.606 26.1552 26.8882 26.0039 28.0048 26.5562C30.4396 27.5767 32.1444 29.8362 33.016 32.2662C29.6688 35.8032 26.5136 39.5154 23.1784 43.0644C22.2011 42.5001 21.4711 41.6236 20.6019 40.9201C17.4227 38.0147 14.1787 35.1812 11.0139 32.259C11.8688 31.1328 12.8869 30.1411 13.8401 29.099C14.8943 30.0523 16.0949 30.9744 17.5428 31.1881C18.8922 31.3465 20.2609 31.3105 21.6128 31.1857C22.1603 29.6489 22.6597 28.0905 23.2888 26.5874Z" fill="#68B92E"/>
</g>
<defs>
<clipPath id="clip0_15_3179">
<rect width="40" height="40" fill="white" transform="translate(4 4)"/>
</clipPath>
</defs>
</svg>
