<svg width="48" height="48" viewBox="0 0 48 48" fill="none" xmlns="http://www.w3.org/2000/svg">
<g clip-path="url(#clip0_15_3199)">
<path d="M18.4846 8.74866H18.6421C19.301 10.4141 20.223 11.9566 20.9011 13.6125C18.6632 13.2206 16.3926 13.5357 14.1394 13.4281C13.0291 13.3782 11.9303 13.1015 10.9448 12.579C11.9418 11.8625 13.1366 11.5187 14.2008 10.9251C15.6185 10.1798 17.1533 9.64766 18.4846 8.74866ZM8 16.5016C10.332 16.9991 12.7467 16.9876 15.0576 17.5985C16.554 17.9116 18.0735 18.559 19.0455 19.7845C19.616 20.5952 19.8369 21.6075 19.7985 22.5891C18.06 23.4555 16.2812 24.2411 14.5197 25.0633C13.8762 25.3572 13.2653 25.8163 12.5277 25.799C11.085 22.6679 9.43687 19.6328 8 16.5016Z" fill="#DE4019"/>
<path d="M27.4765 10.3142C27.5706 9.9742 27.974 10.1759 28.1911 10.2489C32.1098 11.7914 35.9921 13.4281 39.9185 14.9495C40.1279 15.1953 39.8743 15.5181 39.8186 15.7793C38.2626 19.506 36.7278 23.2422 35.2506 27.0015C35.1757 27.1379 35.0873 27.2685 34.9893 27.3896C34.8261 26.7825 34.8241 26.1429 34.6359 25.5435C34.1652 24.2257 33.2778 23.0059 31.9946 22.3836C30.8939 21.7112 29.578 21.669 28.3544 21.3866C28.7655 20.6835 29.3533 20.1053 29.9238 19.5329C30.2062 19.2101 30.6634 19.2601 31.0475 19.2025C31.0264 19.1045 30.9842 18.9086 30.9649 18.8087C30.3714 18.5609 29.8124 18.1286 29.1592 18.0864C27.8415 18.4437 26.5583 18.9431 25.229 19.2678C25.035 18.6415 24.7776 18.0345 24.6258 17.3948C25.5152 15.0148 26.5237 12.6731 27.4765 10.3142Z" fill="#0084C4"/>
<path d="M23.4311 26.0699C23.5732 25.7184 24.0112 25.7645 24.3205 25.7318C25.2848 25.7242 26.3106 25.6031 27.2038 26.045C29.1517 26.8614 30.5155 28.669 31.2128 30.613C28.535 33.4425 26.0109 36.4123 23.3427 39.2515C22.5609 38.8001 21.9769 38.0989 21.2815 37.5361C18.7382 35.2117 16.143 32.945 13.6112 30.6072C14.295 29.7063 15.1095 28.9129 15.8721 28.0792C16.7154 28.8419 17.6759 29.5795 18.8342 29.7505C19.9138 29.8773 21.0087 29.8484 22.0902 29.7486C22.5282 28.5191 22.9278 27.2724 23.4311 26.0699Z" fill="#68B92E"/>
</g>
<defs>
<clipPath id="clip0_15_3199">
<rect width="32" height="32" fill="white" transform="translate(8 8)"/>
</clipPath>
</defs>
</svg>
