<svg width="48" height="48" viewBox="0 0 48 48" fill="none" xmlns="http://www.w3.org/2000/svg">
<g clip-path="url(#clip0_14_1878)">
<path d="M24 44C35.0457 44 44 35.0457 44 24C44 12.9543 35.0457 4 24 4C12.9543 4 4 12.9543 4 24C4 35.0457 12.9543 44 24 44Z" fill="#0A2885"/>
<path d="M33.3117 28.265C31.84 28.265 30.8283 27.185 30.8283 25.6417C30.8283 24.1217 31.8617 23.0417 33.3117 23.0417C34.7617 23.0417 35.7967 24.1217 35.7967 25.6633C35.7967 27.1583 34.74 28.2633 33.3133 28.2633L33.3117 28.265ZM33.3617 19.6783C29.5867 19.6783 27.075 22.0733 27.075 25.6383C27.075 29.2967 29.4933 31.645 33.29 31.645C37.0633 31.645 39.5483 29.2967 39.5483 25.6617C39.5483 22.0733 37.09 19.6783 33.36 19.6783H33.3617ZM23.6333 14.4533C22.2067 14.4533 21.3083 15.2583 21.3083 16.525C21.3083 17.815 22.2283 18.62 23.7 18.62C25.1283 18.62 26.025 17.815 26.025 16.525C26.025 15.2367 25.105 14.4533 23.6333 14.4533ZM23.8867 19.7933H23.425C22.3 19.7933 21.4467 20.3217 21.4467 21.935V29.3017C21.4467 30.935 22.2733 31.4417 23.4733 31.4417H23.9317C25.06 31.4417 25.865 30.8917 25.865 29.3V21.935C25.865 20.2767 25.0817 19.7933 23.8867 19.7933ZM17.86 16.32H17.1933C15.9267 16.32 15.2367 17.0367 15.2367 18.4617V25.345C15.2367 27.1167 14.6367 27.7383 13.2367 27.7383C12.1333 27.7383 11.235 27.255 10.52 26.3783C10.45 26.2883 9 26.9767 9 28.6833C9 30.5233 10.725 31.6517 13.925 31.6517C17.815 31.6517 19.8633 29.6967 19.8633 25.415V18.4583C19.8633 17.0317 19.175 16.32 17.86 16.32Z" fill="white"/>
</g>
<defs>
<clipPath id="clip0_14_1878">
<rect width="40" height="40" fill="white" transform="translate(4 4)"/>
</clipPath>
</defs>
</svg>
