<svg width="48" height="48" viewBox="0 0 48 48" fill="none" xmlns="http://www.w3.org/2000/svg">
<g clip-path="url(#clip0_19_1842)">
<rect width="32" height="32" transform="translate(8 8)" fill="#853A93"/>
<path fill-rule="evenodd" clip-rule="evenodd" d="M33.8917 29.3585L31.7634 25.8981L29.6762 29.3585H33.8917ZM33.8877 18.6264H29.6502L31.7619 22.0175L33.8877 18.6264ZM23.9668 13.2402L21.8673 16.6821H26.0835L23.9668 13.2402ZM14.0913 18.6264L16.1866 22.0385L18.2712 18.6264H14.0913ZM14.089 29.3875L18.2748 29.3618L16.1872 25.9319L14.089 29.3875ZM10.5091 16.6821H19.5024L23.7327 9.77034L24.0001 9.33335L24.2676 9.77034L28.4977 16.6821H37.4909L37.223 17.117L32.9937 23.9839L37.2242 30.9001L37.4902 31.335H28.4975L24.2676 38.2307L24.0001 38.6667L23.7327 38.2307L19.5026 31.335H10.51L10.7758 30.9001L15.0061 23.9839L10.7769 17.117L10.5091 16.6821ZM20.6793 18.6913L17.2717 23.9856L20.6793 29.3261H27.3204L30.7283 23.9856L27.3204 18.6913H20.6793ZM23.9968 34.748L26.0839 31.335H21.8716L23.9968 34.748ZM23.7558 21.7316C24.4197 21.7316 25.0236 21.9868 25.4612 22.3986V22.3975C25.898 22.808 26.1693 23.3755 26.1693 24.0005C26.1693 24.6245 25.898 25.1915 25.4612 25.6025V25.6036C25.0246 26.0142 24.4205 26.2693 23.7558 26.2693C23.0912 26.2693 22.4875 26.0142 22.0508 25.6036H22.0519C21.614 25.192 21.3424 24.6244 21.3424 24.0004C21.3424 23.377 21.6133 22.8099 22.0506 22.3985C22.0509 22.3981 22.0518 22.3973 22.0518 22.3973C22.4893 21.9862 23.0928 21.7316 23.7558 21.7316Z" fill="white"/>
</g>
<defs>
<clipPath id="clip0_19_1842">
<rect width="32" height="32" fill="white" transform="translate(8 8)"/>
</clipPath>
</defs>
</svg>
