<svg width="48" height="48" viewBox="0 0 48 48" fill="none" xmlns="http://www.w3.org/2000/svg">
<g clip-path="url(#clip0_19_1036)">
<rect width="40" height="40" transform="translate(4 4)" fill="#853A93"/>
<path fill-rule="evenodd" clip-rule="evenodd" d="M36.3646 30.6981L33.7043 26.3726L31.0952 30.6981H36.3646ZM36.3595 17.283H31.0627L33.7023 21.5218L36.3595 17.283ZM23.9585 10.5502L21.3341 14.8525H26.6044L23.9585 10.5502ZM11.6141 17.283L14.2332 21.548L16.839 17.283H11.6141ZM11.6112 30.7344L16.8435 30.7022L14.234 26.4148L11.6112 30.7344ZM7.13635 14.8525H18.378L23.6659 6.21288L24.0001 5.66665L24.3344 6.21288L29.6221 14.8525H40.8636L40.5287 15.3962L35.2421 23.9799L40.5302 32.6251L40.8627 33.1687H29.6219L24.3344 41.7883L24.0001 42.3333L23.6659 41.7883L18.3782 33.1687H7.13744L7.46971 32.6251L12.7576 23.9799L7.47116 15.3962L7.13635 14.8525ZM19.8492 17.3641L15.5896 23.982L19.8492 30.6575H28.1505L32.4103 23.982L28.1505 17.3641H19.8492ZM23.9959 37.435L26.6049 33.1687H21.3395L23.9959 37.435ZM23.6947 21.1645C24.5246 21.1645 25.2794 21.4835 25.8265 21.9982V21.9968C26.3725 22.51 26.7116 23.2193 26.7116 24.0006C26.7116 24.7806 26.3725 25.4893 25.8265 26.003V26.0045C25.2807 26.5178 24.5256 26.8366 23.6947 26.8366C22.8639 26.8366 22.1093 26.5178 21.5635 26.0045H21.5649C21.0174 25.49 20.6779 24.7805 20.6779 24.0005C20.6779 23.2212 21.0166 22.5123 21.5632 21.9981C21.5637 21.9976 21.5647 21.9966 21.5647 21.9966C22.1116 21.4827 22.866 21.1645 23.6947 21.1645Z" fill="white"/>
</g>
<defs>
<clipPath id="clip0_19_1036">
<rect width="40" height="40" fill="white" transform="translate(4 4)"/>
</clipPath>
</defs>
</svg>
