<svg width="48" height="48" viewBox="0 0 48 48" fill="none" xmlns="http://www.w3.org/2000/svg">
<path d="M32.4333 39.7878C34.3715 39.762 36.2063 39.0066 37.5372 37.6506C38.894 36.2947 39.6499 34.461 39.6499 32.5497V15.0776C39.6499 13.1405 38.894 11.3068 37.5631 9.92505C36.2063 8.56912 34.3715 7.78784 32.4333 7.78784H14.8665C12.9283 7.81367 11.0935 8.56912 9.76256 9.92505C8.4058 11.3068 7.6499 13.1405 7.6499 15.0776V32.5756C7.67575 36.5465 10.8932 39.762 14.8665 39.7878" fill="#E31E25"/>
<path d="M27.4585 24.7822C26.7801 27.0421 27.8849 29.3085 30.2237 28.3981C29.5453 30.0316 28.4147 32.4723 28.4147 35.0098C28.4147 35.0098 28.4147 36.7209 29.6681 37.1471C29.6681 37.1471 31.4254 37.5732 31.0506 36.0171C30.7728 35.0357 30.7018 34.0349 30.8245 33.0276C31.2509 30.942 31.9035 28.9017 32.7627 26.9453C32.7627 26.9453 35.4504 21.3343 37.0074 18.7257C37.0074 18.7257 37.66 17.3892 36.3291 17.3892C35.9285 17.3892 35.5473 17.5893 35.3018 17.9186L31.5029 24.6789C30.9279 25.7378 30.3723 26.0607 29.9459 26.0607C28.9897 26.0607 29.19 24.5304 29.345 23.9751C29.7714 22.0897 30.4498 20.2818 31.3543 18.545C32.0327 17.0663 30.6759 16.9372 30.6759 16.9372C29.8167 16.7112 29.1641 18.1188 29.1641 18.1188L27.6588 21.1858C26.6767 22.8968 25.5978 24.5304 24.4413 26.1123C24.4413 26.1123 24.241 26.3642 24.086 26.2673C23.9374 26.1382 24.0149 25.8864 24.0149 25.8864C24.2669 23.8008 24.6933 21.7411 25.2683 19.7007C25.2941 19.578 25.32 19.4747 25.32 19.3521C25.3458 19.0744 25.2683 18.7968 25.0939 18.5966C24.9194 18.3706 24.6674 18.2479 24.3896 18.2479C23.7113 18.1705 23.3882 18.4933 22.7809 19.2229C21.45 20.8565 19.893 23.323 19.1371 24.4271C19.0595 24.5563 18.9109 24.5304 18.9109 24.3561C18.9109 23.8525 20.6683 18.4223 20.6683 18.4223C20.6683 18.4223 20.875 17.6668 20.2677 17.415C20.2677 17.415 19.3373 16.8404 18.5879 17.9703L14.9634 22.8968C14.6921 23.2713 14.537 23.1487 14.537 23.1487V22.8194L15.1185 19.6039C15.5707 17.1374 14.7115 17.0147 14.1623 16.9114C13.7617 16.9114 13.3289 17.0405 12.98 17.2665C11.8494 17.8153 10.9965 20.0558 10.9965 20.0558C10.9965 20.0558 10.7446 20.8565 11.2937 21.1858C11.4746 21.2891 11.6749 21.3601 11.8752 21.3343C12.6763 21.2891 12.8314 19.804 13.4064 19.804C13.5098 19.804 13.5098 19.9267 13.5098 19.9525L11.6491 27.7717C11.5199 28.2237 11.7201 28.7015 12.1013 28.9533C12.3533 29.1019 12.6311 29.1277 12.9025 29.0825C13.1544 29.005 13.3806 28.8307 13.5356 28.6047L14.214 27.5458C15.1896 25.8089 16.9986 23.323 17.1795 23.323C17.2505 23.323 17.2764 23.323 17.2764 23.4005L16.598 27.9977C16.5269 28.3981 16.7531 28.8307 17.1278 29.005C17.4767 29.1277 17.8578 29.1019 18.1809 28.9275C18.5621 28.624 18.8851 28.2496 19.1112 27.8234C19.4924 27.2165 21.3014 25.0857 22.4062 23.1228C22.4837 22.9937 22.5548 23.1228 22.5289 23.2003C22.3028 24.227 22.1284 26.9711 22.1025 27.6491C22.0509 28.9792 23.0846 29.1277 23.1104 29.1277C23.7888 29.1793 24.4413 28.8759 24.816 28.327" fill="white"/>
</svg>
