<svg width="48" height="48" viewBox="0 0 48 48" fill="none" xmlns="http://www.w3.org/2000/svg">
<path d="M34.6291 43.7878C37.0519 43.7556 39.3454 42.8112 41.0091 41.1163C42.705 39.4214 43.6499 37.1292 43.6499 34.7402V12.9C43.6499 10.4787 42.705 8.18655 41.0414 6.45935C39.3454 4.76444 37.0519 3.78784 34.6291 3.78784H12.6707C10.2479 3.82013 7.95436 4.76444 6.29072 6.45935C4.59478 8.18655 3.6499 10.4787 3.6499 12.9V34.7725C3.68221 39.7362 7.70401 43.7556 12.6707 43.7878" fill="#E31E25"/>
<path d="M28.4107 25.0307C27.5627 27.8556 28.9437 30.6885 31.8672 29.5505C31.0192 31.5925 29.6059 34.6433 29.6059 37.8152C29.6059 37.8152 29.6059 39.954 31.1726 40.4867C31.1726 40.4867 33.3693 41.0194 32.9009 39.0743C32.5536 37.8475 32.4648 36.5965 32.6182 35.3374C33.1512 32.7305 33.9669 30.18 35.041 27.7345C35.041 27.7345 38.4006 20.7208 40.3469 17.4601C40.3469 17.4601 41.1625 15.7894 39.4989 15.7894C38.9982 15.7894 38.5217 16.0396 38.2148 16.4512L33.4662 24.9016C32.7474 26.2252 32.0529 26.6288 31.5199 26.6288C30.3247 26.6288 30.575 24.7159 30.7688 24.0218C31.3018 21.6651 32.1498 19.4052 33.2804 17.2341C34.1284 15.3858 32.4325 15.2244 32.4325 15.2244C31.3584 14.9419 30.5427 16.7014 30.5427 16.7014L28.661 20.5352C27.4335 22.674 26.0848 24.7159 24.6392 26.6933C24.6392 26.6933 24.3889 27.0081 24.195 26.8871C24.0093 26.7256 24.1062 26.4109 24.1062 26.4109C24.4212 23.8039 24.9542 21.2293 25.6729 18.6788C25.7052 18.5255 25.7375 18.3963 25.7375 18.243C25.7698 17.8959 25.6729 17.5489 25.4549 17.2987C25.2368 17.0162 24.9219 16.8628 24.5746 16.8628C23.7266 16.766 23.3228 17.1695 22.5637 18.0816C20.9001 20.1235 18.9538 23.2067 18.0089 24.5868C17.912 24.7482 17.7262 24.7159 17.7262 24.498C17.7262 23.8685 19.9229 17.0808 19.9229 17.0808C19.9229 17.0808 20.1813 16.1364 19.4222 15.8217C19.4222 15.8217 18.2592 15.1034 17.3224 16.5158L12.7918 22.674C12.4527 23.1421 12.2588 22.9887 12.2588 22.9887V22.5771L12.9857 18.5578C13.551 15.4746 12.4769 15.3213 11.7904 15.1921C11.2897 15.1921 10.7486 15.3536 10.3125 15.636C8.89925 16.3221 7.83323 19.1227 7.83323 19.1227C7.83323 19.1227 7.51827 20.1235 8.20472 20.5352C8.43085 20.6643 8.6812 20.7531 8.93155 20.7208C9.93297 20.6643 10.1268 18.808 10.8455 18.808C10.9748 18.808 10.9748 18.9613 10.9748 18.9936L8.6489 28.7676C8.48738 29.3326 8.73773 29.9298 9.21421 30.2446C9.52917 30.4302 9.87644 30.4625 10.2156 30.406C10.5306 30.3092 10.8132 30.0913 11.0071 29.8088L11.855 28.4851C13.0745 26.314 15.3358 23.2067 15.5619 23.2067C15.6507 23.2067 15.683 23.2067 15.683 23.3035L14.8351 29.0501C14.7462 29.5505 15.0289 30.0913 15.4973 30.3092C15.9334 30.4625 16.4099 30.4302 16.8136 30.2123C17.2901 29.833 17.6939 29.3649 17.9766 28.8322C18.4531 28.0735 20.7143 25.4101 22.0953 22.9565C22.1922 22.795 22.281 22.9565 22.2487 23.0533C21.9661 24.3366 21.748 27.7668 21.7157 28.6143C21.6511 30.2769 22.9433 30.4625 22.9756 30.4625C23.8235 30.5271 24.6392 30.1477 25.1076 29.4617" fill="white"/>
</svg>
