<svg width="48" height="48" viewBox="0 0 48 48" fill="none" xmlns="http://www.w3.org/2000/svg">
<g clip-path="url(#clip0_9_300)">
<path d="M40.2667 21.3529C40.2661 21.0979 40.19 20.8488 40.0479 20.637C39.9058 20.4253 39.7042 20.2604 39.4684 20.1632C39.2327 20.066 38.9734 20.0408 38.7234 20.0909C38.4733 20.141 38.2438 20.2641 38.0636 20.4446C37.8835 20.6251 37.7609 20.8549 37.7114 21.1051C37.6619 21.3552 37.6876 21.6144 37.7853 21.85C37.883 22.0855 38.0483 22.2868 38.2604 22.4284C38.4725 22.57 38.7217 22.6456 38.9767 22.6456C39.1465 22.646 39.3146 22.6128 39.4715 22.5479C39.6283 22.483 39.7708 22.3878 39.8907 22.2676C40.0106 22.1475 40.1055 22.0048 40.17 21.8478C40.2346 21.6908 40.2674 21.5226 40.2667 21.3529ZM34.22 13.8484L32.2613 33.5526C32.7006 33.6058 33.3805 33.5526 33.5008 32.8587C33.6883 31.801 35.3056 15.3034 35.3056 15.3034C35.3056 15.3034 35.6022 14.5255 34.206 13.8484H34.22ZM38.7445 24.081C38.7445 24.081 37.6253 24.4084 36.1702 24.6575L35.2609 33.4183C35.2609 33.4183 35.1377 35.2847 33.7667 35.2847H32.1046L32.085 35.4749C32.085 35.4749 31.8779 36.7593 30.7587 36.9272C29.6395 37.095 7.97372 36.9272 7.97372 36.9272C7.97372 36.9272 7.05874 36.7593 7.01957 35.903C6.9804 35.0468 7.01957 17.3936 7.01957 17.3936C7.12563 17.0461 7.33152 16.7375 7.61162 16.5062C7.89172 16.2748 8.23366 16.131 8.5949 16.0925C9.09297 16.0281 12.848 15.4097 17.269 14.6738L18.7464 11.8757C18.8879 11.6208 19.0933 11.4072 19.3424 11.2558C19.5915 11.1045 19.8758 11.0205 20.1671 11.0124C20.4585 11.0042 20.747 11.072 21.0042 11.2091C21.2614 11.3463 21.4785 11.5481 21.6341 11.7946C21.3602 11.4973 20.9848 11.3136 20.582 11.2797H20.54H20.4533H20.4309C20.1319 11.279 19.8383 11.3599 19.5819 11.5138C19.3255 11.6676 19.116 11.8885 18.9759 12.1527L8.09124 32.8251C7.90575 33.2085 7.8764 33.6489 8.00938 34.0534C8.14235 34.458 8.42726 34.7951 8.804 34.9936C9.18075 35.1922 9.61988 35.2366 10.0288 35.1176C10.4377 34.9986 10.7843 34.7254 10.9957 34.3557L18.8304 19.4754V31.7646C18.8319 32.1944 19.0034 32.606 19.3075 32.9096C19.6116 33.2132 20.0236 33.384 20.4533 33.3848C21.4634 33.3848 22.1321 32.1228 22.1881 32.0081L26.4972 23.6949V30.886C26.4972 31.3157 26.6679 31.7278 26.9717 32.0316C27.2755 32.3355 27.6876 32.5061 28.1173 32.5061C28.547 32.5061 28.959 32.3355 29.2629 32.0316C29.5667 31.7278 29.7374 31.3157 29.7374 30.886V17.0326C29.7392 16.6552 29.6089 16.2891 29.3692 15.9976C29.1295 15.7061 28.7953 15.5077 28.4247 15.4366C28.054 15.3655 27.6702 15.4263 27.3397 15.6084C27.0091 15.7906 26.7527 16.0825 26.6147 16.4338L26.5895 16.473L22.3616 24.6351L21.3235 26.8176L22.0734 24.1062V13.8708C27.65 12.939 32.8321 12.066 32.8321 12.066C32.8321 12.066 34.2032 11.733 34.2871 13.1852L34.2256 13.798C34.6956 13.6973 36.9117 13.3139 37.0628 15.1971L36.7522 19.674C36.7522 19.674 37.1328 19.9538 38.7865 19.3047C38.7865 19.3047 41.1117 18.3813 41.3607 20.6869C41.3607 20.6869 41.8112 23.0485 38.7445 24.095V24.081ZM39.6959 21.3613C39.6959 21.5035 39.6537 21.6425 39.5747 21.7608C39.4956 21.8791 39.3833 21.9712 39.2519 22.0257C39.1205 22.0801 38.9759 22.0943 38.8364 22.0666C38.697 22.0388 38.5688 21.9703 38.4682 21.8698C38.3677 21.7692 38.2992 21.6411 38.2714 21.5016C38.2437 21.3621 38.2579 21.2175 38.3124 21.0861C38.3668 20.9547 38.459 20.8424 38.5772 20.7634C38.6955 20.6844 38.8345 20.6422 38.9767 20.6422C39.166 20.6422 39.3477 20.7168 39.4823 20.8498C39.6169 20.9829 39.6936 21.1636 39.6959 21.3529V21.3613Z" fill="#2172B9"/>
</g>
<defs>
<clipPath id="clip0_9_300">
<rect width="34.3831" height="26" fill="white" transform="translate(7 11)"/>
</clipPath>
</defs>
</svg>
