<svg width="48" height="48" viewBox="0 0 48 48" fill="none" xmlns="http://www.w3.org/2000/svg">
<g clip-path="url(#clip0_8_385)">
<path d="M41.766 21.0417C41.7654 20.7599 41.6813 20.4846 41.5243 20.2505C41.3673 20.0165 41.1444 19.8343 40.8839 19.7268C40.6233 19.6194 40.3368 19.5916 40.0604 19.647C39.7841 19.7023 39.5303 19.8384 39.3313 20.0379C39.1322 20.2374 38.9967 20.4914 38.942 20.7678C38.8872 21.0443 38.9156 21.3308 39.0236 21.5911C39.1316 21.8514 39.3144 22.0739 39.5487 22.2304C39.7831 22.3869 40.0586 22.4704 40.3404 22.4704C40.528 22.4709 40.7138 22.4342 40.8872 22.3625C41.0605 22.2908 41.218 22.1855 41.3505 22.0527C41.483 21.9199 41.5879 21.7622 41.6593 21.5887C41.7306 21.4152 41.7669 21.2293 41.766 21.0417ZM35.0833 12.7478L32.9186 34.5248C33.4041 34.5836 34.1555 34.5248 34.2885 33.7579C34.4957 32.5889 36.2831 14.3559 36.2831 14.3559C36.2831 14.3559 36.6109 13.4962 35.0678 12.7478H35.0833ZM40.0838 24.0569C40.0838 24.0569 38.8468 24.4187 37.2387 24.6939L36.2337 34.3764C36.2337 34.3764 36.0976 36.439 34.5823 36.439H32.7454L32.7237 36.6493C32.7237 36.6493 32.4949 38.0688 31.2579 38.2543C30.0209 38.4398 6.07611 38.2543 6.07611 38.2543C6.07611 38.2543 5.06488 38.0688 5.02158 37.1225C4.97829 36.1762 5.02158 16.6659 5.02158 16.6659C5.1388 16.2819 5.36635 15.9408 5.67592 15.6852C5.98548 15.4295 6.36339 15.2705 6.76263 15.2279C7.31309 15.1568 11.4632 14.4734 16.3492 13.6601L17.982 10.5676C18.1384 10.2859 18.3654 10.0498 18.6407 9.88253C18.916 9.71522 19.2301 9.62248 19.5522 9.61343C19.8742 9.60438 20.1931 9.67934 20.4773 9.83092C20.7616 9.9825 21.0015 10.2055 21.1734 10.4779C20.8707 10.1494 20.4558 9.94635 20.0107 9.90892H19.9643H19.8684H19.8437C19.5132 9.90813 19.1888 9.99757 18.9054 10.1676C18.622 10.3376 18.3904 10.5818 18.2356 10.8738L6.20599 33.7208C6.00099 34.1444 5.96855 34.6312 6.11551 35.0783C6.26248 35.5254 6.57735 35.898 6.99373 36.1174C7.41011 36.3368 7.89543 36.3859 8.34733 36.2544C8.79923 36.1228 9.18237 35.8209 9.41595 35.4123L18.0748 18.9667V32.5487C18.0764 33.0236 18.266 33.4786 18.6021 33.8141C18.9382 34.1496 19.3935 34.3384 19.8684 34.3393C20.9848 34.3393 21.7239 32.9446 21.7857 32.8178L26.5481 23.6301V31.5777C26.5481 32.0526 26.7368 32.508 27.0725 32.8438C27.4083 33.1796 27.8638 33.3682 28.3386 33.3682C28.8135 33.3682 29.2689 33.1796 29.6047 32.8438C29.9405 32.508 30.1292 32.0526 30.1292 31.5777V16.267C30.1311 15.8499 29.9872 15.4452 29.7222 15.1231C29.4573 14.801 29.088 14.5816 28.6784 14.5031C28.2687 14.4245 27.8445 14.4917 27.4792 14.693C27.1139 14.8943 26.8305 15.217 26.678 15.6052L26.6502 15.6485L21.9775 24.6692L20.8302 27.0813L21.659 24.0847V12.7725C27.8222 11.7427 33.5494 10.7779 33.5494 10.7779C33.5494 10.7779 35.0647 10.4099 35.1575 12.0149L35.0895 12.6921C35.609 12.5808 38.0582 12.1571 38.2252 14.2383L37.8819 19.1863C37.8819 19.1863 38.3025 19.4955 40.1301 18.7781C40.1301 18.7781 42.7 17.7576 42.9752 20.3057C42.9752 20.3057 43.4731 22.9158 40.0838 24.0723V24.0569ZM41.1352 21.051C41.1352 21.2082 41.0886 21.3619 41.0013 21.4926C40.9139 21.6233 40.7898 21.7251 40.6446 21.7853C40.4994 21.8454 40.3396 21.8612 40.1854 21.8305C40.0312 21.7998 39.8896 21.7241 39.7785 21.613C39.6673 21.5018 39.5916 21.3602 39.5609 21.2061C39.5303 21.0519 39.546 20.8921 39.6062 20.7469C39.6663 20.6016 39.7682 20.4775 39.8989 20.3902C40.0296 20.3029 40.1832 20.2563 40.3404 20.2563C40.5496 20.2562 40.7504 20.3387 40.8992 20.4857C41.0479 20.6328 41.1327 20.8326 41.1352 21.0417V21.051Z" fill="#2172B9"/>
</g>
<defs>
<clipPath id="clip0_8_385">
<rect width="38" height="28.735" fill="white" transform="translate(5 9.60001)"/>
</clipPath>
</defs>
</svg>
