<svg width="48" height="48" viewBox="0 0 48 48" fill="none" xmlns="http://www.w3.org/2000/svg">
<path d="M21.9825 3.83327C18.4558 4.21287 15.4398 5.27378 12.6647 7.14254C4.32974 12.7196 1.40046 23.4553 5.7462 32.4974C8.26114 37.7533 13.0501 41.6855 18.6967 43.1552C20.5468 43.6418 21.6934 43.7781 23.7651 43.7781C25.8368 43.7781 26.9835 43.6418 28.8335 43.1552C36.6674 41.1209 42.5163 34.5024 43.6245 26.4142C43.8075 25.0905 43.7786 22.2289 43.5763 20.9052C42.2369 12.0967 35.3955 5.26405 26.6366 3.97927C25.4032 3.79434 23.0039 3.71648 21.9825 3.83327ZM25.3357 15.0459C25.4128 15.1724 25.9717 16.6129 26.5691 18.2578C27.1762 19.9124 27.6869 21.2556 27.7158 21.2556C27.7447 21.2556 28.2843 19.8638 28.9106 18.1605C29.5369 16.4669 30.0958 15.0167 30.144 14.9485C30.2789 14.7831 35.4244 14.7733 35.4244 14.9485C35.4244 15.0459 30.1729 29.3925 29.2671 31.7674L28.9106 32.692L26.2319 32.7212L23.5628 32.7407L23.6302 32.5266C23.6591 32.4 24.0349 31.3683 24.4492 30.2198C24.8732 29.0713 25.2105 28.0591 25.2105 27.9617C25.2105 27.8352 24.1602 24.9153 22.3583 20.0876C22.3101 19.9611 22.3005 19.9611 22.2234 20.0876C22.1752 20.1752 21.1538 22.9102 19.959 26.1708C18.7545 29.4412 17.7138 32.254 17.6464 32.4292L17.5115 32.7407H14.8135C12.8189 32.7407 12.1058 32.7115 12.1058 32.6239C12.1058 32.4098 18.5907 14.9777 18.6967 14.9096C18.7545 14.8707 20.2481 14.8317 22.0018 14.8317H25.2105L25.3357 15.0459Z" fill="black"/>
</svg>
