<svg width="48" height="48" viewBox="0 0 48 48" fill="none" xmlns="http://www.w3.org/2000/svg">
<rect width="48" height="48" fill="#FBED21"/>
<path d="M37.9826 4H10.0172V44H37.9826V4Z" fill="#FBED21"/>
<path fill-rule="evenodd" clip-rule="evenodd" d="M17.7782 39.0039C17.6683 38.9097 17.4012 38.7211 17.4169 38.4069C17.4169 38.2498 17.5269 38.1084 17.6211 38.0142C17.7311 37.9199 17.8882 37.9042 18.0453 37.9042C18.2496 37.9042 18.4224 37.9984 18.5638 38.187C18.7209 38.3755 18.8623 38.6269 18.9094 39.0196H19.3179L19.4593 39.3496H18.9723V41.8947L18.5638 41.6905V39.3339H18.061V41.8633L17.6368 41.6905V40.7793C17.6054 40.8107 17.5583 40.8264 17.5426 40.8264C17.5112 40.8421 17.4954 40.8578 17.4483 40.8578C17.354 40.8892 17.2755 40.8892 17.2127 40.8892C17.087 40.8892 16.8356 40.8107 16.6628 40.6693C16.4585 40.5122 16.3643 40.3394 16.3643 40.1823V39.3339H15.9558L15.7987 39.0039H17.7782ZM20.2763 41.4234L19.9306 41.7691L19.585 41.4077L19.9306 41.0621L20.2763 41.4234ZM17.6368 39.3339H16.7727V40.2137C16.7727 40.4965 16.867 40.6222 17.0555 40.6222C17.1341 40.6222 17.2284 40.6065 17.3383 40.5593C17.3855 40.5436 17.4326 40.5122 17.4954 40.4965C17.5426 40.4651 17.6054 40.4336 17.6368 40.4022V39.3339ZM18.0139 39.0196H18.7523C18.7209 38.7369 18.6109 38.564 18.4852 38.4226C18.3595 38.2812 18.2181 38.2341 18.0768 38.2341C17.8882 38.2498 17.7311 38.3598 17.7782 38.6897C17.8097 38.8311 17.9196 38.9568 18.0139 39.0196ZM23.8741 39.3339C24.2197 39.8052 24.0626 39.9466 23.8584 40.1194C23.8269 40.1823 23.7327 40.1665 23.7327 40.198C23.6698 40.1037 23.5913 40.0566 23.4813 40.088C23.2928 40.1194 23.1514 40.3394 23.1828 40.4493C23.2142 40.5279 23.2928 40.6693 23.4499 40.8735C23.5913 41.0464 23.9841 41.4548 24.4397 41.9733L24.5496 41.7219L24.1412 41.282C23.9841 41.1092 23.8898 41.0149 23.8741 40.9992C23.8269 40.9521 23.7798 40.8893 23.717 40.8107V40.795C23.717 40.7793 23.7327 40.7793 23.7484 40.7636C23.7641 40.7479 23.8112 40.7321 23.8741 40.685C23.9212 40.6536 23.9526 40.6222 23.9998 40.575L24.1097 40.4493C24.1883 40.5436 24.2983 40.6222 24.3925 40.6693C24.5025 40.7164 24.6125 40.7479 24.7225 40.7479C24.7539 40.7479 24.7539 40.7478 24.8167 40.7164C24.8796 40.7007 24.9267 40.685 24.9738 40.6693C25.021 40.6536 25.0524 40.6379 25.0681 40.6379V41.6905L25.508 41.879V39.3339H25.8379L25.6808 39.0039H20.4962L20.6533 39.3339H20.999V40.685C20.999 40.8421 21.0461 40.9835 21.1718 41.0464L22.7272 41.9419C22.8214 42.0047 22.8686 42.0519 22.8686 42.099C22.8686 42.1304 22.8529 42.1461 22.8372 42.1933C22.8214 42.2247 22.79 42.2561 22.7743 42.2875L23.0414 42.5389C23.1514 42.3661 23.2142 42.2561 23.2142 42.1933C23.2142 42.1304 23.1828 42.0833 23.1514 42.0361C23.12 41.989 23.0414 41.9262 22.9314 41.8633L21.5332 40.9521C21.5174 40.9364 21.5017 40.9207 21.486 40.8735C21.4703 40.8264 21.4703 40.795 21.4703 40.7479V39.3339H22.2244V40.5436C22.2244 40.6065 22.1773 40.6536 22.0673 40.6536L21.7688 40.6379L22.0516 40.905L22.2401 40.9521C22.2559 40.9521 22.2716 40.9521 22.303 40.9678C22.3187 40.9678 22.3344 40.9678 22.3658 40.9678H22.4287C22.5544 40.9678 22.6643 40.8892 22.6643 40.7479V39.3339H23.8741ZM24.1412 39.3339C24.2983 39.6481 24.3454 39.9937 24.1883 40.2922L24.3611 40.3865C24.4554 40.4336 24.5654 40.4493 24.6596 40.4493C24.691 40.4493 24.7225 40.4493 24.7696 40.4493C24.801 40.4493 24.7853 40.4179 24.8482 40.3865C24.9581 40.3394 25.0367 40.3079 25.0995 40.2451V39.3339H24.1412ZM29.0744 39.0196C28.9801 38.9254 28.9016 38.7211 28.8702 38.5955C28.8387 38.4541 28.8859 38.1713 29.043 38.0613C29.1529 37.967 29.3101 37.9042 29.4672 37.9042C29.6714 37.9042 29.8442 37.9984 29.9856 38.187C30.127 38.3755 30.237 38.6112 30.2841 39.0039H30.6926L30.8654 39.3339H30.4098V41.879L29.9542 41.6905V39.3339H29.3886V41.879L28.9801 41.6905V40.9835C28.8859 41.0935 28.8073 41.1249 28.7288 41.172C28.5874 41.2506 28.3674 41.2977 28.1789 41.2977C28.0532 41.2977 27.9275 41.282 27.8332 41.2506C27.7233 41.2035 27.5976 41.1406 27.5033 41.0464C27.3305 40.8735 27.2362 40.6222 27.2362 40.4179C27.2362 40.2765 27.3148 40.0723 27.4405 39.9466C27.5976 39.7738 27.9275 39.6638 28.1789 39.6795C28.336 39.6952 28.5402 39.7266 28.6816 39.8209C28.8073 39.8995 28.8702 39.9309 28.9801 40.088V39.3339H27.1105L26.9534 39.0039L29.0744 39.0196ZM28.5716 40.7793C28.6502 40.7479 28.6659 40.7164 28.713 40.6536C28.7602 40.5907 28.7916 40.5122 28.7916 40.4493C28.7916 40.2922 28.7445 40.1823 28.6502 40.088C28.5716 40.0251 28.4774 39.978 28.3831 39.978H28.226C28.1946 39.978 28.1632 39.978 28.0846 40.0094L28.5716 40.7793ZM27.8804 40.1508C27.8332 40.1823 27.8018 40.2137 27.739 40.3079C27.6761 40.4022 27.6447 40.4808 27.6447 40.5593C27.6447 40.685 27.6761 40.8264 27.7704 40.8892C27.8489 40.9364 27.9589 40.9835 28.0846 40.9835C28.1474 40.9835 28.2103 40.9835 28.226 40.9678L28.3831 40.8892L27.8804 40.1508ZM29.2786 39.0196H30.1584C30.127 38.7369 30.0485 38.5797 29.9228 38.4383C29.7971 38.2969 29.6557 38.2027 29.5143 38.2184C29.1687 38.2655 29.0744 38.7369 29.2786 39.0196ZM26.7806 41.4234L26.4507 41.7691L26.105 41.4077L26.435 41.0621L26.7806 41.4234Z" fill="#B31F31"/>
<path fill-rule="evenodd" clip-rule="evenodd" d="M26.0895 30.6929H25.9324L25.791 30.7243L25.6496 30.7558C25.571 30.7872 25.5082 30.8029 25.4453 30.8343C25.3825 30.8657 25.3197 30.8972 25.2568 30.9443C25.194 30.9914 25.1468 31.0228 25.084 31.0857C25.0369 31.1328 24.9897 31.1957 24.9426 31.2428C24.8955 31.3056 24.864 31.3528 24.8169 31.4156C24.7855 31.4785 24.7541 31.5413 24.7226 31.6042C24.6912 31.6827 24.6755 31.7455 24.6441 31.8084L24.6127 31.9498L24.597 32.1069V32.264L24.6127 32.4211L24.6441 32.5625C24.6598 32.6411 24.6912 32.7039 24.7226 32.7668C24.7541 32.8296 24.7855 32.8924 24.8169 32.9553C24.864 33.0181 24.8955 33.081 24.9426 33.1281C24.9897 33.1752 25.0369 33.2381 25.084 33.2852C25.1468 33.3324 25.194 33.3795 25.2568 33.4266C25.3197 33.4738 25.3825 33.5052 25.4453 33.5366C25.5082 33.568 25.5867 33.5837 25.6496 33.6152L25.791 33.6466L25.9324 33.678H26.0895H26.2466L26.388 33.6466C26.4666 33.6309 26.5294 33.6152 26.608 33.5837C26.6865 33.5523 26.7494 33.5209 26.8122 33.4895C26.875 33.458 26.9379 33.4109 27.0007 33.3795C27.0636 33.3324 27.1107 33.2852 27.1735 33.2381C27.2207 33.1752 27.2678 33.1281 27.3149 33.0653C27.3621 33.0024 27.3935 32.9396 27.4249 32.8767C27.4563 32.8139 27.4878 32.7353 27.5192 32.6725C27.5506 32.5939 27.5663 32.5311 27.582 32.4525L27.6135 32.2954V32.1383V31.9812L27.582 31.8398C27.5663 31.7613 27.5506 31.6984 27.5192 31.6199C27.4878 31.557 27.4563 31.4785 27.4249 31.4156C27.3935 31.3528 27.3464 31.2899 27.3149 31.2271C27.2678 31.1642 27.2207 31.1171 27.1735 31.07C27.1107 31.0228 27.0636 30.9757 27.0007 30.9286C26.9379 30.8814 26.875 30.85 26.8122 30.8029C26.7494 30.7715 26.6708 30.7401 26.608 30.7086C26.5451 30.6772 26.4666 30.6615 26.388 30.6458L26.2466 30.6144L26.0895 30.6929ZM16.333 20.2609L16.3644 19.8524L16.3959 19.5853L16.443 19.3182L16.4901 19.0511L16.553 18.7998L16.6315 18.5484L16.7101 18.297L16.8043 18.0456L16.8986 17.7943L17.0086 17.5586L17.1186 17.3229L17.2443 17.103L17.3856 16.883L17.527 16.6631L17.6842 16.4431L17.8413 16.2389L17.9984 16.0346L18.1712 15.8461L18.344 15.6576L18.5325 15.469L18.7211 15.2962L18.9253 15.1234L19.1296 14.9663L19.3495 14.8092L19.5695 14.6678L19.7894 14.5264L20.0094 14.4007L20.245 14.275L20.4807 14.165L20.7321 14.0551L20.9834 13.9608L21.3291 13.8351V12.3269H21.4234L21.6433 12.3111L21.8633 12.2797L22.0832 12.2483L22.2875 12.2012L22.4917 12.1383L22.6959 12.0755L22.8845 11.9969L23.073 11.9184L23.3087 11.8398L23.4972 11.7455L23.67 11.6356L23.8428 11.5256L24.0157 11.3999L24.1885 11.2742L24.3456 11.1328L24.5027 10.9914L24.6598 10.85L24.8012 10.7086L24.9426 10.5515L25.084 10.3944L25.2254 10.2373L25.3511 10.0645L25.6025 9.73455L25.8224 9.38891L26.0267 9.04327L26.1995 8.69763L26.278 8.52481L26.5922 8.10062L26.8908 7.70784L27.0479 7.51931L27.205 7.34649L27.3464 7.17367L27.5035 7.01656L27.6606 6.87516L27.8177 6.73377L27.9748 6.60808L28.1319 6.48239L28.289 6.37241L28.4461 6.26244L28.6032 6.16817L28.7761 6.08962L28.9489 6.01106L29.1217 5.93251L29.2945 5.86967L29.4831 5.80682L29.6716 5.74398L29.8758 5.69685L30.0801 5.64971L30.3 5.61829L30.52 5.58687L30.7556 5.55545L31.007 5.52403L31.5098 5.4926C31.7454 5.47689 31.9811 5.47689 32.2168 5.46118V9.01185L32.0596 8.98043L31.9025 8.96472L31.7454 8.94901H31.5883H31.4469L31.3055 8.96472L31.1641 9.01185L31.0227 9.04327L30.8813 9.07469L30.7556 9.12183L30.6142 9.16896L30.4886 9.21609L30.3629 9.27893L30.2529 9.34178L30.1429 9.40462L30.0172 9.48318L29.9072 9.56173L29.703 9.73455L29.5145 9.92308L29.3259 10.1116L29.1688 10.3159L29.0117 10.5358L28.8703 10.7558L28.7604 10.9914C28.5404 11.3842 28.3362 11.777 28.1162 12.1697C28.0377 12.2954 27.9591 12.4211 27.8648 12.5625C27.802 12.6568 27.7234 12.751 27.6606 12.8296C27.582 12.9239 27.5035 13.0181 27.4249 13.0967L27.2678 13.2695C27.1735 13.3481 27.0793 13.4266 26.985 13.5052L26.7808 13.6466L26.5608 13.788L26.4351 13.8508L26.0738 14.0393L26.5451 14.2593L26.7651 14.3693L26.985 14.495L27.205 14.6206L27.4249 14.7778L27.6292 14.9192L27.8334 15.0763L28.0219 15.2334L28.2105 15.4062L28.399 15.579L28.5718 15.7518L28.7446 15.9404L28.9175 16.1289L29.0746 16.3174L29.2317 16.5217L29.3731 16.7259L29.5145 16.9459L29.6402 17.1658L29.7659 17.3858L29.8758 17.6214L29.9858 17.8571L30.0801 18.0928L30.1743 18.3284L30.2529 18.5798L30.3314 18.8312L30.3943 19.0825L30.4571 19.3339L30.5043 19.5853L30.5357 19.8524L30.5671 20.1195L30.5828 20.3866V20.6536V20.9364L30.5671 21.2035L30.5357 21.4706L30.5043 21.7377L30.4571 22.0048L30.3943 22.2719L30.3314 22.5232L30.2529 22.7746L30.1743 23.026L30.0801 23.2774L29.9858 23.513L29.8758 23.7487L29.7659 23.9844L29.6402 24.2043L29.4988 24.4243L29.3574 24.6442L29.216 24.8485L29.0589 25.0527L28.9018 25.2569L28.7289 25.4455L28.5561 25.634L28.3676 25.8225L28.179 25.9954L27.9905 26.1682L27.7863 26.3253L27.582 26.4824L27.3621 26.6238L27.1421 26.7652L26.9222 26.8909L26.6865 27.0166L26.4508 27.1265L25.681 27.4565L26.498 27.5036L26.7336 27.5193L26.9693 27.5507L27.1893 27.5979L27.4092 27.6607L27.6292 27.7236L27.8491 27.8021L28.0534 27.8964L28.2576 27.9906L28.4461 28.1006L28.6347 28.2106L28.8232 28.3363L28.996 28.4777L29.1688 28.6191L29.3259 28.7605L29.4831 28.9176L29.6402 29.0747L29.7816 29.2475L29.923 29.4203L30.0486 29.6089L30.1743 29.7974L30.2843 29.9859L30.3786 30.1902L30.4728 30.3944L30.5514 30.5987L30.63 30.8186L30.6928 31.0386L30.7399 31.2585L30.7871 31.4785L30.8185 31.7141L30.8342 31.9498V32.1855V32.4211L30.8185 32.6568L30.7871 32.8924L30.7399 33.1281L30.6928 33.3481L30.63 33.568L30.5514 33.788L30.4728 34.0079L30.3786 34.2122L30.2686 34.4164L30.1586 34.6206L30.0329 34.8092L29.9072 34.9977L29.7659 35.1705L29.6245 35.3433L29.4673 35.5162L29.2945 35.6733L29.1217 35.8304L28.9489 35.9718L28.7604 36.1132L28.5718 36.2389L28.3833 36.3489L28.179 36.4588L27.9748 36.5531L27.7549 36.6316L27.5349 36.7102L27.3149 36.773L27.095 36.8202L26.8593 36.8673L26.6237 36.8987L26.388 36.9144H26.1523H25.9167L25.681 36.8987L25.4453 36.8673L25.2254 36.8202L25.0054 36.773L24.7855 36.7102L24.5655 36.6316L24.3613 36.5531L24.1571 36.4588L23.9528 36.3646L23.7643 36.2546L23.5757 36.1446L23.3872 36.0189L23.2144 35.8775L23.0416 35.7361L22.8688 35.579L22.7116 35.4219L22.5703 35.2491L22.4289 35.0763L22.2875 34.9034L22.1618 34.7149L22.0518 34.5264L21.9418 34.3379L21.8475 34.1336L21.7533 33.9294L21.6747 33.7251L21.6119 33.5052L21.549 33.2852L21.5019 33.0653L21.4705 32.8453L21.4391 32.6096L21.4234 32.3111V20.2609H24.6284V24.2043L24.9426 24.0786L25.194 23.9529L25.4296 23.8115L25.6653 23.6544L25.8853 23.4816L26.0895 23.2931L26.278 23.0888L26.4508 22.8689L26.608 22.6489L26.7494 22.4133L26.875 22.1619L26.985 21.8948L27.0322 21.7691L27.1107 21.502L27.1421 21.3606L27.1735 21.2192L27.1893 21.0778L27.205 20.9364V20.795V20.6536V20.4651L27.1893 20.2766L27.1578 20.088L27.1264 19.8995L27.0793 19.7267L27.0322 19.5539L26.9693 19.3811L26.9065 19.2082L26.8279 19.0511L26.7494 18.894L26.6551 18.7369L26.5608 18.5798L26.4508 18.4384L26.3409 18.297L26.2309 18.1556L26.1052 18.0299L25.9795 17.9042L25.8381 17.7943L25.6967 17.6843L25.5553 17.5743L25.3982 17.48L25.2411 17.3858L25.084 17.3072L24.9269 17.2287L24.7541 17.1658L24.5812 17.103L24.4084 17.0558L24.2356 17.0087L24.0471 16.9773L23.8585 16.9459L23.67 16.9302H23.4815H23.3087L23.1358 16.9459L22.963 16.9616L22.7902 16.993L22.6174 17.0244L22.4603 17.0716L22.3032 17.1187L22.1461 17.1658L21.9889 17.2287L21.8475 17.2915L21.7061 17.3701L21.5648 17.4486L21.4234 17.5429L21.282 17.6371L21.1563 17.7314L21.0306 17.8414L20.9049 17.9514L20.7949 18.0613L20.6849 18.187L20.575 18.3127L20.4807 18.4384L20.355 18.5955L20.2607 18.7369L20.1822 18.8783L20.1036 19.0197L20.0408 19.1611L19.9779 19.3182L19.9151 19.4753L19.868 19.6324L19.8208 19.7895L19.7894 19.9624L19.758 20.1352V36.9616H16.333V20.2609Z" fill="#B31F31"/>
</svg>
