<svg width="48" height="48" viewBox="0 0 48 48" fill="none" xmlns="http://www.w3.org/2000/svg">
<g clip-path="url(#clip0_15_1940)">
<path fill-rule="evenodd" clip-rule="evenodd" d="M35.6174 8.4287H12.3827C11.3268 8.43933 10.318 8.86727 9.57655 9.61909C8.83507 10.3709 8.42114 11.3856 8.42513 12.4415V35.5735C8.42107 36.6294 8.83498 37.6441 9.5765 38.396C10.318 39.1479 11.3269 39.5758 12.3828 39.5863H35.6175C36.6747 39.5791 37.6858 39.1523 38.4284 38.3998C39.171 37.6473 39.5844 36.6307 39.5777 35.5735V12.4341C39.5845 11.3768 39.1711 10.3601 38.4285 9.60756C37.6858 8.855 36.6747 8.42821 35.6174 8.42102" fill="#9F1A45"/>
<path d="M35.6174 39.9852H12.3827C11.2177 39.9779 10.1032 39.5088 9.28365 38.6807C8.4641 37.8527 8.00647 36.7334 8.01116 35.5684V12.4341C8.0058 11.2687 8.46314 10.1487 9.28276 9.32014C10.1024 8.49158 11.2173 8.02212 12.3827 8.01483H35.6173C36.7827 8.02214 37.8976 8.49161 38.7173 9.32017C39.5369 10.1487 39.9942 11.2687 39.9889 12.4341V35.5659C39.9936 36.7309 39.5359 37.8502 38.7164 38.6782C37.8968 39.5062 36.7823 39.9753 35.6173 39.9826M12.3827 8.84006C11.4362 8.84735 10.5311 9.22986 9.86625 9.90366C9.20137 10.5775 8.83096 11.4875 8.8363 12.4341V35.5659C8.83101 36.5125 9.20143 37.4225 9.8663 38.0963C10.5312 38.7701 11.4362 39.1527 12.3827 39.16H35.6173C36.5639 39.1527 37.4689 38.7701 38.1338 38.0963C38.7986 37.4225 39.169 36.5125 39.1637 35.5659V12.4341C39.1683 11.4877 38.7977 10.5781 38.133 9.90444C37.4683 9.23078 36.5637 8.84802 35.6173 8.83997L12.3827 8.84006Z" fill="#9F1A45"/>
<path fill-rule="evenodd" clip-rule="evenodd" d="M24.1935 14.8726C25.1411 14.8874 26.0631 15.1819 26.8438 15.7192C27.6245 16.2564 28.2291 17.0124 28.5815 17.8921C28.9339 18.7718 29.0184 19.7361 28.8245 20.6637C28.6306 21.5914 28.1668 22.441 27.4915 23.1059C26.8162 23.7708 25.9595 24.2213 25.029 24.4008C24.0984 24.5803 23.1356 24.4809 22.2614 24.1149C21.3873 23.7489 20.6408 23.1327 20.1157 22.3437C19.5906 21.5548 19.3104 20.6283 19.3103 19.6806C19.3146 19.0441 19.4444 18.4147 19.6923 17.8283C19.9401 17.242 20.3011 16.7103 20.7546 16.2637C21.2082 15.8171 21.7455 15.4644 22.3355 15.2257C22.9256 14.987 23.557 14.8669 24.1935 14.8726ZM29.8442 12.4975H35.5174V35.5138H29.8417V28.9929C24.8457 30.8188 20.1757 30.9793 15.8793 26.7757C14.1036 24.9274 13.1029 22.4068 13.5218 18.0126C13.5945 17.3405 13.2709 14.2229 12.4884 12.4949H17.5171C19.8772 16.2419 16.7822 21.0222 20.3988 24.0771C25.3247 27.2674 29.6235 23.4526 29.8317 20.009L29.8442 12.4975Z" fill="#FEBD30"/>
</g>
<defs>
<clipPath id="clip0_15_1940">
<rect width="32" height="32" fill="white" transform="translate(8 8)"/>
</clipPath>
</defs>
</svg>
