<svg width="48" height="48" viewBox="0 0 48 48" fill="none" xmlns="http://www.w3.org/2000/svg">
<g clip-path="url(#clip0_15_1913)">
<path fill-rule="evenodd" clip-rule="evenodd" d="M38.5218 4.5359H9.47843C8.15856 4.54919 6.89755 5.08412 5.97069 6.0239C5.04384 6.96368 4.52643 8.23197 4.53142 9.5519V38.4669C4.52634 39.7868 5.04373 41.0552 5.97063 41.995C6.89752 42.9349 8.15861 43.4698 9.47854 43.483H38.5219C39.8434 43.4739 41.1072 42.9404 42.0355 41.9998C42.9638 41.0591 43.4805 39.7884 43.4722 38.4669V9.54264C43.4807 8.22104 42.9639 6.95017 42.0356 6.00948C41.1073 5.06878 39.8434 4.53529 38.5218 4.52631" fill="#9F1A45"/>
<path d="M38.5218 43.9815H9.47843C8.02218 43.9724 6.62901 43.386 5.60457 42.3509C4.58013 41.3159 4.00809 39.9168 4.01395 38.4605V9.54264C4.00725 8.08583 4.57892 6.6859 5.60345 5.65019C6.62798 4.61449 8.02163 4.02766 9.47843 4.01855H38.5216C39.9784 4.02769 41.3721 4.61453 42.3966 5.65023C43.4211 6.68592 43.9928 8.08584 43.9861 9.54264V38.4574C43.992 39.9136 43.4199 41.3128 42.3955 42.3478C41.3711 43.3828 39.9779 43.9692 38.5216 43.9783M9.47843 5.05009C8.2952 5.0592 7.16391 5.53734 6.33281 6.37959C5.50172 7.22184 5.0387 8.3594 5.04538 9.54264V38.4574C5.03876 39.6406 5.50179 40.7781 6.33287 41.6204C7.16395 42.4627 8.29521 42.9408 9.47843 42.95H38.5216C39.7049 42.9408 40.8361 42.4627 41.6672 41.6204C42.4983 40.7781 42.9613 39.6406 42.9547 38.4574V9.54264C42.9604 8.35967 42.4971 7.22263 41.6662 6.38056C40.8353 5.53849 39.7046 5.06004 38.5216 5.04998L9.47843 5.05009Z" fill="#9F1A45"/>
<path fill-rule="evenodd" clip-rule="evenodd" d="M24.2419 12.5908C25.4263 12.6093 26.5789 12.9775 27.5548 13.649C28.5307 14.3206 29.2863 15.2655 29.7268 16.3652C30.1673 17.4649 30.273 18.6702 30.0306 19.8297C29.7882 20.9893 29.2085 22.0513 28.3644 22.8825C27.5203 23.7136 26.4494 24.2767 25.2862 24.5011C24.1231 24.7255 22.9195 24.6011 21.8268 24.1436C20.7341 23.6861 19.801 22.9159 19.1446 21.9297C18.4883 20.9436 18.1381 19.7854 18.1379 18.6008C18.1433 17.8052 18.3055 17.0184 18.6153 16.2855C18.9251 15.5526 19.3764 14.888 19.9433 14.3297C20.5103 13.7715 21.1818 13.3306 21.9194 13.0322C22.657 12.7338 23.4462 12.5837 24.2419 12.5908ZM31.3053 9.62193H38.3968V38.3924H31.3021V30.2412C25.0571 32.5236 19.2196 32.7242 13.8491 27.4697C11.6295 25.1593 10.3786 22.0085 10.9022 16.5158C10.9931 15.6757 10.5887 11.7787 9.61053 9.61865H15.8964C18.8465 14.3025 14.9778 20.2779 19.4986 24.0965C25.6558 28.0843 31.0294 23.3158 31.2896 19.0114L31.3053 9.62193Z" fill="#FEBD30"/>
</g>
<defs>
<clipPath id="clip0_15_1913">
<rect width="40" height="40" fill="white" transform="translate(4 4)"/>
</clipPath>
</defs>
</svg>
