<svg width="48" height="48" viewBox="0 0 48 48" fill="none" xmlns="http://www.w3.org/2000/svg">
<path d="M18.0885 15.7332V8H12V26.2897C12 21.7874 14.4516 17.8363 18.0885 15.7332Z" fill="#21317D"/>
<path d="M24.949 14.1234V20.2401C27.9564 20.6145 30.2892 23.177 30.2892 26.2824C30.2892 29.6591 27.5628 32.3872 24.19 32.3872C20.8279 32.3872 18.0953 29.6591 18.0953 26.2824H18.0885V36.8456C19.8853 37.8811 21.9698 38.487 24.19 38.487C30.9238 38.487 36.3805 33.0291 36.3805 26.2897C36.3805 19.8155 31.3286 14.5125 24.949 14.1234Z" fill="#21317D"/>
<path d="M18.0885 15.7332C14.4516 17.8363 12 21.7874 12 26.2897V37.5574V40H18.0885V38.4031V36.8451V26.2824H18.0953C18.0953 23.1771 20.4213 20.6151 23.4298 20.2401V14.1234C21.4923 14.2388 19.6719 14.8126 18.0885 15.7332Z" fill="#ED1C24"/>
</svg>
