<svg width="48" height="48" viewBox="0 0 48 48" fill="none" xmlns="http://www.w3.org/2000/svg">
<path d="M16.6106 13.6666V4.00001H9V26.8622C9 21.2343 12.0645 16.2954 16.6106 13.6666Z" fill="#21317D"/>
<path d="M25.1862 11.6543V19.3001C28.9454 19.7681 31.8614 22.9713 31.8614 26.853C31.8614 31.0739 28.4534 34.4841 24.2374 34.4841C20.0348 34.4841 16.619 31.0739 16.619 26.853H16.6106V40.0571C18.8566 41.3514 21.4622 42.1088 24.2374 42.1088C32.6547 42.1088 39.4756 35.2864 39.4756 26.8622C39.4756 18.7694 33.1607 12.1406 25.1862 11.6543Z" fill="#21317D"/>
<path d="M16.6106 13.6666C12.0645 16.2954 9 21.2343 9 26.8622V40.9467V44H16.6106V42.0039V40.0564V26.853H16.6191C16.6191 22.9713 19.5266 19.7689 23.2873 19.3001V11.6543C20.8654 11.7986 18.5898 12.5158 16.6106 13.6666Z" fill="#ED1C24"/>
</svg>
