<svg width="48" height="48" viewBox="0 0 48 48" fill="none" xmlns="http://www.w3.org/2000/svg">
<path d="M43.6593 18.013C43.1855 14.3096 41.8587 10.9412 39.5338 8.47645C37.0699 6.15077 33.6962 4.82362 29.9939 4.34964C26.437 3.87565 24.0173 4.02101 24.0173 4.02101C24.0173 4.02101 21.5976 3.92621 18.0407 4.34964C14.3448 4.82362 10.9774 6.15077 8.51346 8.47645C6.18852 10.9412 4.86178 14.3159 4.38795 18.0193C3.91411 21.5774 4.00888 23.9978 4.00888 23.9978C4.00888 23.9978 3.91411 26.4183 4.34372 29.9764C4.81756 33.6797 6.14429 37.0482 8.46924 39.5192C10.9395 41.8449 14.3069 43.1721 18.0091 43.646C21.566 44.12 23.9857 43.981 23.9857 43.981C23.9857 43.981 26.4054 44.0758 29.9623 43.646C33.6646 43.1721 37.0319 41.8449 39.5022 39.5192C41.8271 37.0545 43.1539 33.6797 43.6277 29.9764C44.1016 26.4183 43.9626 23.9978 43.9626 23.9978C43.9626 23.9978 44.1521 21.5774 43.6783 18.0193" fill="#1E4BC6"/>
<path d="M11.3944 18.1585V28.6493H13.3403V25.66H14.9513C15.5199 25.66 16.0443 25.5653 16.4676 25.3757C16.9098 25.1797 17.3142 24.908 17.6553 24.5667C18.0028 24.2318 18.2808 23.8273 18.464 23.3786C18.8431 22.437 18.8431 21.3816 18.464 20.4336C18.0786 19.5425 17.3647 18.8284 16.4739 18.4429C15.9937 18.2469 15.4757 18.1521 14.9576 18.1585H11.3944ZM13.2897 19.9154H14.806C15.084 19.9154 15.3556 19.9596 15.6147 20.0607C15.8484 20.1555 16.0569 20.3009 16.2338 20.4905C16.3854 20.6801 16.5181 20.8886 16.6129 21.1098C16.8024 21.5964 16.8024 22.1399 16.6129 22.6266C16.5307 22.8604 16.4044 23.0689 16.2338 23.2459C16.0632 23.4292 15.8484 23.5745 15.6147 23.6756C15.362 23.7704 15.0903 23.821 14.8123 23.821H13.296L13.2897 19.9154ZM23.2529 20.1998C22.7159 20.1998 22.1852 20.2946 21.6861 20.4841C21.2122 20.6737 20.7384 20.9139 20.3593 21.2931C19.9676 21.6723 19.6454 22.121 19.4117 22.6202C19.1716 23.1448 19.0831 23.7578 19.0831 24.4214C19.0768 25.0407 19.2095 25.66 19.4622 26.2225C19.696 26.7218 20.0182 27.1705 20.4099 27.5497C20.8079 27.8909 21.2501 28.1627 21.7366 28.3586C22.2231 28.5419 22.7348 28.643 23.2529 28.643C23.7709 28.6493 24.289 28.5545 24.7691 28.3586C25.243 28.1184 25.6726 27.8341 25.9569 27.4549V28.643H27.9028V20.1998H25.9632V21.2931C25.6284 20.9455 25.224 20.6737 24.7755 20.4841C24.3522 20.2946 23.8278 20.1998 23.2529 20.1998ZM28.5724 20.244L31.9904 28.2638L30.234 32.4854H32.2241L37.2089 20.244H35.1682L32.9886 25.9887L30.6194 20.244H28.5724ZM23.5877 22.0009C23.9226 22.0009 24.2511 22.0515 24.5859 22.241C24.8892 22.3548 25.1608 22.5381 25.3946 22.7593C25.6347 22.9489 25.7737 23.2333 25.919 23.5176C26.0643 23.802 26.1085 24.137 26.1085 24.4656C26.1085 24.7942 26.058 25.1292 25.919 25.4136C25.7926 25.6916 25.6157 25.9508 25.3946 26.172C25.1545 26.4121 24.8765 26.5511 24.5859 26.6965C24.2953 26.8418 23.9668 26.8861 23.5877 26.8861C23.2466 26.8798 22.9117 26.8166 22.5895 26.6965C22.3052 26.5511 22.0209 26.4121 21.7808 26.172C21.5787 25.9255 21.4081 25.6537 21.2628 25.3693C21.1238 25.0849 21.0732 24.75 21.0732 24.4214C21.0732 24.0927 21.1238 23.7578 21.2628 23.4734C21.3575 23.189 21.5471 22.9489 21.7871 22.715C22.0146 22.4875 22.2926 22.3106 22.5895 22.1905C22.9117 22.0641 23.2466 21.9946 23.5877 22.0009Z" fill="white"/>
</svg>
