<svg width="48" height="48" viewBox="0 0 48 48" fill="none" xmlns="http://www.w3.org/2000/svg">
<path d="M41.6934 18.6117C41.2669 15.2787 40.0729 12.2471 37.9804 10.0288C35.7629 7.9357 32.7265 6.74126 29.3945 6.31467C26.1933 5.88809 24.0156 6.01891 24.0156 6.01891C24.0156 6.01891 21.8378 5.93359 18.6366 6.31467C15.3103 6.74126 12.2797 7.9357 10.0621 10.0288C7.96966 12.2471 6.7756 15.2843 6.34915 18.6174C5.9227 21.8196 6.00799 23.9981 6.00799 23.9981C6.00799 23.9981 5.9227 26.1765 6.30935 29.3787C6.7358 32.7118 7.92986 35.7434 10.0223 37.9673C12.2455 40.0604 15.2762 41.2549 18.6082 41.6814C21.8094 42.108 23.9871 41.9829 23.9871 41.9829C23.9871 41.9829 26.1649 42.0682 29.3661 41.6814C32.6981 41.2549 35.7288 40.0604 37.952 37.9673C40.0444 35.7491 41.2385 32.7118 41.6649 29.3787C42.0914 26.1765 41.9663 23.9981 41.9663 23.9981C41.9663 23.9981 42.1369 21.8196 41.7104 18.6174" fill="#1E4BC6"/>
<path d="M12.6549 18.7426V28.1844H14.4062V25.494H15.8562C16.3679 25.494 16.8398 25.4087 17.2208 25.2381C17.6188 25.0618 17.9827 24.8172 18.2898 24.51C18.6025 24.2086 18.8527 23.8446 19.0176 23.4407C19.3587 22.5932 19.3587 21.6434 19.0176 20.7902C18.6707 19.9882 18.0282 19.3455 17.2265 18.9986C16.7944 18.8222 16.3281 18.7369 15.8618 18.7426H12.6549ZM14.3607 20.3238H15.7254C15.9756 20.3238 16.2201 20.3636 16.4532 20.4546C16.6636 20.54 16.8512 20.6708 17.0104 20.8414C17.1469 21.012 17.2663 21.1997 17.3516 21.3988C17.5222 21.8368 17.5222 22.3259 17.3516 22.7639C17.2777 22.9743 17.1639 23.162 17.0104 23.3213C16.8569 23.4862 16.6636 23.6171 16.4532 23.7081C16.2258 23.7934 15.9813 23.8389 15.7311 23.8389H14.3664L14.3607 20.3238ZM23.3276 20.5798C22.8443 20.5798 22.3666 20.6651 21.9174 20.8357C21.491 21.0064 21.0645 21.2225 20.7234 21.5638C20.3708 21.905 20.0809 22.3089 19.8705 22.7582C19.6544 23.2303 19.5748 23.782 19.5748 24.3792C19.5691 24.9366 19.6885 25.494 19.916 26.0002C20.1264 26.4496 20.4163 26.8534 20.7689 27.1947C21.1271 27.5018 21.5251 27.7464 21.9629 27.9227C22.4008 28.0877 22.8613 28.1787 23.3276 28.1787C23.7938 28.1844 24.2601 28.099 24.6922 27.9227C25.1187 27.7066 25.5053 27.4506 25.7612 27.1094V28.1787H27.5125V20.5798H25.7669V21.5638C25.4655 21.2509 25.1016 21.0064 24.6979 20.8357C24.3169 20.6651 23.845 20.5798 23.3276 20.5798ZM28.1152 20.6196L31.1913 27.8374L29.6106 31.6369H31.4017L35.888 20.6196H34.0514L32.0897 25.7898L29.9575 20.6196H28.1152ZM23.6289 22.2008C23.9303 22.2008 24.226 22.2463 24.5273 22.4169C24.8003 22.5193 25.0447 22.6843 25.2551 22.8833C25.4712 23.054 25.5963 23.3099 25.7271 23.5659C25.8578 23.8218 25.8976 24.1233 25.8976 24.419C25.8976 24.7148 25.8522 25.0163 25.7271 25.2722C25.6133 25.5225 25.4541 25.7557 25.2551 25.9547C25.0391 26.1709 24.7889 26.296 24.5273 26.4268C24.2658 26.5576 23.9701 26.5975 23.6289 26.5975C23.3219 26.5918 23.0205 26.5349 22.7305 26.4268C22.4747 26.296 22.2188 26.1709 22.0027 25.9547C21.8208 25.7329 21.6673 25.4883 21.5365 25.2324C21.4114 24.9764 21.3659 24.675 21.3659 24.3792C21.3659 24.0835 21.4114 23.782 21.5365 23.526C21.6218 23.2701 21.7924 23.054 22.0084 22.8435C22.2131 22.6388 22.4633 22.4795 22.7305 22.3714C23.0205 22.2577 23.3219 22.1951 23.6289 22.2008Z" fill="white"/>
</svg>
