<svg width="48" height="48" viewBox="0 0 48 48" fill="none" xmlns="http://www.w3.org/2000/svg">
<path fill-rule="evenodd" clip-rule="evenodd" d="M36.0035 38.0042L35.2958 32.2303L32.6823 32.5117C32.8512 32.0212 32.8914 31.595 32.7788 31.2009L32.9557 30.9516C33.197 29.0056 33.2935 26.7941 33.4945 24.7917C33.6312 23.4648 32.9879 22.9421 32.3446 22.7331L27.3668 20.3206C27.2703 19.7576 27.407 19.1063 27.9779 18.8409C28.1629 18.7524 28.3478 18.5192 28.38 18.0608C28.4443 17.0315 27.9779 17.0315 27.9377 16.8224C27.9056 16.4686 28.0101 16.1389 28.3076 15.8655C28.7901 15.3669 28.9912 14.7396 28.7499 14.1928C28.0583 12.6408 27.0612 13.453 26.8199 13.3806C26.5465 13.2761 26.4822 13.0991 26.4098 12.9544C25.9353 11.8929 24.1421 11.3943 22.8634 11.3943C21.7054 11.3943 20.7243 11.6918 19.9202 12.6729C19.0034 13.3806 18.4968 14.6271 19.1723 16.1791C19.2447 16.3962 19.2768 16.8868 19.1723 16.9993C18.9311 17.2084 18.6978 17.3451 18.4646 17.4175C17.8615 16.4284 17.4514 14.9326 17.0171 14.0078C16.9769 13.7264 17.0815 13.26 17.1458 12.9142C17.2423 12.5201 17.186 12.0939 17.0815 11.8527C16.9126 10.9279 16.6713 10.0433 16.406 9.11851C16.1647 8.23393 15.9154 7.98464 15.5536 8.00072C15.055 8.02485 14.9102 8.66014 14.9424 9.58493C14.5725 9.6573 14.2026 9.89855 13.9613 10.2524C13.5833 10.1076 13.3099 10.2122 13.0767 10.5741C12.8274 10.5097 12.6103 10.5821 12.4414 10.751C12.2484 10.9279 12.16 11.1933 12.16 11.4586C12.168 12.0618 12.3851 12.4638 12.8194 12.7373C12.6103 13.2278 12.8757 13.8711 13.4225 14.6512C13.4225 14.7236 13.3582 14.7879 13.2938 14.8603L12.9883 15.1417L14.2106 19.9989C14.484 21.4223 14.7494 23.2638 15.0228 25.2823C15.0871 25.8854 15.1193 26.4483 15.0228 26.9871L14.0015 33.4365C14.3795 33.8305 16.0039 34.2889 17.9982 34.7553L18.1349 35.8812L14.1382 36.9105C13.8728 37.0553 13.905 37.6825 14.2749 37.7227L21.6733 36.9346L21.9467 35.7686C22.1156 35.5595 22.3809 35.5193 22.6624 35.7284L23.5068 38.3902L29.2003 39.9583C29.5058 40.0226 29.7712 40.0226 29.9079 39.8859C30.0768 39.717 30.0768 39.3552 29.9079 38.9692L36.0035 38.0042ZM18.8828 35.3906L18.8104 34.4658L19.3814 34.4337L19.4779 35.3504L18.8828 35.3906ZM26.1203 36.4843V35.5032C26.3616 35.3906 26.6269 35.278 26.8682 35.1092C27.0773 35.1092 27.2461 35.2137 27.415 35.463L27.7528 37.4493C27.1738 37.2241 26.5948 36.7014 26.1203 36.4843Z" fill="black"/>
<path fill-rule="evenodd" clip-rule="evenodd" d="M25.2518 16.0504C25.485 16.0504 25.6539 16.2273 25.6539 16.4847C25.6539 16.734 25.493 16.9028 25.2518 16.9028C25.0186 16.9028 24.8417 16.7259 24.8417 16.4847C24.8417 16.2434 25.0105 16.0504 25.2518 16.0504ZM22.4855 13.8792C23.0243 14.0159 23.4263 14.0159 23.8284 13.7344C23.9973 13.839 24.2305 13.9355 24.4637 13.9033C25.1875 13.8148 25.8067 13.5897 26.249 14.1445C26.3133 14.3617 26.249 14.5064 26.0479 14.611C25.1473 14.3295 24.7773 14.611 24.3029 15.4553C24.335 15.6644 24.6326 15.5197 24.9703 15.2543C25.1714 14.997 25.477 14.8844 25.6378 14.9648L26.5787 15.1417C26.8521 15.1417 27.0853 15.4955 27.0451 15.9861C27.0853 17.1119 26.7797 18.1413 26.8843 20.1115C26.9003 20.3366 26.8601 20.5055 26.7797 20.6422C26.6913 20.795 26.5465 20.8915 26.3776 20.9237C25.4689 21.0925 24.5602 21.2855 23.6515 21.5107C23.3218 21.559 23.0082 21.559 22.6785 21.4464C22.003 21.2373 21.1666 21.0282 20.6922 20.7146C20.2499 20.4653 20.0086 19.9667 20.0488 19.2993C20.081 18.6961 20.282 18.2136 20.2499 17.4336L20.081 15.1819C20.1453 14.5466 20.3866 14.1204 20.9897 14.1204C21.0862 14.1526 21.1908 14.3697 21.1908 14.5145C21.0219 14.7557 20.8771 15.0291 20.7887 15.3186C20.7485 15.576 20.9897 15.7046 21.1908 15.4955C21.3596 15.1417 21.625 14.9728 22.1316 15.1417C22.5015 15.4553 22.7348 15.8011 22.7348 16.3399C22.7026 16.8626 22.7026 17.2245 22.6704 17.715C22.6704 17.9322 22.7026 18.0689 22.8715 18.1413C22.976 18.2378 22.976 18.3825 22.9358 18.487C22.7669 18.6238 22.598 18.6961 22.4372 18.664C22.0271 18.5594 21.6652 18.3101 21.3194 17.9965C21.1908 17.7874 20.9575 17.9965 21.0299 18.2056L21.633 18.8007C21.9949 19.1545 22.2362 20.208 23.4826 20.208C24.7291 20.2803 24.9623 19.3716 25.2598 18.9454C25.3965 18.7363 25.5333 18.487 25.7343 18.278C25.9353 18.2378 26.064 18.1654 26.1364 17.9965C26.064 17.8196 25.8951 17.6427 25.7343 17.707C25.6298 17.707 25.6619 17.7794 25.5654 17.8839L25.3965 18.1975C24.3833 18.8972 23.9893 18.7926 23.8525 18.3745L24.2225 17.9885C24.327 17.7392 24.1581 17.6346 24.0214 17.699C23.5791 17.9885 23.177 17.9885 23.0082 17.4899C23.0484 16.9913 23.1529 16.3962 23.1127 15.9378C23.0082 15.3749 22.7106 14.9085 22.0673 14.4582C21.8502 14.2973 21.9547 13.7344 22.4855 13.8792ZM21.6813 16.163C21.9145 16.163 22.1155 16.3399 22.1155 16.5892C22.1155 16.8385 21.9145 17.0074 21.6813 17.0074C21.4722 17.0074 21.2792 16.8385 21.2792 16.5892C21.2792 16.3399 21.4803 16.163 21.6813 16.163ZM22.7267 18.9776H24.4396C24.5763 18.9776 24.6406 19.058 24.6165 19.1867C24.4396 19.6853 24.0777 19.8943 23.5711 19.8943C23.1047 19.9345 22.7669 19.7174 22.5337 19.4038C22.3166 19.1223 22.4131 18.9776 22.7267 18.9776ZM24.3431 21.8324C25.0508 21.6876 25.7263 21.5107 26.3213 21.2936C26.5545 21.1971 26.7958 21.2614 26.7556 21.5509C26.6269 22.0656 26.2168 22.8054 25.8228 23.3362C25.5895 23.6176 25.3242 23.6176 24.9864 23.3362C24.6165 23.0225 24.2788 22.6365 24.0777 22.2103C24.0375 21.9369 24.142 21.8002 24.3431 21.8324ZM22.5257 21.9048C21.818 21.7278 21.5124 21.4785 20.9093 21.2695C20.6841 21.1649 20.4107 21.2695 20.5072 21.6957C20.6118 22.2264 20.8771 22.7572 21.5526 23.3925C21.7858 23.6015 21.7215 23.5292 21.9949 23.3925C22.3648 23.0788 22.5659 22.7572 22.7669 22.339C22.8232 22.0415 22.7589 21.9369 22.5257 21.9048ZM15.7305 9.91463C15.5938 9.35975 15.5294 8.90138 15.4892 8.50734C15.4892 8.26609 15.5375 8.16155 15.6983 8.17763C15.8109 8.19371 15.9074 8.27413 15.9476 8.37867C16.1325 8.829 16.3095 9.39192 16.3658 10.0915L15.7305 9.91463ZM15.2882 9.54471C14.9906 9.51255 14.8218 9.60905 14.7172 9.96288C14.6127 10.4213 14.7172 10.952 15.1193 11.5149C15.3203 11.6516 15.4249 11.5793 15.4812 11.33C15.1515 10.6705 15.3605 9.93875 15.2882 9.54471ZM14.2106 10.0996C13.8407 9.96288 13.712 10.18 13.6798 10.5258C13.6477 11.5471 14.0819 12.0055 14.5885 11.5149C14.3473 11.0163 14.2106 10.5258 14.2106 10.0996ZM13.2054 10.6303C12.9722 10.5258 12.9078 10.6625 12.8676 10.9118C12.8435 11.6516 13.2376 12.2145 13.5431 11.8688C13.3421 11.5149 13.2376 10.952 13.2054 10.6303ZM14.5885 11.9331C14.8218 11.724 14.9183 11.8688 15.0228 12.1422C15.055 12.3593 15.1595 12.5684 15.3927 12.7775C15.5294 12.9544 15.7626 13.1313 15.8591 13.3082C15.9958 13.276 16.0923 13.0991 15.9958 12.9303C15.5857 12.6086 15.5214 12.504 15.5616 12.0778C15.5857 11.8044 15.835 11.6516 16.1969 11.5471C15.9315 11.2335 15.7224 10.9118 15.7626 10.6062C15.7948 10.3569 16.0602 10.2845 16.2612 10.4615C16.4944 10.6062 16.6633 10.8796 16.9367 11.6275C17.0332 11.8768 17.0734 12.118 17.001 12.3995C16.8 13.6299 15.7948 14.0159 15.0952 13.5495C14.8861 13.8711 14.484 13.9435 14.1784 13.839C13.6477 13.5495 13.5753 13.1313 13.5753 12.6086C13.5431 12.3191 13.6477 12.1824 13.8166 12.11C14.0176 12.0376 14.4438 12.0376 14.5885 11.9331ZM29.546 32.8816L34.8696 32.4554L35.3682 36.6773L30.1492 37.4493L29.546 32.8816ZM27.7367 32.9862L29.0153 32.9218L29.5541 37.4573C29.1842 37.6262 28.7499 37.594 28.2835 37.385L27.7367 32.9862ZM28.8143 31.016C28.7419 30.3083 29.0796 29.7856 29.4576 29.4961C29.6908 29.3192 30.0527 29.287 30.3583 29.5282C30.5593 29.4961 30.7925 29.5685 31.0338 29.7775C31.2348 29.7373 31.4358 29.8499 31.6369 30.0268C32.1757 30.2359 32.6099 30.244 32.4491 31.0079C32.3928 31.2652 32.2239 31.4743 31.9746 31.6834C31.6449 31.9649 31.2991 32.0292 31.2428 31.6432C31.2428 31.6432 30.8086 32.0212 30.6317 32.0935C30.0929 32.3107 30.2537 31.6352 30.1894 31.1527C30.1009 30.4691 29.6908 30.4128 29.546 30.7667C29.4817 31.4341 28.8866 31.5145 28.8143 31.0481C28.8143 31.0401 28.8143 31.016 28.8143 31.016Z" fill="white"/>
</svg>
