<svg width="48" height="48" viewBox="0 0 48 48" fill="none" xmlns="http://www.w3.org/2000/svg">
<path fill-rule="evenodd" clip-rule="evenodd" d="M39.0044 41.5052L38.1199 34.2878L34.8529 34.6396C35.064 34.0265 35.1143 33.4937 34.9735 33.0012L35.1947 32.6895C35.4963 30.2569 35.6169 27.4926 35.8682 24.9896C36.0391 23.3311 35.2349 22.6777 34.4307 22.4163L28.2085 19.4007C28.0879 18.697 28.2588 17.8828 28.9725 17.5511C29.2037 17.4405 29.4349 17.149 29.4751 16.5761C29.5555 15.2894 28.9725 15.2894 28.9222 15.028C28.882 14.5857 29.0127 14.1736 29.3846 13.8318C29.9877 13.2086 30.239 12.4245 29.9375 11.741C29.073 9.80095 27.8265 10.8162 27.525 10.7257C27.1832 10.5951 27.1028 10.3739 27.0123 10.193C26.4192 8.86611 24.1776 8.24288 22.5793 8.24288C21.1318 8.24288 19.9055 8.61481 18.9003 9.84116C17.7543 10.7257 17.1211 12.2838 17.9654 14.2239C18.0559 14.4953 18.0961 15.1085 17.9654 15.2492C17.6639 15.5105 17.3724 15.6814 17.0808 15.7719C16.3269 14.5355 15.8143 12.6658 15.2715 11.5098C15.2212 11.158 15.3519 10.575 15.4323 10.1427C15.5529 9.65017 15.4826 9.11741 15.3519 8.81585C15.1408 7.65986 14.8392 6.55413 14.5075 5.39814C14.2059 4.29241 13.8943 3.9808 13.442 4.0009C12.8188 4.03106 12.6378 4.82517 12.678 5.98116C12.2156 6.07163 11.7532 6.37319 11.4517 6.81548C10.9792 6.63455 10.6375 6.76522 10.3459 7.21757C10.0343 7.13715 9.76293 7.22762 9.55183 7.43871C9.31059 7.65986 9.20001 7.99158 9.20001 8.3233C9.21006 9.0772 9.48147 9.57981 10.0243 9.92158C9.76293 10.5348 10.0946 11.3389 10.7782 12.314C10.7782 12.4044 10.6978 12.4849 10.6174 12.5753L10.2354 12.9271L11.7633 18.9986C12.1051 20.7778 12.4368 23.0798 12.7786 25.6028C12.859 26.3567 12.8992 27.0604 12.7786 27.7339L11.5019 35.7956C11.9744 36.2882 14.0049 36.8612 16.4978 37.4442L16.6687 38.8515L11.6728 40.1381C11.3411 40.3191 11.3813 41.1031 11.8437 41.1534L21.0916 40.1683L21.4334 38.7107C21.6445 38.4494 21.9762 38.3991 22.328 38.6605L23.3835 41.9877L30.5004 43.9479C30.8824 44.0283 31.2141 44.0283 31.385 43.8574C31.596 43.6463 31.596 43.194 31.385 42.7115L39.0044 41.5052ZM17.6036 38.2383L17.5131 37.0823L18.2268 37.0421L18.3474 38.188L17.6036 38.2383ZM26.6504 39.6054V38.379C26.952 38.2383 27.2837 38.0976 27.5853 37.8865C27.8466 37.8865 28.0577 38.0171 28.2688 38.3288L28.691 40.8116C27.9672 40.5302 27.2435 39.8768 26.6504 39.6054Z" fill="black"/>
<path fill-rule="evenodd" clip-rule="evenodd" d="M25.5648 14.063C25.8563 14.063 26.0674 14.2842 26.0674 14.6058C26.0674 14.9175 25.8664 15.1285 25.5648 15.1285C25.2733 15.1285 25.0522 14.9074 25.0522 14.6058C25.0522 14.3043 25.2633 14.063 25.5648 14.063ZM22.1069 11.349C22.7804 11.5198 23.283 11.5198 23.7856 11.168C23.9967 11.2987 24.2882 11.4193 24.5797 11.3791C25.4844 11.2685 26.2584 10.9871 26.8113 11.6807C26.8917 11.9521 26.8113 12.133 26.56 12.2637C25.4342 11.9119 24.9718 12.2637 24.3787 13.3192C24.4189 13.5805 24.7908 13.3996 25.213 13.0679C25.4643 12.7462 25.8463 12.6055 26.0473 12.706L27.2234 12.9271C27.5652 12.9271 27.8567 13.3694 27.8065 13.9826C27.8567 15.3899 27.4747 16.6766 27.6054 19.1393C27.6255 19.4208 27.5753 19.6319 27.4747 19.8028C27.3642 19.9938 27.1832 20.1144 26.9721 20.1546C25.8362 20.3657 24.7004 20.6069 23.5645 20.8884C23.1523 20.9487 22.7603 20.9487 22.3482 20.808C21.5038 20.5466 20.4584 20.2853 19.8653 19.8932C19.3124 19.5816 19.0109 18.9584 19.0611 18.1241C19.1014 17.3702 19.3527 16.767 19.3124 15.792L19.1014 12.9774C19.1818 12.1833 19.4833 11.6505 20.2372 11.6505C20.3579 11.6907 20.4885 11.9621 20.4885 12.1431C20.2774 12.4446 20.0965 12.7864 19.9859 13.1483C19.9357 13.47 20.2372 13.6308 20.4885 13.3694C20.6996 12.9271 21.0314 12.716 21.6646 12.9271C22.127 13.3192 22.4185 13.7514 22.4185 14.4249C22.3783 15.0783 22.3783 15.5306 22.3381 16.1438C22.3381 16.4152 22.3783 16.5861 22.5894 16.6766C22.7201 16.7972 22.7201 16.9781 22.6698 17.1088C22.4587 17.2797 22.2477 17.3702 22.0466 17.33C21.534 17.1993 21.0816 16.8877 20.6494 16.4956C20.4885 16.2343 20.197 16.4956 20.2875 16.757L21.0414 17.5008C21.4937 17.9431 21.7953 19.2599 23.3534 19.2599C24.9115 19.3504 25.203 18.2145 25.5749 17.6818C25.7458 17.4204 25.9167 17.1088 26.168 16.8475C26.4193 16.7972 26.5801 16.7067 26.6706 16.4956C26.5801 16.2745 26.369 16.0533 26.168 16.1338C26.0373 16.1338 26.0775 16.2242 25.9569 16.3549L25.7458 16.7469C24.4792 17.6215 23.9867 17.4908 23.8158 16.9681L24.2782 16.4856C24.4088 16.174 24.1978 16.0433 24.0269 16.1237C23.474 16.4856 22.9714 16.4856 22.7603 15.8623C22.8106 15.2391 22.9412 14.4953 22.891 13.9223C22.7603 13.2186 22.3884 12.6356 21.5842 12.0727C21.3128 11.8717 21.4435 11.168 22.1069 11.349ZM21.1017 14.2038C21.3932 14.2038 21.6445 14.4249 21.6445 14.7365C21.6445 15.0481 21.3932 15.2592 21.1017 15.2592C20.8404 15.2592 20.5991 15.0481 20.5991 14.7365C20.5991 14.4249 20.8504 14.2038 21.1017 14.2038ZM22.4085 17.722H24.5496C24.7205 17.722 24.8009 17.8225 24.7707 17.9833C24.5496 18.6066 24.0972 18.8679 23.464 18.8679C22.8809 18.9182 22.4587 18.6468 22.1672 18.2547C21.8958 17.9029 22.0165 17.722 22.4085 17.722ZM24.429 21.2905C25.3135 21.1095 26.1579 20.8884 26.9018 20.617C27.1933 20.4964 27.4948 20.5768 27.4446 20.9386C27.2837 21.582 26.7711 22.5068 26.2785 23.1702C25.987 23.522 25.6553 23.522 25.2331 23.1702C24.7707 22.7782 24.3485 22.2957 24.0972 21.7629C24.047 21.4211 24.1777 21.2503 24.429 21.2905ZM22.1572 21.3809C21.2726 21.1598 20.8906 20.8482 20.1367 20.5868C19.8553 20.4561 19.5135 20.5868 19.6341 21.1196C19.7648 21.783 20.0965 22.4465 20.9409 23.2406C21.2324 23.5019 21.152 23.4115 21.4937 23.2406C21.9561 22.8485 22.2074 22.4465 22.4587 21.9238C22.5291 21.5518 22.4487 21.4211 22.1572 21.3809ZM13.6632 6.39329C13.4923 5.69969 13.4119 5.12672 13.3616 4.63417C13.3616 4.33261 13.4219 4.20193 13.623 4.22204C13.7637 4.24214 13.8843 4.34266 13.9346 4.47334C14.1658 5.03625 14.3869 5.7399 14.4573 6.61443L13.6632 6.39329ZM13.1103 5.93089C12.7384 5.89068 12.5273 6.01131 12.3966 6.4536C12.2659 7.02657 12.3966 7.69 12.8992 8.39365C13.1505 8.56454 13.2812 8.47407 13.3516 8.16245C12.9394 7.33818 13.2008 6.42344 13.1103 5.93089ZM11.7633 6.62448C11.3009 6.4536 11.1401 6.725 11.0999 7.15724C11.0597 8.43386 11.6025 9.00683 12.2358 8.39365C11.9342 7.77042 11.7633 7.15724 11.7633 6.62448ZM10.5068 7.28792C10.2153 7.15724 10.1349 7.32813 10.0846 7.63974C10.0545 8.56454 10.547 9.26818 10.929 8.83594C10.6777 8.39365 10.547 7.69 10.5068 7.28792ZM12.2358 8.91636C12.5273 8.655 12.6479 8.83594 12.7786 9.17771C12.8188 9.44912 12.9495 9.71047 13.241 9.97183C13.4119 10.193 13.7034 10.4141 13.824 10.6353C13.9949 10.5951 14.1155 10.3739 13.9949 10.1628C13.4822 9.76073 13.4018 9.63006 13.4521 9.0973C13.4822 8.75553 13.7939 8.56454 14.2462 8.43386C13.9145 8.04183 13.6531 7.63974 13.7034 7.25776C13.7436 6.94615 14.0753 6.85568 14.3266 7.07683C14.6181 7.25776 14.8292 7.59954 15.171 8.53438C15.2916 8.84599 15.3419 9.14756 15.2514 9.49938C15.0001 11.0373 13.7436 11.5198 12.8691 10.9368C12.6077 11.3389 12.1051 11.4294 11.7231 11.2987C11.0597 10.9368 10.9692 10.4141 10.9692 9.76073C10.929 9.39886 11.0597 9.22797 11.2708 9.1375C11.5221 9.04704 12.0548 9.04704 12.2358 8.91636ZM30.9326 35.102L37.5871 34.5693L38.2104 39.8466L31.6866 40.8116L30.9326 35.102ZM28.6709 35.2327L30.2692 35.1523L30.9427 40.8217C30.4803 41.0328 29.9375 40.9925 29.3545 40.7312L28.6709 35.2327ZM30.0179 32.7699C29.9274 31.8854 30.3496 31.232 30.8221 30.8701C31.1136 30.649 31.5659 30.6087 31.9479 30.9103C32.1992 30.8701 32.4907 30.9606 32.7923 31.2219C33.0436 31.1717 33.2949 31.3124 33.5462 31.5335C34.2197 31.7949 34.7625 31.8049 34.5615 32.7599C34.4911 33.0816 34.28 33.3429 33.9684 33.6043C33.5562 33.9561 33.124 34.0365 33.0536 33.554C33.0536 33.554 32.5108 34.0265 32.2897 34.1169C31.6162 34.3883 31.8172 33.544 31.7368 32.9408C31.6262 32.0864 31.1136 32.016 30.9326 32.4583C30.8522 33.2927 30.1084 33.3932 30.0179 32.8102C30.0179 32.8001 30.0179 32.7699 30.0179 32.7699Z" fill="white"/>
</svg>
