<svg width="48" height="48" viewBox="0 0 48 48" fill="none" xmlns="http://www.w3.org/2000/svg">
<path d="M18.8454 8.60089C19.3075 8.07727 20.0607 8.0195 20.7141 8C21.2198 8.03601 21.7314 8.06151 22.2235 8.1898C22.3825 8.25881 22.6181 8.32033 22.6256 8.53113C22.4635 8.86571 22.0675 8.95123 21.7749 9.13277C20.6954 9.77192 19.5896 10.3923 18.6369 11.216C18.6511 10.8432 18.5956 10.4726 18.6151 10.0997C18.6256 9.59938 18.4793 9.01349 18.8454 8.60089Z" fill="#AA0000"/>
<path d="M23.5625 9.13414C24.4777 8.62252 25.5992 8.9466 26.4192 9.49273C26.6375 9.62926 26.8288 9.93684 26.6337 10.1716C26.3636 10.486 25.9631 10.66 25.5707 10.7665C23.0666 11.4815 20.7073 12.687 18.6481 14.2789C18.6443 13.8775 18.6428 13.4762 18.6488 13.0748C20.0644 11.5085 21.7996 10.2774 23.5625 9.13414Z" fill="#AA0000"/>
<path d="M27.6772 10.5191C28.1903 10.3316 28.7635 10.5476 29.1708 10.874C29.4656 11.1058 29.795 11.2926 30.0725 11.5469C30.2706 11.7314 30.4274 12.0457 30.2541 12.2986C29.9765 12.6984 29.4687 12.8102 29.0313 12.949C25.3674 14.1545 21.7456 15.6624 18.6233 17.9639C18.5971 17.5686 18.5963 17.1717 18.5498 16.7779C20.243 14.8439 22.3945 13.3811 24.615 12.1193C25.6165 11.5499 26.6495 11.0383 27.6772 10.5191Z" fill="#AA0000"/>
<path d="M30.7799 13.0381C31.2292 12.8551 31.8106 12.8393 32.1895 13.1807C32.5008 13.4958 32.8309 13.7928 33.146 14.1034C33.3463 14.3344 33.5691 14.6548 33.4348 14.9714C33.2727 15.3554 32.8504 15.5295 32.4896 15.675C29.4071 16.6187 26.3313 17.633 23.4281 19.0478C21.7335 19.8715 20.1026 20.837 18.6165 21.9968C18.6188 21.6382 18.6 21.2804 18.594 20.9218C20.1529 18.9886 22.2001 17.5182 24.3164 16.2512C26.3876 15.0216 28.5699 13.9909 30.7799 13.0381Z" fill="#AA0000"/>
<path d="M33.1409 16.2279C33.4882 16.0704 33.8618 15.8783 34.2549 15.9713C34.7365 16.0809 35.0666 16.495 35.2819 16.9143C35.546 17.4237 35.9781 17.8986 35.9586 18.507C35.9586 18.9601 35.606 19.3179 35.2331 19.5264C34.4582 19.954 33.567 20.0763 32.705 20.2084C27.6676 21.0741 22.7997 23.0455 18.6639 26.062C18.6677 25.6502 18.6167 25.2398 18.6152 24.8287C20.2573 23.074 22.2153 21.6442 24.2618 20.3989C27.0674 18.7058 30.0712 17.3637 33.1409 16.2279Z" fill="#AA0000"/>
<path d="M29.3268 21.9539C29.3756 22.359 29.3493 22.7686 29.3854 23.1752C27.6232 25.0664 25.4934 26.5773 23.2751 27.8871C20.6218 29.4362 17.8056 30.6927 14.9249 31.7558C14.6128 31.8818 14.3075 32.0731 13.9572 32.0521C13.3975 32.0663 12.9729 31.596 12.7404 31.1331C12.4598 30.5997 12.003 30.0949 12.0435 29.4542C12.0667 28.9981 12.4388 28.6613 12.8147 28.458C13.5626 28.0641 14.411 27.9373 15.2362 27.8098C20.2909 26.9539 25.1784 24.9801 29.3268 21.9539Z" fill="#AA0000"/>
<path d="M24.5862 28.957C26.2674 28.1348 27.893 27.1821 29.3656 26.0223C29.3604 26.3816 29.4144 26.747 29.3971 27.101C28.1788 28.6186 26.638 29.8414 25.0273 30.9179C22.6433 32.4896 20.0634 33.7356 17.4513 34.8759C16.9884 35.1122 16.398 35.209 15.9314 34.9291C15.6599 34.6981 15.4161 34.4355 15.152 34.1955C14.9397 34.0034 14.7274 33.7986 14.5961 33.5406C14.4731 33.2908 14.5286 32.9727 14.7341 32.7836C15.0875 32.4491 15.5676 32.3073 16.0245 32.1767C18.9389 31.2788 21.8391 30.293 24.5862 28.957Z" fill="#AA0000"/>
<path d="M19.2026 34.9877C22.7794 33.7881 26.3188 32.3073 29.3682 30.05C29.3765 30.4468 29.4575 30.8437 29.432 31.2398C28.3862 32.4626 27.1237 33.4843 25.8019 34.3935C24.177 35.5038 22.4433 36.443 20.6782 37.3065C20.4404 37.452 20.177 37.5855 19.8897 37.5713C19.5169 37.5345 19.1493 37.4002 18.8582 37.1609C18.5221 36.8894 18.1268 36.6861 17.838 36.3597C17.6347 36.1534 17.6234 35.7851 17.8447 35.5878C18.2086 35.2262 18.7389 35.155 19.2026 34.9877Z" fill="#AA0000"/>
<path d="M22.3677 37.2607C24.9025 36.5495 27.2851 35.3267 29.3698 33.7228C29.3631 34.1219 29.3721 34.5218 29.3631 34.9209C28.159 36.2757 26.6909 37.3627 25.1981 38.3762C24.7922 38.6268 24.4216 38.9666 23.9423 39.0671C23.3616 39.2209 22.7435 39.0994 22.2064 38.8541C21.8935 38.7138 21.55 38.5682 21.3474 38.2779C21.2131 38.0941 21.3129 37.8496 21.4742 37.7213C21.7315 37.5022 22.0443 37.3515 22.3677 37.2607Z" fill="#AA0000"/>
<path d="M27.642 38.0295C28.2384 37.6469 28.8408 37.2636 29.3696 36.7895C29.3584 37.4639 29.3862 38.1383 29.3974 38.812C29.3711 39.2981 28.9721 39.6732 28.5347 39.8262C27.9038 40.0475 27.2204 40.016 26.5647 39.956C26.2009 39.8982 25.8056 39.8967 25.4897 39.6837C25.3802 39.6289 25.399 39.5006 25.3952 39.4001C25.501 39.2996 25.606 39.1946 25.7388 39.13C26.3952 38.8022 27.0171 38.4121 27.642 38.0295Z" fill="#AA0000"/>
</svg>
