<svg width="48" height="48" viewBox="0 0 48 48" fill="none" xmlns="http://www.w3.org/2000/svg">
<path d="M17.5567 4.75112C18.1344 4.09659 19.0759 4.02438 19.8926 4C20.5246 4.04501 21.1642 4.07689 21.7793 4.23724C21.9781 4.32351 22.2726 4.40041 22.2819 4.66391C22.0794 5.08213 21.5843 5.18903 21.2186 5.41596C19.8692 6.2149 18.487 6.9904 17.2961 8.02002C17.3139 7.55397 17.2445 7.09074 17.2689 6.62469C17.282 5.99923 17.0991 5.26686 17.5567 4.75112Z" fill="#AA0000"/>
<path d="M23.4531 5.41773C24.5971 4.7782 25.999 5.18329 27.024 5.86596C27.2968 6.03662 27.5359 6.42109 27.2921 6.7146C26.9546 7.1075 26.4538 7.32505 25.9634 7.45821C22.8333 8.35186 19.8841 9.85878 17.3101 11.8486C17.3054 11.3469 17.3035 10.8453 17.311 10.3436C19.0805 8.38562 21.2495 6.84682 23.4531 5.41773Z" fill="#AA0000"/>
<path d="M28.5965 7.14896C29.2379 6.91453 29.9544 7.18459 30.4635 7.5925C30.8321 7.88226 31.2437 8.11575 31.5907 8.43364C31.8382 8.66432 32.0342 9.05722 31.8176 9.37324C31.4707 9.87304 30.8358 10.0128 30.2891 10.1862C25.7093 11.6932 21.182 13.578 17.2792 16.4549C17.2463 15.9607 17.2454 15.4647 17.1873 14.9724C19.3037 12.5549 21.9931 10.7264 24.7687 9.14912C26.0206 8.43739 27.3119 7.79786 28.5965 7.14896Z" fill="#AA0000"/>
<path d="M32.4749 10.2976C33.0366 10.0688 33.7633 10.0491 34.2368 10.4758C34.626 10.8696 35.0386 11.241 35.4324 11.6292C35.6828 11.918 35.9613 12.3184 35.7935 12.7141C35.5909 13.1943 35.063 13.4118 34.6119 13.5937C30.7588 14.7734 26.9142 16.0412 23.2852 17.8097C21.1669 18.8394 19.1283 20.0462 17.2706 21.4959C17.2734 21.0477 17.25 20.6004 17.2425 20.1522C19.1911 17.7357 21.7501 15.8977 24.3954 14.3139C26.9845 12.777 29.7123 11.4885 32.4749 10.2976Z" fill="#AA0000"/>
<path d="M35.4261 14.2848C35.8602 14.0879 36.3272 13.8479 36.8186 13.9641C37.4206 14.101 37.8332 14.6187 38.1023 15.1429C38.4324 15.7796 38.9725 16.3732 38.9481 17.1336C38.9481 17.7 38.5074 18.1473 38.0414 18.408C37.0727 18.9425 35.9587 19.0954 34.8812 19.2604C28.5844 20.3425 22.4995 22.8069 17.3299 26.5775C17.3346 26.0626 17.2708 25.5497 17.2689 25.0358C19.3216 22.8425 21.7691 21.0552 24.3272 19.4986C27.8342 17.3821 31.5889 15.7046 35.4261 14.2848Z" fill="#AA0000"/>
<path d="M30.6585 21.4424C30.7195 21.9488 30.6866 22.4608 30.7316 22.9691C28.5289 25.3331 25.8667 27.2216 23.0939 28.8589C19.7772 30.7953 16.257 32.366 12.6561 33.6947C12.266 33.8523 11.8843 34.0914 11.4464 34.0651C10.7469 34.083 10.2161 33.495 9.92544 32.9164C9.57474 32.2497 9.00366 31.6186 9.0543 30.8178C9.08337 30.2477 9.54848 29.8266 10.0183 29.5725C10.9532 29.0802 12.0138 28.9217 13.0452 28.7623C19.3636 27.6924 25.4729 25.2252 30.6585 21.4424Z" fill="#AA0000"/>
<path d="M24.7328 30.1963C26.8343 29.1685 28.8663 27.9776 30.7071 26.5279C30.7005 26.9771 30.768 27.4337 30.7465 27.8763C29.2236 29.7734 27.2975 31.3018 25.2842 32.6475C22.3041 34.612 19.0793 36.1696 15.8142 37.5949C15.2356 37.8903 14.4976 38.0113 13.9143 37.6615C13.5749 37.3727 13.2701 37.0445 12.94 36.7444C12.6747 36.5043 12.4093 36.2483 12.2452 35.9258C12.0914 35.6135 12.1608 35.2159 12.4177 34.9796C12.8594 34.5614 13.4595 34.3841 14.0306 34.221C17.6737 33.0985 21.2989 31.8664 24.7328 30.1963Z" fill="#AA0000"/>
<path d="M18.0032 37.7345C22.4743 36.2351 26.8984 34.384 30.7103 31.5624C30.7206 32.0585 30.8219 32.5545 30.79 33.0497C29.4828 34.5782 27.9046 35.8553 26.2523 36.9919C24.2212 38.3797 22.0542 39.5537 19.8477 40.633C19.5504 40.815 19.2213 40.9819 18.8622 40.9641C18.3961 40.9181 17.9366 40.7503 17.5728 40.4511C17.1527 40.1117 16.6585 39.8575 16.2975 39.4496C16.0434 39.1918 16.0293 38.7313 16.3059 38.4847C16.7607 38.0327 17.4237 37.9436 18.0032 37.7345Z" fill="#AA0000"/>
<path d="M21.9596 40.5758C25.1282 39.6868 28.1064 38.1584 30.7123 36.1535C30.7039 36.6524 30.7151 37.1522 30.7039 37.651C29.1988 39.3446 27.3637 40.7033 25.4976 41.9702C24.9903 42.2834 24.5271 42.7082 23.9279 42.8338C23.2021 43.0261 22.4294 42.8742 21.758 42.5675C21.367 42.3922 20.9375 42.2103 20.6843 41.8474C20.5165 41.6176 20.6412 41.3119 20.8428 41.1516C21.1644 40.8778 21.5555 40.6893 21.9596 40.5758Z" fill="#AA0000"/>
<path d="M28.5524 41.5369C29.2979 41.0586 30.0509 40.5795 30.712 39.9868C30.6979 40.8298 30.7326 41.6728 30.7467 42.5149C30.7139 43.1226 30.215 43.5914 29.6683 43.7827C28.8797 44.0593 28.0254 44.02 27.2059 43.9449C26.7511 43.8727 26.2569 43.8709 25.8621 43.6046C25.7252 43.5361 25.7486 43.3757 25.744 43.2501C25.8762 43.1244 26.0075 42.9932 26.1734 42.9125C26.9939 42.5027 27.7713 42.0151 28.5524 41.5369Z" fill="#AA0000"/>
</svg>
