<svg width="48" height="48" viewBox="0 0 48 48" fill="none" xmlns="http://www.w3.org/2000/svg">
<path d="M29.5716 39.5293L16.1524 30.7935C16.1524 30.7935 14.4696 29.8258 14.0843 28.0234C13.5432 25.4926 15.3269 23.3228 15.3269 23.3228L32.7427 34.6648C34.0862 35.5403 34.4527 37.3316 33.5892 38.6828C32.702 40.0707 30.8791 40.377 29.571 39.5293H29.5716Z" fill="#38D200"/>
<path d="M16.8614 21.4507C16.8614 21.4507 14.8059 20.2096 14.8059 17.3389C14.8059 14.4782 16.8605 13.2523 16.8605 13.2523L24.1967 8.45101C24.8422 8.04191 25.6231 7.90383 26.3698 8.06673C27.1166 8.22963 27.769 8.68037 28.1855 9.32117C28.6021 9.96198 28.7492 10.7412 28.5949 11.4897C28.4407 12.2383 27.9976 12.8959 27.3616 13.3198L21.1785 17.346L31.7133 24.2071C31.7133 24.2071 33.6096 25.2934 33.9832 27.1275C34.5047 29.6861 32.7435 31.7942 32.7435 31.7942L16.8614 21.4507ZM16.8225 39.9924C17.511 39.9924 18.0013 39.7739 18.4795 39.4638L22.0607 37.131L18.4795 34.7989C17.9969 34.4879 17.4903 34.2703 16.8225 34.2703C16.4433 34.2649 16.0669 34.3349 15.715 34.4762C15.3631 34.6176 15.0429 34.8274 14.7728 35.0936C14.5028 35.3599 14.2883 35.6771 14.142 36.0269C13.9956 36.3767 13.9202 36.7521 13.9202 37.1313C13.9202 37.5105 13.9956 37.8859 14.142 38.2358C14.2883 38.5856 14.5028 38.9028 14.7728 39.169C15.0429 39.4352 15.3631 39.6451 15.715 39.7865C16.0669 39.9278 16.4433 39.9978 16.8225 39.9924Z" fill="#0473EA"/>
<path d="M30.6694 14.4852C29.9805 14.4852 29.4903 14.7037 29.012 15.0134L25.4305 17.3459L29.012 19.6784C29.4947 19.9896 30.0016 20.2073 30.6694 20.2073C31.0451 20.2073 31.4172 20.1332 31.7643 19.9895C32.1114 19.8457 32.4268 19.6349 32.6925 19.3693C32.9581 19.1036 33.1689 18.7882 33.3127 18.4411C33.4564 18.094 33.5304 17.7219 33.5304 17.3462C33.5304 16.9705 33.4564 16.5985 33.3127 16.2513C33.1689 15.9042 32.9581 15.5888 32.6925 15.3231C32.4268 15.0575 32.1114 14.8467 31.7643 14.703C31.4172 14.5592 31.0451 14.4852 30.6694 14.4852Z" fill="#38D200"/>
</svg>
