<svg width="48" height="48" viewBox="0 0 48 48" fill="none" xmlns="http://www.w3.org/2000/svg">
<path d="M30.9645 43.4116L14.1906 32.4918C14.1906 32.4918 12.087 31.2823 11.6055 29.0292C10.9291 25.8657 13.1587 23.1534 13.1587 23.1534L34.9284 37.331C36.6078 38.4254 37.0659 40.6646 35.9866 42.3534C34.8776 44.0884 32.5989 44.4712 30.9638 43.4116H30.9645Z" fill="#38D200"/>
<path d="M15.0768 20.8134C15.0768 20.8134 12.5074 19.262 12.5074 15.6737C12.5074 12.0977 15.0757 10.5653 15.0757 10.5653L24.2459 4.56376C25.0528 4.05239 26.0289 3.87979 26.9623 4.08341C27.8957 4.28704 28.7112 4.85046 29.2319 5.65147C29.7526 6.45247 29.9365 7.42647 29.7437 8.36218C29.5509 9.2979 28.997 10.1199 28.2021 10.6498L20.4732 15.6824L33.6417 24.2588C33.6417 24.2588 36.0121 25.6168 36.479 27.9094C37.1309 31.1076 34.9294 33.7427 34.9294 33.7427L15.0768 20.8134ZM15.0281 43.9905C15.8888 43.9905 16.5017 43.7173 17.0995 43.3298L21.576 40.4138L17.0995 37.4986C16.4962 37.1099 15.8629 36.8379 15.0281 36.8379C14.5542 36.8311 14.0836 36.9186 13.6438 37.0953C13.2039 37.272 12.8036 37.5343 12.4661 37.8671C12.1285 38.1998 11.8605 38.5964 11.6775 39.0336C11.4945 39.4709 11.4003 39.9402 11.4003 40.4142C11.4003 40.8882 11.4945 41.3574 11.6775 41.7947C11.8605 42.232 12.1285 42.6285 12.4661 42.9613C12.8036 43.294 13.2039 43.5564 13.6438 43.7331C14.0836 43.9097 14.5542 43.9972 15.0281 43.9905Z" fill="#0473EA"/>
<path d="M32.3368 12.1065C31.4757 12.1065 30.8629 12.3796 30.2651 12.7668L25.7882 15.6824L30.2651 18.598C30.8684 18.9871 31.502 19.2591 32.3368 19.2591C32.8064 19.2591 33.2715 19.1666 33.7054 18.9869C34.1393 18.8072 34.5335 18.5437 34.8656 18.2116C35.1977 17.8795 35.4611 17.4853 35.6409 17.0514C35.8206 16.6175 35.9131 16.1525 35.9131 15.6828C35.9131 15.2132 35.8206 14.7481 35.6409 14.3142C35.4611 13.8803 35.1977 13.4861 34.8656 13.154C34.5335 12.8219 34.1393 12.5585 33.7054 12.3787C33.2715 12.199 32.8064 12.1065 32.3368 12.1065Z" fill="#38D200"/>
</svg>
