<svg width="48" height="48" viewBox="0 0 48 48" fill="none" xmlns="http://www.w3.org/2000/svg">
<g clip-path="url(#clip0_13_565)">
<path d="M43.9968 24C43.9994 35.0413 35.048 43.9941 24.0032 43.9968C12.9584 43.9994 4.00256 35.0507 4 24.0094V24C3.99736 12.9587 12.9488 4.00586 23.9937 4.00314C35.0385 4.00058 43.9942 12.9492 43.9969 23.9905L43.9968 24Z" fill="#156DD1"/>
<path d="M27.5982 24C27.5982 25.9874 25.9865 27.5986 23.9985 27.5986C22.0103 27.5986 20.3987 25.9874 20.3987 24C20.3987 22.0125 22.0103 20.4014 23.9985 20.4014C25.9865 20.4014 27.5982 22.0125 27.5982 24Z" fill="white"/>
<path d="M22.7571 26.6194H25.2397V43.992H22.7571V26.6194Z" fill="white"/>
</g>
<defs>
<clipPath id="clip0_13_565">
<rect width="39.9968" height="40" fill="white" transform="translate(4 4)"/>
</clipPath>
</defs>
</svg>
