<svg width="48" height="48" viewBox="0 0 48 48" fill="none" xmlns="http://www.w3.org/2000/svg">
<g clip-path="url(#clip0_20_2860)">
<path fill-rule="evenodd" clip-rule="evenodd" d="M32.4364 30.493C32.3636 30.493 32.3256 30.4628 32.3256 30.4014V17.6165C32.3256 17.5432 32.3635 17.5067 32.4364 17.5067H38.6529C43.4867 17.5067 43.6307 22.7542 41.0534 23.7896C42.087 24.2323 42.9788 25.1537 43 26.7668C43 27.9113 42.6332 28.8184 41.8984 29.4884C41.1758 30.158 40.3197 30.493 39.3283 30.493H32.4364ZM34.6339 19.7178V22.7542H38.6664C41.0782 22.5874 41.0466 19.6677 38.4329 19.7178H34.6339ZM34.6339 24.9703V28.2674H38.8503C41.347 28.1843 41.0732 24.9148 38.8503 24.9703H34.6339Z" fill="#C72E8F"/>
<path fill-rule="evenodd" clip-rule="evenodd" d="M9.25419 30.493C9.18083 30.493 9.14404 30.4628 9.14404 30.4014V19.7231H5.11023C5.03679 19.7231 5 19.6866 5 19.6135V17.6165C5 17.5432 5.03679 17.5067 5.11023 17.5067H15.6067C15.6803 17.5067 15.7171 17.5432 15.7171 17.6165V19.6135C15.7171 19.6866 15.6803 19.7231 15.6067 19.7231H11.5922V30.4014C11.5922 30.4628 11.5554 30.493 11.4822 30.493H9.25419Z" fill="#C72E8F"/>
<path fill-rule="evenodd" clip-rule="evenodd" d="M15.4738 30.4019C15.4399 30.472 15.3967 30.4952 15.3447 30.4952H12.9156C12.864 30.4952 12.8219 30.4533 12.8219 30.4019L17.9309 17.5901C17.9379 17.5638 17.9754 17.5094 18.026 17.5094L20.4894 17.4969C20.5415 17.4969 20.5834 17.5391 20.5834 17.5901L15.4738 30.4019Z" fill="#C72E8F"/>
<path fill-rule="evenodd" clip-rule="evenodd" d="M23.0929 30.41C23.1148 30.4603 23.1619 30.5031 23.2132 30.5031H25.6518C25.7032 30.5031 25.7626 30.4603 25.7455 30.41L20.6086 17.5901C20.5834 17.5168 20.5336 17.4969 20.4823 17.4969H18.0508C17.9988 17.4969 17.9478 17.5254 17.9354 17.5768L23.0929 30.41Z" fill="#3052A1"/>
<path fill-rule="evenodd" clip-rule="evenodd" d="M28.4746 30.3878C28.4933 30.4378 28.5337 30.4812 28.586 30.4812H31.0328C31.0844 30.4812 31.1386 30.4396 31.1269 30.3878L26.0034 17.5901C25.9736 17.5353 25.9563 17.506 25.905 17.506L23.4451 17.4969C23.3931 17.4969 23.3504 17.5391 23.3504 17.5901L28.4746 30.3878Z" fill="#3052A1"/>
<path fill-rule="evenodd" clip-rule="evenodd" d="M22.212 20.591C22.258 20.6978 23.1915 23.0717 23.4175 23.6492C23.443 23.7083 23.507 23.7267 23.5456 23.6451C23.5824 23.5646 25.9888 17.5687 25.9888 17.5687C25.9765 17.5264 25.9304 17.4971 25.8824 17.4971H23.4175C23.3825 17.4984 23.3405 17.5429 23.3234 17.5903L22.202 20.3893C22.202 20.3893 22.1607 20.4694 22.212 20.591Z" fill="#C72E8F"/>
</g>
<defs>
<clipPath id="clip0_20_2860">
<rect width="38" height="38" fill="white" transform="translate(5 5)"/>
</clipPath>
</defs>
</svg>
