<svg width="48" height="48" viewBox="0 0 48 48" fill="none" xmlns="http://www.w3.org/2000/svg">
<g clip-path="url(#clip0_20_2041)">
<path fill-rule="evenodd" clip-rule="evenodd" d="M32.8804 30.8348C32.8038 30.8348 32.7638 30.803 32.7638 30.7383V17.2806C32.7638 17.2033 32.8037 17.165 32.8804 17.165H39.4241C44.5124 17.165 44.6639 22.6886 41.951 23.7785C43.0389 24.2446 43.9776 25.2144 44 26.9124C44 28.1172 43.6139 29.072 42.8405 29.7773C42.0798 30.4821 41.1786 30.8348 40.135 30.8348H32.8804ZM35.1935 19.4925V22.6886H39.4383C41.9771 22.5131 41.9438 19.4397 39.1926 19.4925H35.1935ZM35.1935 25.0214V28.4921H39.6319C42.26 28.4045 41.9718 24.963 39.6319 25.0214H35.1935Z" fill="#C72E8F"/>
<path fill-rule="evenodd" clip-rule="evenodd" d="M8.4781 30.8348C8.40088 30.8348 8.36215 30.803 8.36215 30.7383V19.498H4.11603C4.03873 19.498 4 19.4596 4 19.3827V17.2806C4 17.2033 4.03873 17.165 4.11603 17.165H15.1649C15.2425 17.165 15.2812 17.2034 15.2812 17.2806V19.3827C15.2812 19.4596 15.2425 19.498 15.1649 19.498H10.9392V30.7383C10.9392 30.803 10.9005 30.8348 10.8234 30.8348H8.4781Z" fill="#C72E8F"/>
<path fill-rule="evenodd" clip-rule="evenodd" d="M15.0251 30.7389C14.9893 30.8126 14.9439 30.837 14.8891 30.837H12.3322C12.2779 30.837 12.2335 30.793 12.2335 30.7389L17.6114 17.2527C17.6189 17.2251 17.6583 17.1678 17.7116 17.1678L20.3046 17.1546C20.3594 17.1546 20.4036 17.199 20.4036 17.2527L15.0251 30.7389Z" fill="#C72E8F"/>
<path fill-rule="evenodd" clip-rule="evenodd" d="M23.0452 30.7473C23.0682 30.8003 23.1177 30.8453 23.1718 30.8453H25.7388C25.7928 30.8453 25.8553 30.8004 25.8374 30.7473L20.4301 17.2527C20.4036 17.1755 20.3512 17.1546 20.2972 17.1546H17.7377C17.6829 17.1546 17.6293 17.1847 17.6162 17.2387L23.0452 30.7473Z" fill="#3052A1"/>
<path fill-rule="evenodd" clip-rule="evenodd" d="M28.7101 30.724C28.7298 30.7766 28.7723 30.8223 28.8273 30.8223H31.4029C31.4573 30.8223 31.5143 30.7785 31.502 30.724L26.1088 17.2527C26.0775 17.195 26.0593 17.1642 26.0053 17.1642L23.4159 17.1546C23.3612 17.1546 23.3162 17.199 23.3162 17.2527L28.7101 30.724Z" fill="#3052A1"/>
<path fill-rule="evenodd" clip-rule="evenodd" d="M22.1179 20.4116C22.1663 20.5239 23.1489 23.0228 23.3868 23.6307C23.4137 23.6929 23.481 23.7123 23.5216 23.6264C23.5604 23.5417 26.0935 17.2302 26.0935 17.2302C26.0805 17.1857 26.032 17.1548 25.9814 17.1548H23.3868C23.35 17.1562 23.3057 17.203 23.2878 17.2529L22.1074 20.1992C22.1074 20.1992 22.0639 20.2835 22.1179 20.4116Z" fill="#C72E8F"/>
</g>
<defs>
<clipPath id="clip0_20_2041">
<rect width="40" height="40" fill="white" transform="translate(4 4)"/>
</clipPath>
</defs>
</svg>
