<svg width="48" height="48" viewBox="0 0 48 48" fill="none" xmlns="http://www.w3.org/2000/svg">
<path d="M19.7958 13.8875C20.1354 13.2951 20.3138 12.6243 20.3131 11.9418C20.3131 9.82964 18.663 8.11829 16.6268 8.11829C15.0668 8.11829 13.7359 9.12488 13.1977 10.5451L5.18534 31.0842C5.06406 31.3538 5.00091 31.6459 5 31.9415C5 33.0788 5.88876 34.0004 6.98503 34.0004C7.70956 34.0004 8.33677 33.5946 8.68311 32.9931L19.7958 13.8875Z" fill="url(#paint0_linear_17_74)"/>
<path d="M13.0295 12.7712C12.8839 12.0904 12.8986 11.3477 13.2002 10.5647C13.7036 9.25632 14.8668 8.29187 16.2174 8.14113C18.0887 7.93146 19.7113 9.17702 20.1761 10.9209L27.9656 36.6219C28.3094 37.6665 28.3457 38.7877 28.0704 39.8524C27.5144 42.0278 25.7043 43.6802 23.5504 43.956C20.5825 44.336 18.0225 42.2078 17.5588 39.3431L13.0295 12.7712Z" fill="url(#paint1_linear_17_74)"/>
<path d="M42.0672 14.9887C42.7818 13.688 43.0971 12.2061 42.9739 10.7277C42.688 7.19743 39.9241 4.32196 36.5193 4.02656C33.2938 3.74651 30.4762 5.70969 29.3477 8.57588L17.947 36.1354C17.533 37.0959 17.3883 38.1507 17.5284 39.187C17.8647 41.7181 19.8827 43.7313 22.335 43.9735C24.6184 44.1992 26.641 42.9462 27.6232 41.0309L42.0672 14.9887Z" fill="url(#paint2_linear_17_74)"/>
<defs>
<linearGradient id="paint0_linear_17_74" x1="6.12025" y1="33.7968" x2="18.9976" y2="8.89497" gradientUnits="userSpaceOnUse">
<stop offset="0.1" stop-color="#0096FF"/>
<stop offset="0.179" stop-color="#1680FF"/>
<stop offset="0.389" stop-color="#4D49FF"/>
<stop offset="0.569" stop-color="#7521FF"/>
<stop offset="0.712" stop-color="#8D09FF"/>
<stop offset="0.8" stop-color="#9600FF"/>
</linearGradient>
<linearGradient id="paint1_linear_17_74" x1="15.1133" y1="8.40332" x2="24.9046" y2="43.6335" gradientUnits="userSpaceOnUse">
<stop offset="0.1" stop-color="#9600FF"/>
<stop offset="0.266" stop-color="#B600DF"/>
<stop offset="0.5" stop-color="#DE00B7"/>
<stop offset="0.686" stop-color="#F6009F"/>
<stop offset="0.8" stop-color="#FF0096"/>
</linearGradient>
<linearGradient id="paint2_linear_17_74" x1="20.4909" y1="43.427" x2="40.1807" y2="5.35128" gradientUnits="userSpaceOnUse">
<stop offset="0.1" stop-color="#FF0096"/>
<stop offset="0.19" stop-color="#FF1680"/>
<stop offset="0.427" stop-color="#FF4D49"/>
<stop offset="0.633" stop-color="#FF7521"/>
<stop offset="0.795" stop-color="#FF8D09"/>
<stop offset="0.895" stop-color="#FF9600"/>
</linearGradient>
</defs>
</svg>
