<svg width="48" height="48" viewBox="0 0 48 48" fill="none" xmlns="http://www.w3.org/2000/svg">
<path d="M14.7685 6.54501C14.8866 6.54519 15.0047 6.54509 15.1227 6.54501C15.3667 6.54484 15.6107 6.54494 15.8547 6.54519C16.1015 6.54544 16.3484 6.54557 16.5952 6.54554C16.6187 6.54554 16.6187 6.54554 16.6427 6.54554C16.7225 6.54553 16.8023 6.54552 16.8822 6.54551C17.4584 6.54542 18.0347 6.54562 18.611 6.54597C19.1813 6.54631 19.7516 6.54654 20.322 6.5466C20.3397 6.5466 20.3574 6.5466 20.3757 6.54661C20.5378 6.54662 20.6998 6.54664 20.8619 6.54666C21.2646 6.54669 21.6674 6.54675 22.0701 6.54682C22.0885 6.54682 22.1068 6.54682 22.1257 6.54683C23.0167 6.54698 23.9077 6.54734 24.7987 6.54773C25.1077 6.54786 25.4167 6.54799 25.7258 6.54812C25.7545 6.54813 25.7545 6.54813 25.7839 6.54814C26.6756 6.54851 27.5674 6.54873 28.4592 6.54891C28.5171 6.54892 28.575 6.54893 28.6329 6.54894C29.0168 6.54902 29.4007 6.54909 29.7846 6.54916C30.5484 6.54931 31.3122 6.54947 32.076 6.54963C32.1123 6.54964 32.1487 6.54965 32.1851 6.54966C33.8214 6.55002 35.4578 6.55056 37.0941 6.55118C37.1095 6.55119 37.1248 6.55119 37.1406 6.5512C37.9065 6.55149 38.6724 6.55179 39.4383 6.5521C39.4361 6.63226 39.4337 6.71241 39.4313 6.79256C39.4305 6.81969 39.4297 6.84682 39.429 6.87395C39.3776 8.73246 38.6468 10.5393 36.879 12.5453C36.8656 12.5588 36.8522 12.5722 36.8384 12.586C36.7508 12.673 36.66 12.7551 36.566 12.8353C36.5473 12.8517 36.5286 12.868 36.5093 12.8849C36.0624 13.2686 35.5703 13.5988 35.0523 13.8793C35.0348 13.8889 35.0174 13.8984 34.9994 13.9083C33.566 14.6894 32.0488 14.8922 30.4395 14.8886C30.3148 14.8883 30.19 14.8883 30.0653 14.8882C29.8566 14.8881 29.6479 14.8879 29.4391 14.8875C29.2245 14.8872 29.0098 14.8869 28.7951 14.8868C28.7752 14.8867 28.7752 14.8867 28.7548 14.8867C28.688 14.8867 28.6213 14.8866 28.5545 14.8866C28.0034 14.8862 27.4524 14.8855 26.9013 14.8846C26.9014 14.903 26.9014 14.9213 26.9014 14.9402C26.903 18.2058 26.903 18.2058 26.9038 20.9353C26.9038 20.9655 26.9038 20.9956 26.9038 21.0258C26.904 21.6591 26.9042 22.2925 26.9043 22.9258C26.9044 23.244 26.9045 23.5622 26.9045 23.8804C26.9045 23.9283 26.9046 23.9763 26.9046 24.0243C26.9047 24.7628 26.905 25.5013 26.9053 26.2398C26.9054 26.2557 26.9054 26.2716 26.9054 26.2879C26.9055 26.5436 26.9056 26.7994 26.9058 27.0551C26.9061 27.7922 26.9065 28.5293 26.9067 29.2665C26.9067 29.2817 26.9067 29.2968 26.9067 29.3125C26.9067 29.6458 26.9068 29.9791 26.9068 30.3124C26.9068 30.4465 26.9069 30.5807 26.9069 30.7148C26.9069 30.7295 26.9069 30.7442 26.9069 30.7593C26.9069 31.2313 26.9072 31.7032 26.9075 32.1752C26.9079 32.6511 26.908 33.1271 26.908 33.603C26.9079 33.669 26.9079 33.735 26.9079 33.8009C26.9079 33.8139 26.9079 33.8268 26.9079 33.8401C26.9079 34.0561 26.9081 34.2721 26.9084 34.488C26.9086 34.6766 26.9086 34.8652 26.9084 35.0538C26.9084 35.161 26.9084 35.2682 26.9086 35.3754C26.9132 37.3637 26.3678 39.2558 25.0818 40.8576C25.059 40.8859 25.0364 40.9143 25.0138 40.9427C24.917 41.0628 24.8144 41.1764 24.7087 41.2888C24.6717 41.3282 24.6355 41.3679 24.5994 41.4082C23.9352 42.1491 23.0785 42.738 22.1849 43.1696C22.147 43.188 22.1093 43.2066 22.0717 43.2253C21.1877 43.6577 20.1965 43.9047 19.2162 43.9808C19.2025 43.9819 19.1887 43.983 19.1746 43.9841C18.9617 44.0004 18.7509 44.0001 18.5369 44.0001C18.5369 34.392 18.5369 24.7839 18.5369 14.8846C14.3997 14.8846 10.2626 14.8846 6 14.8846C6.05897 13.0048 6.5877 11.2529 7.76604 9.76138C7.77616 9.74854 7.78628 9.7357 7.79671 9.72246C7.93252 9.55103 8.07466 9.38758 8.225 9.22872C8.26442 9.18663 8.30264 9.14351 8.34097 9.10044C8.46474 8.96309 8.59474 8.83273 8.73563 8.71279C8.77961 8.67494 8.82219 8.63577 8.86496 8.59657C8.97476 8.49791 9.09048 8.4078 9.20753 8.31794C9.23794 8.29442 9.26802 8.27046 9.29805 8.24646C10.8838 6.99281 12.787 6.541 14.7685 6.54501Z" fill="#0A0A0A"/>
<path d="M37.3229 6.552C38.021 6.552 38.7191 6.552 39.4383 6.552C39.3673 8.7448 38.6184 10.7376 36.879 12.5452C36.8656 12.5587 36.8522 12.5721 36.8384 12.5859C36.7508 12.6729 36.66 12.755 36.566 12.8352C36.5473 12.8516 36.5286 12.8679 36.5093 12.8848C36.0624 13.2685 35.5703 13.5987 35.0523 13.8792C35.0348 13.8888 35.0174 13.8983 34.9994 13.9082C33.9679 14.4703 32.7109 14.8712 31.5246 14.8675C31.4947 14.8675 31.4947 14.8675 31.4642 14.8676C31.3981 14.8676 31.332 14.8675 31.2659 14.8674C31.2182 14.8674 31.1706 14.8674 31.1229 14.8674C31.0207 14.8674 30.9184 14.8674 30.8162 14.8672C30.6684 14.8671 30.5205 14.867 30.3727 14.867C30.1328 14.867 29.8929 14.8668 29.653 14.8667C29.4201 14.8665 29.1871 14.8663 28.9542 14.8663C28.9398 14.8663 28.9255 14.8662 28.9107 14.8662C28.8385 14.8662 28.7664 14.8662 28.6942 14.8662C28.0966 14.866 27.499 14.8656 26.9014 14.8652C26.9014 14.8524 26.9014 14.8397 26.9014 14.8265C26.9248 14.8239 26.9482 14.8213 26.9724 14.8186C27.4802 14.7588 27.9848 14.6683 28.4806 14.5438C28.4946 14.5403 28.5086 14.5368 28.523 14.5331C28.9329 14.4295 29.3373 14.3046 29.7372 14.168C29.7504 14.1635 29.7635 14.159 29.7771 14.1544C30.4083 13.9379 31.0179 13.6688 31.6173 13.3766C31.6356 13.3677 31.6539 13.3588 31.6728 13.3497C31.9517 13.2146 32.2222 13.0673 32.4906 12.9126C32.5053 12.9041 32.5201 12.8957 32.5353 12.887C33.3066 12.4462 34.0598 11.9314 34.7152 11.3304C34.7543 11.2949 34.7939 11.2602 34.8338 11.2257C34.9186 11.1519 35.0008 11.0756 35.0826 10.9986C35.1035 10.9791 35.1035 10.9791 35.1247 10.9592C35.2483 10.8432 35.3685 10.7262 35.4792 10.598C35.5163 10.5559 35.5544 10.515 35.5928 10.4741C35.7082 10.351 35.8137 10.2221 35.9164 10.0884C35.9466 10.0492 35.9772 10.0102 36.0077 9.97123C36.2053 9.71814 36.3826 9.4559 36.5447 9.17894C36.5656 9.14334 36.5869 9.10798 36.6083 9.07262C37.0738 8.28859 37.2584 7.45213 37.3229 6.552Z" fill="#28B4C2"/>
<path d="M34.4313 4C36.9289 4 39.4266 4 42 4C42 9.12325 42 9.12325 40.7968 11.5205C40.214 11.5205 39.6312 11.5205 39.0307 11.5205C39.0563 11.4569 39.0775 11.4068 39.1118 11.3497C39.1243 11.3288 39.1243 11.3288 39.137 11.3074C39.146 11.2924 39.1549 11.2774 39.1642 11.262C39.2893 11.0493 39.4042 10.8318 39.5159 10.6119C39.5237 10.5968 39.5314 10.5816 39.5394 10.5661C39.9806 9.69847 40.2402 8.73191 40.3735 7.77235C40.3765 7.75117 40.3795 7.72999 40.3826 7.70817C40.4785 6.97883 40.4569 6.24148 40.4668 5.50797C38.4751 5.50797 36.4834 5.50797 34.4313 5.50797C34.4313 5.01034 34.4313 4.51271 34.4313 4Z" fill="#29B6C4"/>
</svg>
