<svg width="48" height="48" viewBox="0 0 48 48" fill="none" xmlns="http://www.w3.org/2000/svg">
<path d="M16.82 11.2239C16.9118 11.224 17.0036 11.2239 17.0955 11.2239C17.2852 11.2237 17.475 11.2238 17.6648 11.224C17.8568 11.2242 18.0488 11.2243 18.2408 11.2243C18.259 11.2243 18.259 11.2243 18.2777 11.2243C18.3397 11.2243 18.4018 11.2243 18.4639 11.2243C18.9121 11.2242 19.3603 11.2244 19.8086 11.2246C20.2521 11.2249 20.6957 11.2251 21.1393 11.2251C21.1531 11.2251 21.1669 11.2251 21.1811 11.2251C21.3072 11.2251 21.4332 11.2252 21.5592 11.2252C21.8725 11.2252 22.1858 11.2252 22.499 11.2253C22.5133 11.2253 22.5275 11.2253 22.5422 11.2253C23.2352 11.2254 23.9282 11.2257 24.6212 11.226C24.8616 11.2261 25.1019 11.2262 25.3423 11.2263C25.3646 11.2263 25.3646 11.2263 25.3875 11.2263C26.081 11.2266 26.7746 11.2268 27.4682 11.2269C27.5133 11.2269 27.5583 11.2269 27.6034 11.2269C27.902 11.227 28.2006 11.2271 28.4991 11.2271C29.0932 11.2272 29.6873 11.2273 30.2813 11.2275C30.3096 11.2275 30.3379 11.2275 30.3662 11.2275C31.6389 11.2278 32.9116 11.2282 34.1843 11.2287C34.1963 11.2287 34.2082 11.2287 34.2204 11.2287C34.8161 11.2289 35.4118 11.2292 36.0076 11.2294C36.0058 11.2917 36.004 11.3541 36.0021 11.4164C36.0015 11.4375 36.0009 11.4586 36.0003 11.4797C35.9604 12.9252 35.392 14.3306 34.017 15.8908C34.0066 15.9012 33.9962 15.9117 33.9855 15.9224C33.9173 15.9901 33.8466 16.0539 33.7736 16.1164C33.759 16.1291 33.7445 16.1418 33.7295 16.1549C33.3819 16.4534 32.9992 16.7102 32.5962 16.9283C32.5826 16.9358 32.5691 16.9432 32.5551 16.9509C31.4402 17.5584 30.2602 17.7162 29.0085 17.7133C28.9115 17.7131 28.8145 17.7131 28.7175 17.7131C28.5551 17.713 28.3928 17.7128 28.2304 17.7125C28.0635 17.7122 27.8965 17.712 27.7296 17.7119C27.714 17.7119 27.714 17.7119 27.6982 17.7119C27.6463 17.7118 27.5943 17.7118 27.5424 17.7118C27.1138 17.7115 26.6852 17.7109 26.2566 17.7103C26.2566 17.7245 26.2566 17.7388 26.2566 17.7535C26.2579 20.2934 26.2579 20.2934 26.2585 22.4163C26.2585 22.4398 26.2585 22.4633 26.2585 22.4867C26.2587 22.9793 26.2588 23.4719 26.2589 23.9645C26.259 24.212 26.259 24.4595 26.2591 24.7069C26.2591 24.7443 26.2591 24.7816 26.2591 24.8189C26.2593 25.3933 26.2594 25.9677 26.2597 26.5421C26.2597 26.5544 26.2597 26.5668 26.2597 26.5795C26.2598 26.7784 26.2599 26.9773 26.26 27.1762C26.2603 27.7495 26.2606 28.3228 26.2607 28.8961C26.2607 28.9079 26.2607 28.9197 26.2607 28.9319C26.2608 29.1911 26.2608 29.4504 26.2609 29.7096C26.2609 29.814 26.2609 29.9183 26.2609 30.0226C26.2609 30.034 26.2609 30.0455 26.2609 30.0572C26.261 30.4243 26.2612 30.7914 26.2614 31.1584C26.2617 31.5286 26.2618 31.8988 26.2618 32.269C26.2617 32.3203 26.2617 32.3716 26.2617 32.4229C26.2617 32.433 26.2617 32.443 26.2617 32.4534C26.2617 32.6214 26.2619 32.7894 26.2621 32.9574C26.2623 33.104 26.2623 33.2507 26.2621 33.3974C26.2621 33.4808 26.2621 33.5641 26.2623 33.6475C26.2659 35.1939 25.8417 36.6656 24.8414 37.9115C24.8237 37.9334 24.8061 37.9555 24.7885 37.9776C24.7132 38.0711 24.6334 38.1594 24.5512 38.2469C24.5225 38.2775 24.4943 38.3084 24.4662 38.3397C23.9496 38.916 23.2833 39.374 22.5883 39.7097C22.5588 39.724 22.5295 39.7385 22.5002 39.753C21.8127 40.0893 21.0418 40.2814 20.2793 40.3406C20.2686 40.3415 20.2579 40.3423 20.2469 40.3432C20.0813 40.3558 19.9174 40.3557 19.751 40.3557C19.751 32.8827 19.751 25.4097 19.751 17.7103C16.5331 17.7103 13.3153 17.7103 10 17.7103C10.0459 16.2482 10.4571 14.8856 11.3736 13.7255C11.3815 13.7155 11.3893 13.7055 11.3975 13.6952C11.5031 13.5619 11.6136 13.4348 11.7306 13.3112C11.7612 13.2785 11.791 13.2449 11.8208 13.2114C11.917 13.1046 12.0181 13.0032 12.1277 12.9099C12.1619 12.8805 12.1951 12.85 12.2283 12.8195C12.3137 12.7428 12.4037 12.6727 12.4948 12.6028C12.5184 12.5845 12.5418 12.5659 12.5652 12.5472C13.7985 11.5722 15.2788 11.2208 16.82 11.2239Z" fill="#0A0A0A"/>
<path d="M34.3623 11.2294C34.9052 11.2294 35.4482 11.2294 36.0076 11.2294C35.9523 12.9349 35.3699 14.4848 34.017 15.8908C34.0066 15.9012 33.9962 15.9116 33.9855 15.9224C33.9173 15.9901 33.8466 16.0539 33.7736 16.1163C33.759 16.129 33.7445 16.1418 33.7295 16.1549C33.3819 16.4533 32.9992 16.7102 32.5962 16.9283C32.5827 16.9357 32.5691 16.9432 32.5551 16.9508C31.7529 17.388 30.7752 17.6999 29.8525 17.697C29.8292 17.697 29.8292 17.697 29.8055 17.697C29.7541 17.6971 29.7027 17.697 29.6512 17.6969C29.6142 17.6969 29.5771 17.6969 29.5401 17.6969C29.4606 17.6969 29.381 17.6969 29.3015 17.6968C29.1865 17.6967 29.0715 17.6966 28.9566 17.6966C28.77 17.6966 28.5834 17.6965 28.3968 17.6963C28.2156 17.6962 28.0345 17.6961 27.8533 17.696C27.8421 17.696 27.8309 17.696 27.8194 17.696C27.7633 17.696 27.7072 17.696 27.6511 17.6959C27.1863 17.6958 26.7214 17.6955 26.2566 17.6952C26.2566 17.6853 26.2566 17.6753 26.2566 17.6651C26.2749 17.6631 26.2931 17.661 26.3119 17.6589C26.7068 17.6124 27.0993 17.5421 27.4849 17.4452C27.4958 17.4425 27.5067 17.4397 27.5179 17.4369C27.8367 17.3563 28.1512 17.2591 28.4623 17.1529C28.4725 17.1494 28.4827 17.1459 28.4933 17.1423C28.9843 16.974 29.4584 16.7646 29.9245 16.5374C29.9388 16.5305 29.9531 16.5236 29.9678 16.5165C30.1847 16.4114 30.395 16.2968 30.6038 16.1765C30.6153 16.1699 30.6268 16.1633 30.6386 16.1566C31.2385 15.8137 31.8243 15.4134 32.334 14.9459C32.3644 14.9183 32.3952 14.8913 32.4263 14.8645C32.4923 14.8071 32.5562 14.7477 32.6198 14.6878C32.636 14.6727 32.636 14.6727 32.6526 14.6572C32.7487 14.5669 32.8422 14.476 32.9283 14.3762C32.9571 14.3435 32.9868 14.3117 33.0167 14.2799C33.1064 14.1841 33.1884 14.0839 33.2683 13.9799C33.2918 13.9494 33.3156 13.9191 33.3393 13.8888C33.493 13.6919 33.6309 13.488 33.757 13.2725C33.7733 13.2449 33.7898 13.2174 33.8064 13.1898C34.1685 12.5801 34.3121 11.9295 34.3623 11.2294Z" fill="#28B4C2"/>
<path d="M32.1132 9.24445C34.0558 9.24445 35.9985 9.24445 38 9.24445C38 13.2292 38 13.2292 37.0641 15.0938C36.6108 15.0938 36.1576 15.0938 35.6905 15.0938C35.7104 15.0443 35.7269 15.0053 35.7536 14.9609C35.7633 14.9446 35.7633 14.9446 35.7732 14.928C35.7802 14.9163 35.7871 14.9047 35.7943 14.8926C35.8917 14.7272 35.981 14.5581 36.0679 14.387C36.0739 14.3753 36.08 14.3635 36.0862 14.3514C36.4293 13.6766 36.6312 12.9248 36.7349 12.1785C36.7372 12.162 36.7396 12.1456 36.742 12.1286C36.8166 11.5613 36.7998 10.9878 36.8075 10.4173C35.2584 10.4173 33.7093 10.4173 32.1132 10.4173C32.1132 10.0303 32.1132 9.64322 32.1132 9.24445Z" fill="#29B6C4"/>
</svg>
