<svg width="48" height="48" viewBox="0 0 48 48" fill="none" xmlns="http://www.w3.org/2000/svg">
<g clip-path="url(#clip0_15_3552)">
<path fill-rule="evenodd" clip-rule="evenodd" d="M37.1543 43.9999L43.7903 37.3573V10.8201L37.1165 4H10.8933L4.20966 10.8661V37.4034L10.7979 43.9999H37.1543Z" fill="white"/>
<path d="M37.1543 44L43.7902 37.3575V10.8202L37.1164 4H10.8933L4.2096 10.8663V37.4035L10.7979 44H37.1543Z" stroke="white" stroke-width="0.246795" stroke-miterlimit="2.613"/>
<path fill-rule="evenodd" clip-rule="evenodd" d="M37.1165 37.2736H30.6121V29.9518L36.1593 24.1611L24.8231 11.8481V14.9531L32.0346 23.4013L24.8741 30.7577V43.9999H37.1543L43.7903 37.3573V10.8201L37.1165 4H10.8933L4.20966 10.8661V37.4034L10.7979 43.9999H23.1768L23.1742 30.7577L16.0136 23.4013L23.2252 14.9531V11.8481L11.889 24.1611L17.4346 29.9518V37.2736H10.9285V10.7264H37.0711L37.1165 37.2736ZM18.9272 22.9556C18.9272 20.1499 21.1984 17.8771 23.9991 17.8771C26.8015 17.8771 29.0711 20.1499 29.0711 22.9556C29.0711 25.7596 26.8015 28.0341 23.9991 28.0341C21.1984 28.0341 18.9272 25.7596 18.9272 22.9556Z" fill="black"/>
<path d="M37.1164 37.2736H30.612V29.9518L36.1593 24.1612L24.823 11.8481V14.9531L32.0346 23.4013L24.874 30.7577V44H37.1543L43.7902 37.3575V10.8202L37.1164 4H10.8933L4.2096 10.8663V37.4035L10.7979 44H23.1768L23.1735 30.7577L16.0129 23.4013L23.2245 14.9531V11.8481L11.8883 24.1612L17.4338 29.9518V37.2736H10.9278V10.7265H37.0703L37.1164 37.2736ZM18.9271 22.9557C18.9271 20.15 21.1983 17.8772 23.9991 17.8772C26.8015 17.8772 29.071 20.15 29.071 22.9557C29.071 25.7597 26.8015 28.0342 23.9991 28.0342C21.1983 28.0342 18.9271 25.7597 18.9271 22.9557Z" fill="#0044AA" stroke="black" stroke-width="0.246795" stroke-miterlimit="2.613"/>
</g>
<defs>
<clipPath id="clip0_15_3552">
<rect width="40" height="40" fill="white" transform="translate(4 4)"/>
</clipPath>
</defs>
</svg>
