<svg width="48" height="48" viewBox="0 0 48 48" fill="none" xmlns="http://www.w3.org/2000/svg">
<g clip-path="url(#clip0_15_3581)">
<path fill-rule="evenodd" clip-rule="evenodd" d="M34.5234 39.9999L39.8322 34.6858V13.4561L34.4932 8H13.5147L8.16774 13.4929V34.7227L13.4384 39.9999H34.5234Z" fill="white"/>
<path d="M34.5234 40L39.8321 34.686V13.4562L34.4931 8H13.5146L8.16768 13.493V34.7228L13.4383 40H34.5234Z" stroke="white" stroke-width="0.197436" stroke-miterlimit="2.613"/>
<path fill-rule="evenodd" clip-rule="evenodd" d="M34.4932 34.6189H29.2897V28.7614L33.7275 24.1289L24.6585 14.2785V16.7624L30.4277 23.521L24.6993 29.4061V39.9999H34.5234L39.8322 34.6858V13.4561L34.4932 8H13.5147L8.16774 13.4929V34.7227L13.4384 39.9999H23.3415L23.3394 29.4061L17.6109 23.521L23.3802 16.7624V14.2785L14.3112 24.1289L18.7477 28.7614V34.6189H13.5428V13.3811H34.4569L34.4932 34.6189ZM19.9418 23.1645C19.9418 20.9199 21.7587 19.1017 23.9993 19.1017C26.2412 19.1017 28.0569 20.9199 28.0569 23.1645C28.0569 25.4077 26.2412 27.2273 23.9993 27.2273C21.7587 27.2273 19.9418 25.4077 19.9418 23.1645Z" fill="black"/>
<path d="M34.4931 34.6189H29.2896V28.7615L33.7274 24.129L24.6584 14.2785V16.7625L30.4277 23.5211L24.6992 29.4061V40H34.5234L39.8321 34.686V13.4562L34.4931 8H13.5146L8.16768 13.493V34.7228L13.4383 40H23.3414L23.3388 29.4061L17.6103 23.5211L23.3796 16.7625V14.2785L14.3106 24.129L18.747 28.7615V34.6189H13.5422V13.3812H34.4563L34.4931 34.6189ZM19.9417 23.1645C19.9417 20.92 21.7586 19.1018 23.9992 19.1018C26.2412 19.1018 28.0568 20.92 28.0568 23.1645C28.0568 25.4078 26.2412 27.2274 23.9992 27.2274C21.7586 27.2274 19.9417 25.4078 19.9417 23.1645Z" fill="#0044AA" stroke="black" stroke-width="0.197436" stroke-miterlimit="2.613"/>
</g>
<defs>
<clipPath id="clip0_15_3581">
<rect width="32" height="32" fill="white" transform="translate(8 8)"/>
</clipPath>
</defs>
</svg>
