<svg width="48" height="48" viewBox="0 0 48 48" fill="none" xmlns="http://www.w3.org/2000/svg">
<rect width="48" height="48" fill="url(#paint0_linear_19_2010)"/>
<path d="M24.986 5.01819C25.0962 4.97963 25.1882 4.96043 25.3048 4.96343C25.3544 4.9647 25.4279 4.9571 25.4757 4.94377C25.5072 4.93499 25.536 4.92662 25.5628 4.91857C25.6975 4.87809 25.8394 4.87421 25.9793 4.8597C27.2465 4.64537 28.4852 4.44867 29.8004 4.23828C29.902 4.21077 29.9414 4.19722 29.9764 4.18398C30.0329 4.16254 30.0975 4.15453 30.1579 4.15401C30.1819 4.15381 30.2013 4.15077 30.2251 4.14801C30.3678 4.13148 30.5033 4.11767 30.7035 4.09652C30.9857 4.04091 31.2731 3.9777 31.5582 4.0156C31.9125 4.0627 31.9853 4.23702 32.0817 4.80657C32.4955 7.25317 32.903 9.70086 33.3326 12.1821C33.3546 12.2609 33.3567 12.3057 33.3678 12.424C33.5622 13.5605 33.7486 14.632 33.9346 15.6995C33.9583 15.8355 33.9695 15.9734 33.9801 16.111C34.0349 16.4187 34.0844 16.681 34.1328 16.9337C34.1585 17.0682 34.1729 17.2045 34.1852 17.3409C34.28 17.8872 34.3658 18.36 34.4516 18.8328C34.4595 18.9249 34.4674 19.0169 34.4868 19.1762C34.5253 19.3603 34.5522 19.4771 34.579 19.5939C34.5853 19.6648 34.5915 19.7358 34.6063 19.8652C34.6082 19.8817 34.6119 19.8981 34.6178 19.9136C34.6238 19.9292 34.6294 19.9429 34.6348 19.9552C34.6643 20.0218 34.6715 20.0871 34.6612 20.1592C34.6589 20.1755 34.6589 20.2079 34.6626 20.2239C34.688 20.3319 34.7111 20.4256 34.7331 20.512C34.7769 20.6845 34.798 20.8615 34.8066 21.0392C34.8076 21.0614 34.8089 21.0848 34.8104 21.1099C34.821 21.1816 34.8372 21.2534 34.8356 21.3259C34.835 21.3531 34.8339 21.3848 34.8322 21.424C34.8273 21.4776 34.7656 21.4944 34.7202 21.4654C34.6442 21.4171 34.5631 21.3637 34.4633 21.2917C34.4449 21.2785 34.4278 21.2634 34.4121 21.2471C33.9476 20.7637 33.5237 20.3203 33.0876 19.8488C33.0188 19.7761 32.9599 19.7265 32.9005 19.6842C32.8894 19.6763 32.8855 19.6749 32.8829 19.6616C32.8824 19.6588 32.8792 19.6503 32.8774 19.6482C32.8499 19.6175 32.8263 19.5983 32.8049 19.5847C32.795 19.5784 32.7781 19.5496 32.7739 19.5388C32.7734 19.5374 32.7713 19.5332 32.7702 19.5321C32.3501 19.1184 31.9436 18.7358 31.5133 18.3337C31.3602 18.1533 31.4673 17.8769 31.7004 17.8359C31.9595 17.7903 32.2114 17.746 32.464 17.7015C32.8824 17.6279 33.1648 17.2322 33.099 16.8125C33.0385 16.4264 32.979 16.0498 32.915 15.674C32.4623 13.0192 32.0133 10.3637 31.5377 7.71303C31.4993 7.49903 31.5262 7.0849 31.1141 7.14349C30.5142 7.22878 29.9224 7.37016 29.2911 7.46474C28.4434 7.57739 27.6317 7.71292 26.7759 7.84714C26.2509 7.93568 25.7702 8.02554 25.2517 8.11086C25.2437 8.11281 25.236 8.11479 25.2284 8.11679C25.0702 8.15841 24.9086 8.18097 24.7462 8.20001C24.6442 8.21784 24.5662 8.23895 24.4933 8.25883C24.4758 8.26359 24.4279 8.25939 24.4102 8.25574C24.4078 8.25526 24.4004 8.25425 24.398 8.25463C23.2327 8.44237 22.1106 8.63819 20.9465 8.82919C20.3187 8.92731 19.733 9.03026 19.1064 9.12977C18.8524 9.16852 18.6391 9.21071 18.3894 9.24849C18.2883 9.27193 18.2236 9.29977 18.1274 9.31082C18.0036 9.31376 17.9114 9.33351 17.7775 9.34932C17.1324 9.44943 16.5267 9.55325 15.8919 9.65614C15.8534 9.66238 15.8078 9.67588 15.7728 9.69313C15.7133 9.72247 15.6533 9.71651 15.5872 9.72206C15.57 9.7235 15.5505 9.72525 15.5267 9.72664C14.3037 9.91235 13.1265 10.1061 11.9475 10.289C11.545 10.3514 11.3834 10.5617 11.4621 10.9618C11.4884 11.0954 11.498 11.2321 11.5203 11.3666C12.0555 14.5953 12.5863 17.8248 13.1294 21.0523C13.3752 22.5127 13.6459 23.969 13.902 25.4608C13.9099 25.5377 13.9212 25.581 13.9279 25.667C14.0045 26.0892 14.0842 26.4823 14.1517 26.8846C14.1806 27.0569 14.1947 27.2321 14.2151 27.4056C14.2746 27.7484 14.3373 28.0532 14.3912 28.3538C14.3956 28.3781 14.385 28.4228 14.3805 28.4471C14.3801 28.4493 14.3791 28.4533 14.3783 28.4554C14.3755 28.4627 14.3726 28.47 14.3697 28.4771C14.3096 28.6284 14.1259 28.6478 14.012 28.5315C13.9838 28.5028 13.9557 28.473 13.9271 28.4405C13.8461 28.3337 13.7695 28.2516 13.6886 28.1791C13.6712 28.1636 13.6565 28.1413 13.649 28.1192C13.6478 28.1154 13.6432 28.1072 13.6405 28.1043C13.5385 27.9973 13.4482 27.9137 13.3555 27.8164C13.3356 27.7956 13.3149 27.7661 13.2986 27.7423C13.2579 27.683 13.2289 27.6242 13.2162 27.5534C12.949 26.0652 12.676 24.5781 12.4177 23.0884C12.2299 22.0057 12.0667 20.9187 11.8855 19.8349C11.6682 18.5351 11.4369 17.2377 11.2238 15.9373C10.9962 14.548 10.7811 13.1567 10.5636 11.7658C10.3783 10.5805 10.1973 9.39453 10.0012 8.16548C9.99387 7.95093 10.0535 7.72569 10.2192 7.58928C10.4482 7.40084 10.7376 7.36983 11.0699 7.33814C12.0299 7.24658 12.9784 7.03459 13.9726 6.85627C15.0228 6.67954 16.0321 6.5184 17.0782 6.34396C18.5246 6.10238 19.9341 5.8741 21.38 5.63164C22.2444 5.48523 23.0724 5.35301 23.9355 5.20211C24.0249 5.18159 24.0915 5.17327 24.1924 5.16236C24.2445 5.15672 24.32 5.14075 24.3699 5.12479C24.5016 5.08269 24.6139 5.06182 24.752 5.05687C24.7696 5.05624 24.7881 5.05545 24.8078 5.05448C24.8616 5.05182 24.915 5.04236 24.966 5.02509C24.9729 5.02275 24.9796 5.02045 24.986 5.01819Z" fill="#FBFEF8"/>
<path d="M36.4904 40.7141C36.4189 40.7366 36.3419 40.7241 36.2673 40.73C35.3847 40.8822 34.5236 41.0186 33.624 41.1717C33.2008 41.2452 32.8161 41.3019 32.3558 41.3705C32.1696 41.4239 31.9801 41.4686 31.7866 41.4771C31.7786 41.4774 31.7704 41.4778 31.762 41.4782C31.6765 41.4822 31.5915 41.4947 31.508 41.5141C31.3809 41.5437 31.2664 41.5716 31.158 41.5987C30.9577 41.6487 30.7503 41.657 30.5452 41.6805C29.2815 41.8962 28.0497 42.093 26.7858 42.3033C26.2117 42.4 25.6673 42.4843 25.0575 42.5812C25.0081 42.5891 24.9355 42.6084 24.8885 42.6257C24.7534 42.6752 24.6356 42.6989 24.4917 42.7021C24.4412 42.7033 24.386 42.7053 24.3231 42.7089C24.2852 42.711 24.2256 42.7293 24.1922 42.7475C24.1133 42.7906 24.0483 42.814 23.9584 42.8124C23.8809 42.8109 23.7945 42.811 23.6854 42.8149C23.6635 42.8157 23.6417 42.8203 23.6217 42.8292C23.601 42.8384 23.5837 42.847 23.569 42.8552C23.5162 42.8847 23.4573 42.888 23.3995 42.8701C23.3853 42.8658 23.3643 42.8645 23.3496 42.8669C22.4412 43.019 21.5601 43.1613 20.6084 43.3191C20.5914 43.3219 20.5747 43.3268 20.5591 43.3342C20.5347 43.3457 20.515 43.3563 20.4985 43.3661C20.4458 43.3975 20.386 43.4018 20.3276 43.3833C20.3131 43.3786 20.2916 43.3771 20.2766 43.3795C19.3572 43.5291 18.4525 43.674 17.5381 43.8212C16.814 43.9378 15.8635 43.913 15.7545 43.1877C15.4736 41.3171 15.1413 39.4543 14.8351 37.5348C14.79 37.2521 14.7725 36.9654 14.7338 36.6817C14.7322 36.6367 14.7306 36.5917 14.7233 36.4738C14.6551 36.085 14.5925 35.769 14.5299 35.4531C14.5117 35.3043 14.4934 35.1555 14.4641 34.9304C14.4056 34.6104 14.3582 34.3667 14.3107 34.123C14.3019 34.0366 14.2931 33.9502 14.2718 33.791C14.0745 32.5644 13.8845 31.4116 13.7123 30.256C13.6838 30.0642 13.9777 30.0184 14.1098 30.1604C14.1127 30.1636 14.1156 30.1667 14.1186 30.1699C14.2299 30.2861 14.328 30.372 14.4411 30.4856C14.5777 30.628 14.6993 30.7426 14.8329 30.8868C14.8733 30.9307 14.9103 30.9663 14.9471 31.001C15.014 31.064 15.073 31.1353 15.1414 31.1967C15.5527 31.6202 15.9517 32.0169 16.3591 32.4286C16.4297 32.5 16.4936 32.5785 16.5713 32.6421C16.6301 32.7044 16.6801 32.7493 16.7348 32.803C16.7608 32.8286 16.782 32.8587 16.8065 32.8857C16.8173 32.8977 16.8285 32.9079 16.841 32.9181C16.8644 32.9372 16.884 32.9606 16.9056 32.9818C16.921 32.9969 16.9367 33.0051 16.9554 33.0079C16.973 33.0105 16.9858 33.0018 16.9816 33.0191C16.9789 33.0303 16.9868 33.0504 16.9947 33.0587C17.0413 33.1085 17.0838 33.1466 17.1274 33.1923C17.158 33.2244 17.1817 33.2727 17.181 33.317C17.18 33.3741 17.1211 33.3955 17.0646 33.4039C16.5679 33.4775 16.1031 33.5329 15.6507 33.6406C15.5105 33.674 15.2927 33.8922 15.3086 33.9949C15.6111 35.9463 15.943 37.8931 16.2695 39.8408C16.3243 40.1679 16.5134 40.317 16.8461 40.2578C17.2236 40.1906 17.4807 39.8409 17.4497 39.4587C17.4247 39.1513 17.4048 38.8535 17.4154 38.5568C17.4591 37.3276 17.543 36.0998 17.6238 34.8414C17.6253 34.8185 17.6298 34.7905 17.6348 34.7681C17.6563 34.6724 17.7467 34.6275 17.8438 34.6135C17.9853 34.593 18.1155 34.577 18.2684 34.5661C20.4728 34.4852 22.5124 33.8964 24.4442 32.9554C24.981 32.6939 25.4136 32.5844 25.8828 32.9781C25.8939 32.9874 25.907 33.0032 25.9151 33.0152C25.9166 33.0173 25.9221 33.0244 25.9243 33.0259C26.0666 33.126 26.1913 33.2009 26.3412 33.3016C26.4649 33.3894 26.5621 33.4524 26.6609 33.5128C28.0403 34.3558 29.4568 35.1204 31.0514 35.5936C31.4575 35.7249 31.8283 35.8645 32.2118 35.9321C32.544 35.9907 32.6152 36.1607 32.6099 36.4586C32.5987 37.0854 33.2014 37.5445 33.8193 37.4385C34.5012 37.3215 35.1665 37.2092 35.8345 37.1159C36.3063 37.05 36.4381 36.8322 36.3627 36.3907C35.8484 33.3784 35.3465 30.3639 34.8305 27.3519C34.667 26.3972 34.4729 25.4477 34.3041 24.4619C34.2745 24.1096 34.2335 23.7912 34.1939 23.4346C34.1815 23.3213 34.1678 23.2462 34.1564 23.1339C34.1555 23.1282 34.1547 23.1225 34.1538 23.1168C34.1195 22.8968 34.3234 22.7545 34.4967 22.8942C34.5193 22.9127 34.539 22.9248 34.5608 22.9354C34.6104 22.9592 34.6601 22.983 34.7039 23.0162C34.7621 23.0603 34.8124 23.1009 34.8607 23.1405C34.8924 23.1666 34.9108 23.1902 34.9157 23.231C34.918 23.2504 34.9256 23.2835 34.9364 23.2999C34.9407 23.3064 34.9449 23.3122 34.949 23.3175C34.9845 23.3631 35.0294 23.4023 35.0551 23.454C35.1313 23.6075 35.2224 23.7582 35.2525 23.9202C35.4334 24.892 35.5925 25.8678 35.7764 26.8818C35.8039 27.0139 35.8142 27.1063 35.8344 27.272C35.9367 27.7839 36.0289 28.2225 36.1211 28.661C36.2491 29.563 36.3627 30.4673 36.5076 31.3666C36.9667 34.2163 37.4373 37.0641 37.9127 39.9498C37.9185 39.9851 37.92 40.0261 37.915 40.0615C37.8987 40.1755 37.8276 40.2698 37.7284 40.3283C37.5921 40.4086 37.4461 40.4798 37.2638 40.5572C37.223 40.5693 37.1884 40.5802 37.1581 40.5904C37.0497 40.6269 36.9591 40.6421 36.8447 40.6392C36.7956 40.6379 36.7229 40.646 36.6756 40.6592C36.6026 40.6796 36.5436 40.6974 36.4904 40.7141ZM26.5772 34.6487C26.5594 34.6425 26.5099 34.6054 26.4989 34.5902C26.4969 34.5875 26.4889 34.5782 26.4859 34.5768C26.431 34.552 26.375 34.5258 26.2775 34.4506C25.9937 34.2666 25.7209 34.0612 25.4214 33.908C25.2768 33.834 25.0603 33.7976 24.9141 33.8498C24.5503 33.9796 24.2081 34.17 23.7826 34.3383C23.4555 34.4648 23.1283 34.5913 22.7475 34.7198C22.6903 34.7391 22.6413 34.7779 22.5842 34.7974C22.5806 34.7987 22.5768 34.7999 22.5729 34.8009C22.5375 34.8107 22.5012 34.8174 22.4657 34.8267C22.4594 34.8283 22.4525 34.83 22.4448 34.8317C22.3861 34.8448 22.3437 34.8715 22.2873 34.8923C22.2485 34.9066 22.1949 34.9111 22.1549 34.9213C22.1433 34.9243 22.1301 34.9272 22.1145 34.9301C22.0819 34.9361 22.0699 34.9404 22.0378 34.9485C22.0011 34.9577 21.9431 34.9668 21.9084 34.9819C21.8778 34.9952 21.8427 35.0085 21.7953 35.0217C21.7683 35.0292 21.7616 35.0311 21.7354 35.0408C21.6964 35.0551 21.6324 35.059 21.5925 35.0704C21.5621 35.0791 21.5256 35.0878 21.4743 35.0965C21.4293 35.1042 21.3845 35.1137 21.3407 35.127C21.1368 35.1894 20.932 35.2492 20.7172 35.2829C20.7072 35.2845 20.7106 35.284 20.7005 35.2855C20.6286 35.2959 20.5417 35.2935 20.4698 35.3042C19.9689 35.379 19.4693 35.4694 18.9657 35.5118C18.6418 35.5391 18.5253 35.6727 18.5115 35.9814C18.4736 36.8288 18.4091 37.6751 18.3731 38.5226C18.34 39.3031 19.0799 39.889 19.8488 39.7505C20.1851 39.6899 20.5193 39.6322 20.8666 39.5761C21.0399 39.5436 21.2132 39.5111 21.4709 39.485C21.5399 39.4696 21.6088 39.4542 21.6944 39.4411C21.806 39.424 21.8879 39.4096 21.9986 39.3876C22.1098 39.3656 22.2516 39.3443 22.3625 39.3203C22.4483 39.3018 22.5456 39.2866 22.6708 39.2797C23.1968 39.1894 23.7229 39.0992 24.2919 39.0172C24.378 39.0048 24.4376 38.9859 24.5227 38.9673C24.5845 38.9539 24.672 38.9403 24.7348 38.9328C24.7357 38.9327 24.7366 38.9325 24.7376 38.9324C24.8119 38.9238 24.8866 38.9168 24.9599 38.9016C25.0748 38.8777 25.2014 38.8549 25.375 38.8366C25.5791 38.7857 25.7832 38.7349 26.0025 38.7064C26.1361 38.6891 26.2703 38.6706 26.405 38.6655C28.0013 38.4069 29.5973 38.1465 31.1942 37.8914C31.4463 37.8511 31.6656 37.8095 31.6365 37.4688C31.6091 37.1481 31.7296 36.836 31.2397 36.6727C30.083 36.2874 28.9504 35.8261 27.8214 35.3632C27.4502 35.211 27.1156 34.9699 26.7498 34.7463C26.7231 34.7299 26.6829 34.7223 26.663 34.698C26.6604 34.6948 26.6577 34.6912 26.6549 34.6871C26.6498 34.6796 26.6428 34.6735 26.6344 34.6702C26.6152 34.6627 26.5961 34.6553 26.5772 34.6487Z" fill="#FBFEF9"/>
<path d="M31.9714 28.26C32.0131 28.2948 32.05 28.3383 32.0894 28.3755C32.1012 28.3866 32.1158 28.3992 32.1342 28.4142C32.3092 28.5754 32.451 28.7022 32.5915 28.8276C32.6011 28.8361 32.6125 28.8402 32.6185 28.8516C32.6201 28.8545 32.6245 28.864 32.6268 28.8665C32.6713 28.9156 32.7097 28.9484 32.7472 28.9785C32.7598 28.9887 32.7684 29.0026 32.7747 29.0176C32.7759 29.0206 32.7804 29.029 32.7826 29.0313C32.8199 29.071 32.8539 29.1037 32.8862 29.133C32.9414 29.1832 32.9929 29.2374 33.0381 29.2968C33.0655 29.3327 33.0972 29.3737 33.1382 29.4251C33.1412 29.4289 33.1446 29.4325 33.1483 29.4359C33.1999 29.4829 33.2296 29.5049 33.2553 29.5225C33.2627 29.5277 33.2737 29.5306 33.2745 29.5396C33.2747 29.5414 33.2756 29.5492 33.2764 29.5507C33.2858 29.5676 33.2949 29.582 33.304 29.5946C33.3391 29.6434 33.3745 29.6977 33.3614 29.7564C33.36 29.7629 33.3582 29.7698 33.3562 29.7772C33.351 29.7959 33.341 29.8128 33.3282 29.8273C33.2639 29.9002 33.2169 29.9488 33.1715 29.9952C33.1651 30.0017 33.1559 30.0132 33.147 30.0151C33.1452 30.0155 33.1381 30.0172 33.1367 30.0182C33.0959 30.0468 33.0731 30.0723 33.0533 30.0974C33.0484 30.1035 33.0466 30.113 33.0388 30.1133C33.0371 30.1134 33.0298 30.1142 33.0284 30.1151C32.9887 30.1405 32.9661 30.1652 32.947 30.1898C32.944 30.1937 32.9203 30.206 32.9154 30.2066C32.9148 30.2067 32.9118 30.2072 32.9113 30.2076C32.8894 30.2217 32.8706 30.2354 32.8538 30.2488C32.7925 30.2979 32.7218 30.3415 32.6437 30.3332C32.6321 30.332 32.6196 30.3303 32.606 30.3281C32.5941 30.3262 32.5824 30.3223 32.5717 30.3167C32.5615 30.3113 32.5521 30.3062 32.5441 30.3016C32.5257 30.2913 32.5144 30.2795 32.5035 30.2615C32.5014 30.258 32.4949 30.2485 32.4922 30.2456C32.3694 30.1143 32.2642 30.0105 32.159 29.9067C32.0827 29.817 32.0065 29.7273 31.8925 29.5987C31.8892 29.5951 31.8857 29.5916 31.8818 29.5885C31.8236 29.5416 31.791 29.5212 31.7625 29.505C31.7556 29.5011 31.7461 29.4977 31.7451 29.4899C31.7448 29.4881 31.7433 29.4803 31.7423 29.4789C31.7131 29.4415 31.6862 29.4224 31.6597 29.4064C31.6531 29.4024 31.6428 29.3965 31.6411 29.3889C31.6407 29.3873 31.6388 29.3803 31.6377 29.379C31.6085 29.3455 31.5826 29.3283 31.5573 29.3141C31.5478 29.3088 31.5373 29.3045 31.5339 29.2941C31.533 29.2915 31.5297 29.282 31.5279 29.2799C31.5072 29.256 31.4888 29.2405 31.4713 29.2284C31.4484 29.2125 31.4254 29.1967 31.4051 29.1776C31.3097 29.0879 31.2108 28.9953 31.0766 28.872C31.0422 28.8481 31.0162 28.8314 30.9948 28.8188C30.9515 28.7932 30.9098 28.7653 30.87 28.7347C30.8509 28.72 30.8292 28.705 30.8027 28.6894C30.7879 28.6808 30.7694 28.6802 30.753 28.6753C30.736 28.6702 30.7358 28.6461 30.7237 28.6331C30.6982 28.6054 30.6745 28.5859 30.6465 28.5625C30.6188 28.5394 30.5899 28.5178 30.5594 28.4986C30.1047 28.2134 29.6827 27.9227 29.2261 27.7044C28.3179 27.2703 27.3848 26.8993 26.3496 26.8248C26.224 26.8158 26.0989 26.7869 25.9752 26.7633C25.823 26.7477 25.7114 26.7432 25.5616 26.722C23.8347 26.5982 22.2114 26.8434 20.6844 27.591C20.6097 27.6276 20.5533 27.6506 20.4751 27.6788C20.4081 27.7029 20.3241 27.7449 20.2639 27.783C20.2117 27.8161 20.1751 27.8406 20.1385 27.865C19.6921 28.1252 19.2457 28.3853 18.8027 28.6435C18.6139 28.7536 18.4147 28.7646 18.2506 28.6202C17.9959 28.396 17.9897 27.9558 18.2768 27.7749C18.6554 27.5362 19.0164 27.3074 19.3853 27.0697C19.45 27.028 19.5178 26.9912 19.5882 26.9601C19.8254 26.8552 20.0593 26.7537 20.2934 26.6531C20.9921 26.3527 21.7199 26.1243 22.4657 25.9752C22.549 25.9586 22.6322 25.942 22.7155 25.9254C23.5246 25.7641 24.3465 25.6924 25.1707 25.7292C26.0868 25.7702 26.9971 25.9314 27.8699 26.2128C28.2648 26.3401 28.6579 26.4679 29.0531 26.5962C29.5892 26.7703 30.1102 26.9893 30.5913 27.2828C30.6872 27.335 30.7426 27.3608 30.7933 27.3836C30.8008 27.387 30.8148 27.3942 30.8182 27.4017C30.8189 27.4032 30.8223 27.41 30.8236 27.411C30.9208 27.4849 31.0073 27.5342 31.0932 27.5822C31.1013 27.5867 31.1126 27.588 31.1163 27.5965C31.1173 27.5986 31.1207 27.6065 31.1224 27.6081C31.1437 27.6279 31.163 27.6414 31.1812 27.6519C31.2117 27.6695 31.2417 27.6881 31.2673 27.7124C31.2943 27.738 31.3278 27.769 31.3803 27.8161C31.5842 27.9674 31.7471 28.0841 31.9088 28.1998C31.9165 28.2053 31.9284 28.2058 31.9317 28.2147C31.9325 28.2169 31.9353 28.2252 31.9369 28.2269C31.9489 28.24 31.9604 28.2508 31.9714 28.26Z" fill="#F8FDF5"/>
<path d="M26.9062 29.4317C26.8556 29.4223 26.8274 29.4158 26.7805 29.3947C26.7573 29.3843 26.7119 29.367 26.6873 29.3609C25.2464 29.0073 23.8744 29.0024 22.4836 29.5047C21.8501 29.8023 21.2545 30.0998 20.661 30.4006C20.6486 30.4069 20.6355 30.4138 20.6217 30.4136C20.6174 30.4135 20.607 30.4146 20.6033 30.4167C20.5701 30.4356 20.5421 30.4544 20.5168 30.4732C20.4661 30.5108 20.4105 30.5418 20.3494 30.5576C20.2152 30.5922 20.0769 30.6224 19.9167 30.629C19.8974 30.6298 19.8788 30.6226 19.8644 30.6098C19.8242 30.574 19.8002 30.5557 19.7796 30.5411C19.7723 30.5359 19.7608 30.5265 19.7589 30.5178C19.7585 30.5161 19.7566 30.5089 19.7555 30.5075C19.729 30.4729 19.7054 30.4529 19.6825 30.4366C19.6775 30.433 19.664 30.408 19.6635 30.4019C19.6634 30.401 19.6627 30.3967 19.6622 30.396C19.6196 30.3322 19.5781 30.2797 19.5372 30.2318C19.4806 30.1659 19.4419 30.0809 19.4657 29.9973C19.4688 29.9867 19.4723 29.9753 19.4764 29.963C19.4785 29.9569 19.4815 29.951 19.4852 29.9457C19.523 29.8914 19.5433 29.8623 19.5603 29.8378C19.5648 29.8313 19.5696 29.8233 19.5774 29.824C19.5791 29.8241 19.5866 29.8241 19.5881 29.8234C19.6275 29.8031 19.6579 29.7822 19.6843 29.7611C19.7226 29.7304 19.764 29.704 19.8076 29.6813C19.8279 29.6707 19.8528 29.6567 19.8856 29.6368C21.5213 28.5338 23.2878 28.0706 25.2291 28.0877C25.4254 28.0964 25.5831 28.0944 25.7745 28.118C26.0795 28.1854 26.3506 28.2273 26.6586 28.2838C28.2981 28.6603 29.6705 29.4518 30.8832 30.5403C30.8944 30.5504 30.9104 30.5462 30.9177 30.5594C30.9206 30.5647 30.9233 30.5799 30.927 30.5847C31.0075 30.6896 31.0871 30.7713 31.1665 30.8495C31.1961 30.8786 31.2226 30.9107 31.2452 30.9455C31.2468 30.948 31.2484 30.9505 31.2501 30.953C31.3869 31.1641 31.3508 31.4326 31.1535 31.5888C30.9292 31.7664 30.5968 31.7348 30.3971 31.5298C29.488 30.596 28.432 29.8711 27.0991 29.4759C27.0143 29.4535 26.9556 29.4409 26.9062 29.4317Z" fill="#F7FDF5"/>
<path d="M26.2264 31.8227C24.7118 31.3911 23.3327 31.6373 22.0318 32.4356C21.8837 32.5265 21.7127 32.5801 21.5223 32.6404C21.4768 32.6549 21.4269 32.6632 21.415 32.617C21.4079 32.5898 21.3958 32.5546 21.3811 32.5307C21.3716 32.5154 21.3623 32.5003 21.3529 32.4854C21.1598 32.177 21.2224 31.7678 21.522 31.5613C21.607 31.5027 21.6921 31.4452 21.7795 31.3875C21.8179 31.3622 21.8585 31.3402 21.8992 31.3186C21.946 31.2936 21.9875 31.2689 22.0466 31.2414C22.2983 31.1362 22.5148 31.0369 22.7605 30.938C22.8401 30.9127 22.8906 30.8869 22.9809 30.8592C23.2058 30.8093 23.397 30.761 23.6014 30.7149C23.6374 30.7068 23.67 30.7063 23.7057 30.6971C23.7622 30.6824 23.8228 30.6642 23.8811 30.6638C24.4653 30.6593 25.0165 30.6538 25.5636 30.6482C25.7225 30.6466 25.8809 30.6663 26.0357 30.7022C26.1213 30.7174 26.1656 30.7244 26.2099 30.7313C27.3734 31.0621 28.4086 31.5939 29.2532 32.4864C29.4472 32.6915 29.4127 33.014 29.1952 33.194C28.9968 33.3582 28.7074 33.3519 28.5166 33.1788C28.3754 33.0507 28.2318 32.9206 28.0737 32.7778C27.9854 32.7141 27.9343 32.6834 27.887 32.6558C27.8798 32.6517 27.8695 32.6555 27.867 32.6476C27.8664 32.6455 27.8639 32.6376 27.8624 32.6361C27.8291 32.6034 27.7994 32.5878 27.7702 32.5748C27.7632 32.5717 27.7532 32.5692 27.7509 32.5619C27.7504 32.5603 27.7479 32.5535 27.7467 32.5523C27.7229 32.5288 27.7017 32.5144 27.6816 32.5034C27.658 32.4905 27.6346 32.4772 27.6134 32.4606C27.5897 32.4419 27.5636 32.4216 27.5296 32.396C27.4835 32.3614 27.4347 32.3303 27.3829 32.3051C27.3742 32.3008 27.3658 32.2969 27.3579 32.2931C27.2885 32.2606 27.238 32.2381 27.1728 32.1977C27.1191 32.1644 27.0445 32.1238 26.9853 32.1014C26.9239 32.0782 26.8793 32.0648 26.8348 32.0514C26.6432 31.9765 26.4516 31.9015 26.2264 31.8227Z" fill="#F7FDF5"/>
<defs>
<linearGradient id="paint0_linear_19_2010" x1="0" y1="24" x2="48" y2="24" gradientUnits="userSpaceOnUse">
<stop stop-color="#AAD26C"/>
<stop offset="1" stop-color="#35B65A"/>
</linearGradient>
</defs>
</svg>
