<svg width="48" height="48" viewBox="0 0 48 48" fill="none" xmlns="http://www.w3.org/2000/svg">
<rect width="48" height="48" rx="24" fill="url(#paint0_linear_22_4708)"/>
<path d="M24.9888 8.8146C25.0769 8.78375 25.1506 8.76839 25.2439 8.77079C25.2835 8.77181 25.3424 8.76573 25.3806 8.75507C25.4057 8.74804 25.4288 8.74135 25.4502 8.7349C25.558 8.70252 25.6715 8.69942 25.7834 8.68781C26.7972 8.51635 27.7882 8.35898 28.8403 8.19067C28.9216 8.16867 28.9532 8.15783 28.9811 8.14723C29.0263 8.13008 29.078 8.12367 29.1263 8.12326C29.1455 8.12309 29.161 8.12067 29.1801 8.11846C29.2942 8.10523 29.4026 8.09419 29.5628 8.07727C29.7885 8.03277 30.0185 7.98221 30.2466 8.01253C30.53 8.05021 30.5883 8.18966 30.6653 8.64531C30.9964 10.6026 31.3224 12.5607 31.6661 14.5457C31.6837 14.6088 31.6854 14.6446 31.6942 14.7392C31.8497 15.6484 31.9989 16.5056 32.1477 17.3597C32.1667 17.4685 32.1756 17.5787 32.184 17.6888C32.2279 17.935 32.2676 18.1449 32.3062 18.347C32.3268 18.4546 32.3384 18.5637 32.3482 18.6727C32.424 19.1098 32.4927 19.4881 32.5613 19.8663C32.5676 19.9399 32.5739 20.0135 32.5895 20.141C32.6202 20.2883 32.6417 20.3817 32.6632 20.4751C32.6682 20.5319 32.6732 20.5887 32.685 20.6922C32.6866 20.7054 32.6895 20.7185 32.6943 20.7309C32.699 20.7434 32.7035 20.7544 32.7079 20.7642C32.7315 20.8175 32.7372 20.8697 32.729 20.9274C32.7271 20.9404 32.7271 20.9664 32.7301 20.9791C32.7504 21.0656 32.7689 21.1405 32.7865 21.2096C32.8215 21.3476 32.8384 21.4892 32.8452 21.6314C32.8461 21.6491 32.8471 21.6679 32.8483 21.6879C32.8568 21.7454 32.8698 21.8027 32.8685 21.8608C32.868 21.8825 32.8671 21.9079 32.8658 21.9392C32.8618 21.9821 32.8125 21.9955 32.7761 21.9724C32.7153 21.9338 32.6505 21.891 32.5706 21.8334C32.5559 21.8228 32.5422 21.8108 32.5296 21.7977C32.1581 21.411 31.819 21.0563 31.4701 20.6791C31.415 20.6209 31.3679 20.5812 31.3204 20.5474C31.3115 20.5411 31.3084 20.5399 31.3063 20.5293C31.3059 20.5271 31.3034 20.5203 31.3019 20.5186C31.28 20.4941 31.2611 20.4787 31.2439 20.4678C31.236 20.4628 31.2225 20.4397 31.2191 20.4311C31.2187 20.4299 31.217 20.4266 31.2162 20.4258C30.8801 20.0947 30.5549 19.7887 30.2107 19.467C30.0881 19.3227 30.1738 19.1016 30.3603 19.0688C30.5676 19.0323 30.7691 18.9968 30.9712 18.9613C31.3059 18.9023 31.5318 18.5858 31.4792 18.25C31.4308 17.9411 31.3832 17.6399 31.332 17.3392C30.9699 15.2154 30.6107 13.091 30.2301 10.9705C30.1994 10.7993 30.2209 10.468 29.8913 10.5148C29.4114 10.5831 28.9379 10.6962 28.4329 10.7718C27.7547 10.862 27.1054 10.9704 26.4207 11.0778C26.0008 11.1486 25.6161 11.2205 25.2014 11.2887C25.195 11.2903 25.1888 11.2919 25.1827 11.2935C25.0562 11.3268 24.9269 11.3448 24.7969 11.3601C24.7154 11.3743 24.6529 11.3912 24.5946 11.4071C24.5807 11.4109 24.5423 11.4076 24.5281 11.4046C24.5263 11.4043 24.5203 11.4035 24.5184 11.4038C23.5862 11.5539 22.6885 11.7106 21.7572 11.8634C21.255 11.9419 20.7864 12.0243 20.2851 12.1039C20.0819 12.1349 19.9113 12.1686 19.7115 12.1988C19.6306 12.2176 19.5789 12.2399 19.5019 12.2487C19.4029 12.2511 19.3291 12.2669 19.222 12.2795C18.706 12.3596 18.2213 12.4426 17.7135 12.525C17.6827 12.53 17.6462 12.5408 17.6182 12.5546C17.5706 12.578 17.5226 12.5733 17.4698 12.5777C17.456 12.5788 17.4404 12.5802 17.4213 12.5814C16.443 12.7299 15.5012 12.885 14.558 13.0313C14.236 13.0812 14.1067 13.2494 14.1697 13.5695C14.1907 13.6763 14.1984 13.7858 14.2162 13.8933C14.6444 16.4763 15.069 19.0599 15.5035 21.6419C15.7002 22.8102 15.9167 23.9752 16.1216 25.1687C16.1279 25.2302 16.137 25.2649 16.1423 25.3337C16.2036 25.6714 16.2673 25.9859 16.3213 26.3077C16.3445 26.4456 16.3558 26.5857 16.3721 26.7245C16.4197 26.9988 16.4698 27.2426 16.513 27.4831C16.5165 27.5025 16.508 27.5383 16.5044 27.5577C16.5041 27.5595 16.5033 27.5627 16.5027 27.5643C16.5004 27.5702 16.4981 27.576 16.4958 27.5818C16.4477 27.7028 16.3007 27.7183 16.2096 27.6253C16.1871 27.6023 16.1645 27.5784 16.1417 27.5524C16.0769 27.467 16.0156 27.4013 15.9509 27.3434C15.937 27.3309 15.9252 27.3131 15.9192 27.2954C15.9182 27.2924 15.9146 27.2858 15.9124 27.2835C15.8308 27.1979 15.7586 27.131 15.6844 27.0532C15.6685 27.0365 15.6519 27.0129 15.6389 26.9939C15.6063 26.9464 15.5831 26.8994 15.5729 26.8428C15.3592 25.6522 15.1408 24.4625 14.9341 23.2707C14.7839 22.4046 14.6533 21.535 14.5084 20.6679C14.3346 19.6281 14.1495 18.5902 13.9791 17.5499C13.797 16.4385 13.6249 15.3254 13.4509 14.2127C13.3026 13.2645 13.1579 12.3157 13.001 11.3324C12.9951 11.1608 13.0428 10.9806 13.1754 10.8715C13.3586 10.7207 13.5901 10.6959 13.8559 10.6706C14.6239 10.5973 15.3827 10.4277 16.1781 10.2851C17.0183 10.1437 17.8257 10.0148 18.6626 9.87521C19.8197 9.68195 20.9473 9.49933 22.104 9.30536C22.7955 9.18823 23.4579 9.08245 24.1484 8.96174C24.22 8.94532 24.2732 8.93866 24.3539 8.92994C24.3956 8.92543 24.456 8.91265 24.496 8.89988C24.6013 8.8662 24.6911 8.84951 24.8016 8.84554C24.8157 8.84504 24.8305 8.84441 24.8462 8.84363C24.8893 8.8415 24.932 8.83393 24.9728 8.82012C24.9783 8.81825 24.9837 8.81641 24.9888 8.8146Z" fill="#FBFEF8"/>
<path d="M34.1923 37.3713C34.1352 37.3893 34.0736 37.3794 34.0138 37.3841C33.3077 37.5058 32.6189 37.6149 31.8992 37.7374C31.5607 37.7962 31.2529 37.8416 30.8846 37.8965C30.7357 37.9392 30.5841 37.9749 30.4293 37.9817C30.4229 37.982 30.4163 37.9823 30.4096 37.9826C30.3412 37.9859 30.2732 37.9958 30.2064 38.0113C30.1048 38.0351 30.0131 38.0574 29.9264 38.079C29.7662 38.119 29.6003 38.1257 29.4362 38.1444C28.4252 38.317 27.4398 38.4745 26.4287 38.6427C25.9694 38.72 25.5338 38.7875 25.046 38.865C25.0065 38.8713 24.9484 38.8868 24.9108 38.9006C24.8027 38.9402 24.7085 38.9592 24.5934 38.9618C24.553 38.9627 24.5088 38.9643 24.4585 38.9672C24.4282 38.9689 24.3805 38.9835 24.3538 38.998C24.2906 39.0325 24.2387 39.0513 24.1667 39.0499C24.1047 39.0488 24.0356 39.0489 23.9483 39.052C23.9308 39.0526 23.9134 39.0563 23.8974 39.0634C23.8808 39.0708 23.867 39.0777 23.8552 39.0842C23.813 39.1078 23.7658 39.1105 23.7196 39.0962C23.7082 39.0927 23.6914 39.0916 23.6797 39.0936C22.953 39.2153 22.2481 39.3291 21.4867 39.4553C21.4731 39.4576 21.4597 39.4615 21.4473 39.4674C21.4278 39.4766 21.412 39.4851 21.3988 39.4929C21.3567 39.518 21.3088 39.5215 21.2621 39.5067C21.2505 39.503 21.2333 39.5017 21.2213 39.5037C20.4858 39.6234 19.762 39.7392 19.0305 39.857C18.4512 39.9503 17.6908 39.9304 17.6036 39.3502C17.3789 37.8538 17.1131 36.3635 16.8681 34.8279C16.832 34.6018 16.818 34.3724 16.7871 34.1454C16.7858 34.1094 16.7845 34.0734 16.7787 33.9791C16.7241 33.6681 16.674 33.4153 16.624 33.1625C16.6093 33.0435 16.5947 32.9244 16.5713 32.7444C16.5245 32.4884 16.4865 32.2934 16.4486 32.0985C16.4416 32.0294 16.4345 31.9602 16.4174 31.8328C16.2596 30.8516 16.1076 29.9293 15.9699 29.0049C15.947 28.8514 16.1822 28.8148 16.2879 28.9284C16.2902 28.9309 16.2925 28.9334 16.2949 28.936C16.3839 29.0289 16.4624 29.0977 16.5529 29.1886C16.6622 29.3024 16.7595 29.3941 16.8664 29.5095C16.8987 29.5446 16.9283 29.5731 16.9577 29.6008C17.0112 29.6512 17.0584 29.7083 17.1131 29.7574C17.4421 30.0963 17.7613 30.4136 18.0873 30.743C18.1438 30.8 18.1949 30.8629 18.2571 30.9137C18.3041 30.9636 18.3441 30.9995 18.3879 31.0424C18.4087 31.0629 18.4256 31.087 18.4452 31.1086C18.4539 31.1183 18.4628 31.1264 18.4728 31.1346C18.4916 31.1499 18.5072 31.1685 18.5245 31.1855C18.5368 31.1976 18.5494 31.2041 18.5643 31.2064C18.5784 31.2085 18.5886 31.2015 18.5853 31.2154C18.5832 31.2243 18.5895 31.2404 18.5957 31.247C18.6331 31.2869 18.667 31.3174 18.7019 31.3539C18.7264 31.3795 18.7454 31.4182 18.7448 31.4536C18.744 31.4994 18.6969 31.5165 18.6517 31.5232C18.2544 31.5821 17.8825 31.6264 17.5206 31.7126C17.4084 31.7392 17.2342 31.9138 17.2469 31.996C17.4889 33.5571 17.7544 35.1146 18.0156 36.6727C18.0595 36.9344 18.2107 37.0537 18.4769 37.0063C18.7789 36.9525 18.9846 36.6728 18.9597 36.367C18.9398 36.1211 18.9238 35.8829 18.9323 35.6455C18.9673 34.6621 19.0344 33.6799 19.0991 32.6732C19.1002 32.6548 19.1038 32.6325 19.1079 32.6145C19.125 32.538 19.1974 32.5021 19.275 32.4908C19.3882 32.4745 19.4924 32.4617 19.6147 32.4529C21.3782 32.3882 23.01 31.9172 24.5554 31.1644C24.9848 30.9552 25.3309 30.8676 25.7062 31.1826C25.7151 31.19 25.7256 31.2026 25.7321 31.2122C25.7333 31.2139 25.7377 31.2196 25.7394 31.2208C25.8533 31.3008 25.953 31.3608 26.073 31.4413C26.1719 31.5116 26.2497 31.562 26.3287 31.6103C27.4322 32.2847 28.5655 32.8964 29.8411 33.2749C30.166 33.38 30.4626 33.4917 30.7694 33.5457C31.0352 33.5926 31.0922 33.7286 31.0879 33.967C31.079 34.4684 31.5611 34.8357 32.0554 34.7509C32.601 34.6573 33.1332 34.5674 33.6676 34.4928C34.045 34.44 34.1505 34.2658 34.0902 33.9126C33.6788 31.5027 33.2772 29.0912 32.8644 26.6816C32.7336 25.9178 32.5783 25.1582 32.4433 24.3696C32.4196 24.0878 32.3868 23.8331 32.3551 23.5477C32.3452 23.4571 32.3342 23.397 32.3251 23.3072C32.3244 23.3026 32.3237 23.298 32.323 23.2935C32.2956 23.1175 32.4587 23.0036 32.5974 23.1154C32.6155 23.1302 32.6312 23.1399 32.6487 23.1483C32.6883 23.1674 32.7281 23.1865 32.7632 23.213C32.8097 23.2483 32.8499 23.2807 32.8886 23.3125C32.914 23.3333 32.9287 23.3522 32.9325 23.3848C32.9344 23.4004 32.9405 23.4269 32.9492 23.44C32.9526 23.4451 32.9559 23.4498 32.9592 23.454C32.9876 23.4905 33.0236 23.5219 33.0441 23.5633C33.1051 23.6861 33.1779 23.8066 33.202 23.9362C33.3467 24.7136 33.474 25.4943 33.6211 26.3055C33.6431 26.4112 33.6513 26.4851 33.6676 26.6177C33.7494 27.0272 33.8231 27.378 33.8969 27.7289C33.9993 28.4505 34.0902 29.1739 34.2061 29.8934C34.5734 32.1731 34.9498 34.4513 35.3302 36.7599C35.3348 36.7881 35.336 36.821 35.332 36.8492C35.319 36.9404 35.2621 37.0159 35.1827 37.0627C35.0737 37.127 34.9569 37.1839 34.8111 37.2458C34.7784 37.2555 34.7507 37.2642 34.7265 37.2724C34.6397 37.3016 34.5673 37.3138 34.4757 37.3114C34.4365 37.3104 34.3783 37.3169 34.3405 37.3274C34.2821 37.3437 34.2349 37.358 34.1923 37.3713ZM26.2617 32.519C26.2475 32.5141 26.2079 32.4844 26.1991 32.4722C26.1975 32.4701 26.1912 32.4626 26.1888 32.4615C26.1448 32.4416 26.1 32.4207 26.022 32.3605C25.795 32.2134 25.5768 32.049 25.3372 31.9265C25.2214 31.8673 25.0483 31.8382 24.9313 31.8799C24.6402 31.9837 24.3665 32.136 24.0261 32.2707C23.7644 32.3719 23.5027 32.4731 23.198 32.5759C23.1523 32.5913 23.113 32.6223 23.0674 32.638C23.0645 32.639 23.0615 32.6399 23.0583 32.6408C23.0301 32.6487 23.001 32.654 22.9726 32.6614C22.9675 32.6627 22.962 32.6641 22.9558 32.6654C22.9089 32.6759 22.875 32.6973 22.8298 32.7139C22.7988 32.7253 22.7559 32.7289 22.7239 32.7371C22.7147 32.7395 22.7041 32.7419 22.6916 32.7442C22.6656 32.749 22.656 32.7524 22.6303 32.7588C22.6009 32.7662 22.5545 32.7735 22.5267 32.7856C22.5023 32.7962 22.4742 32.8069 22.4362 32.8174C22.4147 32.8234 22.4093 32.825 22.3883 32.8327C22.3571 32.8441 22.3059 32.8472 22.274 32.8564C22.2497 32.8633 22.2205 32.8703 22.1795 32.8773C22.1434 32.8834 22.1076 32.891 22.0726 32.9017C21.9095 32.9515 21.7456 32.9994 21.5738 33.0264C21.5658 33.0276 21.5685 33.0273 21.5604 33.0284C21.5029 33.0368 21.4333 33.0348 21.3758 33.0434C20.9751 33.1032 20.5755 33.1756 20.1726 33.2095C19.9135 33.2314 19.8202 33.3382 19.8092 33.5852C19.7789 34.2631 19.7273 34.9401 19.6985 35.6181C19.672 36.2425 20.2639 36.7113 20.879 36.6005C21.1481 36.552 21.4154 36.5058 21.6933 36.4609C21.832 36.435 21.9706 36.409 22.1767 36.3881C22.2319 36.3758 22.2871 36.3634 22.3556 36.353C22.4448 36.3393 22.5103 36.3277 22.5989 36.3102C22.6879 36.2925 22.8013 36.2755 22.89 36.2563C22.9587 36.2415 23.0365 36.2293 23.1366 36.2238C23.5575 36.1516 23.9783 36.0794 24.4335 36.0138C24.5024 36.0039 24.5501 35.9887 24.6182 35.9739C24.6676 35.9631 24.7376 35.9523 24.7879 35.9463C24.7886 35.9462 24.7893 35.9461 24.7901 35.946C24.8496 35.9391 24.9093 35.9335 24.9679 35.9213C25.0599 35.9022 25.1611 35.884 25.3 35.8693C25.4633 35.8286 25.6265 35.7879 25.802 35.7652C25.9089 35.7513 26.0163 35.7365 26.124 35.7325C27.401 35.5256 28.6779 35.3173 29.9554 35.1132C30.157 35.0809 30.3325 35.0477 30.3092 34.7751C30.2873 34.5185 30.3837 34.2688 29.9917 34.1383C29.0664 33.83 28.1604 33.4609 27.2571 33.0906C26.9602 32.9689 26.6925 32.776 26.3999 32.5971C26.3785 32.584 26.3463 32.5779 26.3304 32.5585C26.3283 32.5559 26.3262 32.553 26.3239 32.5497C26.3198 32.5437 26.3142 32.5389 26.3075 32.5362C26.2922 32.5302 26.2769 32.5243 26.2617 32.519Z" fill="#FBFEF9"/>
<path d="M30.5772 27.4081C30.6105 27.4359 30.64 27.4707 30.6715 27.5005C30.6809 27.5094 30.6927 27.5194 30.7073 27.5314C30.8474 27.6604 30.9608 27.7618 31.0732 27.8621C31.0809 27.869 31.09 27.8722 31.0948 27.8813C31.0961 27.8837 31.0996 27.8913 31.1014 27.8933C31.137 27.9326 31.1678 27.9588 31.1977 27.9829C31.2079 27.991 31.2147 28.0022 31.2197 28.0142C31.2207 28.0165 31.2243 28.0233 31.2261 28.0251C31.256 28.0569 31.2831 28.083 31.3089 28.1065C31.3531 28.1466 31.3944 28.19 31.4305 28.2375C31.4524 28.2663 31.4778 28.299 31.5105 28.3401C31.513 28.3432 31.5157 28.3461 31.5186 28.3488C31.5599 28.3864 31.5837 28.404 31.6042 28.4181C31.6102 28.4222 31.619 28.4245 31.6196 28.4318C31.6197 28.4332 31.6205 28.4394 31.6211 28.4406C31.6286 28.4542 31.6359 28.4657 31.6432 28.4757C31.6713 28.5148 31.6996 28.5583 31.6891 28.6052C31.688 28.6104 31.6866 28.6159 31.685 28.6218C31.6808 28.6368 31.6728 28.6503 31.6625 28.6619C31.6111 28.7202 31.5735 28.7591 31.5372 28.7962C31.5321 28.8014 31.5247 28.8107 31.5176 28.8122C31.5162 28.8125 31.5105 28.8138 31.5094 28.8146C31.4767 28.8375 31.4585 28.8579 31.4426 28.878C31.4387 28.8829 31.4373 28.8905 31.431 28.8907C31.4297 28.8908 31.4239 28.8914 31.4228 28.8921C31.3909 28.9125 31.3728 28.9323 31.3576 28.9519C31.3552 28.9551 31.3362 28.9649 31.3323 28.9654C31.3318 28.9654 31.3295 28.9659 31.329 28.9661C31.3115 28.9774 31.2965 28.9884 31.2831 28.9991C31.234 29.0384 31.1775 29.0733 31.1149 29.0666C31.1056 29.0657 31.0957 29.0643 31.0848 29.0626C31.0752 29.061 31.066 29.0579 31.0574 29.0534C31.0492 29.0491 31.0417 29.045 31.0352 29.0414C31.0205 29.0331 31.0115 29.0237 31.0028 29.0092C31.0012 29.0065 30.996 28.9989 30.9938 28.9965C30.8955 28.8915 30.8113 28.8085 30.7272 28.7254C30.6662 28.6537 30.6052 28.5819 30.514 28.4791C30.5114 28.4761 30.5085 28.4734 30.5055 28.4709C30.4588 28.4334 30.4328 28.4171 30.41 28.4041C30.4045 28.401 30.3969 28.3982 30.396 28.392C30.3959 28.3906 30.3947 28.3843 30.3938 28.3832C30.3705 28.3533 30.349 28.338 30.3278 28.3252C30.3225 28.322 30.3142 28.3172 30.3129 28.3112C30.3126 28.3099 30.311 28.3043 30.3102 28.3033C30.2868 28.2765 30.2661 28.2627 30.2459 28.2514C30.2383 28.2471 30.2298 28.2436 30.2271 28.2354C30.2264 28.2332 30.2238 28.2257 30.2223 28.224C30.2058 28.2049 30.1911 28.1925 30.1771 28.1828C30.1587 28.1701 30.1403 28.1574 30.1241 28.1422C30.0477 28.0704 29.9687 27.9963 29.8613 27.8977C29.8338 27.8786 29.8129 27.8652 29.7958 27.8551C29.7612 27.8347 29.7278 27.8123 29.696 27.7879C29.6807 27.7761 29.6633 27.7641 29.6421 27.7516C29.6304 27.7447 29.6155 27.7443 29.6024 27.7403C29.5888 27.7362 29.5887 27.717 29.579 27.7065C29.5585 27.6844 29.5396 27.6688 29.5172 27.6501C29.495 27.6316 29.4719 27.6143 29.4475 27.599C29.0838 27.3708 28.7462 27.1382 28.3808 26.9636C27.6543 26.6163 26.9078 26.3195 26.0797 26.2599C25.9792 26.2527 25.8791 26.2296 25.7802 26.2107C25.6584 26.1982 25.5691 26.1947 25.4493 26.1777C24.0678 26.0786 22.7691 26.2748 21.5475 26.8729C21.4878 26.9021 21.4427 26.9206 21.3801 26.9431C21.3265 26.9624 21.2593 26.996 21.2111 27.0265C21.1694 27.0529 21.1401 27.0725 21.1108 27.0921C20.7537 27.3002 20.3966 27.5083 20.0422 27.7149C19.8911 27.8029 19.7317 27.8117 19.6005 27.6962C19.3967 27.5169 19.3918 27.1647 19.6214 27.02C19.9244 26.829 20.2131 26.646 20.5082 26.4558C20.56 26.4225 20.6143 26.393 20.6706 26.3681C20.8603 26.2842 21.0475 26.2031 21.2347 26.1226C21.7937 25.8822 22.3759 25.6995 22.9725 25.5803C23.0392 25.5669 23.1058 25.5536 23.1724 25.5404C23.8197 25.4113 24.4772 25.354 25.1365 25.3835C25.8695 25.4162 26.5977 25.5452 27.2959 25.7703C27.6118 25.8722 27.9263 25.9744 28.2425 26.0771C28.6713 26.2163 29.0881 26.3915 29.473 26.6263C29.5498 26.6681 29.5941 26.6887 29.6346 26.707C29.6407 26.7097 29.6518 26.7154 29.6545 26.7215C29.6551 26.7227 29.6578 26.728 29.6589 26.7288C29.7366 26.788 29.8058 26.8275 29.8745 26.8658C29.881 26.8694 29.8901 26.8705 29.8931 26.8773C29.8938 26.879 29.8966 26.8853 29.8979 26.8865C29.915 26.9024 29.9304 26.9132 29.9449 26.9216C29.9693 26.9357 29.9934 26.9506 30.0138 26.97C30.0355 26.9905 30.0623 27.0153 30.1042 27.0529C30.2674 27.174 30.3977 27.2674 30.527 27.3599C30.5332 27.3643 30.5427 27.3647 30.5454 27.3718C30.546 27.3736 30.5482 27.3802 30.5495 27.3816C30.5591 27.3921 30.5683 27.4007 30.5772 27.4081Z" fill="#F8FDF5"/>
<path d="M26.5249 28.3454C26.4844 28.3378 26.4619 28.3327 26.4243 28.3158C26.4058 28.3074 26.3695 28.2936 26.3498 28.2888C25.1971 28.0058 24.0995 28.0019 22.9868 28.4038C22.48 28.6419 22.0036 28.8799 21.5287 29.1205C21.5189 29.1255 21.5083 29.1311 21.4973 29.1309C21.4939 29.1308 21.4855 29.1317 21.4826 29.1334C21.456 29.1485 21.4336 29.1636 21.4134 29.1786C21.3728 29.2087 21.3284 29.2335 21.2795 29.2461C21.1721 29.2738 21.0615 29.298 20.9333 29.3032C20.9179 29.3039 20.903 29.2981 20.8914 29.2879C20.8593 29.2592 20.8401 29.2446 20.8236 29.2329C20.8178 29.2288 20.8086 29.2212 20.807 29.2142C20.8067 29.2129 20.8052 29.2071 20.8044 29.206C20.7831 29.1784 20.7643 29.1624 20.746 29.1493C20.742 29.1464 20.7311 29.1264 20.7307 29.1215C20.7307 29.1208 20.7301 29.1174 20.7297 29.1168C20.6956 29.0658 20.6625 29.0237 20.6297 28.9855C20.5844 28.9327 20.5535 28.8647 20.5725 28.7979C20.575 28.7893 20.5778 28.7802 20.5811 28.7704C20.5828 28.7655 20.5852 28.7609 20.5881 28.7566C20.6183 28.7131 20.6346 28.6898 20.6482 28.6702C20.6518 28.665 20.6556 28.6586 20.6619 28.6592C20.6632 28.6593 20.6692 28.6593 20.6704 28.6587C20.702 28.6425 20.7262 28.6258 20.7474 28.6089C20.7781 28.5843 20.8112 28.5632 20.846 28.5451C20.8623 28.5366 20.8822 28.5254 20.9084 28.5094C22.217 27.6271 23.6302 27.2565 25.1833 27.2702C25.3402 27.2771 25.4664 27.2755 25.6196 27.2944C25.8635 27.3483 26.0805 27.3818 26.3268 27.427C27.6384 27.7282 28.7364 28.3615 29.7065 29.2323C29.7155 29.2404 29.7283 29.237 29.7341 29.2476C29.7365 29.2518 29.7386 29.2639 29.7415 29.2677C29.806 29.3517 29.8696 29.4171 29.9332 29.4796C29.9568 29.5029 29.9781 29.5286 29.9961 29.5564C29.9974 29.5584 29.9987 29.5604 30 29.5624C30.1094 29.7313 30.0806 29.9461 29.9228 30.071C29.7433 30.2131 29.4774 30.1879 29.3177 30.0238C28.5904 29.2768 27.7455 28.6969 26.6792 28.3807C26.6114 28.3628 26.5644 28.3527 26.5249 28.3454Z" fill="#F7FDF5"/>
<path d="M25.9811 30.2582C24.7694 29.9129 23.6662 30.1099 22.6254 30.7485C22.5069 30.8212 22.3701 30.8641 22.2179 30.9124C22.1815 30.9239 22.1415 30.9306 22.132 30.8937C22.1263 30.8719 22.1166 30.8437 22.1048 30.8246C22.0973 30.8124 22.0898 30.8003 22.0823 30.7884C21.9278 30.5417 21.9779 30.2143 22.2176 30.0491C22.2856 30.0022 22.3537 29.9562 22.4235 29.9101C22.4543 29.8898 22.4868 29.8722 22.5194 29.8549C22.5568 29.8349 22.59 29.8152 22.6373 29.7931C22.8386 29.709 23.0119 29.6296 23.2083 29.5505C23.272 29.5302 23.3125 29.5096 23.3847 29.4874C23.5646 29.4475 23.7176 29.4088 23.8811 29.3719C23.9099 29.3655 23.936 29.3651 23.9646 29.3577C24.0097 29.346 24.0582 29.3314 24.1049 29.3311C24.5722 29.3275 25.0132 29.3231 25.4509 29.3186C25.578 29.3173 25.7047 29.3331 25.8286 29.3618C25.897 29.374 25.9325 29.3795 25.9679 29.3851C26.8987 29.6497 27.7268 30.0752 28.4026 30.7892C28.5578 30.9532 28.5302 31.2113 28.3562 31.3552C28.1974 31.4866 27.9659 31.4815 27.8132 31.3431C27.7003 31.2406 27.5854 31.1365 27.459 31.0223C27.3883 30.9713 27.3475 30.9467 27.3096 30.9247C27.3038 30.9214 27.2956 30.9245 27.2936 30.9181C27.2931 30.9165 27.2911 30.9102 27.2899 30.9089C27.2633 30.8828 27.2395 30.8703 27.2162 30.8599C27.2106 30.8574 27.2025 30.8554 27.2007 30.8496C27.2003 30.8483 27.1983 30.8428 27.1973 30.8419C27.1783 30.8231 27.1614 30.8116 27.1453 30.8028C27.1264 30.7925 27.1076 30.7818 27.0907 30.7685C27.0718 30.7536 27.0508 30.7373 27.0237 30.7169C26.9868 30.6891 26.9478 30.6643 26.9063 30.6441C26.8993 30.6407 26.8927 30.6375 26.8863 30.6346C26.8308 30.6085 26.7903 30.5905 26.7382 30.5582C26.6952 30.5316 26.6356 30.4991 26.5883 30.4812C26.5391 30.4626 26.5034 30.4519 26.4678 30.4412C26.3145 30.3812 26.1613 30.3213 25.9811 30.2582Z" fill="#F7FDF5"/>
<defs>
<linearGradient id="paint0_linear_22_4708" x1="0" y1="24" x2="48" y2="24" gradientUnits="userSpaceOnUse">
<stop stop-color="#AAD26C"/>
<stop offset="1" stop-color="#35B65A"/>
</linearGradient>
</defs>
</svg>
