<svg width="48" height="48" viewBox="0 0 48 48" fill="none" xmlns="http://www.w3.org/2000/svg">
<path d="M28.1165 19.7894C27.6116 21.5205 27.7553 20.871 27.0083 23.7104C26.3331 26.4069 25.6322 29.0769 25.1033 30.8568C24.9339 31.194 24.7396 31.5337 24.4769 31.8692C24.1629 32.2782 23.8 32.6873 23.3918 33.0484C21.0993 35.0458 17.6771 36.2267 14.7145 35.7689C14.4714 35.7415 14.1813 35.6944 13.8467 35.5994C11.9872 35.1656 10.7592 34.2491 10.06 33.0981C9.31295 31.8692 9.11955 30.257 9.38398 28.5232C9.40965 28.2836 9.48153 27.9704 9.57567 27.6092C10.7095 23.0344 11.8674 18.4886 13.0021 13.9403C13.4591 11.6314 8.58727 11.0273 7.55181 14.0353L4.41718 26.359C4.34786 26.7424 4.2503 27.2233 4.17585 27.7273C3.71802 30.6634 4.15189 33.4592 5.50399 35.7689C6.92539 38.1487 9.26503 39.933 12.6145 40.7228C12.9764 40.8204 13.4112 40.8931 13.9161 40.9659C18.3737 41.6394 23.5108 39.9535 26.8645 36.9943C27.5363 36.3919 28.1652 35.7415 28.6958 35.0458C29.2255 34.3226 29.6833 33.5525 30.047 32.7335V32.7104L30.142 32.4468C30.6726 30.7114 31.3966 27.8737 32.1428 25.0095C32.8411 22.2907 33.1064 21.352 33.6361 19.5703C34.1444 17.1408 29.4181 16.1053 28.1165 19.7894Z" fill="#ED1D24"/>
<path d="M19.8497 28.1873C20.376 26.481 20.234 27.1262 20.9571 24.2646C21.6579 21.5937 22.3562 18.8955 22.8586 17.1395C23.0306 16.8041 23.2479 16.443 23.5107 16.1306C23.8256 15.6959 24.1867 15.3125 24.5949 14.9522C26.8875 12.9301 30.3353 11.7731 33.2757 12.2078C33.517 12.2549 33.8062 12.3028 34.1426 12.3756C36.0004 12.8342 37.2532 13.7251 37.9541 14.9035C38.6746 16.1306 38.8963 17.7206 38.6276 19.4732C38.5788 19.7162 38.5326 20.0038 38.435 20.3897C37.2276 25.2025 36.0244 29.9896 34.8443 34.8049C34.5277 37.6691 39.592 37.9566 40.3151 34.7322L43.5704 21.6408C43.6654 21.2318 43.763 20.7756 43.8348 20.2468C44.2679 17.3329 43.8597 14.5432 42.4836 12.2326C41.0887 9.84936 38.7491 8.06768 35.3971 7.27439C35.036 7.20251 34.5987 7.10495 34.0715 7.03221C29.6122 6.36044 24.4777 8.06768 21.1257 11.0055C20.4265 11.6062 19.8232 12.2549 19.2909 12.9532C18.7621 13.6506 18.3025 14.4439 17.9679 15.2646L17.8456 15.5521C17.3407 17.2611 16.5919 20.1253 15.8688 22.9655C15.1456 25.7091 14.906 26.6478 14.3738 28.403C14.3267 31.7002 19.267 31.4118 19.8497 28.1873Z" fill="#006CB7"/>
</svg>
