<svg width="48" height="48" viewBox="0 0 48 48" fill="none" xmlns="http://www.w3.org/2000/svg">
<path d="M27.2932 20.6315C26.8893 22.0165 27.0043 21.4969 26.4066 23.7684C25.8665 25.9256 25.3058 28.0615 24.8827 29.4855C24.7471 29.7552 24.5917 30.027 24.3815 30.2954C24.1303 30.6226 23.84 30.9499 23.5135 31.2388C21.6794 32.8366 18.9417 33.7814 16.5716 33.4151C16.3772 33.3932 16.1451 33.3556 15.8774 33.2796C14.3898 32.9325 13.4073 32.1993 12.848 31.2785C12.2504 30.2954 12.0956 29.0056 12.3072 27.6186C12.3277 27.4269 12.3852 27.1763 12.4605 26.8874C13.3676 23.2275 14.2939 19.5909 15.2017 15.9522C15.5673 14.1052 11.6698 13.6219 10.8414 16.0282L8.33374 25.8872C8.27829 26.1939 8.20024 26.5787 8.14068 26.9819C7.77442 29.3308 8.12151 31.5674 9.20319 33.4151C10.3403 35.319 12.212 36.7464 14.8916 37.3783C15.1812 37.4564 15.5289 37.5146 15.9328 37.5727C19.499 38.1115 23.6086 36.7629 26.2916 34.3955C26.829 33.9135 27.3322 33.3932 27.7566 32.8366C28.1804 32.2582 28.5467 31.642 28.8376 30.9868V30.9684L28.9136 30.7575C29.3381 29.3691 29.9173 27.099 30.5142 24.8076C31.0729 22.6326 31.2851 21.8816 31.7089 20.4563C32.1155 18.5127 28.3345 17.6843 27.2932 20.6315Z" fill="#ED1D24"/>
<path d="M20.6798 27.3499C21.1008 25.9848 20.9872 26.501 21.5657 24.2117C22.1264 22.075 22.685 19.9165 23.0869 18.5117C23.2245 18.2433 23.3984 17.9544 23.6085 17.7045C23.8605 17.3567 24.1494 17.05 24.4759 16.7618C26.31 15.1441 29.0682 14.2185 31.4205 14.5663C31.6136 14.6039 31.845 14.6423 32.1141 14.7005C33.6003 15.0674 34.6026 15.7801 35.1633 16.7228C35.7397 17.7045 35.917 18.9765 35.7021 20.3786C35.663 20.573 35.6261 20.803 35.548 21.1118C34.5821 24.962 33.6195 28.7917 32.6754 32.644C32.4221 34.9353 36.4736 35.1654 37.0521 32.5858L39.6563 22.1127C39.7323 21.7854 39.8104 21.4206 39.8679 20.9975C40.2143 18.6664 39.8877 16.4346 38.7869 14.5861C37.671 12.6795 35.7993 11.2542 33.1177 10.6196C32.8288 10.562 32.4789 10.484 32.0572 10.4258C28.4898 9.88839 24.3821 11.2542 21.7005 13.6044C21.1412 14.085 20.6586 14.6039 20.2327 15.1626C19.8097 15.7205 19.442 16.3552 19.1743 17.0117L19.0764 17.2417C18.6725 18.6089 18.0735 20.9003 17.495 23.1725C16.9165 25.3673 16.7248 26.1183 16.299 27.5224C16.2614 30.1602 20.2136 29.9295 20.6798 27.3499Z" fill="#006CB7"/>
</svg>
