<svg width="48" height="48" viewBox="0 0 48 48" fill="none" xmlns="http://www.w3.org/2000/svg">
<path d="M5.9472 42.2178L8.49828 32.9046C6.92445 30.1792 6.09682 27.0865 6.09777 23.919C6.1025 14.0092 14.1667 5.94686 24.0775 5.94686C28.887 5.94876 33.4002 7.82087 36.795 11.2176C40.1888 14.6152 42.0581 19.1303 42.0562 23.9332C42.0524 33.843 33.9863 41.9062 24.0775 41.9062H24.0699C21.0614 41.9053 18.1041 41.1506 15.4782 39.7178L5.9472 42.2178Z" fill="white"/>
<path d="M5.94724 42.6914C5.82224 42.6914 5.70104 42.6421 5.61108 42.5512C5.49271 42.4309 5.44631 42.2558 5.49081 42.0938L7.98981 32.969C6.4406 30.2172 5.62339 27.0923 5.62528 23.92C5.62907 13.7479 13.9063 5.47348 24.0775 5.47348C29.0111 5.47537 33.6464 7.39673 37.1302 10.8834C40.614 14.371 42.5316 19.0054 42.5297 23.9333C42.5259 34.1044 34.2477 42.3798 24.0775 42.3798C21.0577 42.3789 18.0701 41.6336 15.4186 40.2236L6.0675 42.6753C6.02773 42.6866 5.98796 42.6914 5.94724 42.6914Z" fill="white"/>
<path d="M24.0776 5.94695C28.8871 5.94884 33.4003 7.82096 36.7951 11.2177C40.189 14.6153 42.0582 19.1303 42.0563 23.9333C42.0526 33.8431 33.9865 41.9063 24.0776 41.9063H24.07C21.0616 41.9054 18.1042 41.1507 15.4784 39.7179L5.94734 42.2179L8.49841 32.9046C6.92459 30.1793 6.09695 27.0866 6.0979 23.9191C6.10264 14.0093 14.1668 5.94695 24.0776 5.94695ZM24.0776 5C13.646 5 5.15569 13.4865 5.15095 23.9191C5.15001 27.1074 5.95491 30.2494 7.48139 33.0306L5.03353 41.9688C4.94452 42.2955 5.03543 42.644 5.27406 42.8845C5.45398 43.0663 5.69734 43.1658 5.94734 43.1658C6.02783 43.1658 6.10832 43.1554 6.18786 43.1345L15.3609 40.7293C18.0389 42.1194 21.0407 42.8533 24.07 42.8542C34.5092 42.8542 42.9995 34.3667 43.0042 23.9342C43.0061 18.8785 41.0393 14.1248 37.4665 10.5491C33.8918 6.97249 29.1371 5.00189 24.0776 5Z" fill="#CFD8DC"/>
<path d="M34.6474 13.3634C31.8255 10.5396 28.0747 8.98378 24.0823 8.98283C15.8401 8.98283 9.13666 15.6834 9.13287 23.92C9.13193 26.7428 9.92168 29.4909 11.4179 31.8706L11.7739 32.4359L10.2635 37.9481L15.9196 36.4651L16.466 36.789C18.7595 38.1507 21.3902 38.8704 24.0719 38.8713H24.0776C32.3141 38.8713 39.0176 32.1698 39.0204 23.9323C39.0214 19.9409 37.4693 16.1872 34.6474 13.3634Z" fill="#40C351"/>
<path fill-rule="evenodd" clip-rule="evenodd" d="M19.5834 16.406C19.2472 15.6579 18.8931 15.6428 18.572 15.6295C18.3097 15.6181 18.0105 15.6191 17.7113 15.6191C17.412 15.6191 16.9253 15.7318 16.5134 16.1816C16.1014 16.6314 14.9405 17.7175 14.9405 19.9277C14.9405 22.1379 16.5503 24.2742 16.7747 24.5734C16.9992 24.8727 19.8826 29.5534 24.4488 31.3545C28.2432 32.8507 29.0159 32.5534 29.8398 32.4785C30.6636 32.4037 32.4978 31.3924 32.8719 30.3432C33.2459 29.294 33.2459 28.3953 33.1342 28.2078C33.0215 28.0203 32.7223 27.9086 32.2734 27.6832C31.8246 27.4578 29.6153 26.3717 29.2034 26.2221C28.7915 26.0724 28.4923 25.9976 28.1921 26.4474C27.8928 26.8963 27.0321 27.9086 26.7698 28.2078C26.5075 28.508 26.2452 28.5459 25.7963 28.3205C25.3474 28.0951 23.9005 27.6216 22.1837 26.0914C20.8485 24.9011 19.947 23.4305 19.6847 22.9807C19.4224 22.5318 19.6563 22.2884 19.8817 22.064C20.0834 21.8623 20.3305 21.5394 20.5559 21.2771C20.7803 21.0148 20.8551 20.8273 21.0047 20.5281C21.1544 20.2279 21.0796 19.9656 20.9669 19.7412C20.8561 19.5158 19.983 17.2942 19.5834 16.406Z" fill="white"/>
</svg>
