<svg width="48" height="48" viewBox="0 0 48 48" fill="none" xmlns="http://www.w3.org/2000/svg">
<path d="M8.79419 39.2052L10.9331 31.3965C9.61356 29.1115 8.91964 26.5184 8.92043 23.8626C8.9244 15.5537 15.6858 8.79388 23.9955 8.79388C28.028 8.79547 31.8121 10.3651 34.6584 13.2131C37.504 16.0618 39.0713 19.8475 39.0697 23.8745C39.0665 32.1833 32.3035 38.9439 23.9955 38.9439H23.9891C21.4667 38.9432 18.9871 38.3104 16.7855 37.1091L8.79419 39.2052Z" fill="white"/>
<path d="M8.79422 39.6022C8.68942 39.6022 8.58779 39.5609 8.51236 39.4847C8.41312 39.3839 8.37421 39.237 8.41153 39.1012L10.5068 31.4506C9.20788 29.1433 8.52268 26.5232 8.52427 23.8634C8.52745 15.3347 15.4675 8.39699 23.9955 8.39699C28.132 8.39858 32.0185 10.0095 34.9395 12.9329C37.8605 15.8571 39.4683 19.7428 39.4667 23.8746C39.4635 32.4025 32.5227 39.341 23.9955 39.341C21.4635 39.3402 18.9586 38.7154 16.7355 37.5332L8.89505 39.5887C8.86171 39.5983 8.82836 39.6022 8.79422 39.6022Z" fill="white"/>
<path d="M23.9956 8.79397C28.0281 8.79555 31.8122 10.3652 34.6585 13.2132C37.5041 16.0619 39.0714 19.8476 39.0698 23.8746C39.0666 32.1834 32.3036 38.944 23.9956 38.944H23.9892C21.4668 38.9432 18.9872 38.3104 16.7856 37.1092L8.79429 39.2052L10.9332 31.3966C9.61367 29.1116 8.91974 26.5185 8.92053 23.8626C8.9245 15.5538 15.6859 8.79397 23.9956 8.79397ZM23.9956 8C15.2492 8 8.13054 15.1155 8.12657 23.8626C8.12577 26.5359 8.80064 29.1703 10.0805 31.5022L8.02812 38.9964C7.95348 39.2703 8.0297 39.5625 8.22978 39.7642C8.38064 39.9166 8.58469 40 8.79429 40C8.86178 40 8.92927 39.9913 8.99596 39.9738L16.6871 37.9571C18.9324 39.1227 21.4493 39.738 23.9892 39.7388C32.7419 39.7388 39.8606 32.6225 39.8646 23.8753C39.8661 19.6364 38.2171 15.6507 35.2214 12.6526C32.2242 9.65383 28.2377 8.00159 23.9956 8Z" fill="#CFD8DC"/>
<path d="M32.8578 15.0123C30.4918 12.6447 27.3469 11.3402 23.9995 11.3394C17.0889 11.3394 11.4684 16.9575 11.4652 23.8634C11.4644 26.2302 12.1266 28.5343 13.3811 30.5295L13.6796 31.0035L12.4132 35.6252L17.1556 34.3818L17.6137 34.6534C19.5367 35.7951 21.7423 36.3985 23.9908 36.3993H23.9956C30.9015 36.3993 36.522 30.7804 36.5244 23.8737C36.5252 20.5271 35.2238 17.3799 32.8578 15.0123Z" fill="#40C351"/>
<path fill-rule="evenodd" clip-rule="evenodd" d="M20.2274 17.5633C19.9456 16.9361 19.6486 16.9234 19.3795 16.9123C19.1595 16.9028 18.9086 16.9036 18.6577 16.9036C18.4068 16.9036 17.9987 16.998 17.6534 17.3752C17.308 17.7523 16.3346 18.663 16.3346 20.5161C16.3346 22.3692 17.6843 24.1604 17.8725 24.4113C18.0607 24.6622 20.4783 28.5868 24.3068 30.0969C27.4882 31.3514 28.1361 31.1021 28.8269 31.0393C29.5176 30.9766 31.0555 30.1286 31.3691 29.2489C31.6827 28.3692 31.6827 27.6157 31.5891 27.4585C31.4946 27.3013 31.2437 27.2076 30.8673 27.0187C30.491 26.8297 28.6387 25.919 28.2933 25.7936C27.9479 25.6681 27.697 25.6054 27.4454 25.9826C27.1945 26.3589 26.4727 27.2076 26.2528 27.4585C26.0329 27.7102 25.813 27.742 25.4366 27.553C25.0603 27.3641 23.8471 26.9671 22.4076 25.684C21.2881 24.686 20.5323 23.453 20.3124 23.0758C20.0924 22.6995 20.2885 22.4955 20.4775 22.3073C20.6466 22.1382 20.8538 21.8674 21.0428 21.6475C21.231 21.4276 21.2937 21.2704 21.4192 21.0195C21.5446 20.7678 21.4819 20.5479 21.3874 20.3597C21.2945 20.1707 20.5625 18.3081 20.2274 17.5633Z" fill="white"/>
</svg>
