<svg width="48" height="48" viewBox="0 0 48 48" fill="none" xmlns="http://www.w3.org/2000/svg">
<g clip-path="url(#clip0_6_324)">
<path d="M17.1783 31.2495C18.5545 31.2495 19.1573 29.4433 18.0381 28.5835C17.9244 28.4699 17.7811 28.3266 17.6082 28.1536C12.1948 23.7705 10.5616 24.8033 5.14824 26.6934C4.97529 26.7799 4.97529 27.0368 5.14824 27.1233C6.77893 27.4668 8.32808 28.4971 10.3887 30.6466L16.5779 31.2495C16.7492 31.2495 16.9493 31.2495 17.1783 31.2495ZM42.6195 9.33151L21.8208 30.1302C20.3606 31.6794 18.211 32.4527 16.0615 32.2798L11.078 31.8498L16.2345 36.8358C18.9844 39.4128 23.3675 38.8989 25.4306 35.803L42.9629 9.58847C43.0494 9.41799 42.79 9.15856 42.6195 9.33151Z" fill="#EB1F48"/>
</g>
<defs>
<clipPath id="clip0_6_324">
<rect width="38" height="29.2536" fill="white" transform="translate(5 9.25)"/>
</clipPath>
</defs>
</svg>
