<svg width="48" height="48" viewBox="0 0 48 48" fill="none" xmlns="http://www.w3.org/2000/svg">
<g clip-path="url(#clip0_9_273)">
<path d="M16.8238 30.5527C18.047 30.5527 18.5828 28.9475 17.588 28.1833C17.487 28.0822 17.3596 27.9549 17.2059 27.8012C12.3946 23.9056 10.9431 24.8235 6.13177 26.5034C5.97805 26.5802 5.97805 26.8086 6.13177 26.8855C7.58109 27.1907 8.95795 28.1064 10.7894 30.0169L16.2902 30.5527C16.4425 30.5527 16.6203 30.5527 16.8238 30.5527ZM39.4355 11.0724L20.95 29.5579C19.6522 30.9348 17.7417 31.6221 15.8313 31.4684L11.402 31.0863L15.985 35.5177C18.4291 37.8081 22.3247 37.3513 24.1583 34.5998L39.7407 11.3008C39.8176 11.1493 39.587 10.9187 39.4355 11.0724Z" fill="#EB1F48"/>
</g>
<defs>
<clipPath id="clip0_9_273">
<rect width="33.7736" height="26" fill="white" transform="translate(6 11)"/>
</clipPath>
</defs>
</svg>
